<?xml version="1.0" encoding="utf-8" standalone="no"?>
<!DOCTYPE svg PUBLIC "-//W3C//DTD SVG 1.1//EN"
  "http://www.w3.org/Graphics/SVG/1.1/DTD/svg11.dtd">
<!-- Created with matplotlib (https://matplotlib.org/) -->
<svg height="288pt" version="1.1" viewBox="0 0 360 288" width="360pt" xmlns="http://www.w3.org/2000/svg" xmlns:xlink="http://www.w3.org/1999/xlink">
 <defs>
  <style type="text/css">
*{stroke-linecap:butt;stroke-linejoin:round;}
  </style>
 </defs>
 <g id="figure_1">
  <g id="patch_1">
   <path d="M 0 288 
L 360 288 
L 360 0 
L 0 0 
z
" style="fill:#ffffff;"/>
  </g>
  <g id="axes_1">
   <g id="patch_2">
    <path d="M 47.8 246.2 
L 314.45 246.2 
L 314.45 26.8 
L 47.8 26.8 
z
" style="fill:#ffffff;"/>
   </g>
   <g id="matplotlib.axis_1">
    <g id="xtick_1">
     <g id="line2d_1">
      <defs>
       <path d="M 0 0 
L 0 3.5 
" id="m21a43b0620" style="stroke:#000000;stroke-width:0.8;"/>
      </defs>
      <g>
       <use style="stroke:#000000;stroke-width:0.8;" x="59.920455" xlink:href="#m21a43b0620" y="246.2"/>
      </g>
     </g>
     <g id="text_1">
      <!-- 1 -->
      <defs>
       <path d="M 12.40625 8.296875 
L 28.515625 8.296875 
L 28.515625 63.921875 
L 10.984375 60.40625 
L 10.984375 69.390625 
L 28.421875 72.90625 
L 38.28125 72.90625 
L 38.28125 8.296875 
L 54.390625 8.296875 
L 54.390625 0 
L 12.40625 0 
z
" id="DejaVuSans-49"/>
      </defs>
      <g transform="translate(56.739205 260.798437)scale(0.1 -0.1)">
       <use xlink:href="#DejaVuSans-49"/>
      </g>
     </g>
    </g>
    <g id="xtick_2">
     <g id="line2d_2">
      <g>
       <use style="stroke:#000000;stroke-width:0.8;" x="81.957645" xlink:href="#m21a43b0620" y="246.2"/>
      </g>
     </g>
     <g id="text_2">
      <!-- 2 -->
      <defs>
       <path d="M 19.1875 8.296875 
L 53.609375 8.296875 
L 53.609375 0 
L 7.328125 0 
L 7.328125 8.296875 
Q 12.9375 14.109375 22.625 23.890625 
Q 32.328125 33.6875 34.8125 36.53125 
Q 39.546875 41.84375 41.421875 45.53125 
Q 43.3125 49.21875 43.3125 52.78125 
Q 43.3125 58.59375 39.234375 62.25 
Q 35.15625 65.921875 28.609375 65.921875 
Q 23.96875 65.921875 18.8125 64.3125 
Q 13.671875 62.703125 7.8125 59.421875 
L 7.8125 69.390625 
Q 13.765625 71.78125 18.9375 73 
Q 24.125 74.21875 28.421875 74.21875 
Q 39.75 74.21875 46.484375 68.546875 
Q 53.21875 62.890625 53.21875 53.421875 
Q 53.21875 48.921875 51.53125 44.890625 
Q 49.859375 40.875 45.40625 35.40625 
Q 44.1875 33.984375 37.640625 27.21875 
Q 31.109375 20.453125 19.1875 8.296875 
z
" id="DejaVuSans-50"/>
      </defs>
      <g transform="translate(78.776395 260.798437)scale(0.1 -0.1)">
       <use xlink:href="#DejaVuSans-50"/>
      </g>
     </g>
    </g>
    <g id="xtick_3">
     <g id="line2d_3">
      <g>
       <use style="stroke:#000000;stroke-width:0.8;" x="103.994835" xlink:href="#m21a43b0620" y="246.2"/>
      </g>
     </g>
     <g id="text_3">
      <!-- 3 -->
      <defs>
       <path d="M 40.578125 39.3125 
Q 47.65625 37.796875 51.625 33 
Q 55.609375 28.21875 55.609375 21.1875 
Q 55.609375 10.40625 48.1875 4.484375 
Q 40.765625 -1.421875 27.09375 -1.421875 
Q 22.515625 -1.421875 17.65625 -0.515625 
Q 12.796875 0.390625 7.625 2.203125 
L 7.625 11.71875 
Q 11.71875 9.328125 16.59375 8.109375 
Q 21.484375 6.890625 26.8125 6.890625 
Q 36.078125 6.890625 40.9375 10.546875 
Q 45.796875 14.203125 45.796875 21.1875 
Q 45.796875 27.640625 41.28125 31.265625 
Q 36.765625 34.90625 28.71875 34.90625 
L 20.21875 34.90625 
L 20.21875 43.015625 
L 29.109375 43.015625 
Q 36.375 43.015625 40.234375 45.921875 
Q 44.09375 48.828125 44.09375 54.296875 
Q 44.09375 59.90625 40.109375 62.90625 
Q 36.140625 65.921875 28.71875 65.921875 
Q 24.65625 65.921875 20.015625 65.03125 
Q 15.375 64.15625 9.8125 62.3125 
L 9.8125 71.09375 
Q 15.4375 72.65625 20.34375 73.4375 
Q 25.25 74.21875 29.59375 74.21875 
Q 40.828125 74.21875 47.359375 69.109375 
Q 53.90625 64.015625 53.90625 55.328125 
Q 53.90625 49.265625 50.4375 45.09375 
Q 46.96875 40.921875 40.578125 39.3125 
z
" id="DejaVuSans-51"/>
      </defs>
      <g transform="translate(100.813585 260.798437)scale(0.1 -0.1)">
       <use xlink:href="#DejaVuSans-51"/>
      </g>
     </g>
    </g>
    <g id="xtick_4">
     <g id="line2d_4">
      <g>
       <use style="stroke:#000000;stroke-width:0.8;" x="126.032025" xlink:href="#m21a43b0620" y="246.2"/>
      </g>
     </g>
     <g id="text_4">
      <!-- 4 -->
      <defs>
       <path d="M 37.796875 64.3125 
L 12.890625 25.390625 
L 37.796875 25.390625 
z
M 35.203125 72.90625 
L 47.609375 72.90625 
L 47.609375 25.390625 
L 58.015625 25.390625 
L 58.015625 17.1875 
L 47.609375 17.1875 
L 47.609375 0 
L 37.796875 0 
L 37.796875 17.1875 
L 4.890625 17.1875 
L 4.890625 26.703125 
z
" id="DejaVuSans-52"/>
      </defs>
      <g transform="translate(122.850775 260.798437)scale(0.1 -0.1)">
       <use xlink:href="#DejaVuSans-52"/>
      </g>
     </g>
    </g>
    <g id="xtick_5">
     <g id="line2d_5">
      <g>
       <use style="stroke:#000000;stroke-width:0.8;" x="148.069215" xlink:href="#m21a43b0620" y="246.2"/>
      </g>
     </g>
     <g id="text_5">
      <!-- 5 -->
      <defs>
       <path d="M 10.796875 72.90625 
L 49.515625 72.90625 
L 49.515625 64.59375 
L 19.828125 64.59375 
L 19.828125 46.734375 
Q 21.96875 47.46875 24.109375 47.828125 
Q 26.265625 48.1875 28.421875 48.1875 
Q 40.625 48.1875 47.75 41.5 
Q 54.890625 34.8125 54.890625 23.390625 
Q 54.890625 11.625 47.5625 5.09375 
Q 40.234375 -1.421875 26.90625 -1.421875 
Q 22.3125 -1.421875 17.546875 -0.640625 
Q 12.796875 0.140625 7.71875 1.703125 
L 7.71875 11.625 
Q 12.109375 9.234375 16.796875 8.0625 
Q 21.484375 6.890625 26.703125 6.890625 
Q 35.15625 6.890625 40.078125 11.328125 
Q 45.015625 15.765625 45.015625 23.390625 
Q 45.015625 31 40.078125 35.4375 
Q 35.15625 39.890625 26.703125 39.890625 
Q 22.75 39.890625 18.8125 39.015625 
Q 14.890625 38.140625 10.796875 36.28125 
z
" id="DejaVuSans-53"/>
      </defs>
      <g transform="translate(144.887965 260.798437)scale(0.1 -0.1)">
       <use xlink:href="#DejaVuSans-53"/>
      </g>
     </g>
    </g>
    <g id="xtick_6">
     <g id="line2d_6">
      <g>
       <use style="stroke:#000000;stroke-width:0.8;" x="170.106405" xlink:href="#m21a43b0620" y="246.2"/>
      </g>
     </g>
     <g id="text_6">
      <!-- 6 -->
      <defs>
       <path d="M 33.015625 40.375 
Q 26.375 40.375 22.484375 35.828125 
Q 18.609375 31.296875 18.609375 23.390625 
Q 18.609375 15.53125 22.484375 10.953125 
Q 26.375 6.390625 33.015625 6.390625 
Q 39.65625 6.390625 43.53125 10.953125 
Q 47.40625 15.53125 47.40625 23.390625 
Q 47.40625 31.296875 43.53125 35.828125 
Q 39.65625 40.375 33.015625 40.375 
z
M 52.59375 71.296875 
L 52.59375 62.3125 
Q 48.875 64.0625 45.09375 64.984375 
Q 41.3125 65.921875 37.59375 65.921875 
Q 27.828125 65.921875 22.671875 59.328125 
Q 17.53125 52.734375 16.796875 39.40625 
Q 19.671875 43.65625 24.015625 45.921875 
Q 28.375 48.1875 33.59375 48.1875 
Q 44.578125 48.1875 50.953125 41.515625 
Q 57.328125 34.859375 57.328125 23.390625 
Q 57.328125 12.15625 50.6875 5.359375 
Q 44.046875 -1.421875 33.015625 -1.421875 
Q 20.359375 -1.421875 13.671875 8.265625 
Q 6.984375 17.96875 6.984375 36.375 
Q 6.984375 53.65625 15.1875 63.9375 
Q 23.390625 74.21875 37.203125 74.21875 
Q 40.921875 74.21875 44.703125 73.484375 
Q 48.484375 72.75 52.59375 71.296875 
z
" id="DejaVuSans-54"/>
      </defs>
      <g transform="translate(166.925155 260.798437)scale(0.1 -0.1)">
       <use xlink:href="#DejaVuSans-54"/>
      </g>
     </g>
    </g>
    <g id="xtick_7">
     <g id="line2d_7">
      <g>
       <use style="stroke:#000000;stroke-width:0.8;" x="192.143595" xlink:href="#m21a43b0620" y="246.2"/>
      </g>
     </g>
     <g id="text_7">
      <!-- 7 -->
      <defs>
       <path d="M 8.203125 72.90625 
L 55.078125 72.90625 
L 55.078125 68.703125 
L 28.609375 0 
L 18.3125 0 
L 43.21875 64.59375 
L 8.203125 64.59375 
z
" id="DejaVuSans-55"/>
      </defs>
      <g transform="translate(188.962345 260.798437)scale(0.1 -0.1)">
       <use xlink:href="#DejaVuSans-55"/>
      </g>
     </g>
    </g>
    <g id="xtick_8">
     <g id="line2d_8">
      <g>
       <use style="stroke:#000000;stroke-width:0.8;" x="214.180785" xlink:href="#m21a43b0620" y="246.2"/>
      </g>
     </g>
     <g id="text_8">
      <!-- 8 -->
      <defs>
       <path d="M 31.78125 34.625 
Q 24.75 34.625 20.71875 30.859375 
Q 16.703125 27.09375 16.703125 20.515625 
Q 16.703125 13.921875 20.71875 10.15625 
Q 24.75 6.390625 31.78125 6.390625 
Q 38.8125 6.390625 42.859375 10.171875 
Q 46.921875 13.96875 46.921875 20.515625 
Q 46.921875 27.09375 42.890625 30.859375 
Q 38.875 34.625 31.78125 34.625 
z
M 21.921875 38.8125 
Q 15.578125 40.375 12.03125 44.71875 
Q 8.5 49.078125 8.5 55.328125 
Q 8.5 64.0625 14.71875 69.140625 
Q 20.953125 74.21875 31.78125 74.21875 
Q 42.671875 74.21875 48.875 69.140625 
Q 55.078125 64.0625 55.078125 55.328125 
Q 55.078125 49.078125 51.53125 44.71875 
Q 48 40.375 41.703125 38.8125 
Q 48.828125 37.15625 52.796875 32.3125 
Q 56.78125 27.484375 56.78125 20.515625 
Q 56.78125 9.90625 50.3125 4.234375 
Q 43.84375 -1.421875 31.78125 -1.421875 
Q 19.734375 -1.421875 13.25 4.234375 
Q 6.78125 9.90625 6.78125 20.515625 
Q 6.78125 27.484375 10.78125 32.3125 
Q 14.796875 37.15625 21.921875 38.8125 
z
M 18.3125 54.390625 
Q 18.3125 48.734375 21.84375 45.5625 
Q 25.390625 42.390625 31.78125 42.390625 
Q 38.140625 42.390625 41.71875 45.5625 
Q 45.3125 48.734375 45.3125 54.390625 
Q 45.3125 60.0625 41.71875 63.234375 
Q 38.140625 66.40625 31.78125 66.40625 
Q 25.390625 66.40625 21.84375 63.234375 
Q 18.3125 60.0625 18.3125 54.390625 
z
" id="DejaVuSans-56"/>
      </defs>
      <g transform="translate(210.999535 260.798437)scale(0.1 -0.1)">
       <use xlink:href="#DejaVuSans-56"/>
      </g>
     </g>
    </g>
    <g id="xtick_9">
     <g id="line2d_9">
      <g>
       <use style="stroke:#000000;stroke-width:0.8;" x="236.217975" xlink:href="#m21a43b0620" y="246.2"/>
      </g>
     </g>
     <g id="text_9">
      <!-- 9 -->
      <defs>
       <path d="M 10.984375 1.515625 
L 10.984375 10.5 
Q 14.703125 8.734375 18.5 7.8125 
Q 22.3125 6.890625 25.984375 6.890625 
Q 35.75 6.890625 40.890625 13.453125 
Q 46.046875 20.015625 46.78125 33.40625 
Q 43.953125 29.203125 39.59375 26.953125 
Q 35.25 24.703125 29.984375 24.703125 
Q 19.046875 24.703125 12.671875 31.3125 
Q 6.296875 37.9375 6.296875 49.421875 
Q 6.296875 60.640625 12.9375 67.421875 
Q 19.578125 74.21875 30.609375 74.21875 
Q 43.265625 74.21875 49.921875 64.515625 
Q 56.59375 54.828125 56.59375 36.375 
Q 56.59375 19.140625 48.40625 8.859375 
Q 40.234375 -1.421875 26.421875 -1.421875 
Q 22.703125 -1.421875 18.890625 -0.6875 
Q 15.09375 0.046875 10.984375 1.515625 
z
M 30.609375 32.421875 
Q 37.25 32.421875 41.125 36.953125 
Q 45.015625 41.5 45.015625 49.421875 
Q 45.015625 57.28125 41.125 61.84375 
Q 37.25 66.40625 30.609375 66.40625 
Q 23.96875 66.40625 20.09375 61.84375 
Q 16.21875 57.28125 16.21875 49.421875 
Q 16.21875 41.5 20.09375 36.953125 
Q 23.96875 32.421875 30.609375 32.421875 
z
" id="DejaVuSans-57"/>
      </defs>
      <g transform="translate(233.036725 260.798437)scale(0.1 -0.1)">
       <use xlink:href="#DejaVuSans-57"/>
      </g>
     </g>
    </g>
    <g id="xtick_10">
     <g id="line2d_10">
      <g>
       <use style="stroke:#000000;stroke-width:0.8;" x="258.255165" xlink:href="#m21a43b0620" y="246.2"/>
      </g>
     </g>
     <g id="text_10">
      <!-- 10 -->
      <defs>
       <path d="M 31.78125 66.40625 
Q 24.171875 66.40625 20.328125 58.90625 
Q 16.5 51.421875 16.5 36.375 
Q 16.5 21.390625 20.328125 13.890625 
Q 24.171875 6.390625 31.78125 6.390625 
Q 39.453125 6.390625 43.28125 13.890625 
Q 47.125 21.390625 47.125 36.375 
Q 47.125 51.421875 43.28125 58.90625 
Q 39.453125 66.40625 31.78125 66.40625 
z
M 31.78125 74.21875 
Q 44.046875 74.21875 50.515625 64.515625 
Q 56.984375 54.828125 56.984375 36.375 
Q 56.984375 17.96875 50.515625 8.265625 
Q 44.046875 -1.421875 31.78125 -1.421875 
Q 19.53125 -1.421875 13.0625 8.265625 
Q 6.59375 17.96875 6.59375 36.375 
Q 6.59375 54.828125 13.0625 64.515625 
Q 19.53125 74.21875 31.78125 74.21875 
z
" id="DejaVuSans-48"/>
      </defs>
      <g transform="translate(251.892665 260.798437)scale(0.1 -0.1)">
       <use xlink:href="#DejaVuSans-49"/>
       <use x="63.623047" xlink:href="#DejaVuSans-48"/>
      </g>
     </g>
    </g>
    <g id="xtick_11">
     <g id="line2d_11">
      <g>
       <use style="stroke:#000000;stroke-width:0.8;" x="280.292355" xlink:href="#m21a43b0620" y="246.2"/>
      </g>
     </g>
     <g id="text_11">
      <!-- 11 -->
      <g transform="translate(273.929855 260.798437)scale(0.1 -0.1)">
       <use xlink:href="#DejaVuSans-49"/>
       <use x="63.623047" xlink:href="#DejaVuSans-49"/>
      </g>
     </g>
    </g>
    <g id="xtick_12">
     <g id="line2d_12">
      <g>
       <use style="stroke:#000000;stroke-width:0.8;" x="302.329545" xlink:href="#m21a43b0620" y="246.2"/>
      </g>
     </g>
     <g id="text_12">
      <!-- 12 -->
      <g transform="translate(295.967045 260.798437)scale(0.1 -0.1)">
       <use xlink:href="#DejaVuSans-49"/>
       <use x="63.623047" xlink:href="#DejaVuSans-50"/>
      </g>
     </g>
    </g>
    <g id="text_13">
     <!-- Month -->
     <defs>
      <path d="M 9.8125 72.90625 
L 24.515625 72.90625 
L 43.109375 23.296875 
L 61.8125 72.90625 
L 76.515625 72.90625 
L 76.515625 0 
L 66.890625 0 
L 66.890625 64.015625 
L 48.09375 14.015625 
L 38.1875 14.015625 
L 19.390625 64.015625 
L 19.390625 0 
L 9.8125 0 
z
" id="DejaVuSans-77"/>
      <path d="M 30.609375 48.390625 
Q 23.390625 48.390625 19.1875 42.75 
Q 14.984375 37.109375 14.984375 27.296875 
Q 14.984375 17.484375 19.15625 11.84375 
Q 23.34375 6.203125 30.609375 6.203125 
Q 37.796875 6.203125 41.984375 11.859375 
Q 46.1875 17.53125 46.1875 27.296875 
Q 46.1875 37.015625 41.984375 42.703125 
Q 37.796875 48.390625 30.609375 48.390625 
z
M 30.609375 56 
Q 42.328125 56 49.015625 48.375 
Q 55.71875 40.765625 55.71875 27.296875 
Q 55.71875 13.875 49.015625 6.21875 
Q 42.328125 -1.421875 30.609375 -1.421875 
Q 18.84375 -1.421875 12.171875 6.21875 
Q 5.515625 13.875 5.515625 27.296875 
Q 5.515625 40.765625 12.171875 48.375 
Q 18.84375 56 30.609375 56 
z
" id="DejaVuSans-111"/>
      <path d="M 54.890625 33.015625 
L 54.890625 0 
L 45.90625 0 
L 45.90625 32.71875 
Q 45.90625 40.484375 42.875 44.328125 
Q 39.84375 48.1875 33.796875 48.1875 
Q 26.515625 48.1875 22.3125 43.546875 
Q 18.109375 38.921875 18.109375 30.90625 
L 18.109375 0 
L 9.078125 0 
L 9.078125 54.6875 
L 18.109375 54.6875 
L 18.109375 46.1875 
Q 21.34375 51.125 25.703125 53.5625 
Q 30.078125 56 35.796875 56 
Q 45.21875 56 50.046875 50.171875 
Q 54.890625 44.34375 54.890625 33.015625 
z
" id="DejaVuSans-110"/>
      <path d="M 18.3125 70.21875 
L 18.3125 54.6875 
L 36.8125 54.6875 
L 36.8125 47.703125 
L 18.3125 47.703125 
L 18.3125 18.015625 
Q 18.3125 11.328125 20.140625 9.421875 
Q 21.96875 7.515625 27.59375 7.515625 
L 36.8125 7.515625 
L 36.8125 0 
L 27.59375 0 
Q 17.1875 0 13.234375 3.875 
Q 9.28125 7.765625 9.28125 18.015625 
L 9.28125 47.703125 
L 2.6875 47.703125 
L 2.6875 54.6875 
L 9.28125 54.6875 
L 9.28125 70.21875 
z
" id="DejaVuSans-116"/>
      <path d="M 54.890625 33.015625 
L 54.890625 0 
L 45.90625 0 
L 45.90625 32.71875 
Q 45.90625 40.484375 42.875 44.328125 
Q 39.84375 48.1875 33.796875 48.1875 
Q 26.515625 48.1875 22.3125 43.546875 
Q 18.109375 38.921875 18.109375 30.90625 
L 18.109375 0 
L 9.078125 0 
L 9.078125 75.984375 
L 18.109375 75.984375 
L 18.109375 46.1875 
Q 21.34375 51.125 25.703125 53.5625 
Q 30.078125 56 35.796875 56 
Q 45.21875 56 50.046875 50.171875 
Q 54.890625 44.34375 54.890625 33.015625 
z
" id="DejaVuSans-104"/>
     </defs>
     <g style="fill:#7f7f7f;" transform="translate(165.453906 274.476562)scale(0.1 -0.1)">
      <use xlink:href="#DejaVuSans-77"/>
      <use x="86.279297" xlink:href="#DejaVuSans-111"/>
      <use x="147.460938" xlink:href="#DejaVuSans-110"/>
      <use x="210.839844" xlink:href="#DejaVuSans-116"/>
      <use x="250.048828" xlink:href="#DejaVuSans-104"/>
     </g>
    </g>
   </g>
   <g id="matplotlib.axis_2">
    <g id="ytick_1">
     <g id="line2d_13">
      <defs>
       <path d="M 0 0 
L -3.5 0 
" id="m8c7a0997ec" style="stroke:#000000;stroke-width:0.8;"/>
      </defs>
      <g>
       <use style="stroke:#000000;stroke-width:0.8;" x="47.8" xlink:href="#m8c7a0997ec" y="236.227273"/>
      </g>
     </g>
     <g id="text_14">
      <!-- 0.0 -->
      <defs>
       <path d="M 10.6875 12.40625 
L 21 12.40625 
L 21 0 
L 10.6875 0 
z
" id="DejaVuSans-46"/>
      </defs>
      <g style="fill:#d92523;" transform="translate(24.896875 240.026491)scale(0.1 -0.1)">
       <use xlink:href="#DejaVuSans-48"/>
       <use x="63.623047" xlink:href="#DejaVuSans-46"/>
       <use x="95.410156" xlink:href="#DejaVuSans-48"/>
      </g>
     </g>
    </g>
    <g id="ytick_2">
     <g id="line2d_14">
      <g>
       <use style="stroke:#000000;stroke-width:0.8;" x="47.8" xlink:href="#m8c7a0997ec" y="158.28179"/>
      </g>
     </g>
     <g id="text_15">
      <!-- 1.5 -->
      <g style="fill:#d92523;" transform="translate(24.896875 162.081009)scale(0.1 -0.1)">
       <use xlink:href="#DejaVuSans-49"/>
       <use x="63.623047" xlink:href="#DejaVuSans-46"/>
       <use x="95.410156" xlink:href="#DejaVuSans-53"/>
      </g>
     </g>
    </g>
    <g id="ytick_3">
     <g id="line2d_15">
      <g>
       <use style="stroke:#000000;stroke-width:0.8;" x="47.8" xlink:href="#m8c7a0997ec" y="80.336307"/>
      </g>
     </g>
     <g id="text_16">
      <!-- 3.0 -->
      <g style="fill:#d92523;" transform="translate(24.896875 84.135526)scale(0.1 -0.1)">
       <use xlink:href="#DejaVuSans-51"/>
       <use x="63.623047" xlink:href="#DejaVuSans-46"/>
       <use x="95.410156" xlink:href="#DejaVuSans-48"/>
      </g>
     </g>
    </g>
    <g id="text_17">
     <!-- Acres Burned -->
     <defs>
      <path d="M 34.1875 63.1875 
L 20.796875 26.90625 
L 47.609375 26.90625 
z
M 28.609375 72.90625 
L 39.796875 72.90625 
L 67.578125 0 
L 57.328125 0 
L 50.6875 18.703125 
L 17.828125 18.703125 
L 11.1875 0 
L 0.78125 0 
z
" id="DejaVuSans-65"/>
      <path d="M 48.78125 52.59375 
L 48.78125 44.1875 
Q 44.96875 46.296875 41.140625 47.34375 
Q 37.3125 48.390625 33.40625 48.390625 
Q 24.65625 48.390625 19.8125 42.84375 
Q 14.984375 37.3125 14.984375 27.296875 
Q 14.984375 17.28125 19.8125 11.734375 
Q 24.65625 6.203125 33.40625 6.203125 
Q 37.3125 6.203125 41.140625 7.25 
Q 44.96875 8.296875 48.78125 10.40625 
L 48.78125 2.09375 
Q 45.015625 0.34375 40.984375 -0.53125 
Q 36.96875 -1.421875 32.421875 -1.421875 
Q 20.0625 -1.421875 12.78125 6.34375 
Q 5.515625 14.109375 5.515625 27.296875 
Q 5.515625 40.671875 12.859375 48.328125 
Q 20.21875 56 33.015625 56 
Q 37.15625 56 41.109375 55.140625 
Q 45.0625 54.296875 48.78125 52.59375 
z
" id="DejaVuSans-99"/>
      <path d="M 41.109375 46.296875 
Q 39.59375 47.171875 37.8125 47.578125 
Q 36.03125 48 33.890625 48 
Q 26.265625 48 22.1875 43.046875 
Q 18.109375 38.09375 18.109375 28.8125 
L 18.109375 0 
L 9.078125 0 
L 9.078125 54.6875 
L 18.109375 54.6875 
L 18.109375 46.1875 
Q 20.953125 51.171875 25.484375 53.578125 
Q 30.03125 56 36.53125 56 
Q 37.453125 56 38.578125 55.875 
Q 39.703125 55.765625 41.0625 55.515625 
z
" id="DejaVuSans-114"/>
      <path d="M 56.203125 29.59375 
L 56.203125 25.203125 
L 14.890625 25.203125 
Q 15.484375 15.921875 20.484375 11.0625 
Q 25.484375 6.203125 34.421875 6.203125 
Q 39.59375 6.203125 44.453125 7.46875 
Q 49.3125 8.734375 54.109375 11.28125 
L 54.109375 2.78125 
Q 49.265625 0.734375 44.1875 -0.34375 
Q 39.109375 -1.421875 33.890625 -1.421875 
Q 20.796875 -1.421875 13.15625 6.1875 
Q 5.515625 13.8125 5.515625 26.8125 
Q 5.515625 40.234375 12.765625 48.109375 
Q 20.015625 56 32.328125 56 
Q 43.359375 56 49.78125 48.890625 
Q 56.203125 41.796875 56.203125 29.59375 
z
M 47.21875 32.234375 
Q 47.125 39.59375 43.09375 43.984375 
Q 39.0625 48.390625 32.421875 48.390625 
Q 24.90625 48.390625 20.390625 44.140625 
Q 15.875 39.890625 15.1875 32.171875 
z
" id="DejaVuSans-101"/>
      <path d="M 44.28125 53.078125 
L 44.28125 44.578125 
Q 40.484375 46.53125 36.375 47.5 
Q 32.28125 48.484375 27.875 48.484375 
Q 21.1875 48.484375 17.84375 46.4375 
Q 14.5 44.390625 14.5 40.28125 
Q 14.5 37.15625 16.890625 35.375 
Q 19.28125 33.59375 26.515625 31.984375 
L 29.59375 31.296875 
Q 39.15625 29.25 43.1875 25.515625 
Q 47.21875 21.78125 47.21875 15.09375 
Q 47.21875 7.46875 41.1875 3.015625 
Q 35.15625 -1.421875 24.609375 -1.421875 
Q 20.21875 -1.421875 15.453125 -0.5625 
Q 10.6875 0.296875 5.421875 2 
L 5.421875 11.28125 
Q 10.40625 8.6875 15.234375 7.390625 
Q 20.0625 6.109375 24.8125 6.109375 
Q 31.15625 6.109375 34.5625 8.28125 
Q 37.984375 10.453125 37.984375 14.40625 
Q 37.984375 18.0625 35.515625 20.015625 
Q 33.0625 21.96875 24.703125 23.78125 
L 21.578125 24.515625 
Q 13.234375 26.265625 9.515625 29.90625 
Q 5.8125 33.546875 5.8125 39.890625 
Q 5.8125 47.609375 11.28125 51.796875 
Q 16.75 56 26.8125 56 
Q 31.78125 56 36.171875 55.265625 
Q 40.578125 54.546875 44.28125 53.078125 
z
" id="DejaVuSans-115"/>
      <path id="DejaVuSans-32"/>
      <path d="M 19.671875 34.8125 
L 19.671875 8.109375 
L 35.5 8.109375 
Q 43.453125 8.109375 47.28125 11.40625 
Q 51.125 14.703125 51.125 21.484375 
Q 51.125 28.328125 47.28125 31.5625 
Q 43.453125 34.8125 35.5 34.8125 
z
M 19.671875 64.796875 
L 19.671875 42.828125 
L 34.28125 42.828125 
Q 41.5 42.828125 45.03125 45.53125 
Q 48.578125 48.25 48.578125 53.8125 
Q 48.578125 59.328125 45.03125 62.0625 
Q 41.5 64.796875 34.28125 64.796875 
z
M 9.8125 72.90625 
L 35.015625 72.90625 
Q 46.296875 72.90625 52.390625 68.21875 
Q 58.5 63.53125 58.5 54.890625 
Q 58.5 48.1875 55.375 44.234375 
Q 52.25 40.28125 46.1875 39.3125 
Q 53.46875 37.75 57.5 32.78125 
Q 61.53125 27.828125 61.53125 20.40625 
Q 61.53125 10.640625 54.890625 5.3125 
Q 48.25 0 35.984375 0 
L 9.8125 0 
z
" id="DejaVuSans-66"/>
      <path d="M 8.5 21.578125 
L 8.5 54.6875 
L 17.484375 54.6875 
L 17.484375 21.921875 
Q 17.484375 14.15625 20.5 10.265625 
Q 23.53125 6.390625 29.59375 6.390625 
Q 36.859375 6.390625 41.078125 11.03125 
Q 45.3125 15.671875 45.3125 23.6875 
L 45.3125 54.6875 
L 54.296875 54.6875 
L 54.296875 0 
L 45.3125 0 
L 45.3125 8.40625 
Q 42.046875 3.421875 37.71875 1 
Q 33.40625 -1.421875 27.6875 -1.421875 
Q 18.265625 -1.421875 13.375 4.4375 
Q 8.5 10.296875 8.5 21.578125 
z
M 31.109375 56 
z
" id="DejaVuSans-117"/>
      <path d="M 45.40625 46.390625 
L 45.40625 75.984375 
L 54.390625 75.984375 
L 54.390625 0 
L 45.40625 0 
L 45.40625 8.203125 
Q 42.578125 3.328125 38.25 0.953125 
Q 33.9375 -1.421875 27.875 -1.421875 
Q 17.96875 -1.421875 11.734375 6.484375 
Q 5.515625 14.40625 5.515625 27.296875 
Q 5.515625 40.1875 11.734375 48.09375 
Q 17.96875 56 27.875 56 
Q 33.9375 56 38.25 53.625 
Q 42.578125 51.265625 45.40625 46.390625 
z
M 14.796875 27.296875 
Q 14.796875 17.390625 18.875 11.75 
Q 22.953125 6.109375 30.078125 6.109375 
Q 37.203125 6.109375 41.296875 11.75 
Q 45.40625 17.390625 45.40625 27.296875 
Q 45.40625 37.203125 41.296875 42.84375 
Q 37.203125 48.484375 30.078125 48.484375 
Q 22.953125 48.484375 18.875 42.84375 
Q 14.796875 37.203125 14.796875 27.296875 
z
" id="DejaVuSans-100"/>
     </defs>
     <g style="fill:#d92523;" transform="translate(18.817187 170.066406)rotate(-90)scale(0.1 -0.1)">
      <use xlink:href="#DejaVuSans-65"/>
      <use x="68.392578" xlink:href="#DejaVuSans-99"/>
      <use x="123.373047" xlink:href="#DejaVuSans-114"/>
      <use x="164.455078" xlink:href="#DejaVuSans-101"/>
      <use x="225.978516" xlink:href="#DejaVuSans-115"/>
      <use x="278.078125" xlink:href="#DejaVuSans-32"/>
      <use x="309.865234" xlink:href="#DejaVuSans-66"/>
      <use x="378.46875" xlink:href="#DejaVuSans-117"/>
      <use x="441.847656" xlink:href="#DejaVuSans-114"/>
      <use x="482.945312" xlink:href="#DejaVuSans-110"/>
      <use x="546.324219" xlink:href="#DejaVuSans-101"/>
      <use x="607.847656" xlink:href="#DejaVuSans-100"/>
     </g>
    </g>
    <g id="text_18">
     <!-- 1e5 -->
     <g transform="translate(47.8 23.8)scale(0.1 -0.1)">
      <use xlink:href="#DejaVuSans-49"/>
      <use x="63.623047" xlink:href="#DejaVuSans-101"/>
      <use x="125.146484" xlink:href="#DejaVuSans-53"/>
     </g>
    </g>
   </g>
   <g id="line2d_16">
    <path clip-path="url(#p0dec72a740)" d="M 59.920455 236.227273 
L 81.957645 236.227273 
L 103.994835 236.227273 
L 126.032025 236.227273 
L 148.069215 236.227273 
L 170.106405 236.227273 
L 192.143595 236.227273 
L 214.180785 236.227273 
L 236.217975 236.227273 
L 258.255165 236.227273 
L 280.292355 236.227273 
L 302.329545 236.227273 
" style="fill:none;stroke:#fee5d8;stroke-linecap:square;stroke-opacity:0.5;stroke-width:1.5;"/>
   </g>
   <g id="line2d_17">
    <path clip-path="url(#p0dec72a740)" d="M 59.920455 236.227273 
L 81.957645 236.227273 
L 103.994835 236.227273 
L 126.032025 236.227273 
L 148.069215 236.227273 
L 170.106405 236.227273 
L 192.143595 236.227273 
L 214.180785 236.227273 
L 236.217975 236.227273 
L 258.255165 236.227273 
L 280.292355 236.227273 
L 302.329545 236.227273 
" style="fill:none;stroke:#fedecf;stroke-linecap:square;stroke-opacity:0.5;stroke-width:1.5;"/>
   </g>
   <g id="line2d_18">
    <path clip-path="url(#p0dec72a740)" d="M 59.920455 236.227273 
L 81.957645 236.227273 
L 103.994835 236.227273 
L 126.032025 236.227273 
L 148.069215 236.227273 
L 170.106405 236.227273 
L 192.143595 236.227273 
L 214.180785 236.227273 
L 236.217975 236.227273 
L 258.255165 236.227273 
L 280.292355 236.227273 
L 302.329545 236.227273 
" style="fill:none;stroke:#fdd3c1;stroke-linecap:square;stroke-opacity:0.5;stroke-width:1.5;"/>
   </g>
   <g id="line2d_19">
    <path clip-path="url(#p0dec72a740)" d="M 59.920455 236.227273 
L 81.957645 236.227273 
L 103.994835 236.227273 
L 126.032025 236.227273 
L 148.069215 236.227273 
L 170.106405 236.227273 
L 192.143595 236.227273 
L 214.180785 236.227273 
L 236.217975 236.227273 
L 258.255165 236.227273 
L 280.292355 236.227273 
L 302.329545 236.227273 
" style="fill:none;stroke:#fdc9b3;stroke-linecap:square;stroke-opacity:0.5;stroke-width:1.5;"/>
   </g>
   <g id="line2d_20">
    <path clip-path="url(#p0dec72a740)" d="M 59.920455 236.227273 
L 81.957645 236.227273 
L 103.994835 236.227273 
L 126.032025 236.227273 
L 148.069215 236.227273 
L 170.106405 236.227273 
L 192.143595 236.227273 
L 214.180785 236.227273 
L 236.217975 236.227273 
L 258.255165 236.227273 
L 280.292355 236.227273 
L 302.329545 236.227273 
" style="fill:none;stroke:#fcbea5;stroke-linecap:square;stroke-opacity:0.5;stroke-width:1.5;"/>
   </g>
   <g id="line2d_21">
    <path clip-path="url(#p0dec72a740)" d="M 59.920455 236.227273 
L 81.957645 236.227273 
L 103.994835 236.227273 
L 126.032025 236.226649 
L 148.069215 236.226753 
L 170.106405 236.177751 
L 192.143595 235.706389 
L 214.180785 236.220517 
L 236.217975 236.226597 
L 258.255165 236.226233 
L 280.292355 236.227273 
L 302.329545 236.227273 
" style="fill:none;stroke:#fcb398;stroke-linecap:square;stroke-opacity:0.5;stroke-width:1.5;"/>
   </g>
   <g id="line2d_22">
    <path clip-path="url(#p0dec72a740)" d="M 59.920455 236.227273 
L 81.957645 236.227273 
L 103.994835 236.224934 
L 126.032025 236.227221 
L 148.069215 235.862956 
L 170.106405 235.845236 
L 192.143595 236.221557 
L 214.180785 236.227065 
L 236.217975 236.227273 
L 258.255165 236.226857 
L 280.292355 236.227273 
L 302.329545 236.227273 
" style="fill:none;stroke:#fca78b;stroke-linecap:square;stroke-opacity:0.5;stroke-width:1.5;"/>
   </g>
   <g id="line2d_23">
    <path clip-path="url(#p0dec72a740)" d="M 59.920455 236.198433 
L 81.957645 236.146469 
L 103.994835 234.186556 
L 126.032025 236.216412 
L 148.069215 222.237773 
L 170.106405 235.950566 
L 192.143595 236.224207 
L 214.180785 235.277429 
L 236.217975 236.223375 
L 258.255165 236.225038 
L 280.292355 235.796078 
L 302.329545 236.22561 
" style="fill:none;stroke:#fc9d7f;stroke-linecap:square;stroke-opacity:0.5;stroke-width:1.5;"/>
   </g>
   <g id="line2d_24">
    <path clip-path="url(#p0dec72a740)" d="M 59.920455 233.93765 
L 81.957645 178.822977 
L 103.994835 196.387107 
L 126.032025 217.355268 
L 148.069215 212.536601 
L 170.106405 209.412031 
L 192.143595 232.104622 
L 214.180785 228.631745 
L 236.217975 232.764222 
L 258.255165 235.534493 
L 280.292355 235.51589 
L 302.329545 236.210021 
" style="fill:none;stroke:#fc9272;stroke-linecap:square;stroke-opacity:0.5;stroke-width:1.5;"/>
   </g>
   <g id="line2d_25">
    <path clip-path="url(#p0dec72a740)" d="M 59.920455 236.22587 
L 81.957645 236.177777 
L 103.994835 236.024225 
L 126.032025 233.891974 
L 148.069215 226.633919 
L 170.106405 227.756007 
L 192.143595 233.937411 
L 214.180785 235.600227 
L 236.217975 235.878986 
L 258.255165 236.080865 
L 280.292355 236.217088 
L 302.329545 236.175621 
" style="fill:none;stroke:#fc8666;stroke-linecap:square;stroke-opacity:0.5;stroke-width:1.5;"/>
   </g>
   <g id="line2d_26">
    <path clip-path="url(#p0dec72a740)" d="M 59.920455 236.140753 
L 81.957645 236.049557 
L 103.994835 214.519045 
L 126.032025 226.811817 
L 148.069215 225.397943 
L 170.106405 148.827418 
L 192.143595 235.872631 
L 214.180785 233.467795 
L 236.217975 236.180277 
L 258.255165 236.222128 
L 280.292355 236.21145 
L 302.329545 236.22587 
" style="fill:none;stroke:#fb7b5b;stroke-linecap:square;stroke-opacity:0.5;stroke-width:1.5;"/>
   </g>
   <g id="line2d_27">
    <path clip-path="url(#p0dec72a740)" d="M 59.920455 236.008428 
L 81.957645 236.081141 
L 103.994835 235.975639 
L 126.032025 216.500695 
L 148.069215 233.668167 
L 170.106405 224.876922 
L 192.143595 234.055805 
L 214.180785 235.946258 
L 236.217975 236.215529 
L 258.255165 236.175829 
L 280.292355 236.218777 
L 302.329545 236.207262 
" style="fill:none;stroke:#fb7050;stroke-linecap:square;stroke-opacity:0.5;stroke-width:1.5;"/>
   </g>
   <g id="line2d_28">
    <path clip-path="url(#p0dec72a740)" d="M 59.920455 236.143559 
L 81.957645 236.178791 
L 103.994835 236.184065 
L 126.032025 236.206201 
L 148.069215 199.875562 
L 170.106405 226.521907 
L 192.143595 235.67558 
L 214.180785 236.100637 
L 236.217975 236.02595 
L 258.255165 236.071429 
L 280.292355 236.226779 
L 302.329545 236.047946 
" style="fill:none;stroke:#f96346;stroke-linecap:square;stroke-opacity:0.5;stroke-width:1.5;"/>
   </g>
   <g id="line2d_29">
    <path clip-path="url(#p0dec72a740)" d="M 59.920455 236.168476 
L 81.957645 235.724784 
L 103.994835 236.15642 
L 126.032025 228.640818 
L 148.069215 189.592394 
L 170.106405 225.813839 
L 192.143595 230.673964 
L 214.180785 233.278556 
L 236.217975 234.024183 
L 258.255165 236.222887 
L 280.292355 221.268287 
L 302.329545 234.877948 
" style="fill:none;stroke:#f6563d;stroke-linecap:square;stroke-opacity:0.5;stroke-width:1.5;"/>
   </g>
   <g id="line2d_30">
    <path clip-path="url(#p0dec72a740)" d="M 59.920455 211.674602 
L 81.957645 230.832853 
L 103.994835 158.96055 
L 126.032025 206.998226 
L 148.069215 184.146433 
L 170.106405 149.865974 
L 192.143595 234.172697 
L 214.180785 236.138316 
L 236.217975 236.212983 
L 258.255165 235.972547 
L 280.292355 235.852937 
L 302.329545 235.267177 
" style="fill:none;stroke:#f34935;stroke-linecap:square;stroke-opacity:0.5;stroke-width:1.5;"/>
   </g>
   <g id="line2d_31">
    <path clip-path="url(#p0dec72a740)" d="M 59.920455 236.188721 
L 81.957645 232.728575 
L 103.994835 228.338151 
L 126.032025 234.088116 
L 148.069215 235.048628 
L 170.106405 215.669328 
L 192.143595 232.019209 
L 214.180785 227.006966 
L 236.217975 233.366881 
L 258.255165 227.349568 
L 280.292355 222.548022 
L 302.329545 235.763159 
" style="fill:none;stroke:#ef3c2c;stroke-linecap:square;stroke-opacity:0.5;stroke-width:1.5;"/>
   </g>
   <g id="line2d_32">
    <path clip-path="url(#p0dec72a740)" d="M 59.920455 227.198847 
L 81.957645 225.003903 
L 103.994835 196.19611 
L 126.032025 196.420177 
L 148.069215 226.481687 
L 170.106405 169.252305 
L 192.143595 235.281534 
L 214.180785 235.775501 
L 236.217975 236.165114 
L 258.255165 235.837078 
L 280.292355 235.184232 
L 302.329545 230.003456 
" style="fill:none;stroke:#e53228;stroke-linecap:square;stroke-opacity:0.5;stroke-width:1.5;"/>
   </g>
   <g id="line2d_33">
    <path clip-path="url(#p0dec72a740)" d="M 59.920455 233.612477 
L 81.957645 233.756635 
L 103.994835 208.400673 
L 126.032025 228.874005 
L 148.069215 187.823892 
L 170.106405 143.90605 
L 192.143595 224.59419 
L 214.180785 234.13162 
L 236.217975 236.115353 
L 258.255165 235.717197 
L 280.292355 236.195991 
L 302.329545 236.214453 
" style="fill:none;stroke:#dc2924;stroke-linecap:square;stroke-opacity:0.5;stroke-width:1.5;"/>
   </g>
   <g id="line2d_34">
    <path clip-path="url(#p0dec72a740)" d="M 59.920455 232.467494 
L 81.957645 235.67864 
L 103.994835 232.936388 
L 126.032025 231.649758 
L 148.069215 232.233247 
L 170.106405 209.655652 
L 192.143595 234.671294 
L 214.180785 234.870954 
L 236.217975 234.827133 
L 258.255165 235.039186 
L 280.292355 233.731474 
L 302.329545 231.604716 
" style="fill:none;stroke:#d21f20;stroke-linecap:square;stroke-opacity:0.5;stroke-width:1.5;"/>
   </g>
   <g id="line2d_35">
    <path clip-path="url(#p0dec72a740)" d="M 59.920455 234.735266 
L 81.957645 195.892216 
L 103.994835 214.684461 
L 126.032025 133.251365 
L 148.069215 195.696261 
L 170.106405 36.772727 
L 192.143595 213.258875 
L 214.180785 194.067133 
L 236.217975 234.911553 
L 258.255165 236.01895 
L 280.292355 236.163259 
L 302.329545 236.226181 
" style="fill:none;stroke:#c8171c;stroke-linecap:square;stroke-opacity:0.5;stroke-width:1.5;"/>
   </g>
   <g id="line2d_36">
    <path clip-path="url(#p0dec72a740)" d="M 59.920455 235.495261 
L 81.957645 236.130646 
L 103.994835 235.635781 
L 126.032025 233.610742 
L 148.069215 81.063273 
L 170.106405 207.235585 
L 192.143595 235.435736 
L 214.180785 235.369031 
L 236.217975 236.201769 
L 258.255165 235.986099 
L 280.292355 236.221811 
L 302.329545 236.189521 
" style="fill:none;stroke:#bd151a;stroke-linecap:square;stroke-opacity:0.5;stroke-width:1.5;"/>
   </g>
   <g id="line2d_37">
    <path clip-path="url(#p0dec72a740)" d="M 59.920455 236.223765 
L 81.957645 236.207277 
L 103.994835 235.836631 
L 126.032025 236.010901 
L 148.069215 218.330242 
L 170.106405 107.978389 
L 192.143595 235.395122 
L 214.180785 236.189443 
L 236.217975 236.224571 
L 258.255165 236.226613 
L 280.292355 236.212723 
L 302.329545 236.187999 
" style="fill:none;stroke:#b21218;stroke-linecap:square;stroke-opacity:0.5;stroke-width:1.5;"/>
   </g>
   <g id="line2d_38">
    <path clip-path="url(#p0dec72a740)" d="M 59.920455 236.123829 
L 81.957645 236.175278 
L 103.994835 232.563347 
L 126.032025 235.37445 
L 148.069215 232.910287 
L 170.106405 233.391865 
L 192.143595 235.660718 
L 214.180785 233.806863 
L 236.217975 236.225761 
L 258.255165 236.119604 
L 280.292355 236.223531 
L 302.329545 235.878124 
" style="fill:none;stroke:#a81016;stroke-linecap:square;stroke-opacity:0.5;stroke-width:1.5;"/>
   </g>
   <g id="line2d_39">
    <path clip-path="url(#p0dec72a740)" d="M 59.920455 236.109939 
L 81.957645 235.791142 
L 103.994835 232.623588 
L 126.032025 235.688914 
L 148.069215 235.980253 
L 170.106405 220.313663 
L 192.143595 235.692769 
L 214.180785 235.974963 
L 236.217975 235.551184 
L 258.255165 236.149457 
L 280.292355 235.929677 
L 302.329545 235.968104 
" style="fill:none;stroke:#980c13;stroke-linecap:square;stroke-opacity:0.5;stroke-width:1.5;"/>
   </g>
   <g id="line2d_40">
    <path clip-path="url(#p0dec72a740)" d="M 59.920455 234.343512 
L 81.957645 231.123732 
L 103.994835 225.799888 
L 126.032025 225.882503 
L 148.069215 216.37011 
L 170.106405 201.931649 
L 192.143595 233.657945 
L 214.180785 233.134058 
L 236.217975 235.696044 
L 258.255165 235.689101 
L 280.292355 234.804538 
L 302.329545 235.619337 
" style="fill:none;stroke:#ff0000;stroke-dasharray:5.55,2.4;stroke-dashoffset:0;stroke-width:1.5;"/>
   </g>
   <g id="patch_3">
    <path d="M 47.8 246.2 
L 47.8 26.8 
" style="fill:none;stroke:#000000;stroke-linecap:square;stroke-linejoin:miter;stroke-width:0.8;"/>
   </g>
   <g id="patch_4">
    <path d="M 314.45 246.2 
L 314.45 26.8 
" style="fill:none;stroke:#000000;stroke-linecap:square;stroke-linejoin:miter;stroke-width:0.8;"/>
   </g>
   <g id="patch_5">
    <path d="M 47.8 246.2 
L 314.45 246.2 
" style="fill:none;stroke:#000000;stroke-linecap:square;stroke-linejoin:miter;stroke-width:0.8;"/>
   </g>
   <g id="patch_6">
    <path d="M 47.8 26.8 
L 314.45 26.8 
" style="fill:none;stroke:#000000;stroke-linecap:square;stroke-linejoin:miter;stroke-width:0.8;"/>
   </g>
   <g id="text_19">
    <!-- New Mexico -->
    <defs>
     <path d="M 9.8125 72.90625 
L 23.09375 72.90625 
L 55.421875 11.921875 
L 55.421875 72.90625 
L 64.984375 72.90625 
L 64.984375 0 
L 51.703125 0 
L 19.390625 60.984375 
L 19.390625 0 
L 9.8125 0 
z
" id="DejaVuSans-78"/>
     <path d="M 4.203125 54.6875 
L 13.1875 54.6875 
L 24.421875 12.015625 
L 35.59375 54.6875 
L 46.1875 54.6875 
L 57.421875 12.015625 
L 68.609375 54.6875 
L 77.59375 54.6875 
L 63.28125 0 
L 52.6875 0 
L 40.921875 44.828125 
L 29.109375 0 
L 18.5 0 
z
" id="DejaVuSans-119"/>
     <path d="M 54.890625 54.6875 
L 35.109375 28.078125 
L 55.90625 0 
L 45.3125 0 
L 29.390625 21.484375 
L 13.484375 0 
L 2.875 0 
L 24.125 28.609375 
L 4.6875 54.6875 
L 15.28125 54.6875 
L 29.78125 35.203125 
L 44.28125 54.6875 
z
" id="DejaVuSans-120"/>
     <path d="M 9.421875 54.6875 
L 18.40625 54.6875 
L 18.40625 0 
L 9.421875 0 
z
M 9.421875 75.984375 
L 18.40625 75.984375 
L 18.40625 64.59375 
L 9.421875 64.59375 
z
" id="DejaVuSans-105"/>
    </defs>
    <g transform="translate(145.074375 20.8)scale(0.12 -0.12)">
     <use xlink:href="#DejaVuSans-78"/>
     <use x="74.804688" xlink:href="#DejaVuSans-101"/>
     <use x="136.328125" xlink:href="#DejaVuSans-119"/>
     <use x="218.115234" xlink:href="#DejaVuSans-32"/>
     <use x="249.902344" xlink:href="#DejaVuSans-77"/>
     <use x="336.181641" xlink:href="#DejaVuSans-101"/>
     <use x="397.689453" xlink:href="#DejaVuSans-120"/>
     <use x="456.869141" xlink:href="#DejaVuSans-105"/>
     <use x="484.652344" xlink:href="#DejaVuSans-99"/>
     <use x="539.632812" xlink:href="#DejaVuSans-111"/>
    </g>
   </g>
  </g>
  <g id="axes_2">
   <g id="matplotlib.axis_3">
    <g id="ytick_4">
     <g id="line2d_41">
      <defs>
       <path d="M 0 0 
L 3.5 0 
" id="m95c2c0cb71" style="stroke:#000000;stroke-width:0.8;"/>
      </defs>
      <g>
       <use style="stroke:#000000;stroke-width:0.8;" x="314.45" xlink:href="#m95c2c0cb71" y="238.630135"/>
      </g>
     </g>
     <g id="text_20">
      <!-- 25 -->
      <g transform="translate(321.45 242.429353)scale(0.1 -0.1)">
       <use xlink:href="#DejaVuSans-50"/>
       <use x="63.623047" xlink:href="#DejaVuSans-53"/>
      </g>
     </g>
    </g>
    <g id="ytick_5">
     <g id="line2d_42">
      <g>
       <use style="stroke:#000000;stroke-width:0.8;" x="314.45" xlink:href="#m95c2c0cb71" y="213.28488"/>
      </g>
     </g>
     <g id="text_21">
      <!-- 30 -->
      <g transform="translate(321.45 217.084099)scale(0.1 -0.1)">
       <use xlink:href="#DejaVuSans-51"/>
       <use x="63.623047" xlink:href="#DejaVuSans-48"/>
      </g>
     </g>
    </g>
    <g id="ytick_6">
     <g id="line2d_43">
      <g>
       <use style="stroke:#000000;stroke-width:0.8;" x="314.45" xlink:href="#m95c2c0cb71" y="187.939625"/>
      </g>
     </g>
     <g id="text_22">
      <!-- 35 -->
      <g transform="translate(321.45 191.738844)scale(0.1 -0.1)">
       <use xlink:href="#DejaVuSans-51"/>
       <use x="63.623047" xlink:href="#DejaVuSans-53"/>
      </g>
     </g>
    </g>
    <g id="ytick_7">
     <g id="line2d_44">
      <g>
       <use style="stroke:#000000;stroke-width:0.8;" x="314.45" xlink:href="#m95c2c0cb71" y="162.59437"/>
      </g>
     </g>
     <g id="text_23">
      <!-- 40 -->
      <g transform="translate(321.45 166.393589)scale(0.1 -0.1)">
       <use xlink:href="#DejaVuSans-52"/>
       <use x="63.623047" xlink:href="#DejaVuSans-48"/>
      </g>
     </g>
    </g>
    <g id="ytick_8">
     <g id="line2d_45">
      <g>
       <use style="stroke:#000000;stroke-width:0.8;" x="314.45" xlink:href="#m95c2c0cb71" y="137.249116"/>
      </g>
     </g>
     <g id="text_24">
      <!-- 45 -->
      <g transform="translate(321.45 141.048334)scale(0.1 -0.1)">
       <use xlink:href="#DejaVuSans-52"/>
       <use x="63.623047" xlink:href="#DejaVuSans-53"/>
      </g>
     </g>
    </g>
    <g id="ytick_9">
     <g id="line2d_46">
      <g>
       <use style="stroke:#000000;stroke-width:0.8;" x="314.45" xlink:href="#m95c2c0cb71" y="111.903861"/>
      </g>
     </g>
     <g id="text_25">
      <!-- 50 -->
      <g transform="translate(321.45 115.70308)scale(0.1 -0.1)">
       <use xlink:href="#DejaVuSans-53"/>
       <use x="63.623047" xlink:href="#DejaVuSans-48"/>
      </g>
     </g>
    </g>
    <g id="ytick_10">
     <g id="line2d_47">
      <g>
       <use style="stroke:#000000;stroke-width:0.8;" x="314.45" xlink:href="#m95c2c0cb71" y="86.558606"/>
      </g>
     </g>
     <g id="text_26">
      <!-- 55 -->
      <g transform="translate(321.45 90.357825)scale(0.1 -0.1)">
       <use xlink:href="#DejaVuSans-53"/>
       <use x="63.623047" xlink:href="#DejaVuSans-53"/>
      </g>
     </g>
    </g>
    <g id="ytick_11">
     <g id="line2d_48">
      <g>
       <use style="stroke:#000000;stroke-width:0.8;" x="314.45" xlink:href="#m95c2c0cb71" y="61.213351"/>
      </g>
     </g>
     <g id="text_27">
      <!-- 60 -->
      <g transform="translate(321.45 65.01257)scale(0.1 -0.1)">
       <use xlink:href="#DejaVuSans-54"/>
       <use x="63.623047" xlink:href="#DejaVuSans-48"/>
      </g>
     </g>
    </g>
    <g id="ytick_12">
     <g id="line2d_49">
      <g>
       <use style="stroke:#000000;stroke-width:0.8;" x="314.45" xlink:href="#m95c2c0cb71" y="35.868097"/>
      </g>
     </g>
     <g id="text_28">
      <!-- 65 -->
      <g transform="translate(321.45 39.667315)scale(0.1 -0.1)">
       <use xlink:href="#DejaVuSans-54"/>
       <use x="63.623047" xlink:href="#DejaVuSans-53"/>
      </g>
     </g>
    </g>
    <g id="text_29">
     <!-- Average AQI -->
     <defs>
      <path d="M 2.984375 54.6875 
L 12.5 54.6875 
L 29.59375 8.796875 
L 46.6875 54.6875 
L 56.203125 54.6875 
L 35.6875 0 
L 23.484375 0 
z
" id="DejaVuSans-118"/>
      <path d="M 34.28125 27.484375 
Q 23.390625 27.484375 19.1875 25 
Q 14.984375 22.515625 14.984375 16.5 
Q 14.984375 11.71875 18.140625 8.90625 
Q 21.296875 6.109375 26.703125 6.109375 
Q 34.1875 6.109375 38.703125 11.40625 
Q 43.21875 16.703125 43.21875 25.484375 
L 43.21875 27.484375 
z
M 52.203125 31.203125 
L 52.203125 0 
L 43.21875 0 
L 43.21875 8.296875 
Q 40.140625 3.328125 35.546875 0.953125 
Q 30.953125 -1.421875 24.3125 -1.421875 
Q 15.921875 -1.421875 10.953125 3.296875 
Q 6 8.015625 6 15.921875 
Q 6 25.140625 12.171875 29.828125 
Q 18.359375 34.515625 30.609375 34.515625 
L 43.21875 34.515625 
L 43.21875 35.40625 
Q 43.21875 41.609375 39.140625 45 
Q 35.0625 48.390625 27.6875 48.390625 
Q 23 48.390625 18.546875 47.265625 
Q 14.109375 46.140625 10.015625 43.890625 
L 10.015625 52.203125 
Q 14.9375 54.109375 19.578125 55.046875 
Q 24.21875 56 28.609375 56 
Q 40.484375 56 46.34375 49.84375 
Q 52.203125 43.703125 52.203125 31.203125 
z
" id="DejaVuSans-97"/>
      <path d="M 45.40625 27.984375 
Q 45.40625 37.75 41.375 43.109375 
Q 37.359375 48.484375 30.078125 48.484375 
Q 22.859375 48.484375 18.828125 43.109375 
Q 14.796875 37.75 14.796875 27.984375 
Q 14.796875 18.265625 18.828125 12.890625 
Q 22.859375 7.515625 30.078125 7.515625 
Q 37.359375 7.515625 41.375 12.890625 
Q 45.40625 18.265625 45.40625 27.984375 
z
M 54.390625 6.78125 
Q 54.390625 -7.171875 48.1875 -13.984375 
Q 42 -20.796875 29.203125 -20.796875 
Q 24.46875 -20.796875 20.265625 -20.09375 
Q 16.0625 -19.390625 12.109375 -17.921875 
L 12.109375 -9.1875 
Q 16.0625 -11.328125 19.921875 -12.34375 
Q 23.78125 -13.375 27.78125 -13.375 
Q 36.625 -13.375 41.015625 -8.765625 
Q 45.40625 -4.15625 45.40625 5.171875 
L 45.40625 9.625 
Q 42.625 4.78125 38.28125 2.390625 
Q 33.9375 0 27.875 0 
Q 17.828125 0 11.671875 7.65625 
Q 5.515625 15.328125 5.515625 27.984375 
Q 5.515625 40.671875 11.671875 48.328125 
Q 17.828125 56 27.875 56 
Q 33.9375 56 38.28125 53.609375 
Q 42.625 51.21875 45.40625 46.390625 
L 45.40625 54.6875 
L 54.390625 54.6875 
z
" id="DejaVuSans-103"/>
      <path d="M 39.40625 66.21875 
Q 28.65625 66.21875 22.328125 58.203125 
Q 16.015625 50.203125 16.015625 36.375 
Q 16.015625 22.609375 22.328125 14.59375 
Q 28.65625 6.59375 39.40625 6.59375 
Q 50.140625 6.59375 56.421875 14.59375 
Q 62.703125 22.609375 62.703125 36.375 
Q 62.703125 50.203125 56.421875 58.203125 
Q 50.140625 66.21875 39.40625 66.21875 
z
M 53.21875 1.3125 
L 66.21875 -12.890625 
L 54.296875 -12.890625 
L 43.5 -1.21875 
Q 41.890625 -1.3125 41.03125 -1.359375 
Q 40.1875 -1.421875 39.40625 -1.421875 
Q 24.03125 -1.421875 14.8125 8.859375 
Q 5.609375 19.140625 5.609375 36.375 
Q 5.609375 53.65625 14.8125 63.9375 
Q 24.03125 74.21875 39.40625 74.21875 
Q 54.734375 74.21875 63.90625 63.9375 
Q 73.09375 53.65625 73.09375 36.375 
Q 73.09375 23.6875 67.984375 14.640625 
Q 62.890625 5.609375 53.21875 1.3125 
z
" id="DejaVuSans-81"/>
      <path d="M 9.8125 72.90625 
L 19.671875 72.90625 
L 19.671875 0 
L 9.8125 0 
z
" id="DejaVuSans-73"/>
     </defs>
     <g style="fill:#5f5f5f;" transform="translate(341.576563 105.257812)rotate(-270)scale(0.1 -0.1)">
      <use xlink:href="#DejaVuSans-65"/>
      <use x="68.330078" xlink:href="#DejaVuSans-118"/>
      <use x="127.509766" xlink:href="#DejaVuSans-101"/>
      <use x="189.033203" xlink:href="#DejaVuSans-114"/>
      <use x="230.146484" xlink:href="#DejaVuSans-97"/>
      <use x="291.425781" xlink:href="#DejaVuSans-103"/>
      <use x="354.902344" xlink:href="#DejaVuSans-101"/>
      <use x="416.425781" xlink:href="#DejaVuSans-32"/>
      <use x="448.212891" xlink:href="#DejaVuSans-65"/>
      <use x="516.605469" xlink:href="#DejaVuSans-81"/>
      <use x="595.316406" xlink:href="#DejaVuSans-73"/>
     </g>
    </g>
   </g>
   <g id="line2d_50">
    <path clip-path="url(#p0dec72a740)" d="M 59.920455 145.747673 
L 81.957645 156.329788 
L 103.994835 153.051773 
L 126.032025 141.958327 
L 148.069215 122.958234 
L 170.106405 112.25503 
L 192.143595 138.987493 
L 214.180785 121.937906 
L 236.217975 132.794018 
L 258.255165 124.367951 
L 280.292355 167.338878 
L 302.329545 158.762764 
" style="fill:none;stroke:#f3f3f3;stroke-linecap:square;stroke-opacity:0.5;stroke-width:1.5;"/>
   </g>
   <g id="line2d_51">
    <path clip-path="url(#p0dec72a740)" d="M 59.920455 179.072481 
L 81.957645 172.935912 
L 103.994835 155.110066 
L 126.032025 147.387217 
L 148.069215 150.687671 
L 170.106405 111.190551 
L 192.143595 147.129212 
L 214.180785 133.128742 
L 236.217975 160.370041 
L 258.255165 181.902977 
L 280.292355 173.818697 
L 302.329545 185.272479 
" style="fill:none;stroke:#eeeeee;stroke-linecap:square;stroke-opacity:0.5;stroke-width:1.5;"/>
   </g>
   <g id="line2d_52">
    <path clip-path="url(#p0dec72a740)" d="M 59.920455 179.927708 
L 81.957645 195.845484 
L 103.994835 188.64171 
L 126.032025 167.241 
L 148.069215 157.251317 
L 170.106405 142.612228 
L 192.143595 128.505673 
L 214.180785 121.557217 
L 236.217975 147.098383 
L 258.255165 177.506811 
L 280.292355 203.161471 
L 302.329545 200.539837 
" style="fill:none;stroke:#e8e8e8;stroke-linecap:square;stroke-opacity:0.5;stroke-width:1.5;"/>
   </g>
   <g id="line2d_53">
    <path clip-path="url(#p0dec72a740)" d="M 59.920455 212.918619 
L 81.957645 207.032517 
L 103.994835 192.144633 
L 126.032025 173.473562 
L 148.069215 172.450032 
L 170.106405 136.355533 
L 192.143595 139.723295 
L 214.180785 131.480393 
L 236.217975 172.234619 
L 258.255165 172.227011 
L 280.292355 192.400983 
L 302.329545 200.56905 
" style="fill:none;stroke:#e1e1e1;stroke-linecap:square;stroke-opacity:0.5;stroke-width:1.5;"/>
   </g>
   <g id="line2d_54">
    <path clip-path="url(#p0dec72a740)" d="M 59.920455 180.56646 
L 81.957645 186.477704 
L 103.994835 173.346017 
L 126.032025 166.831189 
L 148.069215 150.652283 
L 170.106405 152.441 
L 192.143595 145.980776 
L 214.180785 157.787512 
L 236.217975 172.502061 
L 258.255165 158.338141 
L 280.292355 185.4051 
L 302.329545 196.182755 
" style="fill:none;stroke:#dbdbdb;stroke-linecap:square;stroke-opacity:0.5;stroke-width:1.5;"/>
   </g>
   <g id="line2d_55">
    <path clip-path="url(#p0dec72a740)" d="M 59.920455 209.885979 
L 81.957645 176.626791 
L 103.994835 169.628972 
L 126.032025 165.430625 
L 148.069215 144.333754 
L 170.106405 124.190635 
L 192.143595 141.55331 
L 214.180785 149.003437 
L 236.217975 137.846375 
L 258.255165 171.885196 
L 280.292355 184.756382 
L 302.329545 200.648564 
" style="fill:none;stroke:#d4d4d4;stroke-linecap:square;stroke-opacity:0.5;stroke-width:1.5;"/>
   </g>
   <g id="line2d_56">
    <path clip-path="url(#p0dec72a740)" d="M 59.920455 190.20891 
L 81.957645 171.042789 
L 103.994835 137.981637 
L 126.032025 117.998791 
L 148.069215 101.15573 
L 170.106405 129.72188 
L 192.143595 89.012321 
L 214.180785 86.970007 
L 236.217975 138.093957 
L 258.255165 175.998537 
L 280.292355 185.803704 
L 302.329545 211.846954 
" style="fill:none;stroke:#cccccc;stroke-linecap:square;stroke-opacity:0.5;stroke-width:1.5;"/>
   </g>
   <g id="line2d_57">
    <path clip-path="url(#p0dec72a740)" d="M 59.920455 175.043151 
L 81.957645 179.571668 
L 103.994835 150.911558 
L 126.032025 125.863739 
L 148.069215 108.338979 
L 170.106405 126.923271 
L 192.143595 143.593018 
L 214.180785 130.411791 
L 236.217975 184.998324 
L 258.255165 164.177497 
L 280.292355 167.805103 
L 302.329545 195.163782 
" style="fill:none;stroke:#c5c5c5;stroke-linecap:square;stroke-opacity:0.5;stroke-width:1.5;"/>
   </g>
   <g id="line2d_58">
    <path clip-path="url(#p0dec72a740)" d="M 59.920455 190.315743 
L 81.957645 177.363457 
L 103.994835 176.09764 
L 126.032025 151.503114 
L 148.069215 113.461467 
L 170.106405 135.448468 
L 192.143595 95.741669 
L 214.180785 105.305355 
L 236.217975 165.159617 
L 258.255165 228.492033 
L 280.292355 228.154096 
L 302.329545 213.128252 
" style="fill:none;stroke:#bdbdbd;stroke-linecap:square;stroke-opacity:0.5;stroke-width:1.5;"/>
   </g>
   <g id="line2d_59">
    <path clip-path="url(#p0dec72a740)" d="M 59.920455 216.252129 
L 81.957645 219.757668 
L 103.994835 205.943985 
L 126.032025 146.001981 
L 148.069215 165.282081 
L 170.106405 147.459017 
L 192.143595 134.671141 
L 214.180785 147.934445 
L 236.217975 181.021861 
L 258.255165 196.155474 
L 280.292355 212.173246 
L 302.329545 190.643119 
" style="fill:none;stroke:#b2b2b2;stroke-linecap:square;stroke-opacity:0.5;stroke-width:1.5;"/>
   </g>
   <g id="line2d_60">
    <path clip-path="url(#p0dec72a740)" d="M 59.920455 215.449194 
L 81.957645 202.844148 
L 103.994835 193.241578 
L 126.032025 166.714827 
L 148.069215 134.508292 
L 170.106405 82.010673 
L 192.143595 133.71836 
L 214.180785 157.670564 
L 236.217975 179.037495 
L 258.255165 210.428634 
L 280.292355 212.033458 
L 302.329545 216.419293 
" style="fill:none;stroke:#a7a7a7;stroke-linecap:square;stroke-opacity:0.5;stroke-width:1.5;"/>
   </g>
   <g id="line2d_61">
    <path clip-path="url(#p0dec72a740)" d="M 59.920455 227.956884 
L 81.957645 217.648529 
L 103.994835 216.768082 
L 126.032025 152.727019 
L 148.069215 119.988123 
L 170.106405 138.006382 
L 192.143595 109.128348 
L 214.180785 148.4577 
L 236.217975 180.384479 
L 258.255165 186.941907 
L 280.292355 197.73434 
L 302.329545 183.01774 
" style="fill:none;stroke:#9c9c9c;stroke-linecap:square;stroke-opacity:0.5;stroke-width:1.5;"/>
   </g>
   <g id="line2d_62">
    <path clip-path="url(#p0dec72a740)" d="M 59.920455 215.057493 
L 81.957645 187.95675 
L 103.994835 205.627377 
L 126.032025 161.413232 
L 148.069215 154.07644 
L 170.106405 130.638023 
L 192.143595 140.189815 
L 214.180785 181.160158 
L 236.217975 193.084788 
L 258.255165 230.59164 
L 280.292355 234.939375 
L 302.329545 212.9867 
" style="fill:none;stroke:#919191;stroke-linecap:square;stroke-opacity:0.5;stroke-width:1.5;"/>
   </g>
   <g id="line2d_63">
    <path clip-path="url(#p0dec72a740)" d="M 59.920455 226.239121 
L 81.957645 236.227273 
L 103.994835 205.719132 
L 126.032025 136.160669 
L 148.069215 143.636706 
L 170.106405 118.427775 
L 192.143595 86.948533 
L 214.180785 152.396102 
L 236.217975 163.504978 
L 258.255165 205.165684 
L 280.292355 166.254501 
L 302.329545 182.003693 
" style="fill:none;stroke:#878787;stroke-linecap:square;stroke-opacity:0.5;stroke-width:1.5;"/>
   </g>
   <g id="line2d_64">
    <path clip-path="url(#p0dec72a740)" d="M 59.920455 178.395196 
L 81.957645 186.764893 
L 103.994835 168.513233 
L 126.032025 117.200564 
L 148.069215 92.167556 
L 170.106405 36.772727 
L 192.143595 112.672762 
L 214.180785 166.979954 
L 236.217975 196.896718 
L 258.255165 203.478756 
L 280.292355 177.236836 
L 302.329545 200.797394 
" style="fill:none;stroke:#7d7d7d;stroke-linecap:square;stroke-opacity:0.5;stroke-width:1.5;"/>
   </g>
   <g id="line2d_65">
    <path clip-path="url(#p0dec72a740)" d="M 59.920455 192.891698 
L 81.957645 199.887077 
L 103.994835 181.945472 
L 126.032025 150.247611 
L 148.069215 153.028773 
L 170.106405 132.155458 
L 192.143595 137.031871 
L 214.180785 141.121307 
L 236.217975 178.876406 
L 258.255165 194.979974 
L 280.292355 168.947057 
L 302.329545 198.922569 
" style="fill:none;stroke:#737373;stroke-linecap:square;stroke-opacity:0.5;stroke-width:1.5;"/>
   </g>
   <g id="line2d_66">
    <path clip-path="url(#p0dec72a740)" d="M 59.920455 198.55258 
L 81.957645 197.091727 
L 103.994835 152.930769 
L 126.032025 102.069659 
L 148.069215 86.958455 
L 170.106405 84.351763 
L 192.143595 160.066134 
L 214.180785 158.932042 
L 236.217975 192.620615 
L 258.255165 202.58093 
L 280.292355 195.984778 
L 302.329545 222.283336 
" style="fill:none;stroke:#6a6a6a;stroke-linecap:square;stroke-opacity:0.5;stroke-width:1.5;"/>
   </g>
   <g id="line2d_67">
    <path clip-path="url(#p0dec72a740)" d="M 59.920455 208.852354 
L 81.957645 197.040581 
L 103.994835 186.288696 
L 126.032025 163.503889 
L 148.069215 163.143021 
L 170.106405 180.524256 
L 192.143595 137.097801 
L 214.180785 151.611427 
L 236.217975 183.176676 
L 258.255165 211.960963 
L 280.292355 195.628498 
L 302.329545 203.076047 
" style="fill:none;stroke:#626262;stroke-linecap:square;stroke-opacity:0.5;stroke-width:1.5;"/>
   </g>
   <g id="line2d_68">
    <path clip-path="url(#p0dec72a740)" d="M 59.920455 193.871493 
L 81.957645 203.44649 
L 103.994835 166.690941 
L 126.032025 128.673752 
L 148.069215 115.427937 
L 170.106405 128.843152 
L 192.143595 168.017076 
L 214.180785 168.859623 
L 236.217975 170.771453 
L 258.255165 177.269212 
L 280.292355 187.927322 
L 302.329545 193.256234 
" style="fill:none;stroke:#585858;stroke-linecap:square;stroke-opacity:0.5;stroke-width:1.5;"/>
   </g>
   <g id="line2d_69">
    <path clip-path="url(#p0dec72a740)" d="M 59.920455 200.895176 
L 81.957645 182.67048 
L 103.994835 155.686315 
L 126.032025 104.380064 
L 148.069215 98.247241 
L 170.106405 76.841892 
L 192.143595 114.518554 
L 214.180785 113.033105 
L 236.217975 154.289217 
L 258.255165 189.417589 
L 280.292355 194.467948 
L 302.329545 206.188208 
" style="fill:none;stroke:#4e4e4e;stroke-linecap:square;stroke-opacity:0.5;stroke-width:1.5;"/>
   </g>
   <g id="line2d_70">
    <path clip-path="url(#p0dec72a740)" d="M 59.920455 218.135646 
L 81.957645 190.779355 
L 103.994835 121.641775 
L 126.032025 80.532367 
L 148.069215 73.423474 
L 170.106405 115.524612 
L 192.143595 128.996893 
L 214.180785 100.150218 
L 236.217975 159.734591 
L 258.255165 191.002424 
L 280.292355 190.039305 
L 302.329545 190.968692 
" style="fill:none;stroke:#414141;stroke-linecap:square;stroke-opacity:0.5;stroke-width:1.5;"/>
   </g>
   <g id="line2d_71">
    <path clip-path="url(#p0dec72a740)" d="M 59.920455 205.410168 
L 81.957645 177.43094 
L 103.994835 162.136919 
L 126.032025 113.826604 
L 148.069215 91.329478 
L 170.106405 91.020362 
L 192.143595 77.551012 
L 214.180785 116.119946 
L 236.217975 158.982672 
L 258.255165 178.018586 
L 280.292355 202.530442 
L 302.329545 202.091736 
" style="fill:none;stroke:#353535;stroke-linecap:square;stroke-opacity:0.5;stroke-width:1.5;"/>
   </g>
   <g id="line2d_72">
    <path clip-path="url(#p0dec72a740)" d="M 59.920455 191.653703 
L 81.957645 199.104877 
L 103.994835 157.149385 
L 126.032025 116.179273 
L 148.069215 105.786881 
L 170.106405 127.161578 
L 192.143595 121.908885 
L 214.180785 151.724913 
L 236.217975 198.221809 
L 258.255165 182.955058 
L 280.292355 206.479679 
L 302.329545 231.162557 
" style="fill:none;stroke:#282828;stroke-linecap:square;stroke-opacity:0.5;stroke-width:1.5;"/>
   </g>
   <g id="line2d_73">
    <path clip-path="url(#p0dec72a740)" d="M 59.920455 231.758754 
L 81.957645 224.477344 
L 103.994835 204.880927 
L 126.032025 156.133815 
L 148.069215 137.83854 
L 170.106405 129.812724 
L 192.143595 164.429261 
L 214.180785 131.014314 
L 236.217975 175.047795 
L 258.255165 197.418338 
L 280.292355 213.730956 
L 302.329545 211.621393 
" style="fill:none;stroke:#1d1d1d;stroke-linecap:square;stroke-opacity:0.5;stroke-width:1.5;"/>
   </g>
   <g id="line2d_74">
    <path clip-path="url(#p0dec72a740)" d="M 59.920455 199.37743 
L 81.957645 193.598093 
L 103.994835 174.253275 
L 126.032025 139.727204 
L 148.069215 127.338853 
L 170.106405 120.445375 
L 192.143595 129.048884 
L 214.180785 138.531174 
L 236.217975 169.86454 
L 258.255165 188.052555 
L 280.292355 193.53134 
L 302.329545 200.314715 
" style="fill:none;stroke:#000000;stroke-dasharray:5.55,2.4;stroke-dashoffset:0;stroke-width:1.5;"/>
   </g>
   <g id="patch_7">
    <path d="M 47.8 246.2 
L 47.8 26.8 
" style="fill:none;stroke:#000000;stroke-linecap:square;stroke-linejoin:miter;stroke-width:0.8;"/>
   </g>
   <g id="patch_8">
    <path d="M 314.45 246.2 
L 314.45 26.8 
" style="fill:none;stroke:#000000;stroke-linecap:square;stroke-linejoin:miter;stroke-width:0.8;"/>
   </g>
   <g id="patch_9">
    <path d="M 47.8 246.2 
L 314.45 246.2 
" style="fill:none;stroke:#000000;stroke-linecap:square;stroke-linejoin:miter;stroke-width:0.8;"/>
   </g>
   <g id="patch_10">
    <path d="M 47.8 26.8 
L 314.45 26.8 
" style="fill:none;stroke:#000000;stroke-linecap:square;stroke-linejoin:miter;stroke-width:0.8;"/>
   </g>
  </g>
 </g>
 <defs>
  <clipPath id="p0dec72a740">
   <rect height="219.4" width="266.65" x="47.8" y="26.8"/>
  </clipPath>
 </defs>
</svg>
