<?xml version="1.0" encoding="utf-8" standalone="no"?>
<!DOCTYPE svg PUBLIC "-//W3C//DTD SVG 1.1//EN"
  "http://www.w3.org/Graphics/SVG/1.1/DTD/svg11.dtd">
<!-- Created with matplotlib (https://matplotlib.org/) -->
<svg height="288pt" version="1.1" viewBox="0 0 360 288" width="360pt" xmlns="http://www.w3.org/2000/svg" xmlns:xlink="http://www.w3.org/1999/xlink">
 <defs>
  <style type="text/css">
*{stroke-linecap:butt;stroke-linejoin:round;}
  </style>
 </defs>
 <g id="figure_1">
  <g id="patch_1">
   <path d="M 0 288 
L 360 288 
L 360 0 
L 0 0 
z
" style="fill:#ffffff;"/>
  </g>
  <g id="axes_1">
   <g id="patch_2">
    <path d="M 47.8 246.2 
L 314.575 246.2 
L 314.575 26.8 
L 47.8 26.8 
z
" style="fill:#ffffff;"/>
   </g>
   <g id="matplotlib.axis_1">
    <g id="xtick_1">
     <g id="line2d_1">
      <defs>
       <path d="M 0 0 
L 0 3.5 
" id="m1112c94e72" style="stroke:#000000;stroke-width:0.8;"/>
      </defs>
      <g>
       <use style="stroke:#000000;stroke-width:0.8;" x="59.926136" xlink:href="#m1112c94e72" y="246.2"/>
      </g>
     </g>
     <g id="text_1">
      <!-- 1 -->
      <defs>
       <path d="M 12.40625 8.296875 
L 28.515625 8.296875 
L 28.515625 63.921875 
L 10.984375 60.40625 
L 10.984375 69.390625 
L 28.421875 72.90625 
L 38.28125 72.90625 
L 38.28125 8.296875 
L 54.390625 8.296875 
L 54.390625 0 
L 12.40625 0 
z
" id="DejaVuSans-49"/>
      </defs>
      <g transform="translate(56.744886 260.798437)scale(0.1 -0.1)">
       <use xlink:href="#DejaVuSans-49"/>
      </g>
     </g>
    </g>
    <g id="xtick_2">
     <g id="line2d_2">
      <g>
       <use style="stroke:#000000;stroke-width:0.8;" x="81.973657" xlink:href="#m1112c94e72" y="246.2"/>
      </g>
     </g>
     <g id="text_2">
      <!-- 2 -->
      <defs>
       <path d="M 19.1875 8.296875 
L 53.609375 8.296875 
L 53.609375 0 
L 7.328125 0 
L 7.328125 8.296875 
Q 12.9375 14.109375 22.625 23.890625 
Q 32.328125 33.6875 34.8125 36.53125 
Q 39.546875 41.84375 41.421875 45.53125 
Q 43.3125 49.21875 43.3125 52.78125 
Q 43.3125 58.59375 39.234375 62.25 
Q 35.15625 65.921875 28.609375 65.921875 
Q 23.96875 65.921875 18.8125 64.3125 
Q 13.671875 62.703125 7.8125 59.421875 
L 7.8125 69.390625 
Q 13.765625 71.78125 18.9375 73 
Q 24.125 74.21875 28.421875 74.21875 
Q 39.75 74.21875 46.484375 68.546875 
Q 53.21875 62.890625 53.21875 53.421875 
Q 53.21875 48.921875 51.53125 44.890625 
Q 49.859375 40.875 45.40625 35.40625 
Q 44.1875 33.984375 37.640625 27.21875 
Q 31.109375 20.453125 19.1875 8.296875 
z
" id="DejaVuSans-50"/>
      </defs>
      <g transform="translate(78.792407 260.798437)scale(0.1 -0.1)">
       <use xlink:href="#DejaVuSans-50"/>
      </g>
     </g>
    </g>
    <g id="xtick_3">
     <g id="line2d_3">
      <g>
       <use style="stroke:#000000;stroke-width:0.8;" x="104.021178" xlink:href="#m1112c94e72" y="246.2"/>
      </g>
     </g>
     <g id="text_3">
      <!-- 3 -->
      <defs>
       <path d="M 40.578125 39.3125 
Q 47.65625 37.796875 51.625 33 
Q 55.609375 28.21875 55.609375 21.1875 
Q 55.609375 10.40625 48.1875 4.484375 
Q 40.765625 -1.421875 27.09375 -1.421875 
Q 22.515625 -1.421875 17.65625 -0.515625 
Q 12.796875 0.390625 7.625 2.203125 
L 7.625 11.71875 
Q 11.71875 9.328125 16.59375 8.109375 
Q 21.484375 6.890625 26.8125 6.890625 
Q 36.078125 6.890625 40.9375 10.546875 
Q 45.796875 14.203125 45.796875 21.1875 
Q 45.796875 27.640625 41.28125 31.265625 
Q 36.765625 34.90625 28.71875 34.90625 
L 20.21875 34.90625 
L 20.21875 43.015625 
L 29.109375 43.015625 
Q 36.375 43.015625 40.234375 45.921875 
Q 44.09375 48.828125 44.09375 54.296875 
Q 44.09375 59.90625 40.109375 62.90625 
Q 36.140625 65.921875 28.71875 65.921875 
Q 24.65625 65.921875 20.015625 65.03125 
Q 15.375 64.15625 9.8125 62.3125 
L 9.8125 71.09375 
Q 15.4375 72.65625 20.34375 73.4375 
Q 25.25 74.21875 29.59375 74.21875 
Q 40.828125 74.21875 47.359375 69.109375 
Q 53.90625 64.015625 53.90625 55.328125 
Q 53.90625 49.265625 50.4375 45.09375 
Q 46.96875 40.921875 40.578125 39.3125 
z
" id="DejaVuSans-51"/>
      </defs>
      <g transform="translate(100.839928 260.798437)scale(0.1 -0.1)">
       <use xlink:href="#DejaVuSans-51"/>
      </g>
     </g>
    </g>
    <g id="xtick_4">
     <g id="line2d_4">
      <g>
       <use style="stroke:#000000;stroke-width:0.8;" x="126.068698" xlink:href="#m1112c94e72" y="246.2"/>
      </g>
     </g>
     <g id="text_4">
      <!-- 4 -->
      <defs>
       <path d="M 37.796875 64.3125 
L 12.890625 25.390625 
L 37.796875 25.390625 
z
M 35.203125 72.90625 
L 47.609375 72.90625 
L 47.609375 25.390625 
L 58.015625 25.390625 
L 58.015625 17.1875 
L 47.609375 17.1875 
L 47.609375 0 
L 37.796875 0 
L 37.796875 17.1875 
L 4.890625 17.1875 
L 4.890625 26.703125 
z
" id="DejaVuSans-52"/>
      </defs>
      <g transform="translate(122.887448 260.798437)scale(0.1 -0.1)">
       <use xlink:href="#DejaVuSans-52"/>
      </g>
     </g>
    </g>
    <g id="xtick_5">
     <g id="line2d_5">
      <g>
       <use style="stroke:#000000;stroke-width:0.8;" x="148.116219" xlink:href="#m1112c94e72" y="246.2"/>
      </g>
     </g>
     <g id="text_5">
      <!-- 5 -->
      <defs>
       <path d="M 10.796875 72.90625 
L 49.515625 72.90625 
L 49.515625 64.59375 
L 19.828125 64.59375 
L 19.828125 46.734375 
Q 21.96875 47.46875 24.109375 47.828125 
Q 26.265625 48.1875 28.421875 48.1875 
Q 40.625 48.1875 47.75 41.5 
Q 54.890625 34.8125 54.890625 23.390625 
Q 54.890625 11.625 47.5625 5.09375 
Q 40.234375 -1.421875 26.90625 -1.421875 
Q 22.3125 -1.421875 17.546875 -0.640625 
Q 12.796875 0.140625 7.71875 1.703125 
L 7.71875 11.625 
Q 12.109375 9.234375 16.796875 8.0625 
Q 21.484375 6.890625 26.703125 6.890625 
Q 35.15625 6.890625 40.078125 11.328125 
Q 45.015625 15.765625 45.015625 23.390625 
Q 45.015625 31 40.078125 35.4375 
Q 35.15625 39.890625 26.703125 39.890625 
Q 22.75 39.890625 18.8125 39.015625 
Q 14.890625 38.140625 10.796875 36.28125 
z
" id="DejaVuSans-53"/>
      </defs>
      <g transform="translate(144.934969 260.798437)scale(0.1 -0.1)">
       <use xlink:href="#DejaVuSans-53"/>
      </g>
     </g>
    </g>
    <g id="xtick_6">
     <g id="line2d_6">
      <g>
       <use style="stroke:#000000;stroke-width:0.8;" x="170.16374" xlink:href="#m1112c94e72" y="246.2"/>
      </g>
     </g>
     <g id="text_6">
      <!-- 6 -->
      <defs>
       <path d="M 33.015625 40.375 
Q 26.375 40.375 22.484375 35.828125 
Q 18.609375 31.296875 18.609375 23.390625 
Q 18.609375 15.53125 22.484375 10.953125 
Q 26.375 6.390625 33.015625 6.390625 
Q 39.65625 6.390625 43.53125 10.953125 
Q 47.40625 15.53125 47.40625 23.390625 
Q 47.40625 31.296875 43.53125 35.828125 
Q 39.65625 40.375 33.015625 40.375 
z
M 52.59375 71.296875 
L 52.59375 62.3125 
Q 48.875 64.0625 45.09375 64.984375 
Q 41.3125 65.921875 37.59375 65.921875 
Q 27.828125 65.921875 22.671875 59.328125 
Q 17.53125 52.734375 16.796875 39.40625 
Q 19.671875 43.65625 24.015625 45.921875 
Q 28.375 48.1875 33.59375 48.1875 
Q 44.578125 48.1875 50.953125 41.515625 
Q 57.328125 34.859375 57.328125 23.390625 
Q 57.328125 12.15625 50.6875 5.359375 
Q 44.046875 -1.421875 33.015625 -1.421875 
Q 20.359375 -1.421875 13.671875 8.265625 
Q 6.984375 17.96875 6.984375 36.375 
Q 6.984375 53.65625 15.1875 63.9375 
Q 23.390625 74.21875 37.203125 74.21875 
Q 40.921875 74.21875 44.703125 73.484375 
Q 48.484375 72.75 52.59375 71.296875 
z
" id="DejaVuSans-54"/>
      </defs>
      <g transform="translate(166.98249 260.798437)scale(0.1 -0.1)">
       <use xlink:href="#DejaVuSans-54"/>
      </g>
     </g>
    </g>
    <g id="xtick_7">
     <g id="line2d_7">
      <g>
       <use style="stroke:#000000;stroke-width:0.8;" x="192.21126" xlink:href="#m1112c94e72" y="246.2"/>
      </g>
     </g>
     <g id="text_7">
      <!-- 7 -->
      <defs>
       <path d="M 8.203125 72.90625 
L 55.078125 72.90625 
L 55.078125 68.703125 
L 28.609375 0 
L 18.3125 0 
L 43.21875 64.59375 
L 8.203125 64.59375 
z
" id="DejaVuSans-55"/>
      </defs>
      <g transform="translate(189.03001 260.798437)scale(0.1 -0.1)">
       <use xlink:href="#DejaVuSans-55"/>
      </g>
     </g>
    </g>
    <g id="xtick_8">
     <g id="line2d_8">
      <g>
       <use style="stroke:#000000;stroke-width:0.8;" x="214.258781" xlink:href="#m1112c94e72" y="246.2"/>
      </g>
     </g>
     <g id="text_8">
      <!-- 8 -->
      <defs>
       <path d="M 31.78125 34.625 
Q 24.75 34.625 20.71875 30.859375 
Q 16.703125 27.09375 16.703125 20.515625 
Q 16.703125 13.921875 20.71875 10.15625 
Q 24.75 6.390625 31.78125 6.390625 
Q 38.8125 6.390625 42.859375 10.171875 
Q 46.921875 13.96875 46.921875 20.515625 
Q 46.921875 27.09375 42.890625 30.859375 
Q 38.875 34.625 31.78125 34.625 
z
M 21.921875 38.8125 
Q 15.578125 40.375 12.03125 44.71875 
Q 8.5 49.078125 8.5 55.328125 
Q 8.5 64.0625 14.71875 69.140625 
Q 20.953125 74.21875 31.78125 74.21875 
Q 42.671875 74.21875 48.875 69.140625 
Q 55.078125 64.0625 55.078125 55.328125 
Q 55.078125 49.078125 51.53125 44.71875 
Q 48 40.375 41.703125 38.8125 
Q 48.828125 37.15625 52.796875 32.3125 
Q 56.78125 27.484375 56.78125 20.515625 
Q 56.78125 9.90625 50.3125 4.234375 
Q 43.84375 -1.421875 31.78125 -1.421875 
Q 19.734375 -1.421875 13.25 4.234375 
Q 6.78125 9.90625 6.78125 20.515625 
Q 6.78125 27.484375 10.78125 32.3125 
Q 14.796875 37.15625 21.921875 38.8125 
z
M 18.3125 54.390625 
Q 18.3125 48.734375 21.84375 45.5625 
Q 25.390625 42.390625 31.78125 42.390625 
Q 38.140625 42.390625 41.71875 45.5625 
Q 45.3125 48.734375 45.3125 54.390625 
Q 45.3125 60.0625 41.71875 63.234375 
Q 38.140625 66.40625 31.78125 66.40625 
Q 25.390625 66.40625 21.84375 63.234375 
Q 18.3125 60.0625 18.3125 54.390625 
z
" id="DejaVuSans-56"/>
      </defs>
      <g transform="translate(211.077531 260.798437)scale(0.1 -0.1)">
       <use xlink:href="#DejaVuSans-56"/>
      </g>
     </g>
    </g>
    <g id="xtick_9">
     <g id="line2d_9">
      <g>
       <use style="stroke:#000000;stroke-width:0.8;" x="236.306302" xlink:href="#m1112c94e72" y="246.2"/>
      </g>
     </g>
     <g id="text_9">
      <!-- 9 -->
      <defs>
       <path d="M 10.984375 1.515625 
L 10.984375 10.5 
Q 14.703125 8.734375 18.5 7.8125 
Q 22.3125 6.890625 25.984375 6.890625 
Q 35.75 6.890625 40.890625 13.453125 
Q 46.046875 20.015625 46.78125 33.40625 
Q 43.953125 29.203125 39.59375 26.953125 
Q 35.25 24.703125 29.984375 24.703125 
Q 19.046875 24.703125 12.671875 31.3125 
Q 6.296875 37.9375 6.296875 49.421875 
Q 6.296875 60.640625 12.9375 67.421875 
Q 19.578125 74.21875 30.609375 74.21875 
Q 43.265625 74.21875 49.921875 64.515625 
Q 56.59375 54.828125 56.59375 36.375 
Q 56.59375 19.140625 48.40625 8.859375 
Q 40.234375 -1.421875 26.421875 -1.421875 
Q 22.703125 -1.421875 18.890625 -0.6875 
Q 15.09375 0.046875 10.984375 1.515625 
z
M 30.609375 32.421875 
Q 37.25 32.421875 41.125 36.953125 
Q 45.015625 41.5 45.015625 49.421875 
Q 45.015625 57.28125 41.125 61.84375 
Q 37.25 66.40625 30.609375 66.40625 
Q 23.96875 66.40625 20.09375 61.84375 
Q 16.21875 57.28125 16.21875 49.421875 
Q 16.21875 41.5 20.09375 36.953125 
Q 23.96875 32.421875 30.609375 32.421875 
z
" id="DejaVuSans-57"/>
      </defs>
      <g transform="translate(233.125052 260.798437)scale(0.1 -0.1)">
       <use xlink:href="#DejaVuSans-57"/>
      </g>
     </g>
    </g>
    <g id="xtick_10">
     <g id="line2d_10">
      <g>
       <use style="stroke:#000000;stroke-width:0.8;" x="258.353822" xlink:href="#m1112c94e72" y="246.2"/>
      </g>
     </g>
     <g id="text_10">
      <!-- 10 -->
      <defs>
       <path d="M 31.78125 66.40625 
Q 24.171875 66.40625 20.328125 58.90625 
Q 16.5 51.421875 16.5 36.375 
Q 16.5 21.390625 20.328125 13.890625 
Q 24.171875 6.390625 31.78125 6.390625 
Q 39.453125 6.390625 43.28125 13.890625 
Q 47.125 21.390625 47.125 36.375 
Q 47.125 51.421875 43.28125 58.90625 
Q 39.453125 66.40625 31.78125 66.40625 
z
M 31.78125 74.21875 
Q 44.046875 74.21875 50.515625 64.515625 
Q 56.984375 54.828125 56.984375 36.375 
Q 56.984375 17.96875 50.515625 8.265625 
Q 44.046875 -1.421875 31.78125 -1.421875 
Q 19.53125 -1.421875 13.0625 8.265625 
Q 6.59375 17.96875 6.59375 36.375 
Q 6.59375 54.828125 13.0625 64.515625 
Q 19.53125 74.21875 31.78125 74.21875 
z
" id="DejaVuSans-48"/>
      </defs>
      <g transform="translate(251.991322 260.798437)scale(0.1 -0.1)">
       <use xlink:href="#DejaVuSans-49"/>
       <use x="63.623047" xlink:href="#DejaVuSans-48"/>
      </g>
     </g>
    </g>
    <g id="xtick_11">
     <g id="line2d_11">
      <g>
       <use style="stroke:#000000;stroke-width:0.8;" x="280.401343" xlink:href="#m1112c94e72" y="246.2"/>
      </g>
     </g>
     <g id="text_11">
      <!-- 11 -->
      <g transform="translate(274.038843 260.798437)scale(0.1 -0.1)">
       <use xlink:href="#DejaVuSans-49"/>
       <use x="63.623047" xlink:href="#DejaVuSans-49"/>
      </g>
     </g>
    </g>
    <g id="xtick_12">
     <g id="line2d_12">
      <g>
       <use style="stroke:#000000;stroke-width:0.8;" x="302.448864" xlink:href="#m1112c94e72" y="246.2"/>
      </g>
     </g>
     <g id="text_12">
      <!-- 12 -->
      <g transform="translate(296.086364 260.798437)scale(0.1 -0.1)">
       <use xlink:href="#DejaVuSans-49"/>
       <use x="63.623047" xlink:href="#DejaVuSans-50"/>
      </g>
     </g>
    </g>
    <g id="text_13">
     <!-- Month -->
     <defs>
      <path d="M 9.8125 72.90625 
L 24.515625 72.90625 
L 43.109375 23.296875 
L 61.8125 72.90625 
L 76.515625 72.90625 
L 76.515625 0 
L 66.890625 0 
L 66.890625 64.015625 
L 48.09375 14.015625 
L 38.1875 14.015625 
L 19.390625 64.015625 
L 19.390625 0 
L 9.8125 0 
z
" id="DejaVuSans-77"/>
      <path d="M 30.609375 48.390625 
Q 23.390625 48.390625 19.1875 42.75 
Q 14.984375 37.109375 14.984375 27.296875 
Q 14.984375 17.484375 19.15625 11.84375 
Q 23.34375 6.203125 30.609375 6.203125 
Q 37.796875 6.203125 41.984375 11.859375 
Q 46.1875 17.53125 46.1875 27.296875 
Q 46.1875 37.015625 41.984375 42.703125 
Q 37.796875 48.390625 30.609375 48.390625 
z
M 30.609375 56 
Q 42.328125 56 49.015625 48.375 
Q 55.71875 40.765625 55.71875 27.296875 
Q 55.71875 13.875 49.015625 6.21875 
Q 42.328125 -1.421875 30.609375 -1.421875 
Q 18.84375 -1.421875 12.171875 6.21875 
Q 5.515625 13.875 5.515625 27.296875 
Q 5.515625 40.765625 12.171875 48.375 
Q 18.84375 56 30.609375 56 
z
" id="DejaVuSans-111"/>
      <path d="M 54.890625 33.015625 
L 54.890625 0 
L 45.90625 0 
L 45.90625 32.71875 
Q 45.90625 40.484375 42.875 44.328125 
Q 39.84375 48.1875 33.796875 48.1875 
Q 26.515625 48.1875 22.3125 43.546875 
Q 18.109375 38.921875 18.109375 30.90625 
L 18.109375 0 
L 9.078125 0 
L 9.078125 54.6875 
L 18.109375 54.6875 
L 18.109375 46.1875 
Q 21.34375 51.125 25.703125 53.5625 
Q 30.078125 56 35.796875 56 
Q 45.21875 56 50.046875 50.171875 
Q 54.890625 44.34375 54.890625 33.015625 
z
" id="DejaVuSans-110"/>
      <path d="M 18.3125 70.21875 
L 18.3125 54.6875 
L 36.8125 54.6875 
L 36.8125 47.703125 
L 18.3125 47.703125 
L 18.3125 18.015625 
Q 18.3125 11.328125 20.140625 9.421875 
Q 21.96875 7.515625 27.59375 7.515625 
L 36.8125 7.515625 
L 36.8125 0 
L 27.59375 0 
Q 17.1875 0 13.234375 3.875 
Q 9.28125 7.765625 9.28125 18.015625 
L 9.28125 47.703125 
L 2.6875 47.703125 
L 2.6875 54.6875 
L 9.28125 54.6875 
L 9.28125 70.21875 
z
" id="DejaVuSans-116"/>
      <path d="M 54.890625 33.015625 
L 54.890625 0 
L 45.90625 0 
L 45.90625 32.71875 
Q 45.90625 40.484375 42.875 44.328125 
Q 39.84375 48.1875 33.796875 48.1875 
Q 26.515625 48.1875 22.3125 43.546875 
Q 18.109375 38.921875 18.109375 30.90625 
L 18.109375 0 
L 9.078125 0 
L 9.078125 75.984375 
L 18.109375 75.984375 
L 18.109375 46.1875 
Q 21.34375 51.125 25.703125 53.5625 
Q 30.078125 56 35.796875 56 
Q 45.21875 56 50.046875 50.171875 
Q 54.890625 44.34375 54.890625 33.015625 
z
" id="DejaVuSans-104"/>
     </defs>
     <g style="fill:#7f7f7f;" transform="translate(165.516406 274.476562)scale(0.1 -0.1)">
      <use xlink:href="#DejaVuSans-77"/>
      <use x="86.279297" xlink:href="#DejaVuSans-111"/>
      <use x="147.460938" xlink:href="#DejaVuSans-110"/>
      <use x="210.839844" xlink:href="#DejaVuSans-116"/>
      <use x="250.048828" xlink:href="#DejaVuSans-104"/>
     </g>
    </g>
   </g>
   <g id="matplotlib.axis_2">
    <g id="ytick_1">
     <g id="line2d_13">
      <defs>
       <path d="M 0 0 
L -3.5 0 
" id="mdaff5f42d4" style="stroke:#000000;stroke-width:0.8;"/>
      </defs>
      <g>
       <use style="stroke:#000000;stroke-width:0.8;" x="47.8" xlink:href="#mdaff5f42d4" y="236.227273"/>
      </g>
     </g>
     <g id="text_14">
      <!-- 0.0 -->
      <defs>
       <path d="M 10.6875 12.40625 
L 21 12.40625 
L 21 0 
L 10.6875 0 
z
" id="DejaVuSans-46"/>
      </defs>
      <g style="fill:#d92523;" transform="translate(24.896875 240.026491)scale(0.1 -0.1)">
       <use xlink:href="#DejaVuSans-48"/>
       <use x="63.623047" xlink:href="#DejaVuSans-46"/>
       <use x="95.410156" xlink:href="#DejaVuSans-48"/>
      </g>
     </g>
    </g>
    <g id="ytick_2">
     <g id="line2d_14">
      <g>
       <use style="stroke:#000000;stroke-width:0.8;" x="47.8" xlink:href="#mdaff5f42d4" y="177.376425"/>
      </g>
     </g>
     <g id="text_15">
      <!-- 0.6 -->
      <g style="fill:#d92523;" transform="translate(24.896875 181.175644)scale(0.1 -0.1)">
       <use xlink:href="#DejaVuSans-48"/>
       <use x="63.623047" xlink:href="#DejaVuSans-46"/>
       <use x="95.410156" xlink:href="#DejaVuSans-54"/>
      </g>
     </g>
    </g>
    <g id="ytick_3">
     <g id="line2d_15">
      <g>
       <use style="stroke:#000000;stroke-width:0.8;" x="47.8" xlink:href="#mdaff5f42d4" y="118.525578"/>
      </g>
     </g>
     <g id="text_16">
      <!-- 1.2 -->
      <g style="fill:#d92523;" transform="translate(24.896875 122.324797)scale(0.1 -0.1)">
       <use xlink:href="#DejaVuSans-49"/>
       <use x="63.623047" xlink:href="#DejaVuSans-46"/>
       <use x="95.410156" xlink:href="#DejaVuSans-50"/>
      </g>
     </g>
    </g>
    <g id="ytick_4">
     <g id="line2d_16">
      <g>
       <use style="stroke:#000000;stroke-width:0.8;" x="47.8" xlink:href="#mdaff5f42d4" y="59.674731"/>
      </g>
     </g>
     <g id="text_17">
      <!-- 1.8 -->
      <g style="fill:#d92523;" transform="translate(24.896875 63.473949)scale(0.1 -0.1)">
       <use xlink:href="#DejaVuSans-49"/>
       <use x="63.623047" xlink:href="#DejaVuSans-46"/>
       <use x="95.410156" xlink:href="#DejaVuSans-56"/>
      </g>
     </g>
    </g>
    <g id="text_18">
     <!-- Acres Burned -->
     <defs>
      <path d="M 34.1875 63.1875 
L 20.796875 26.90625 
L 47.609375 26.90625 
z
M 28.609375 72.90625 
L 39.796875 72.90625 
L 67.578125 0 
L 57.328125 0 
L 50.6875 18.703125 
L 17.828125 18.703125 
L 11.1875 0 
L 0.78125 0 
z
" id="DejaVuSans-65"/>
      <path d="M 48.78125 52.59375 
L 48.78125 44.1875 
Q 44.96875 46.296875 41.140625 47.34375 
Q 37.3125 48.390625 33.40625 48.390625 
Q 24.65625 48.390625 19.8125 42.84375 
Q 14.984375 37.3125 14.984375 27.296875 
Q 14.984375 17.28125 19.8125 11.734375 
Q 24.65625 6.203125 33.40625 6.203125 
Q 37.3125 6.203125 41.140625 7.25 
Q 44.96875 8.296875 48.78125 10.40625 
L 48.78125 2.09375 
Q 45.015625 0.34375 40.984375 -0.53125 
Q 36.96875 -1.421875 32.421875 -1.421875 
Q 20.0625 -1.421875 12.78125 6.34375 
Q 5.515625 14.109375 5.515625 27.296875 
Q 5.515625 40.671875 12.859375 48.328125 
Q 20.21875 56 33.015625 56 
Q 37.15625 56 41.109375 55.140625 
Q 45.0625 54.296875 48.78125 52.59375 
z
" id="DejaVuSans-99"/>
      <path d="M 41.109375 46.296875 
Q 39.59375 47.171875 37.8125 47.578125 
Q 36.03125 48 33.890625 48 
Q 26.265625 48 22.1875 43.046875 
Q 18.109375 38.09375 18.109375 28.8125 
L 18.109375 0 
L 9.078125 0 
L 9.078125 54.6875 
L 18.109375 54.6875 
L 18.109375 46.1875 
Q 20.953125 51.171875 25.484375 53.578125 
Q 30.03125 56 36.53125 56 
Q 37.453125 56 38.578125 55.875 
Q 39.703125 55.765625 41.0625 55.515625 
z
" id="DejaVuSans-114"/>
      <path d="M 56.203125 29.59375 
L 56.203125 25.203125 
L 14.890625 25.203125 
Q 15.484375 15.921875 20.484375 11.0625 
Q 25.484375 6.203125 34.421875 6.203125 
Q 39.59375 6.203125 44.453125 7.46875 
Q 49.3125 8.734375 54.109375 11.28125 
L 54.109375 2.78125 
Q 49.265625 0.734375 44.1875 -0.34375 
Q 39.109375 -1.421875 33.890625 -1.421875 
Q 20.796875 -1.421875 13.15625 6.1875 
Q 5.515625 13.8125 5.515625 26.8125 
Q 5.515625 40.234375 12.765625 48.109375 
Q 20.015625 56 32.328125 56 
Q 43.359375 56 49.78125 48.890625 
Q 56.203125 41.796875 56.203125 29.59375 
z
M 47.21875 32.234375 
Q 47.125 39.59375 43.09375 43.984375 
Q 39.0625 48.390625 32.421875 48.390625 
Q 24.90625 48.390625 20.390625 44.140625 
Q 15.875 39.890625 15.1875 32.171875 
z
" id="DejaVuSans-101"/>
      <path d="M 44.28125 53.078125 
L 44.28125 44.578125 
Q 40.484375 46.53125 36.375 47.5 
Q 32.28125 48.484375 27.875 48.484375 
Q 21.1875 48.484375 17.84375 46.4375 
Q 14.5 44.390625 14.5 40.28125 
Q 14.5 37.15625 16.890625 35.375 
Q 19.28125 33.59375 26.515625 31.984375 
L 29.59375 31.296875 
Q 39.15625 29.25 43.1875 25.515625 
Q 47.21875 21.78125 47.21875 15.09375 
Q 47.21875 7.46875 41.1875 3.015625 
Q 35.15625 -1.421875 24.609375 -1.421875 
Q 20.21875 -1.421875 15.453125 -0.5625 
Q 10.6875 0.296875 5.421875 2 
L 5.421875 11.28125 
Q 10.40625 8.6875 15.234375 7.390625 
Q 20.0625 6.109375 24.8125 6.109375 
Q 31.15625 6.109375 34.5625 8.28125 
Q 37.984375 10.453125 37.984375 14.40625 
Q 37.984375 18.0625 35.515625 20.015625 
Q 33.0625 21.96875 24.703125 23.78125 
L 21.578125 24.515625 
Q 13.234375 26.265625 9.515625 29.90625 
Q 5.8125 33.546875 5.8125 39.890625 
Q 5.8125 47.609375 11.28125 51.796875 
Q 16.75 56 26.8125 56 
Q 31.78125 56 36.171875 55.265625 
Q 40.578125 54.546875 44.28125 53.078125 
z
" id="DejaVuSans-115"/>
      <path id="DejaVuSans-32"/>
      <path d="M 19.671875 34.8125 
L 19.671875 8.109375 
L 35.5 8.109375 
Q 43.453125 8.109375 47.28125 11.40625 
Q 51.125 14.703125 51.125 21.484375 
Q 51.125 28.328125 47.28125 31.5625 
Q 43.453125 34.8125 35.5 34.8125 
z
M 19.671875 64.796875 
L 19.671875 42.828125 
L 34.28125 42.828125 
Q 41.5 42.828125 45.03125 45.53125 
Q 48.578125 48.25 48.578125 53.8125 
Q 48.578125 59.328125 45.03125 62.0625 
Q 41.5 64.796875 34.28125 64.796875 
z
M 9.8125 72.90625 
L 35.015625 72.90625 
Q 46.296875 72.90625 52.390625 68.21875 
Q 58.5 63.53125 58.5 54.890625 
Q 58.5 48.1875 55.375 44.234375 
Q 52.25 40.28125 46.1875 39.3125 
Q 53.46875 37.75 57.5 32.78125 
Q 61.53125 27.828125 61.53125 20.40625 
Q 61.53125 10.640625 54.890625 5.3125 
Q 48.25 0 35.984375 0 
L 9.8125 0 
z
" id="DejaVuSans-66"/>
      <path d="M 8.5 21.578125 
L 8.5 54.6875 
L 17.484375 54.6875 
L 17.484375 21.921875 
Q 17.484375 14.15625 20.5 10.265625 
Q 23.53125 6.390625 29.59375 6.390625 
Q 36.859375 6.390625 41.078125 11.03125 
Q 45.3125 15.671875 45.3125 23.6875 
L 45.3125 54.6875 
L 54.296875 54.6875 
L 54.296875 0 
L 45.3125 0 
L 45.3125 8.40625 
Q 42.046875 3.421875 37.71875 1 
Q 33.40625 -1.421875 27.6875 -1.421875 
Q 18.265625 -1.421875 13.375 4.4375 
Q 8.5 10.296875 8.5 21.578125 
z
M 31.109375 56 
z
" id="DejaVuSans-117"/>
      <path d="M 45.40625 46.390625 
L 45.40625 75.984375 
L 54.390625 75.984375 
L 54.390625 0 
L 45.40625 0 
L 45.40625 8.203125 
Q 42.578125 3.328125 38.25 0.953125 
Q 33.9375 -1.421875 27.875 -1.421875 
Q 17.96875 -1.421875 11.734375 6.484375 
Q 5.515625 14.40625 5.515625 27.296875 
Q 5.515625 40.1875 11.734375 48.09375 
Q 17.96875 56 27.875 56 
Q 33.9375 56 38.25 53.625 
Q 42.578125 51.265625 45.40625 46.390625 
z
M 14.796875 27.296875 
Q 14.796875 17.390625 18.875 11.75 
Q 22.953125 6.109375 30.078125 6.109375 
Q 37.203125 6.109375 41.296875 11.75 
Q 45.40625 17.390625 45.40625 27.296875 
Q 45.40625 37.203125 41.296875 42.84375 
Q 37.203125 48.484375 30.078125 48.484375 
Q 22.953125 48.484375 18.875 42.84375 
Q 14.796875 37.203125 14.796875 27.296875 
z
" id="DejaVuSans-100"/>
     </defs>
     <g style="fill:#d92523;" transform="translate(18.817187 170.066406)rotate(-90)scale(0.1 -0.1)">
      <use xlink:href="#DejaVuSans-65"/>
      <use x="68.392578" xlink:href="#DejaVuSans-99"/>
      <use x="123.373047" xlink:href="#DejaVuSans-114"/>
      <use x="164.455078" xlink:href="#DejaVuSans-101"/>
      <use x="225.978516" xlink:href="#DejaVuSans-115"/>
      <use x="278.078125" xlink:href="#DejaVuSans-32"/>
      <use x="309.865234" xlink:href="#DejaVuSans-66"/>
      <use x="378.46875" xlink:href="#DejaVuSans-117"/>
      <use x="441.847656" xlink:href="#DejaVuSans-114"/>
      <use x="482.945312" xlink:href="#DejaVuSans-110"/>
      <use x="546.324219" xlink:href="#DejaVuSans-101"/>
      <use x="607.847656" xlink:href="#DejaVuSans-100"/>
     </g>
    </g>
    <g id="text_19">
     <!-- 1e4 -->
     <g transform="translate(47.8 23.8)scale(0.1 -0.1)">
      <use xlink:href="#DejaVuSans-49"/>
      <use x="63.623047" xlink:href="#DejaVuSans-101"/>
      <use x="125.146484" xlink:href="#DejaVuSans-52"/>
     </g>
    </g>
   </g>
   <g id="line2d_17">
    <path clip-path="url(#p2c767480ef)" d="M 59.926136 236.227273 
L 81.973657 236.227273 
L 104.021178 236.227273 
L 126.068698 236.227273 
L 148.116219 236.227273 
L 170.16374 236.227273 
L 192.21126 236.227273 
L 214.258781 236.227273 
L 236.306302 236.227273 
L 258.353822 236.227273 
L 280.401343 236.227273 
L 302.448864 236.227273 
" style="fill:none;stroke:#fee5d8;stroke-linecap:square;stroke-opacity:0.5;stroke-width:1.5;"/>
   </g>
   <g id="line2d_18">
    <path clip-path="url(#p2c767480ef)" d="M 59.926136 236.227273 
L 81.973657 236.227273 
L 104.021178 236.227273 
L 126.068698 236.227273 
L 148.116219 236.227273 
L 170.16374 236.227273 
L 192.21126 236.227273 
L 214.258781 236.227273 
L 236.306302 236.227273 
L 258.353822 236.227273 
L 280.401343 236.227273 
L 302.448864 236.227273 
" style="fill:none;stroke:#fedecf;stroke-linecap:square;stroke-opacity:0.5;stroke-width:1.5;"/>
   </g>
   <g id="line2d_19">
    <path clip-path="url(#p2c767480ef)" d="M 59.926136 236.227273 
L 81.973657 236.227273 
L 104.021178 236.227273 
L 126.068698 236.227273 
L 148.116219 236.227273 
L 170.16374 236.227273 
L 192.21126 236.227273 
L 214.258781 236.227273 
L 236.306302 236.227273 
L 258.353822 236.227273 
L 280.401343 236.227273 
L 302.448864 236.227273 
" style="fill:none;stroke:#fdd3c1;stroke-linecap:square;stroke-opacity:0.5;stroke-width:1.5;"/>
   </g>
   <g id="line2d_20">
    <path clip-path="url(#p2c767480ef)" d="M 59.926136 236.227273 
L 81.973657 236.227273 
L 104.021178 236.227273 
L 126.068698 236.227273 
L 148.116219 236.227273 
L 170.16374 236.227273 
L 192.21126 236.227273 
L 214.258781 236.227273 
L 236.306302 236.227273 
L 258.353822 236.227273 
L 280.401343 236.227273 
L 302.448864 236.227273 
" style="fill:none;stroke:#fdc9b3;stroke-linecap:square;stroke-opacity:0.5;stroke-width:1.5;"/>
   </g>
   <g id="line2d_21">
    <path clip-path="url(#p2c767480ef)" d="M 59.926136 236.227273 
L 81.973657 236.227273 
L 104.021178 236.227273 
L 126.068698 236.227273 
L 148.116219 236.227273 
L 170.16374 236.227273 
L 192.21126 236.227273 
L 214.258781 236.227273 
L 236.306302 236.227273 
L 258.353822 236.227273 
L 280.401343 236.227273 
L 302.448864 236.227273 
" style="fill:none;stroke:#fcbea5;stroke-linecap:square;stroke-opacity:0.5;stroke-width:1.5;"/>
   </g>
   <g id="line2d_22">
    <path clip-path="url(#p2c767480ef)" d="M 59.926136 236.227273 
L 81.973657 235.266042 
L 104.021178 234.002711 
L 126.068698 230.860075 
L 148.116219 234.236152 
L 170.16374 236.227273 
L 192.21126 236.227273 
L 214.258781 235.578933 
L 236.306302 236.227273 
L 258.353822 236.227273 
L 280.401343 236.227273 
L 302.448864 236.227273 
" style="fill:none;stroke:#fcb398;stroke-linecap:square;stroke-opacity:0.5;stroke-width:1.5;"/>
   </g>
   <g id="line2d_23">
    <path clip-path="url(#p2c767480ef)" d="M 59.926136 236.227273 
L 81.973657 235.603454 
L 104.021178 235.952635 
L 126.068698 231.742838 
L 148.116219 236.227273 
L 170.16374 236.227273 
L 192.21126 236.227273 
L 214.258781 236.188039 
L 236.306302 233.344562 
L 258.353822 234.772676 
L 280.401343 234.77758 
L 302.448864 235.635822 
" style="fill:none;stroke:#fca78b;stroke-linecap:square;stroke-opacity:0.5;stroke-width:1.5;"/>
   </g>
   <g id="line2d_24">
    <path clip-path="url(#p2c767480ef)" d="M 59.926136 235.775102 
L 81.973657 236.227273 
L 104.021178 233.113082 
L 126.068698 226.556117 
L 148.116219 236.089954 
L 170.16374 236.215503 
L 192.21126 236.227273 
L 214.258781 235.994812 
L 236.306302 233.186646 
L 258.353822 233.352409 
L 280.401343 221.396859 
L 302.448864 229.330934 
" style="fill:none;stroke:#fc9d7f;stroke-linecap:square;stroke-opacity:0.5;stroke-width:1.5;"/>
   </g>
   <g id="line2d_25">
    <path clip-path="url(#p2c767480ef)" d="M 59.926136 235.971272 
L 81.973657 235.717232 
L 104.021178 234.900186 
L 126.068698 235.874168 
L 148.116219 235.324893 
L 170.16374 236.217464 
L 192.21126 236.226292 
L 214.258781 236.227273 
L 236.306302 235.952635 
L 258.353822 233.183703 
L 280.401343 193.962556 
L 302.448864 236.227273 
" style="fill:none;stroke:#fc9272;stroke-linecap:square;stroke-opacity:0.5;stroke-width:1.5;"/>
   </g>
   <g id="line2d_26">
    <path clip-path="url(#p2c767480ef)" d="M 59.926136 236.227273 
L 81.973657 232.513784 
L 104.021178 235.539699 
L 126.068698 232.79823 
L 148.116219 233.517191 
L 170.16374 236.197847 
L 192.21126 236.227273 
L 214.258781 236.227273 
L 236.306302 236.227273 
L 258.353822 234.572583 
L 280.401343 197.839846 
L 302.448864 235.96931 
" style="fill:none;stroke:#fc8666;stroke-linecap:square;stroke-opacity:0.5;stroke-width:1.5;"/>
   </g>
   <g id="line2d_27">
    <path clip-path="url(#p2c767480ef)" d="M 59.926136 235.8418 
L 81.973657 235.156187 
L 104.021178 234.873703 
L 126.068698 234.648108 
L 148.116219 236.15469 
L 170.16374 234.979635 
L 192.21126 235.293506 
L 214.258781 231.549611 
L 236.306302 225.045612 
L 258.353822 236.227273 
L 280.401343 236.227273 
L 302.448864 236.227273 
" style="fill:none;stroke:#fb7b5b;stroke-linecap:square;stroke-opacity:0.5;stroke-width:1.5;"/>
   </g>
   <g id="line2d_28">
    <path clip-path="url(#p2c767480ef)" d="M 59.926136 234.657917 
L 81.973657 236.227273 
L 104.021178 234.839374 
L 126.068698 231.244568 
L 148.116219 236.227273 
L 170.16374 236.227273 
L 192.21126 236.227273 
L 214.258781 236.227273 
L 236.306302 236.226292 
L 258.353822 235.756466 
L 280.401343 235.017888 
L 302.448864 235.785891 
" style="fill:none;stroke:#fb7050;stroke-linecap:square;stroke-opacity:0.5;stroke-width:1.5;"/>
   </g>
   <g id="line2d_29">
    <path clip-path="url(#p2c767480ef)" d="M 59.926136 236.226292 
L 81.973657 236.227273 
L 104.021178 225.052478 
L 126.068698 227.745885 
L 148.116219 235.369031 
L 170.16374 236.227273 
L 192.21126 236.227273 
L 214.258781 236.227273 
L 236.306302 236.227273 
L 258.353822 236.227273 
L 280.401343 235.973724 
L 302.448864 236.040912 
" style="fill:none;stroke:#f96346;stroke-linecap:square;stroke-opacity:0.5;stroke-width:1.5;"/>
   </g>
   <g id="line2d_30">
    <path clip-path="url(#p2c767480ef)" d="M 59.926136 225.781738 
L 81.973657 230.408886 
L 104.021178 184.747984 
L 126.068698 191.220597 
L 148.116219 231.313227 
L 170.16374 235.949693 
L 192.21126 235.843761 
L 214.258781 235.172862 
L 236.306302 225.637553 
L 258.353822 224.982837 
L 280.401343 146.611164 
L 302.448864 225.771439 
" style="fill:none;stroke:#f6563d;stroke-linecap:square;stroke-opacity:0.5;stroke-width:1.5;"/>
   </g>
   <g id="line2d_31">
    <path clip-path="url(#p2c767480ef)" d="M 59.926136 215.09001 
L 81.973657 218.287573 
L 104.021178 77.958708 
L 126.068698 168.726332 
L 148.116219 233.790848 
L 170.16374 232.882583 
L 192.21126 230.497162 
L 214.258781 232.559884 
L 236.306302 234.028213 
L 258.353822 233.125833 
L 280.401343 224.640522 
L 302.448864 221.244828 
" style="fill:none;stroke:#f34935;stroke-linecap:square;stroke-opacity:0.5;stroke-width:1.5;"/>
   </g>
   <g id="line2d_32">
    <path clip-path="url(#p2c767480ef)" d="M 59.926136 232.964484 
L 81.973657 175.327631 
L 104.021178 36.772727 
L 126.068698 184.935032 
L 148.116219 171.21229 
L 170.16374 211.75611 
L 192.21126 232.82177 
L 214.258781 178.787374 
L 236.306302 215.549537 
L 258.353822 224.021999 
L 280.401343 230.319138 
L 302.448864 228.674355 
" style="fill:none;stroke:#ef3c2c;stroke-linecap:square;stroke-opacity:0.5;stroke-width:1.5;"/>
   </g>
   <g id="line2d_33">
    <path clip-path="url(#p2c767480ef)" d="M 59.926136 233.552698 
L 81.973657 230.198003 
L 104.021178 212.748825 
L 126.068698 159.127758 
L 148.116219 217.063475 
L 170.16374 223.699399 
L 192.21126 233.024806 
L 214.258781 202.992238 
L 236.306302 229.994674 
L 258.353822 228.008556 
L 280.401343 219.85791 
L 302.448864 231.43289 
" style="fill:none;stroke:#e53228;stroke-linecap:square;stroke-opacity:0.5;stroke-width:1.5;"/>
   </g>
   <g id="line2d_34">
    <path clip-path="url(#p2c767480ef)" d="M 59.926136 232.342136 
L 81.973657 205.602763 
L 104.021178 179.584313 
L 126.068698 180.317006 
L 148.116219 236.121341 
L 170.16374 235.213076 
L 192.21126 235.636606 
L 214.258781 236.06151 
L 236.306302 236.137035 
L 258.353822 236.206675 
L 280.401343 212.394641 
L 302.448864 234.807986 
" style="fill:none;stroke:#dc2924;stroke-linecap:square;stroke-opacity:0.5;stroke-width:1.5;"/>
   </g>
   <g id="line2d_35">
    <path clip-path="url(#p2c767480ef)" d="M 59.926136 235.765784 
L 81.973657 231.428967 
L 104.021178 204.811023 
L 126.068698 142.483268 
L 148.116219 235.706933 
L 170.16374 235.710366 
L 192.21126 233.741805 
L 214.258781 232.329385 
L 236.306302 220.438571 
L 258.353822 196.746888 
L 280.401343 218.998687 
L 302.448864 233.698648 
" style="fill:none;stroke:#d21f20;stroke-linecap:square;stroke-opacity:0.5;stroke-width:1.5;"/>
   </g>
   <g id="line2d_36">
    <path clip-path="url(#p2c767480ef)" d="M 59.926136 234.477441 
L 81.973657 209.142642 
L 104.021178 222.931395 
L 126.068698 220.281145 
L 148.116219 234.648108 
L 170.16374 231.967452 
L 192.21126 234.292649 
L 214.258781 226.312376 
L 236.306302 234.539627 
L 258.353822 233.825177 
L 280.401343 199.502382 
L 302.448864 232.662873 
" style="fill:none;stroke:#c8171c;stroke-linecap:square;stroke-opacity:0.5;stroke-width:1.5;"/>
   </g>
   <g id="line2d_37">
    <path clip-path="url(#p2c767480ef)" d="M 59.926136 226.885682 
L 81.973657 231.164138 
L 104.021178 221.928969 
L 126.068698 225.835292 
L 148.116219 235.173352 
L 170.16374 219.076174 
L 192.21126 207.97151 
L 214.258781 234.008105 
L 236.306302 235.759899 
L 258.353822 226.768961 
L 280.401343 129.503713 
L 302.448864 227.755693 
" style="fill:none;stroke:#bd151a;stroke-linecap:square;stroke-opacity:0.5;stroke-width:1.5;"/>
   </g>
   <g id="line2d_38">
    <path clip-path="url(#p2c767480ef)" d="M 59.926136 233.92032 
L 81.973657 232.536344 
L 104.021178 211.3981 
L 126.068698 219.604851 
L 148.116219 229.119562 
L 170.16374 235.535677 
L 192.21126 236.185096 
L 214.258781 235.997754 
L 236.306302 236.009525 
L 258.353822 235.625032 
L 280.401343 197.969318 
L 302.448864 233.159672 
" style="fill:none;stroke:#b21218;stroke-linecap:square;stroke-opacity:0.5;stroke-width:1.5;"/>
   </g>
   <g id="line2d_39">
    <path clip-path="url(#p2c767480ef)" d="M 59.926136 223.71313 
L 81.973657 215.237628 
L 104.021178 159.205245 
L 126.068698 194.585394 
L 148.116219 232.603041 
L 170.16374 235.453384 
L 192.21126 235.925172 
L 214.258781 235.59953 
L 236.306302 235.50635 
L 258.353822 236.056605 
L 280.401343 224.453474 
L 302.448864 235.582856 
" style="fill:none;stroke:#a81016;stroke-linecap:square;stroke-opacity:0.5;stroke-width:1.5;"/>
   </g>
   <g id="line2d_40">
    <path clip-path="url(#p2c767480ef)" d="M 59.926136 231.945775 
L 81.973657 214.284734 
L 104.021178 223.85094 
L 126.068698 218.80546 
L 148.116219 228.911132 
L 170.16374 235.848666 
L 192.21126 236.221388 
L 214.258781 236.055624 
L 236.306302 235.733906 
L 258.353822 232.250917 
L 280.401343 224.380107 
L 302.448864 232.910047 
" style="fill:none;stroke:#980c13;stroke-linecap:square;stroke-opacity:0.5;stroke-width:1.5;"/>
   </g>
   <g id="line2d_41">
    <path clip-path="url(#p2c767480ef)" d="M 59.926136 233.11374 
L 81.973657 227.403925 
L 104.021178 207.722853 
L 126.068698 214.105354 
L 148.116219 231.247755 
L 170.16374 233.447853 
L 192.21126 234.257563 
L 214.258781 231.301396 
L 236.306302 233.037867 
L 258.353822 232.044812 
L 280.401343 216.716267 
L 302.448864 233.345097 
" style="fill:none;stroke:#ff0000;stroke-dasharray:5.55,2.4;stroke-dashoffset:0;stroke-width:1.5;"/>
   </g>
   <g id="patch_3">
    <path d="M 47.8 246.2 
L 47.8 26.8 
" style="fill:none;stroke:#000000;stroke-linecap:square;stroke-linejoin:miter;stroke-width:0.8;"/>
   </g>
   <g id="patch_4">
    <path d="M 314.575 246.2 
L 314.575 26.8 
" style="fill:none;stroke:#000000;stroke-linecap:square;stroke-linejoin:miter;stroke-width:0.8;"/>
   </g>
   <g id="patch_5">
    <path d="M 47.8 246.2 
L 314.575 246.2 
" style="fill:none;stroke:#000000;stroke-linecap:square;stroke-linejoin:miter;stroke-width:0.8;"/>
   </g>
   <g id="patch_6">
    <path d="M 47.8 26.8 
L 314.575 26.8 
" style="fill:none;stroke:#000000;stroke-linecap:square;stroke-linejoin:miter;stroke-width:0.8;"/>
   </g>
   <g id="text_20">
    <!-- Tennessee -->
    <defs>
     <path d="M -0.296875 72.90625 
L 61.375 72.90625 
L 61.375 64.59375 
L 35.5 64.59375 
L 35.5 0 
L 25.59375 0 
L 25.59375 64.59375 
L -0.296875 64.59375 
z
" id="DejaVuSans-84"/>
    </defs>
    <g transform="translate(148.915 20.8)scale(0.12 -0.12)">
     <use xlink:href="#DejaVuSans-84"/>
     <use x="60.818359" xlink:href="#DejaVuSans-101"/>
     <use x="122.341797" xlink:href="#DejaVuSans-110"/>
     <use x="185.720703" xlink:href="#DejaVuSans-110"/>
     <use x="249.099609" xlink:href="#DejaVuSans-101"/>
     <use x="310.623047" xlink:href="#DejaVuSans-115"/>
     <use x="362.722656" xlink:href="#DejaVuSans-115"/>
     <use x="414.822266" xlink:href="#DejaVuSans-101"/>
     <use x="476.345703" xlink:href="#DejaVuSans-101"/>
    </g>
   </g>
  </g>
  <g id="axes_2">
   <g id="matplotlib.axis_3">
    <g id="ytick_5">
     <g id="line2d_42">
      <defs>
       <path d="M 0 0 
L 3.5 0 
" id="m78e3ae8d8e" style="stroke:#000000;stroke-width:0.8;"/>
      </defs>
      <g>
       <use style="stroke:#000000;stroke-width:0.8;" x="314.575" xlink:href="#m78e3ae8d8e" y="225.772595"/>
      </g>
     </g>
     <g id="text_21">
      <!-- 30 -->
      <g transform="translate(321.575 229.571813)scale(0.1 -0.1)">
       <use xlink:href="#DejaVuSans-51"/>
       <use x="63.623047" xlink:href="#DejaVuSans-48"/>
      </g>
     </g>
    </g>
    <g id="ytick_6">
     <g id="line2d_43">
      <g>
       <use style="stroke:#000000;stroke-width:0.8;" x="314.575" xlink:href="#m78e3ae8d8e" y="194.716445"/>
      </g>
     </g>
     <g id="text_22">
      <!-- 40 -->
      <g transform="translate(321.575 198.515663)scale(0.1 -0.1)">
       <use xlink:href="#DejaVuSans-52"/>
       <use x="63.623047" xlink:href="#DejaVuSans-48"/>
      </g>
     </g>
    </g>
    <g id="ytick_7">
     <g id="line2d_44">
      <g>
       <use style="stroke:#000000;stroke-width:0.8;" x="314.575" xlink:href="#m78e3ae8d8e" y="163.660295"/>
      </g>
     </g>
     <g id="text_23">
      <!-- 50 -->
      <g transform="translate(321.575 167.459513)scale(0.1 -0.1)">
       <use xlink:href="#DejaVuSans-53"/>
       <use x="63.623047" xlink:href="#DejaVuSans-48"/>
      </g>
     </g>
    </g>
    <g id="ytick_8">
     <g id="line2d_45">
      <g>
       <use style="stroke:#000000;stroke-width:0.8;" x="314.575" xlink:href="#m78e3ae8d8e" y="132.604145"/>
      </g>
     </g>
     <g id="text_24">
      <!-- 60 -->
      <g transform="translate(321.575 136.403363)scale(0.1 -0.1)">
       <use xlink:href="#DejaVuSans-54"/>
       <use x="63.623047" xlink:href="#DejaVuSans-48"/>
      </g>
     </g>
    </g>
    <g id="ytick_9">
     <g id="line2d_46">
      <g>
       <use style="stroke:#000000;stroke-width:0.8;" x="314.575" xlink:href="#m78e3ae8d8e" y="101.547995"/>
      </g>
     </g>
     <g id="text_25">
      <!-- 70 -->
      <g transform="translate(321.575 105.347213)scale(0.1 -0.1)">
       <use xlink:href="#DejaVuSans-55"/>
       <use x="63.623047" xlink:href="#DejaVuSans-48"/>
      </g>
     </g>
    </g>
    <g id="ytick_10">
     <g id="line2d_47">
      <g>
       <use style="stroke:#000000;stroke-width:0.8;" x="314.575" xlink:href="#m78e3ae8d8e" y="70.491845"/>
      </g>
     </g>
     <g id="text_26">
      <!-- 80 -->
      <g transform="translate(321.575 74.291063)scale(0.1 -0.1)">
       <use xlink:href="#DejaVuSans-56"/>
       <use x="63.623047" xlink:href="#DejaVuSans-48"/>
      </g>
     </g>
    </g>
    <g id="ytick_11">
     <g id="line2d_48">
      <g>
       <use style="stroke:#000000;stroke-width:0.8;" x="314.575" xlink:href="#m78e3ae8d8e" y="39.435695"/>
      </g>
     </g>
     <g id="text_27">
      <!-- 90 -->
      <g transform="translate(321.575 43.234914)scale(0.1 -0.1)">
       <use xlink:href="#DejaVuSans-57"/>
       <use x="63.623047" xlink:href="#DejaVuSans-48"/>
      </g>
     </g>
    </g>
    <g id="text_28">
     <!-- Average AQI -->
     <defs>
      <path d="M 2.984375 54.6875 
L 12.5 54.6875 
L 29.59375 8.796875 
L 46.6875 54.6875 
L 56.203125 54.6875 
L 35.6875 0 
L 23.484375 0 
z
" id="DejaVuSans-118"/>
      <path d="M 34.28125 27.484375 
Q 23.390625 27.484375 19.1875 25 
Q 14.984375 22.515625 14.984375 16.5 
Q 14.984375 11.71875 18.140625 8.90625 
Q 21.296875 6.109375 26.703125 6.109375 
Q 34.1875 6.109375 38.703125 11.40625 
Q 43.21875 16.703125 43.21875 25.484375 
L 43.21875 27.484375 
z
M 52.203125 31.203125 
L 52.203125 0 
L 43.21875 0 
L 43.21875 8.296875 
Q 40.140625 3.328125 35.546875 0.953125 
Q 30.953125 -1.421875 24.3125 -1.421875 
Q 15.921875 -1.421875 10.953125 3.296875 
Q 6 8.015625 6 15.921875 
Q 6 25.140625 12.171875 29.828125 
Q 18.359375 34.515625 30.609375 34.515625 
L 43.21875 34.515625 
L 43.21875 35.40625 
Q 43.21875 41.609375 39.140625 45 
Q 35.0625 48.390625 27.6875 48.390625 
Q 23 48.390625 18.546875 47.265625 
Q 14.109375 46.140625 10.015625 43.890625 
L 10.015625 52.203125 
Q 14.9375 54.109375 19.578125 55.046875 
Q 24.21875 56 28.609375 56 
Q 40.484375 56 46.34375 49.84375 
Q 52.203125 43.703125 52.203125 31.203125 
z
" id="DejaVuSans-97"/>
      <path d="M 45.40625 27.984375 
Q 45.40625 37.75 41.375 43.109375 
Q 37.359375 48.484375 30.078125 48.484375 
Q 22.859375 48.484375 18.828125 43.109375 
Q 14.796875 37.75 14.796875 27.984375 
Q 14.796875 18.265625 18.828125 12.890625 
Q 22.859375 7.515625 30.078125 7.515625 
Q 37.359375 7.515625 41.375 12.890625 
Q 45.40625 18.265625 45.40625 27.984375 
z
M 54.390625 6.78125 
Q 54.390625 -7.171875 48.1875 -13.984375 
Q 42 -20.796875 29.203125 -20.796875 
Q 24.46875 -20.796875 20.265625 -20.09375 
Q 16.0625 -19.390625 12.109375 -17.921875 
L 12.109375 -9.1875 
Q 16.0625 -11.328125 19.921875 -12.34375 
Q 23.78125 -13.375 27.78125 -13.375 
Q 36.625 -13.375 41.015625 -8.765625 
Q 45.40625 -4.15625 45.40625 5.171875 
L 45.40625 9.625 
Q 42.625 4.78125 38.28125 2.390625 
Q 33.9375 0 27.875 0 
Q 17.828125 0 11.671875 7.65625 
Q 5.515625 15.328125 5.515625 27.984375 
Q 5.515625 40.671875 11.671875 48.328125 
Q 17.828125 56 27.875 56 
Q 33.9375 56 38.28125 53.609375 
Q 42.625 51.21875 45.40625 46.390625 
L 45.40625 54.6875 
L 54.390625 54.6875 
z
" id="DejaVuSans-103"/>
      <path d="M 39.40625 66.21875 
Q 28.65625 66.21875 22.328125 58.203125 
Q 16.015625 50.203125 16.015625 36.375 
Q 16.015625 22.609375 22.328125 14.59375 
Q 28.65625 6.59375 39.40625 6.59375 
Q 50.140625 6.59375 56.421875 14.59375 
Q 62.703125 22.609375 62.703125 36.375 
Q 62.703125 50.203125 56.421875 58.203125 
Q 50.140625 66.21875 39.40625 66.21875 
z
M 53.21875 1.3125 
L 66.21875 -12.890625 
L 54.296875 -12.890625 
L 43.5 -1.21875 
Q 41.890625 -1.3125 41.03125 -1.359375 
Q 40.1875 -1.421875 39.40625 -1.421875 
Q 24.03125 -1.421875 14.8125 8.859375 
Q 5.609375 19.140625 5.609375 36.375 
Q 5.609375 53.65625 14.8125 63.9375 
Q 24.03125 74.21875 39.40625 74.21875 
Q 54.734375 74.21875 63.90625 63.9375 
Q 73.09375 53.65625 73.09375 36.375 
Q 73.09375 23.6875 67.984375 14.640625 
Q 62.890625 5.609375 53.21875 1.3125 
z
" id="DejaVuSans-81"/>
      <path d="M 9.8125 72.90625 
L 19.671875 72.90625 
L 19.671875 0 
L 9.8125 0 
z
" id="DejaVuSans-73"/>
     </defs>
     <g style="fill:#5f5f5f;" transform="translate(341.701563 105.257812)rotate(-270)scale(0.1 -0.1)">
      <use xlink:href="#DejaVuSans-65"/>
      <use x="68.330078" xlink:href="#DejaVuSans-118"/>
      <use x="127.509766" xlink:href="#DejaVuSans-101"/>
      <use x="189.033203" xlink:href="#DejaVuSans-114"/>
      <use x="230.146484" xlink:href="#DejaVuSans-97"/>
      <use x="291.425781" xlink:href="#DejaVuSans-103"/>
      <use x="354.902344" xlink:href="#DejaVuSans-101"/>
      <use x="416.425781" xlink:href="#DejaVuSans-32"/>
      <use x="448.212891" xlink:href="#DejaVuSans-65"/>
      <use x="516.605469" xlink:href="#DejaVuSans-81"/>
      <use x="595.316406" xlink:href="#DejaVuSans-73"/>
     </g>
    </g>
   </g>
   <g id="line2d_49">
    <path clip-path="url(#p2c767480ef)" d="M 59.926136 189.575015 
L 81.973657 184.780185 
L 104.021178 187.590131 
L 126.068698 159.980434 
L 148.116219 141.836946 
L 170.16374 155.341269 
L 192.21126 172.662744 
L 214.258781 179.502421 
L 236.306302 191.183036 
L 258.353822 170.03038 
L 280.401343 203.791173 
L 302.448864 224.869312 
" style="fill:none;stroke:#f3f3f3;stroke-linecap:square;stroke-opacity:0.5;stroke-width:1.5;"/>
   </g>
   <g id="line2d_50">
    <path clip-path="url(#p2c767480ef)" d="M 59.926136 208.65373 
L 81.973657 183.359731 
L 104.021178 194.272175 
L 126.068698 154.931425 
L 148.116219 145.848785 
L 170.16374 151.697926 
L 192.21126 125.440337 
L 214.258781 102.04613 
L 236.306302 169.580484 
L 258.353822 185.039677 
L 280.401343 189.429346 
L 302.448864 206.511768 
" style="fill:none;stroke:#eeeeee;stroke-linecap:square;stroke-opacity:0.5;stroke-width:1.5;"/>
   </g>
   <g id="line2d_51">
    <path clip-path="url(#p2c767480ef)" d="M 59.926136 214.588155 
L 81.973657 200.519041 
L 104.021178 185.534983 
L 126.068698 141.133309 
L 148.116219 124.419624 
L 170.16374 126.67777 
L 192.21126 166.964988 
L 214.258781 132.820738 
L 236.306302 152.024499 
L 258.353822 193.429643 
L 280.401343 202.322032 
L 302.448864 213.131311 
" style="fill:none;stroke:#e8e8e8;stroke-linecap:square;stroke-opacity:0.5;stroke-width:1.5;"/>
   </g>
   <g id="line2d_52">
    <path clip-path="url(#p2c767480ef)" d="M 59.926136 216.922634 
L 81.973657 214.089107 
L 104.021178 187.796058 
L 126.068698 163.146687 
L 148.116219 161.369486 
L 170.16374 138.139322 
L 192.21126 123.754 
L 214.258781 116.172994 
L 236.306302 157.736168 
L 258.353822 186.099955 
L 280.401343 216.591872 
L 302.448864 217.051467 
" style="fill:none;stroke:#e1e1e1;stroke-linecap:square;stroke-opacity:0.5;stroke-width:1.5;"/>
   </g>
   <g id="line2d_53">
    <path clip-path="url(#p2c767480ef)" d="M 59.926136 207.908052 
L 81.973657 198.630153 
L 104.021178 195.067557 
L 126.068698 153.221634 
L 148.116219 136.905735 
L 170.16374 93.085482 
L 192.21126 135.39665 
L 214.258781 101.827748 
L 236.306302 180.024785 
L 258.353822 194.586744 
L 280.401343 219.865837 
L 302.448864 206.568887 
" style="fill:none;stroke:#dbdbdb;stroke-linecap:square;stroke-opacity:0.5;stroke-width:1.5;"/>
   </g>
   <g id="line2d_54">
    <path clip-path="url(#p2c767480ef)" d="M 59.926136 202.367461 
L 81.973657 202.475146 
L 104.021178 188.316849 
L 126.068698 153.949676 
L 148.116219 145.547158 
L 170.16374 161.029656 
L 192.21126 82.696805 
L 214.258781 114.67515 
L 236.306302 111.804506 
L 258.353822 167.792991 
L 280.401343 213.162215 
L 302.448864 205.453135 
" style="fill:none;stroke:#d4d4d4;stroke-linecap:square;stroke-opacity:0.5;stroke-width:1.5;"/>
   </g>
   <g id="line2d_55">
    <path clip-path="url(#p2c767480ef)" d="M 59.926136 211.326853 
L 81.973657 211.282975 
L 104.021178 193.937723 
L 126.068698 163.719239 
L 148.116219 108.643535 
L 170.16374 144.275597 
L 192.21126 137.253694 
L 214.258781 72.577759 
L 236.306302 74.554994 
L 258.353822 162.4939 
L 280.401343 204.488128 
L 302.448864 221.233619 
" style="fill:none;stroke:#cccccc;stroke-linecap:square;stroke-opacity:0.5;stroke-width:1.5;"/>
   </g>
   <g id="line2d_56">
    <path clip-path="url(#p2c767480ef)" d="M 59.926136 190.601627 
L 81.973657 183.062099 
L 104.021178 172.948217 
L 126.068698 142.723178 
L 148.116219 103.956792 
L 170.16374 102.591775 
L 192.21126 111.225629 
L 214.258781 36.772727 
L 236.306302 76.619532 
L 258.353822 159.398681 
L 280.401343 184.055733 
L 302.448864 195.517003 
" style="fill:none;stroke:#c5c5c5;stroke-linecap:square;stroke-opacity:0.5;stroke-width:1.5;"/>
   </g>
   <g id="line2d_57">
    <path clip-path="url(#p2c767480ef)" d="M 59.926136 205.58157 
L 81.973657 176.331572 
L 104.021178 163.030119 
L 126.068698 161.030802 
L 148.116219 128.813416 
L 170.16374 113.598782 
L 192.21126 93.004072 
L 214.258781 92.690725 
L 236.306302 163.591119 
L 258.353822 119.068285 
L 280.401343 187.597956 
L 302.448864 192.328614 
" style="fill:none;stroke:#bdbdbd;stroke-linecap:square;stroke-opacity:0.5;stroke-width:1.5;"/>
   </g>
   <g id="line2d_58">
    <path clip-path="url(#p2c767480ef)" d="M 59.926136 187.066724 
L 81.973657 197.961277 
L 104.021178 189.74942 
L 126.068698 149.36125 
L 148.116219 123.509356 
L 170.16374 130.18025 
L 192.21126 132.38919 
L 214.258781 139.759016 
L 236.306302 170.804201 
L 258.353822 178.470216 
L 280.401343 167.733772 
L 302.448864 212.700444 
" style="fill:none;stroke:#b2b2b2;stroke-linecap:square;stroke-opacity:0.5;stroke-width:1.5;"/>
   </g>
   <g id="line2d_59">
    <path clip-path="url(#p2c767480ef)" d="M 59.926136 194.21509 
L 81.973657 196.761606 
L 104.021178 186.546342 
L 126.068698 176.420243 
L 148.116219 159.732093 
L 170.16374 113.362991 
L 192.21126 127.744689 
L 214.258781 88.498138 
L 236.306302 137.155477 
L 258.353822 220.700785 
L 280.401343 218.193252 
L 302.448864 212.352679 
" style="fill:none;stroke:#a7a7a7;stroke-linecap:square;stroke-opacity:0.5;stroke-width:1.5;"/>
   </g>
   <g id="line2d_60">
    <path clip-path="url(#p2c767480ef)" d="M 59.926136 199.683355 
L 81.973657 197.625657 
L 104.021178 175.395672 
L 126.068698 128.719275 
L 148.116219 163.417377 
L 170.16374 136.256441 
L 192.21126 148.88905 
L 214.258781 134.732964 
L 236.306302 151.742165 
L 258.353822 180.607029 
L 280.401343 197.560006 
L 302.448864 203.333584 
" style="fill:none;stroke:#9c9c9c;stroke-linecap:square;stroke-opacity:0.5;stroke-width:1.5;"/>
   </g>
   <g id="line2d_61">
    <path clip-path="url(#p2c767480ef)" d="M 59.926136 194.521327 
L 81.973657 185.826325 
L 104.021178 177.08015 
L 126.068698 156.83832 
L 148.116219 160.00663 
L 170.16374 168.609498 
L 192.21126 162.738975 
L 214.258781 148.327517 
L 236.306302 168.517286 
L 258.353822 187.787644 
L 280.401343 206.010626 
L 302.448864 199.173526 
" style="fill:none;stroke:#919191;stroke-linecap:square;stroke-opacity:0.5;stroke-width:1.5;"/>
   </g>
   <g id="line2d_62">
    <path clip-path="url(#p2c767480ef)" d="M 59.926136 203.823301 
L 81.973657 198.043889 
L 104.021178 179.608272 
L 126.068698 150.266269 
L 148.116219 134.95434 
L 170.16374 142.137851 
L 192.21126 158.868319 
L 214.258781 143.378645 
L 236.306302 123.757847 
L 258.353822 182.05327 
L 280.401343 191.127487 
L 302.448864 194.854595 
" style="fill:none;stroke:#878787;stroke-linecap:square;stroke-opacity:0.5;stroke-width:1.5;"/>
   </g>
   <g id="line2d_63">
    <path clip-path="url(#p2c767480ef)" d="M 59.926136 205.146223 
L 81.973657 194.190538 
L 104.021178 173.062276 
L 126.068698 141.450212 
L 148.116219 163.857418 
L 170.16374 117.782062 
L 192.21126 115.372039 
L 214.258781 135.965516 
L 236.306302 178.442563 
L 258.353822 200.2598 
L 280.401343 190.861958 
L 302.448864 194.591786 
" style="fill:none;stroke:#7d7d7d;stroke-linecap:square;stroke-opacity:0.5;stroke-width:1.5;"/>
   </g>
   <g id="line2d_64">
    <path clip-path="url(#p2c767480ef)" d="M 59.926136 205.159004 
L 81.973657 191.519128 
L 104.021178 142.25277 
L 126.068698 155.149792 
L 148.116219 89.572616 
L 170.16374 94.365748 
L 192.21126 148.926587 
L 214.258781 64.333528 
L 236.306302 121.240046 
L 258.353822 186.591012 
L 280.401343 190.950307 
L 302.448864 197.719489 
" style="fill:none;stroke:#737373;stroke-linecap:square;stroke-opacity:0.5;stroke-width:1.5;"/>
   </g>
   <g id="line2d_65">
    <path clip-path="url(#p2c767480ef)" d="M 59.926136 209.601475 
L 81.973657 194.044747 
L 104.021178 180.953334 
L 126.068698 162.467284 
L 148.116219 146.767903 
L 170.16374 146.097506 
L 192.21126 137.480505 
L 214.258781 141.804305 
L 236.306302 182.437037 
L 258.353822 193.504837 
L 280.401343 188.585671 
L 302.448864 219.824684 
" style="fill:none;stroke:#6a6a6a;stroke-linecap:square;stroke-opacity:0.5;stroke-width:1.5;"/>
   </g>
   <g id="line2d_66">
    <path clip-path="url(#p2c767480ef)" d="M 59.926136 206.779701 
L 81.973657 205.61795 
L 104.021178 194.879184 
L 126.068698 175.278098 
L 148.116219 207.550963 
L 170.16374 175.526728 
L 192.21126 194.348276 
L 214.258781 201.864974 
L 236.306302 218.691257 
L 258.353822 236.227273 
L 280.401343 219.495753 
L 302.448864 235.666901 
" style="fill:none;stroke:#626262;stroke-linecap:square;stroke-opacity:0.5;stroke-width:1.5;"/>
   </g>
   <g id="line2d_67">
    <path clip-path="url(#p2c767480ef)" d="M 59.926136 228.395434 
L 81.973657 221.639617 
L 104.021178 191.165298 
L 126.068698 141.521696 
L 148.116219 174.212954 
L 170.16374 170.900408 
L 192.21126 165.237965 
L 214.258781 158.945529 
L 236.306302 154.970185 
L 258.353822 172.176864 
L 280.401343 202.749533 
L 302.448864 217.836023 
" style="fill:none;stroke:#585858;stroke-linecap:square;stroke-opacity:0.5;stroke-width:1.5;"/>
   </g>
   <g id="line2d_68">
    <path clip-path="url(#p2c767480ef)" d="M 59.926136 212.900046 
L 81.973657 201.96288 
L 104.021178 196.377794 
L 126.068698 177.100989 
L 148.116219 178.076315 
L 170.16374 144.593588 
L 192.21126 163.544943 
L 214.258781 135.09298 
L 236.306302 185.192858 
L 258.353822 195.799495 
L 280.401343 215.569592 
L 302.448864 218.98709 
" style="fill:none;stroke:#4e4e4e;stroke-linecap:square;stroke-opacity:0.5;stroke-width:1.5;"/>
   </g>
   <g id="line2d_69">
    <path clip-path="url(#p2c767480ef)" d="M 59.926136 215.677297 
L 81.973657 212.266977 
L 104.021178 192.229224 
L 126.068698 181.868099 
L 148.116219 163.777399 
L 170.16374 127.613483 
L 192.21126 158.228992 
L 214.258781 162.70969 
L 236.306302 192.737693 
L 258.353822 207.457831 
L 280.401343 192.924006 
L 302.448864 217.14382 
" style="fill:none;stroke:#414141;stroke-linecap:square;stroke-opacity:0.5;stroke-width:1.5;"/>
   </g>
   <g id="line2d_70">
    <path clip-path="url(#p2c767480ef)" d="M 59.926136 203.293166 
L 81.973657 208.1714 
L 104.021178 186.393984 
L 126.068698 180.761085 
L 148.116219 188.362258 
L 170.16374 179.513671 
L 192.21126 201.914049 
L 214.258781 191.150739 
L 236.306302 183.962 
L 258.353822 204.217398 
L 280.401343 219.355271 
L 302.448864 211.996581 
" style="fill:none;stroke:#353535;stroke-linecap:square;stroke-opacity:0.5;stroke-width:1.5;"/>
   </g>
   <g id="line2d_71">
    <path clip-path="url(#p2c767480ef)" d="M 59.926136 218.795695 
L 81.973657 203.995137 
L 104.021178 184.450241 
L 126.068698 168.404703 
L 148.116219 174.780881 
L 170.16374 192.74107 
L 192.21126 183.117923 
L 214.258781 175.448855 
L 236.306302 208.647495 
L 258.353822 211.638775 
L 280.401343 211.694297 
L 302.448864 218.235372 
" style="fill:none;stroke:#282828;stroke-linecap:square;stroke-opacity:0.5;stroke-width:1.5;"/>
   </g>
   <g id="line2d_72">
    <path clip-path="url(#p2c767480ef)" d="M 59.926136 217.500562 
L 81.973657 205.826558 
L 104.021178 197.65101 
L 126.068698 197.703648 
L 148.116219 165.865808 
L 170.16374 179.508704 
L 192.21126 187.960277 
L 214.258781 190.459834 
L 236.306302 192.461757 
L 258.353822 213.893222 
L 280.401343 229.088637 
L 302.448864 227.286315 
" style="fill:none;stroke:#1d1d1d;stroke-linecap:square;stroke-opacity:0.5;stroke-width:1.5;"/>
   </g>
   <g id="line2d_73">
    <path clip-path="url(#p2c767480ef)" d="M 59.926136 206.253479 
L 81.973657 198.749321 
L 104.021178 184.012033 
L 126.068698 159.881139 
L 148.116219 149.657741 
L 170.16374 141.901149 
L 192.21126 147.298362 
L 214.258781 131.731609 
L 236.306302 160.328291 
L 258.353822 187.888571 
L 280.401343 202.633519 
L 302.448864 211.015334 
" style="fill:none;stroke:#000000;stroke-dasharray:5.55,2.4;stroke-dashoffset:0;stroke-width:1.5;"/>
   </g>
   <g id="patch_7">
    <path d="M 47.8 246.2 
L 47.8 26.8 
" style="fill:none;stroke:#000000;stroke-linecap:square;stroke-linejoin:miter;stroke-width:0.8;"/>
   </g>
   <g id="patch_8">
    <path d="M 314.575 246.2 
L 314.575 26.8 
" style="fill:none;stroke:#000000;stroke-linecap:square;stroke-linejoin:miter;stroke-width:0.8;"/>
   </g>
   <g id="patch_9">
    <path d="M 47.8 246.2 
L 314.575 246.2 
" style="fill:none;stroke:#000000;stroke-linecap:square;stroke-linejoin:miter;stroke-width:0.8;"/>
   </g>
   <g id="patch_10">
    <path d="M 47.8 26.8 
L 314.575 26.8 
" style="fill:none;stroke:#000000;stroke-linecap:square;stroke-linejoin:miter;stroke-width:0.8;"/>
   </g>
  </g>
 </g>
 <defs>
  <clipPath id="p2c767480ef">
   <rect height="219.4" width="266.775" x="47.8" y="26.8"/>
  </clipPath>
 </defs>
</svg>
