<?xml version="1.0" encoding="utf-8" standalone="no"?>
<!DOCTYPE svg PUBLIC "-//W3C//DTD SVG 1.1//EN"
  "http://www.w3.org/Graphics/SVG/1.1/DTD/svg11.dtd">
<!-- Created with matplotlib (https://matplotlib.org/) -->
<svg height="288pt" version="1.1" viewBox="0 0 360 288" width="360pt" xmlns="http://www.w3.org/2000/svg" xmlns:xlink="http://www.w3.org/1999/xlink">
 <defs>
  <style type="text/css">
*{stroke-linecap:butt;stroke-linejoin:round;}
  </style>
 </defs>
 <g id="figure_1">
  <g id="patch_1">
   <path d="M 0 288 
L 360 288 
L 360 0 
L 0 0 
z
" style="fill:#ffffff;"/>
  </g>
  <g id="axes_1">
   <g id="patch_2">
    <path d="M 47.8 246.2 
L 308.325 246.2 
L 308.325 26.8 
L 47.8 26.8 
z
" style="fill:#ffffff;"/>
   </g>
   <g id="matplotlib.axis_1">
    <g id="xtick_1">
     <g id="line2d_1">
      <defs>
       <path d="M 0 0 
L 0 3.5 
" id="m4fdeeadc44" style="stroke:#000000;stroke-width:0.8;"/>
      </defs>
      <g>
       <use style="stroke:#000000;stroke-width:0.8;" x="59.642045" xlink:href="#m4fdeeadc44" y="246.2"/>
      </g>
     </g>
     <g id="text_1">
      <!-- 1 -->
      <defs>
       <path d="M 12.40625 8.296875 
L 28.515625 8.296875 
L 28.515625 63.921875 
L 10.984375 60.40625 
L 10.984375 69.390625 
L 28.421875 72.90625 
L 38.28125 72.90625 
L 38.28125 8.296875 
L 54.390625 8.296875 
L 54.390625 0 
L 12.40625 0 
z
" id="DejaVuSans-49"/>
      </defs>
      <g transform="translate(56.460795 260.798437)scale(0.1 -0.1)">
       <use xlink:href="#DejaVuSans-49"/>
      </g>
     </g>
    </g>
    <g id="xtick_2">
     <g id="line2d_2">
      <g>
       <use style="stroke:#000000;stroke-width:0.8;" x="81.173037" xlink:href="#m4fdeeadc44" y="246.2"/>
      </g>
     </g>
     <g id="text_2">
      <!-- 2 -->
      <defs>
       <path d="M 19.1875 8.296875 
L 53.609375 8.296875 
L 53.609375 0 
L 7.328125 0 
L 7.328125 8.296875 
Q 12.9375 14.109375 22.625 23.890625 
Q 32.328125 33.6875 34.8125 36.53125 
Q 39.546875 41.84375 41.421875 45.53125 
Q 43.3125 49.21875 43.3125 52.78125 
Q 43.3125 58.59375 39.234375 62.25 
Q 35.15625 65.921875 28.609375 65.921875 
Q 23.96875 65.921875 18.8125 64.3125 
Q 13.671875 62.703125 7.8125 59.421875 
L 7.8125 69.390625 
Q 13.765625 71.78125 18.9375 73 
Q 24.125 74.21875 28.421875 74.21875 
Q 39.75 74.21875 46.484375 68.546875 
Q 53.21875 62.890625 53.21875 53.421875 
Q 53.21875 48.921875 51.53125 44.890625 
Q 49.859375 40.875 45.40625 35.40625 
Q 44.1875 33.984375 37.640625 27.21875 
Q 31.109375 20.453125 19.1875 8.296875 
z
" id="DejaVuSans-50"/>
      </defs>
      <g transform="translate(77.991787 260.798437)scale(0.1 -0.1)">
       <use xlink:href="#DejaVuSans-50"/>
      </g>
     </g>
    </g>
    <g id="xtick_3">
     <g id="line2d_3">
      <g>
       <use style="stroke:#000000;stroke-width:0.8;" x="102.704029" xlink:href="#m4fdeeadc44" y="246.2"/>
      </g>
     </g>
     <g id="text_3">
      <!-- 3 -->
      <defs>
       <path d="M 40.578125 39.3125 
Q 47.65625 37.796875 51.625 33 
Q 55.609375 28.21875 55.609375 21.1875 
Q 55.609375 10.40625 48.1875 4.484375 
Q 40.765625 -1.421875 27.09375 -1.421875 
Q 22.515625 -1.421875 17.65625 -0.515625 
Q 12.796875 0.390625 7.625 2.203125 
L 7.625 11.71875 
Q 11.71875 9.328125 16.59375 8.109375 
Q 21.484375 6.890625 26.8125 6.890625 
Q 36.078125 6.890625 40.9375 10.546875 
Q 45.796875 14.203125 45.796875 21.1875 
Q 45.796875 27.640625 41.28125 31.265625 
Q 36.765625 34.90625 28.71875 34.90625 
L 20.21875 34.90625 
L 20.21875 43.015625 
L 29.109375 43.015625 
Q 36.375 43.015625 40.234375 45.921875 
Q 44.09375 48.828125 44.09375 54.296875 
Q 44.09375 59.90625 40.109375 62.90625 
Q 36.140625 65.921875 28.71875 65.921875 
Q 24.65625 65.921875 20.015625 65.03125 
Q 15.375 64.15625 9.8125 62.3125 
L 9.8125 71.09375 
Q 15.4375 72.65625 20.34375 73.4375 
Q 25.25 74.21875 29.59375 74.21875 
Q 40.828125 74.21875 47.359375 69.109375 
Q 53.90625 64.015625 53.90625 55.328125 
Q 53.90625 49.265625 50.4375 45.09375 
Q 46.96875 40.921875 40.578125 39.3125 
z
" id="DejaVuSans-51"/>
      </defs>
      <g transform="translate(99.522779 260.798437)scale(0.1 -0.1)">
       <use xlink:href="#DejaVuSans-51"/>
      </g>
     </g>
    </g>
    <g id="xtick_4">
     <g id="line2d_4">
      <g>
       <use style="stroke:#000000;stroke-width:0.8;" x="124.235021" xlink:href="#m4fdeeadc44" y="246.2"/>
      </g>
     </g>
     <g id="text_4">
      <!-- 4 -->
      <defs>
       <path d="M 37.796875 64.3125 
L 12.890625 25.390625 
L 37.796875 25.390625 
z
M 35.203125 72.90625 
L 47.609375 72.90625 
L 47.609375 25.390625 
L 58.015625 25.390625 
L 58.015625 17.1875 
L 47.609375 17.1875 
L 47.609375 0 
L 37.796875 0 
L 37.796875 17.1875 
L 4.890625 17.1875 
L 4.890625 26.703125 
z
" id="DejaVuSans-52"/>
      </defs>
      <g transform="translate(121.053771 260.798437)scale(0.1 -0.1)">
       <use xlink:href="#DejaVuSans-52"/>
      </g>
     </g>
    </g>
    <g id="xtick_5">
     <g id="line2d_5">
      <g>
       <use style="stroke:#000000;stroke-width:0.8;" x="145.766012" xlink:href="#m4fdeeadc44" y="246.2"/>
      </g>
     </g>
     <g id="text_5">
      <!-- 5 -->
      <defs>
       <path d="M 10.796875 72.90625 
L 49.515625 72.90625 
L 49.515625 64.59375 
L 19.828125 64.59375 
L 19.828125 46.734375 
Q 21.96875 47.46875 24.109375 47.828125 
Q 26.265625 48.1875 28.421875 48.1875 
Q 40.625 48.1875 47.75 41.5 
Q 54.890625 34.8125 54.890625 23.390625 
Q 54.890625 11.625 47.5625 5.09375 
Q 40.234375 -1.421875 26.90625 -1.421875 
Q 22.3125 -1.421875 17.546875 -0.640625 
Q 12.796875 0.140625 7.71875 1.703125 
L 7.71875 11.625 
Q 12.109375 9.234375 16.796875 8.0625 
Q 21.484375 6.890625 26.703125 6.890625 
Q 35.15625 6.890625 40.078125 11.328125 
Q 45.015625 15.765625 45.015625 23.390625 
Q 45.015625 31 40.078125 35.4375 
Q 35.15625 39.890625 26.703125 39.890625 
Q 22.75 39.890625 18.8125 39.015625 
Q 14.890625 38.140625 10.796875 36.28125 
z
" id="DejaVuSans-53"/>
      </defs>
      <g transform="translate(142.584762 260.798437)scale(0.1 -0.1)">
       <use xlink:href="#DejaVuSans-53"/>
      </g>
     </g>
    </g>
    <g id="xtick_6">
     <g id="line2d_6">
      <g>
       <use style="stroke:#000000;stroke-width:0.8;" x="167.297004" xlink:href="#m4fdeeadc44" y="246.2"/>
      </g>
     </g>
     <g id="text_6">
      <!-- 6 -->
      <defs>
       <path d="M 33.015625 40.375 
Q 26.375 40.375 22.484375 35.828125 
Q 18.609375 31.296875 18.609375 23.390625 
Q 18.609375 15.53125 22.484375 10.953125 
Q 26.375 6.390625 33.015625 6.390625 
Q 39.65625 6.390625 43.53125 10.953125 
Q 47.40625 15.53125 47.40625 23.390625 
Q 47.40625 31.296875 43.53125 35.828125 
Q 39.65625 40.375 33.015625 40.375 
z
M 52.59375 71.296875 
L 52.59375 62.3125 
Q 48.875 64.0625 45.09375 64.984375 
Q 41.3125 65.921875 37.59375 65.921875 
Q 27.828125 65.921875 22.671875 59.328125 
Q 17.53125 52.734375 16.796875 39.40625 
Q 19.671875 43.65625 24.015625 45.921875 
Q 28.375 48.1875 33.59375 48.1875 
Q 44.578125 48.1875 50.953125 41.515625 
Q 57.328125 34.859375 57.328125 23.390625 
Q 57.328125 12.15625 50.6875 5.359375 
Q 44.046875 -1.421875 33.015625 -1.421875 
Q 20.359375 -1.421875 13.671875 8.265625 
Q 6.984375 17.96875 6.984375 36.375 
Q 6.984375 53.65625 15.1875 63.9375 
Q 23.390625 74.21875 37.203125 74.21875 
Q 40.921875 74.21875 44.703125 73.484375 
Q 48.484375 72.75 52.59375 71.296875 
z
" id="DejaVuSans-54"/>
      </defs>
      <g transform="translate(164.115754 260.798437)scale(0.1 -0.1)">
       <use xlink:href="#DejaVuSans-54"/>
      </g>
     </g>
    </g>
    <g id="xtick_7">
     <g id="line2d_7">
      <g>
       <use style="stroke:#000000;stroke-width:0.8;" x="188.827996" xlink:href="#m4fdeeadc44" y="246.2"/>
      </g>
     </g>
     <g id="text_7">
      <!-- 7 -->
      <defs>
       <path d="M 8.203125 72.90625 
L 55.078125 72.90625 
L 55.078125 68.703125 
L 28.609375 0 
L 18.3125 0 
L 43.21875 64.59375 
L 8.203125 64.59375 
z
" id="DejaVuSans-55"/>
      </defs>
      <g transform="translate(185.646746 260.798437)scale(0.1 -0.1)">
       <use xlink:href="#DejaVuSans-55"/>
      </g>
     </g>
    </g>
    <g id="xtick_8">
     <g id="line2d_8">
      <g>
       <use style="stroke:#000000;stroke-width:0.8;" x="210.358988" xlink:href="#m4fdeeadc44" y="246.2"/>
      </g>
     </g>
     <g id="text_8">
      <!-- 8 -->
      <defs>
       <path d="M 31.78125 34.625 
Q 24.75 34.625 20.71875 30.859375 
Q 16.703125 27.09375 16.703125 20.515625 
Q 16.703125 13.921875 20.71875 10.15625 
Q 24.75 6.390625 31.78125 6.390625 
Q 38.8125 6.390625 42.859375 10.171875 
Q 46.921875 13.96875 46.921875 20.515625 
Q 46.921875 27.09375 42.890625 30.859375 
Q 38.875 34.625 31.78125 34.625 
z
M 21.921875 38.8125 
Q 15.578125 40.375 12.03125 44.71875 
Q 8.5 49.078125 8.5 55.328125 
Q 8.5 64.0625 14.71875 69.140625 
Q 20.953125 74.21875 31.78125 74.21875 
Q 42.671875 74.21875 48.875 69.140625 
Q 55.078125 64.0625 55.078125 55.328125 
Q 55.078125 49.078125 51.53125 44.71875 
Q 48 40.375 41.703125 38.8125 
Q 48.828125 37.15625 52.796875 32.3125 
Q 56.78125 27.484375 56.78125 20.515625 
Q 56.78125 9.90625 50.3125 4.234375 
Q 43.84375 -1.421875 31.78125 -1.421875 
Q 19.734375 -1.421875 13.25 4.234375 
Q 6.78125 9.90625 6.78125 20.515625 
Q 6.78125 27.484375 10.78125 32.3125 
Q 14.796875 37.15625 21.921875 38.8125 
z
M 18.3125 54.390625 
Q 18.3125 48.734375 21.84375 45.5625 
Q 25.390625 42.390625 31.78125 42.390625 
Q 38.140625 42.390625 41.71875 45.5625 
Q 45.3125 48.734375 45.3125 54.390625 
Q 45.3125 60.0625 41.71875 63.234375 
Q 38.140625 66.40625 31.78125 66.40625 
Q 25.390625 66.40625 21.84375 63.234375 
Q 18.3125 60.0625 18.3125 54.390625 
z
" id="DejaVuSans-56"/>
      </defs>
      <g transform="translate(207.177738 260.798437)scale(0.1 -0.1)">
       <use xlink:href="#DejaVuSans-56"/>
      </g>
     </g>
    </g>
    <g id="xtick_9">
     <g id="line2d_9">
      <g>
       <use style="stroke:#000000;stroke-width:0.8;" x="231.889979" xlink:href="#m4fdeeadc44" y="246.2"/>
      </g>
     </g>
     <g id="text_9">
      <!-- 9 -->
      <defs>
       <path d="M 10.984375 1.515625 
L 10.984375 10.5 
Q 14.703125 8.734375 18.5 7.8125 
Q 22.3125 6.890625 25.984375 6.890625 
Q 35.75 6.890625 40.890625 13.453125 
Q 46.046875 20.015625 46.78125 33.40625 
Q 43.953125 29.203125 39.59375 26.953125 
Q 35.25 24.703125 29.984375 24.703125 
Q 19.046875 24.703125 12.671875 31.3125 
Q 6.296875 37.9375 6.296875 49.421875 
Q 6.296875 60.640625 12.9375 67.421875 
Q 19.578125 74.21875 30.609375 74.21875 
Q 43.265625 74.21875 49.921875 64.515625 
Q 56.59375 54.828125 56.59375 36.375 
Q 56.59375 19.140625 48.40625 8.859375 
Q 40.234375 -1.421875 26.421875 -1.421875 
Q 22.703125 -1.421875 18.890625 -0.6875 
Q 15.09375 0.046875 10.984375 1.515625 
z
M 30.609375 32.421875 
Q 37.25 32.421875 41.125 36.953125 
Q 45.015625 41.5 45.015625 49.421875 
Q 45.015625 57.28125 41.125 61.84375 
Q 37.25 66.40625 30.609375 66.40625 
Q 23.96875 66.40625 20.09375 61.84375 
Q 16.21875 57.28125 16.21875 49.421875 
Q 16.21875 41.5 20.09375 36.953125 
Q 23.96875 32.421875 30.609375 32.421875 
z
" id="DejaVuSans-57"/>
      </defs>
      <g transform="translate(228.708729 260.798437)scale(0.1 -0.1)">
       <use xlink:href="#DejaVuSans-57"/>
      </g>
     </g>
    </g>
    <g id="xtick_10">
     <g id="line2d_10">
      <g>
       <use style="stroke:#000000;stroke-width:0.8;" x="253.420971" xlink:href="#m4fdeeadc44" y="246.2"/>
      </g>
     </g>
     <g id="text_10">
      <!-- 10 -->
      <defs>
       <path d="M 31.78125 66.40625 
Q 24.171875 66.40625 20.328125 58.90625 
Q 16.5 51.421875 16.5 36.375 
Q 16.5 21.390625 20.328125 13.890625 
Q 24.171875 6.390625 31.78125 6.390625 
Q 39.453125 6.390625 43.28125 13.890625 
Q 47.125 21.390625 47.125 36.375 
Q 47.125 51.421875 43.28125 58.90625 
Q 39.453125 66.40625 31.78125 66.40625 
z
M 31.78125 74.21875 
Q 44.046875 74.21875 50.515625 64.515625 
Q 56.984375 54.828125 56.984375 36.375 
Q 56.984375 17.96875 50.515625 8.265625 
Q 44.046875 -1.421875 31.78125 -1.421875 
Q 19.53125 -1.421875 13.0625 8.265625 
Q 6.59375 17.96875 6.59375 36.375 
Q 6.59375 54.828125 13.0625 64.515625 
Q 19.53125 74.21875 31.78125 74.21875 
z
" id="DejaVuSans-48"/>
      </defs>
      <g transform="translate(247.058471 260.798437)scale(0.1 -0.1)">
       <use xlink:href="#DejaVuSans-49"/>
       <use x="63.623047" xlink:href="#DejaVuSans-48"/>
      </g>
     </g>
    </g>
    <g id="xtick_11">
     <g id="line2d_11">
      <g>
       <use style="stroke:#000000;stroke-width:0.8;" x="274.951963" xlink:href="#m4fdeeadc44" y="246.2"/>
      </g>
     </g>
     <g id="text_11">
      <!-- 11 -->
      <g transform="translate(268.589463 260.798437)scale(0.1 -0.1)">
       <use xlink:href="#DejaVuSans-49"/>
       <use x="63.623047" xlink:href="#DejaVuSans-49"/>
      </g>
     </g>
    </g>
    <g id="xtick_12">
     <g id="line2d_12">
      <g>
       <use style="stroke:#000000;stroke-width:0.8;" x="296.482955" xlink:href="#m4fdeeadc44" y="246.2"/>
      </g>
     </g>
     <g id="text_12">
      <!-- 12 -->
      <g transform="translate(290.120455 260.798437)scale(0.1 -0.1)">
       <use xlink:href="#DejaVuSans-49"/>
       <use x="63.623047" xlink:href="#DejaVuSans-50"/>
      </g>
     </g>
    </g>
    <g id="text_13">
     <!-- Month -->
     <defs>
      <path d="M 9.8125 72.90625 
L 24.515625 72.90625 
L 43.109375 23.296875 
L 61.8125 72.90625 
L 76.515625 72.90625 
L 76.515625 0 
L 66.890625 0 
L 66.890625 64.015625 
L 48.09375 14.015625 
L 38.1875 14.015625 
L 19.390625 64.015625 
L 19.390625 0 
L 9.8125 0 
z
" id="DejaVuSans-77"/>
      <path d="M 30.609375 48.390625 
Q 23.390625 48.390625 19.1875 42.75 
Q 14.984375 37.109375 14.984375 27.296875 
Q 14.984375 17.484375 19.15625 11.84375 
Q 23.34375 6.203125 30.609375 6.203125 
Q 37.796875 6.203125 41.984375 11.859375 
Q 46.1875 17.53125 46.1875 27.296875 
Q 46.1875 37.015625 41.984375 42.703125 
Q 37.796875 48.390625 30.609375 48.390625 
z
M 30.609375 56 
Q 42.328125 56 49.015625 48.375 
Q 55.71875 40.765625 55.71875 27.296875 
Q 55.71875 13.875 49.015625 6.21875 
Q 42.328125 -1.421875 30.609375 -1.421875 
Q 18.84375 -1.421875 12.171875 6.21875 
Q 5.515625 13.875 5.515625 27.296875 
Q 5.515625 40.765625 12.171875 48.375 
Q 18.84375 56 30.609375 56 
z
" id="DejaVuSans-111"/>
      <path d="M 54.890625 33.015625 
L 54.890625 0 
L 45.90625 0 
L 45.90625 32.71875 
Q 45.90625 40.484375 42.875 44.328125 
Q 39.84375 48.1875 33.796875 48.1875 
Q 26.515625 48.1875 22.3125 43.546875 
Q 18.109375 38.921875 18.109375 30.90625 
L 18.109375 0 
L 9.078125 0 
L 9.078125 54.6875 
L 18.109375 54.6875 
L 18.109375 46.1875 
Q 21.34375 51.125 25.703125 53.5625 
Q 30.078125 56 35.796875 56 
Q 45.21875 56 50.046875 50.171875 
Q 54.890625 44.34375 54.890625 33.015625 
z
" id="DejaVuSans-110"/>
      <path d="M 18.3125 70.21875 
L 18.3125 54.6875 
L 36.8125 54.6875 
L 36.8125 47.703125 
L 18.3125 47.703125 
L 18.3125 18.015625 
Q 18.3125 11.328125 20.140625 9.421875 
Q 21.96875 7.515625 27.59375 7.515625 
L 36.8125 7.515625 
L 36.8125 0 
L 27.59375 0 
Q 17.1875 0 13.234375 3.875 
Q 9.28125 7.765625 9.28125 18.015625 
L 9.28125 47.703125 
L 2.6875 47.703125 
L 2.6875 54.6875 
L 9.28125 54.6875 
L 9.28125 70.21875 
z
" id="DejaVuSans-116"/>
      <path d="M 54.890625 33.015625 
L 54.890625 0 
L 45.90625 0 
L 45.90625 32.71875 
Q 45.90625 40.484375 42.875 44.328125 
Q 39.84375 48.1875 33.796875 48.1875 
Q 26.515625 48.1875 22.3125 43.546875 
Q 18.109375 38.921875 18.109375 30.90625 
L 18.109375 0 
L 9.078125 0 
L 9.078125 75.984375 
L 18.109375 75.984375 
L 18.109375 46.1875 
Q 21.34375 51.125 25.703125 53.5625 
Q 30.078125 56 35.796875 56 
Q 45.21875 56 50.046875 50.171875 
Q 54.890625 44.34375 54.890625 33.015625 
z
" id="DejaVuSans-104"/>
     </defs>
     <g style="fill:#7f7f7f;" transform="translate(162.391406 274.476562)scale(0.1 -0.1)">
      <use xlink:href="#DejaVuSans-77"/>
      <use x="86.279297" xlink:href="#DejaVuSans-111"/>
      <use x="147.460938" xlink:href="#DejaVuSans-110"/>
      <use x="210.839844" xlink:href="#DejaVuSans-116"/>
      <use x="250.048828" xlink:href="#DejaVuSans-104"/>
     </g>
    </g>
   </g>
   <g id="matplotlib.axis_2">
    <g id="ytick_1">
     <g id="line2d_13">
      <defs>
       <path d="M 0 0 
L -3.5 0 
" id="m7980fa806b" style="stroke:#000000;stroke-width:0.8;"/>
      </defs>
      <g>
       <use style="stroke:#000000;stroke-width:0.8;" x="47.8" xlink:href="#m7980fa806b" y="236.227273"/>
      </g>
     </g>
     <g id="text_14">
      <!-- 0.0 -->
      <defs>
       <path d="M 10.6875 12.40625 
L 21 12.40625 
L 21 0 
L 10.6875 0 
z
" id="DejaVuSans-46"/>
      </defs>
      <g style="fill:#d92523;" transform="translate(24.896875 240.026491)scale(0.1 -0.1)">
       <use xlink:href="#DejaVuSans-48"/>
       <use x="63.623047" xlink:href="#DejaVuSans-46"/>
       <use x="95.410156" xlink:href="#DejaVuSans-48"/>
      </g>
     </g>
    </g>
    <g id="ytick_2">
     <g id="line2d_14">
      <g>
       <use style="stroke:#000000;stroke-width:0.8;" x="47.8" xlink:href="#m7980fa806b" y="180.465791"/>
      </g>
     </g>
     <g id="text_15">
      <!-- 1.5 -->
      <g style="fill:#d92523;" transform="translate(24.896875 184.26501)scale(0.1 -0.1)">
       <use xlink:href="#DejaVuSans-49"/>
       <use x="63.623047" xlink:href="#DejaVuSans-46"/>
       <use x="95.410156" xlink:href="#DejaVuSans-53"/>
      </g>
     </g>
    </g>
    <g id="ytick_3">
     <g id="line2d_15">
      <g>
       <use style="stroke:#000000;stroke-width:0.8;" x="47.8" xlink:href="#m7980fa806b" y="124.704309"/>
      </g>
     </g>
     <g id="text_16">
      <!-- 3.0 -->
      <g style="fill:#d92523;" transform="translate(24.896875 128.503528)scale(0.1 -0.1)">
       <use xlink:href="#DejaVuSans-51"/>
       <use x="63.623047" xlink:href="#DejaVuSans-46"/>
       <use x="95.410156" xlink:href="#DejaVuSans-48"/>
      </g>
     </g>
    </g>
    <g id="ytick_4">
     <g id="line2d_16">
      <g>
       <use style="stroke:#000000;stroke-width:0.8;" x="47.8" xlink:href="#m7980fa806b" y="68.942827"/>
      </g>
     </g>
     <g id="text_17">
      <!-- 4.5 -->
      <g style="fill:#d92523;" transform="translate(24.896875 72.742046)scale(0.1 -0.1)">
       <use xlink:href="#DejaVuSans-52"/>
       <use x="63.623047" xlink:href="#DejaVuSans-46"/>
       <use x="95.410156" xlink:href="#DejaVuSans-53"/>
      </g>
     </g>
    </g>
    <g id="text_18">
     <!-- Acres Burned -->
     <defs>
      <path d="M 34.1875 63.1875 
L 20.796875 26.90625 
L 47.609375 26.90625 
z
M 28.609375 72.90625 
L 39.796875 72.90625 
L 67.578125 0 
L 57.328125 0 
L 50.6875 18.703125 
L 17.828125 18.703125 
L 11.1875 0 
L 0.78125 0 
z
" id="DejaVuSans-65"/>
      <path d="M 48.78125 52.59375 
L 48.78125 44.1875 
Q 44.96875 46.296875 41.140625 47.34375 
Q 37.3125 48.390625 33.40625 48.390625 
Q 24.65625 48.390625 19.8125 42.84375 
Q 14.984375 37.3125 14.984375 27.296875 
Q 14.984375 17.28125 19.8125 11.734375 
Q 24.65625 6.203125 33.40625 6.203125 
Q 37.3125 6.203125 41.140625 7.25 
Q 44.96875 8.296875 48.78125 10.40625 
L 48.78125 2.09375 
Q 45.015625 0.34375 40.984375 -0.53125 
Q 36.96875 -1.421875 32.421875 -1.421875 
Q 20.0625 -1.421875 12.78125 6.34375 
Q 5.515625 14.109375 5.515625 27.296875 
Q 5.515625 40.671875 12.859375 48.328125 
Q 20.21875 56 33.015625 56 
Q 37.15625 56 41.109375 55.140625 
Q 45.0625 54.296875 48.78125 52.59375 
z
" id="DejaVuSans-99"/>
      <path d="M 41.109375 46.296875 
Q 39.59375 47.171875 37.8125 47.578125 
Q 36.03125 48 33.890625 48 
Q 26.265625 48 22.1875 43.046875 
Q 18.109375 38.09375 18.109375 28.8125 
L 18.109375 0 
L 9.078125 0 
L 9.078125 54.6875 
L 18.109375 54.6875 
L 18.109375 46.1875 
Q 20.953125 51.171875 25.484375 53.578125 
Q 30.03125 56 36.53125 56 
Q 37.453125 56 38.578125 55.875 
Q 39.703125 55.765625 41.0625 55.515625 
z
" id="DejaVuSans-114"/>
      <path d="M 56.203125 29.59375 
L 56.203125 25.203125 
L 14.890625 25.203125 
Q 15.484375 15.921875 20.484375 11.0625 
Q 25.484375 6.203125 34.421875 6.203125 
Q 39.59375 6.203125 44.453125 7.46875 
Q 49.3125 8.734375 54.109375 11.28125 
L 54.109375 2.78125 
Q 49.265625 0.734375 44.1875 -0.34375 
Q 39.109375 -1.421875 33.890625 -1.421875 
Q 20.796875 -1.421875 13.15625 6.1875 
Q 5.515625 13.8125 5.515625 26.8125 
Q 5.515625 40.234375 12.765625 48.109375 
Q 20.015625 56 32.328125 56 
Q 43.359375 56 49.78125 48.890625 
Q 56.203125 41.796875 56.203125 29.59375 
z
M 47.21875 32.234375 
Q 47.125 39.59375 43.09375 43.984375 
Q 39.0625 48.390625 32.421875 48.390625 
Q 24.90625 48.390625 20.390625 44.140625 
Q 15.875 39.890625 15.1875 32.171875 
z
" id="DejaVuSans-101"/>
      <path d="M 44.28125 53.078125 
L 44.28125 44.578125 
Q 40.484375 46.53125 36.375 47.5 
Q 32.28125 48.484375 27.875 48.484375 
Q 21.1875 48.484375 17.84375 46.4375 
Q 14.5 44.390625 14.5 40.28125 
Q 14.5 37.15625 16.890625 35.375 
Q 19.28125 33.59375 26.515625 31.984375 
L 29.59375 31.296875 
Q 39.15625 29.25 43.1875 25.515625 
Q 47.21875 21.78125 47.21875 15.09375 
Q 47.21875 7.46875 41.1875 3.015625 
Q 35.15625 -1.421875 24.609375 -1.421875 
Q 20.21875 -1.421875 15.453125 -0.5625 
Q 10.6875 0.296875 5.421875 2 
L 5.421875 11.28125 
Q 10.40625 8.6875 15.234375 7.390625 
Q 20.0625 6.109375 24.8125 6.109375 
Q 31.15625 6.109375 34.5625 8.28125 
Q 37.984375 10.453125 37.984375 14.40625 
Q 37.984375 18.0625 35.515625 20.015625 
Q 33.0625 21.96875 24.703125 23.78125 
L 21.578125 24.515625 
Q 13.234375 26.265625 9.515625 29.90625 
Q 5.8125 33.546875 5.8125 39.890625 
Q 5.8125 47.609375 11.28125 51.796875 
Q 16.75 56 26.8125 56 
Q 31.78125 56 36.171875 55.265625 
Q 40.578125 54.546875 44.28125 53.078125 
z
" id="DejaVuSans-115"/>
      <path id="DejaVuSans-32"/>
      <path d="M 19.671875 34.8125 
L 19.671875 8.109375 
L 35.5 8.109375 
Q 43.453125 8.109375 47.28125 11.40625 
Q 51.125 14.703125 51.125 21.484375 
Q 51.125 28.328125 47.28125 31.5625 
Q 43.453125 34.8125 35.5 34.8125 
z
M 19.671875 64.796875 
L 19.671875 42.828125 
L 34.28125 42.828125 
Q 41.5 42.828125 45.03125 45.53125 
Q 48.578125 48.25 48.578125 53.8125 
Q 48.578125 59.328125 45.03125 62.0625 
Q 41.5 64.796875 34.28125 64.796875 
z
M 9.8125 72.90625 
L 35.015625 72.90625 
Q 46.296875 72.90625 52.390625 68.21875 
Q 58.5 63.53125 58.5 54.890625 
Q 58.5 48.1875 55.375 44.234375 
Q 52.25 40.28125 46.1875 39.3125 
Q 53.46875 37.75 57.5 32.78125 
Q 61.53125 27.828125 61.53125 20.40625 
Q 61.53125 10.640625 54.890625 5.3125 
Q 48.25 0 35.984375 0 
L 9.8125 0 
z
" id="DejaVuSans-66"/>
      <path d="M 8.5 21.578125 
L 8.5 54.6875 
L 17.484375 54.6875 
L 17.484375 21.921875 
Q 17.484375 14.15625 20.5 10.265625 
Q 23.53125 6.390625 29.59375 6.390625 
Q 36.859375 6.390625 41.078125 11.03125 
Q 45.3125 15.671875 45.3125 23.6875 
L 45.3125 54.6875 
L 54.296875 54.6875 
L 54.296875 0 
L 45.3125 0 
L 45.3125 8.40625 
Q 42.046875 3.421875 37.71875 1 
Q 33.40625 -1.421875 27.6875 -1.421875 
Q 18.265625 -1.421875 13.375 4.4375 
Q 8.5 10.296875 8.5 21.578125 
z
M 31.109375 56 
z
" id="DejaVuSans-117"/>
      <path d="M 45.40625 46.390625 
L 45.40625 75.984375 
L 54.390625 75.984375 
L 54.390625 0 
L 45.40625 0 
L 45.40625 8.203125 
Q 42.578125 3.328125 38.25 0.953125 
Q 33.9375 -1.421875 27.875 -1.421875 
Q 17.96875 -1.421875 11.734375 6.484375 
Q 5.515625 14.40625 5.515625 27.296875 
Q 5.515625 40.1875 11.734375 48.09375 
Q 17.96875 56 27.875 56 
Q 33.9375 56 38.25 53.625 
Q 42.578125 51.265625 45.40625 46.390625 
z
M 14.796875 27.296875 
Q 14.796875 17.390625 18.875 11.75 
Q 22.953125 6.109375 30.078125 6.109375 
Q 37.203125 6.109375 41.296875 11.75 
Q 45.40625 17.390625 45.40625 27.296875 
Q 45.40625 37.203125 41.296875 42.84375 
Q 37.203125 48.484375 30.078125 48.484375 
Q 22.953125 48.484375 18.875 42.84375 
Q 14.796875 37.203125 14.796875 27.296875 
z
" id="DejaVuSans-100"/>
     </defs>
     <g style="fill:#d92523;" transform="translate(18.817187 170.066406)rotate(-90)scale(0.1 -0.1)">
      <use xlink:href="#DejaVuSans-65"/>
      <use x="68.392578" xlink:href="#DejaVuSans-99"/>
      <use x="123.373047" xlink:href="#DejaVuSans-114"/>
      <use x="164.455078" xlink:href="#DejaVuSans-101"/>
      <use x="225.978516" xlink:href="#DejaVuSans-115"/>
      <use x="278.078125" xlink:href="#DejaVuSans-32"/>
      <use x="309.865234" xlink:href="#DejaVuSans-66"/>
      <use x="378.46875" xlink:href="#DejaVuSans-117"/>
      <use x="441.847656" xlink:href="#DejaVuSans-114"/>
      <use x="482.945312" xlink:href="#DejaVuSans-110"/>
      <use x="546.324219" xlink:href="#DejaVuSans-101"/>
      <use x="607.847656" xlink:href="#DejaVuSans-100"/>
     </g>
    </g>
    <g id="text_19">
     <!-- 1e4 -->
     <g transform="translate(47.8 23.8)scale(0.1 -0.1)">
      <use xlink:href="#DejaVuSans-49"/>
      <use x="63.623047" xlink:href="#DejaVuSans-101"/>
      <use x="125.146484" xlink:href="#DejaVuSans-52"/>
     </g>
    </g>
   </g>
   <g id="line2d_17">
    <path clip-path="url(#pfcee2378ae)" d="M 59.642045 226.110244 
L 81.173037 216.447857 
L 102.704029 204.561219 
L 124.235021 221.702225 
L 145.766012 226.751501 
L 167.297004 234.476399 
L 188.827996 234.905763 
L 210.358988 235.406612 
L 231.889979 235.743226 
L 253.420971 235.258064 
L 274.951963 234.839444 
L 296.482955 234.577848 
" style="fill:none;stroke:#fee5d8;stroke-linecap:square;stroke-opacity:0.5;stroke-width:1.5;"/>
   </g>
   <g id="line2d_18">
    <path clip-path="url(#pfcee2378ae)" d="M 59.642045 231.088964 
L 81.173037 225.738947 
L 102.704029 218.501962 
L 124.235021 224.546023 
L 145.766012 230.408302 
L 167.297004 220.314135 
L 188.827996 214.200595 
L 210.358988 228.520404 
L 231.889979 228.709473 
L 253.420971 227.556251 
L 274.951963 229.784591 
L 296.482955 233.395705 
" style="fill:none;stroke:#fedecf;stroke-linecap:square;stroke-opacity:0.5;stroke-width:1.5;"/>
   </g>
   <g id="line2d_19">
    <path clip-path="url(#pfcee2378ae)" d="M 59.642045 229.13062 
L 81.173037 224.424649 
L 102.704029 195.107604 
L 124.235021 228.04368 
L 145.766012 228.316689 
L 167.297004 234.253093 
L 188.827996 235.516314 
L 210.358988 235.569027 
L 231.889979 235.597614 
L 253.420971 235.753709 
L 274.951963 232.348021 
L 296.482955 234.004174 
" style="fill:none;stroke:#fdd3c1;stroke-linecap:square;stroke-opacity:0.5;stroke-width:1.5;"/>
   </g>
   <g id="line2d_20">
    <path clip-path="url(#pfcee2378ae)" d="M 59.642045 233.825997 
L 81.173037 226.26303 
L 102.704029 216.041393 
L 124.235021 223.57239 
L 145.766012 227.270232 
L 167.297004 231.488402 
L 188.827996 229.288054 
L 210.358988 230.919337 
L 231.889979 232.422407 
L 253.420971 233.513287 
L 274.951963 232.821808 
L 296.482955 228.411186 
" style="fill:none;stroke:#fdc9b3;stroke-linecap:square;stroke-opacity:0.5;stroke-width:1.5;"/>
   </g>
   <g id="line2d_21">
    <path clip-path="url(#pfcee2378ae)" d="M 59.642045 228.984897 
L 81.173037 189.100679 
L 102.704029 204.887982 
L 124.235021 218.413487 
L 145.766012 229.468015 
L 167.297004 231.3374 
L 188.827996 228.305351 
L 210.358988 234.125474 
L 231.889979 233.013962 
L 253.420971 233.643583 
L 274.951963 232.642516 
L 296.482955 232.542703 
" style="fill:none;stroke:#fcbea5;stroke-linecap:square;stroke-opacity:0.5;stroke-width:1.5;"/>
   </g>
   <g id="line2d_22">
    <path clip-path="url(#pfcee2378ae)" d="M 59.642045 228.155984 
L 81.173037 230.196817 
L 102.704029 215.425415 
L 124.235021 219.905664 
L 145.766012 231.718734 
L 167.297004 234.315769 
L 188.827996 233.919342 
L 210.358988 232.048396 
L 231.889979 226.423847 
L 253.420971 233.154852 
L 274.951963 235.415163 
L 296.482955 234.973643 
" style="fill:none;stroke:#fcb398;stroke-linecap:square;stroke-opacity:0.5;stroke-width:1.5;"/>
   </g>
   <g id="line2d_23">
    <path clip-path="url(#pfcee2378ae)" d="M 59.642045 236.164151 
L 81.173037 235.985677 
L 102.704029 234.944461 
L 124.235021 235.109441 
L 145.766012 235.002974 
L 167.297004 170.545191 
L 188.827996 235.26167 
L 210.358988 235.868132 
L 231.889979 235.746125 
L 253.420971 236.017201 
L 274.951963 235.342747 
L 296.482955 235.92512 
" style="fill:none;stroke:#fca78b;stroke-linecap:square;stroke-opacity:0.5;stroke-width:1.5;"/>
   </g>
   <g id="line2d_24">
    <path clip-path="url(#pfcee2378ae)" d="M 59.642045 236.150694 
L 81.173037 236.163705 
L 102.704029 235.23286 
L 124.235021 235.494195 
L 145.766012 236.227273 
L 167.297004 235.732854 
L 188.827996 236.227273 
L 210.358988 236.215749 
L 231.889979 236.154039 
L 253.420971 236.223555 
L 274.951963 212.857636 
L 296.482955 235.948094 
" style="fill:none;stroke:#fc9d7f;stroke-linecap:square;stroke-opacity:0.5;stroke-width:1.5;"/>
   </g>
   <g id="line2d_25">
    <path clip-path="url(#pfcee2378ae)" d="M 59.642045 220.780524 
L 81.173037 196.155027 
L 102.704029 199.631161 
L 124.235021 211.430142 
L 145.766012 220.858479 
L 167.297004 221.764603 
L 188.827996 207.663416 
L 210.358988 230.866401 
L 231.889979 235.578878 
L 253.420971 228.301893 
L 274.951963 233.806184 
L 296.482955 230.262616 
" style="fill:none;stroke:#fc9272;stroke-linecap:square;stroke-opacity:0.5;stroke-width:1.5;"/>
   </g>
   <g id="line2d_26">
    <path clip-path="url(#pfcee2378ae)" d="M 59.642045 217.874087 
L 81.173037 218.905935 
L 102.704029 224.649962 
L 124.235021 220.024956 
L 145.766012 195.930457 
L 167.297004 235.029999 
L 188.827996 235.009851 
L 210.358988 232.047504 
L 231.889979 234.860522 
L 253.420971 223.20284 
L 274.951963 209.725997 
L 296.482955 226.871872 
" style="fill:none;stroke:#fc8666;stroke-linecap:square;stroke-opacity:0.5;stroke-width:1.5;"/>
   </g>
   <g id="line2d_27">
    <path clip-path="url(#pfcee2378ae)" d="M 59.642045 224.222346 
L 81.173037 199.181798 
L 102.704029 203.376399 
L 124.235021 221.069778 
L 145.766012 227.4893 
L 167.297004 225.954149 
L 188.827996 230.605623 
L 210.358988 228.447394 
L 231.889979 232.478837 
L 253.420971 235.679286 
L 274.951963 235.320963 
L 296.482955 233.981646 
" style="fill:none;stroke:#fb7b5b;stroke-linecap:square;stroke-opacity:0.5;stroke-width:1.5;"/>
   </g>
   <g id="line2d_28">
    <path clip-path="url(#pfcee2378ae)" d="M 59.642045 228.734008 
L 81.173037 229.188538 
L 102.704029 232.200922 
L 124.235021 232.546866 
L 145.766012 235.477244 
L 167.297004 235.957424 
L 188.827996 235.757984 
L 210.358988 235.98735 
L 231.889979 235.045687 
L 253.420971 231.481785 
L 274.951963 228.480962 
L 296.482955 231.384723 
" style="fill:none;stroke:#fb7050;stroke-linecap:square;stroke-opacity:0.5;stroke-width:1.5;"/>
   </g>
   <g id="line2d_29">
    <path clip-path="url(#pfcee2378ae)" d="M 59.642045 222.156978 
L 81.173037 227.206812 
L 102.704029 173.656608 
L 124.235021 214.622264 
L 145.766012 229.635076 
L 167.297004 233.099128 
L 188.827996 232.467908 
L 210.358988 233.939379 
L 231.889979 236.001364 
L 253.420971 235.865827 
L 274.951963 235.166801 
L 296.482955 233.874287 
" style="fill:none;stroke:#f96346;stroke-linecap:square;stroke-opacity:0.5;stroke-width:1.5;"/>
   </g>
   <g id="line2d_30">
    <path clip-path="url(#pfcee2378ae)" d="M 59.642045 227.288521 
L 81.173037 225.657795 
L 102.704029 216.375776 
L 124.235021 231.213795 
L 145.766012 234.241792 
L 167.297004 235.5065 
L 188.827996 235.881105 
L 210.358988 235.93735 
L 231.889979 232.431403 
L 253.420971 230.41451 
L 274.951963 225.492779 
L 296.482955 233.032846 
" style="fill:none;stroke:#f6563d;stroke-linecap:square;stroke-opacity:0.5;stroke-width:1.5;"/>
   </g>
   <g id="line2d_31">
    <path clip-path="url(#pfcee2378ae)" d="M 59.642045 229.168204 
L 81.173037 228.46981 
L 102.704029 197.906607 
L 124.235021 213.670118 
L 145.766012 226.916629 
L 167.297004 224.91851 
L 188.827996 223.605029 
L 210.358988 228.00264 
L 231.889979 233.712281 
L 253.420971 229.863958 
L 274.951963 231.679738 
L 296.482955 227.8774 
" style="fill:none;stroke:#f34935;stroke-linecap:square;stroke-opacity:0.5;stroke-width:1.5;"/>
   </g>
   <g id="line2d_32">
    <path clip-path="url(#pfcee2378ae)" d="M 59.642045 232.108023 
L 81.173037 212.357455 
L 102.704029 193.265505 
L 124.235021 168.437295 
L 145.766012 200.868694 
L 167.297004 228.331744 
L 188.827996 228.853932 
L 210.358988 225.129585 
L 231.889979 232.288691 
L 253.420971 232.731288 
L 274.951963 228.802111 
L 296.482955 232.469953 
" style="fill:none;stroke:#ef3c2c;stroke-linecap:square;stroke-opacity:0.5;stroke-width:1.5;"/>
   </g>
   <g id="line2d_33">
    <path clip-path="url(#pfcee2378ae)" d="M 59.642045 233.115001 
L 81.173037 224.598104 
L 102.704029 218.378208 
L 124.235021 230.739488 
L 145.766012 227.798442 
L 167.297004 209.921571 
L 188.827996 231.33227 
L 210.358988 232.966825 
L 231.889979 234.264915 
L 253.420971 233.925104 
L 274.951963 229.016458 
L 296.482955 233.920495 
" style="fill:none;stroke:#e53228;stroke-linecap:square;stroke-opacity:0.5;stroke-width:1.5;"/>
   </g>
   <g id="line2d_34">
    <path clip-path="url(#pfcee2378ae)" d="M 59.642045 232.414228 
L 81.173037 212.340727 
L 102.704029 213.914279 
L 124.235021 232.075942 
L 145.766012 235.414605 
L 167.297004 233.494142 
L 188.827996 233.47812 
L 210.358988 234.174767 
L 231.889979 235.568655 
L 253.420971 236.037312 
L 274.951963 235.132377 
L 296.482955 236.050472 
" style="fill:none;stroke:#dc2924;stroke-linecap:square;stroke-opacity:0.5;stroke-width:1.5;"/>
   </g>
   <g id="line2d_35">
    <path clip-path="url(#pfcee2378ae)" d="M 59.642045 234.246551 
L 81.173037 231.296211 
L 102.704029 224.677323 
L 124.235021 219.052253 
L 145.766012 233.720051 
L 167.297004 233.884212 
L 188.827996 232.463261 
L 210.358988 231.729366 
L 231.889979 230.528895 
L 253.420971 227.63677 
L 274.951963 221.400518 
L 296.482955 227.210084 
" style="fill:none;stroke:#d21f20;stroke-linecap:square;stroke-opacity:0.5;stroke-width:1.5;"/>
   </g>
   <g id="line2d_36">
    <path clip-path="url(#pfcee2378ae)" d="M 59.642045 226.375594 
L 81.173037 184.222962 
L 102.704029 36.772727 
L 124.235021 228.262935 
L 145.766012 211.606311 
L 167.297004 92.288747 
L 188.827996 229.070175 
L 210.358988 225.055906 
L 231.889979 226.84518 
L 253.420971 231.995274 
L 274.951963 233.672728 
L 296.482955 234.432459 
" style="fill:none;stroke:#c8171c;stroke-linecap:square;stroke-opacity:0.5;stroke-width:1.5;"/>
   </g>
   <g id="line2d_37">
    <path clip-path="url(#pfcee2378ae)" d="M 59.642045 228.47494 
L 81.173037 223.805845 
L 102.704029 216.199198 
L 124.235021 227.244098 
L 145.766012 227.446363 
L 167.297004 230.579861 
L 188.827996 227.137296 
L 210.358988 235.224049 
L 231.889979 235.4023 
L 253.420971 231.691225 
L 274.951963 223.549825 
L 296.482955 234.074694 
" style="fill:none;stroke:#bd151a;stroke-linecap:square;stroke-opacity:0.5;stroke-width:1.5;"/>
   </g>
   <g id="line2d_38">
    <path clip-path="url(#pfcee2378ae)" d="M 59.642045 227.485694 
L 81.173037 230.166594 
L 102.704029 217.045211 
L 124.235021 230.778818 
L 145.766012 233.722987 
L 167.297004 234.261569 
L 188.827996 236.125006 
L 210.358988 235.56267 
L 231.889979 235.71791 
L 253.420971 233.753916 
L 274.951963 231.136324 
L 296.482955 234.586584 
" style="fill:none;stroke:#b21218;stroke-linecap:square;stroke-opacity:0.5;stroke-width:1.5;"/>
   </g>
   <g id="line2d_39">
    <path clip-path="url(#pfcee2378ae)" d="M 59.642045 223.484919 
L 81.173037 228.457096 
L 102.704029 217.531489 
L 124.235021 223.619081 
L 145.766012 234.134916 
L 167.297004 230.59462 
L 188.827996 230.313396 
L 210.358988 229.996448 
L 231.889979 234.565952 
L 253.420971 233.662282 
L 274.951963 231.923602 
L 296.482955 233.859343 
" style="fill:none;stroke:#a81016;stroke-linecap:square;stroke-opacity:0.5;stroke-width:1.5;"/>
   </g>
   <g id="line2d_40">
    <path clip-path="url(#pfcee2378ae)" d="M 59.642045 234.063541 
L 81.173037 224.798957 
L 102.704029 228.680886 
L 124.235021 233.683583 
L 145.766012 231.344426 
L 167.297004 230.67131 
L 188.827996 231.932784 
L 210.358988 234.872306 
L 231.889979 235.731553 
L 253.420971 235.23851 
L 274.951963 235.446315 
L 296.482955 235.923038 
" style="fill:none;stroke:#980c13;stroke-linecap:square;stroke-opacity:0.5;stroke-width:1.5;"/>
   </g>
   <g id="line2d_41">
    <path clip-path="url(#pfcee2378ae)" d="M 59.642045 228.816863 
L 81.173037 220.047126 
L 102.704029 205.790215 
L 124.235021 222.719105 
L 145.766012 227.157062 
L 167.297004 222.030056 
L 188.827996 230.388397 
L 210.358988 232.442211 
L 231.889979 233.534738 
L 253.420971 232.608428 
L 274.951963 229.825233 
L 296.482955 232.899624 
" style="fill:none;stroke:#ff0000;stroke-dasharray:5.55,2.4;stroke-dashoffset:0;stroke-width:1.5;"/>
   </g>
   <g id="patch_3">
    <path d="M 47.8 246.2 
L 47.8 26.8 
" style="fill:none;stroke:#000000;stroke-linecap:square;stroke-linejoin:miter;stroke-width:0.8;"/>
   </g>
   <g id="patch_4">
    <path d="M 308.325 246.2 
L 308.325 26.8 
" style="fill:none;stroke:#000000;stroke-linecap:square;stroke-linejoin:miter;stroke-width:0.8;"/>
   </g>
   <g id="patch_5">
    <path d="M 47.8 246.2 
L 308.325 246.2 
" style="fill:none;stroke:#000000;stroke-linecap:square;stroke-linejoin:miter;stroke-width:0.8;"/>
   </g>
   <g id="patch_6">
    <path d="M 47.8 26.8 
L 308.325 26.8 
" style="fill:none;stroke:#000000;stroke-linecap:square;stroke-linejoin:miter;stroke-width:0.8;"/>
   </g>
   <g id="text_20">
    <!-- Georgia -->
    <defs>
     <path d="M 59.515625 10.40625 
L 59.515625 29.984375 
L 43.40625 29.984375 
L 43.40625 38.09375 
L 69.28125 38.09375 
L 69.28125 6.78125 
Q 63.578125 2.734375 56.6875 0.65625 
Q 49.8125 -1.421875 42 -1.421875 
Q 24.90625 -1.421875 15.25 8.5625 
Q 5.609375 18.5625 5.609375 36.375 
Q 5.609375 54.25 15.25 64.234375 
Q 24.90625 74.21875 42 74.21875 
Q 49.125 74.21875 55.546875 72.453125 
Q 61.96875 70.703125 67.390625 67.28125 
L 67.390625 56.78125 
Q 61.921875 61.421875 55.765625 63.765625 
Q 49.609375 66.109375 42.828125 66.109375 
Q 29.4375 66.109375 22.71875 58.640625 
Q 16.015625 51.171875 16.015625 36.375 
Q 16.015625 21.625 22.71875 14.15625 
Q 29.4375 6.6875 42.828125 6.6875 
Q 48.046875 6.6875 52.140625 7.59375 
Q 56.25 8.5 59.515625 10.40625 
z
" id="DejaVuSans-71"/>
     <path d="M 45.40625 27.984375 
Q 45.40625 37.75 41.375 43.109375 
Q 37.359375 48.484375 30.078125 48.484375 
Q 22.859375 48.484375 18.828125 43.109375 
Q 14.796875 37.75 14.796875 27.984375 
Q 14.796875 18.265625 18.828125 12.890625 
Q 22.859375 7.515625 30.078125 7.515625 
Q 37.359375 7.515625 41.375 12.890625 
Q 45.40625 18.265625 45.40625 27.984375 
z
M 54.390625 6.78125 
Q 54.390625 -7.171875 48.1875 -13.984375 
Q 42 -20.796875 29.203125 -20.796875 
Q 24.46875 -20.796875 20.265625 -20.09375 
Q 16.0625 -19.390625 12.109375 -17.921875 
L 12.109375 -9.1875 
Q 16.0625 -11.328125 19.921875 -12.34375 
Q 23.78125 -13.375 27.78125 -13.375 
Q 36.625 -13.375 41.015625 -8.765625 
Q 45.40625 -4.15625 45.40625 5.171875 
L 45.40625 9.625 
Q 42.625 4.78125 38.28125 2.390625 
Q 33.9375 0 27.875 0 
Q 17.828125 0 11.671875 7.65625 
Q 5.515625 15.328125 5.515625 27.984375 
Q 5.515625 40.671875 11.671875 48.328125 
Q 17.828125 56 27.875 56 
Q 33.9375 56 38.28125 53.609375 
Q 42.625 51.21875 45.40625 46.390625 
L 45.40625 54.6875 
L 54.390625 54.6875 
z
" id="DejaVuSans-103"/>
     <path d="M 9.421875 54.6875 
L 18.40625 54.6875 
L 18.40625 0 
L 9.421875 0 
z
M 9.421875 75.984375 
L 18.40625 75.984375 
L 18.40625 64.59375 
L 9.421875 64.59375 
z
" id="DejaVuSans-105"/>
     <path d="M 34.28125 27.484375 
Q 23.390625 27.484375 19.1875 25 
Q 14.984375 22.515625 14.984375 16.5 
Q 14.984375 11.71875 18.140625 8.90625 
Q 21.296875 6.109375 26.703125 6.109375 
Q 34.1875 6.109375 38.703125 11.40625 
Q 43.21875 16.703125 43.21875 25.484375 
L 43.21875 27.484375 
z
M 52.203125 31.203125 
L 52.203125 0 
L 43.21875 0 
L 43.21875 8.296875 
Q 40.140625 3.328125 35.546875 0.953125 
Q 30.953125 -1.421875 24.3125 -1.421875 
Q 15.921875 -1.421875 10.953125 3.296875 
Q 6 8.015625 6 15.921875 
Q 6 25.140625 12.171875 29.828125 
Q 18.359375 34.515625 30.609375 34.515625 
L 43.21875 34.515625 
L 43.21875 35.40625 
Q 43.21875 41.609375 39.140625 45 
Q 35.0625 48.390625 27.6875 48.390625 
Q 23 48.390625 18.546875 47.265625 
Q 14.109375 46.140625 10.015625 43.890625 
L 10.015625 52.203125 
Q 14.9375 54.109375 19.578125 55.046875 
Q 24.21875 56 28.609375 56 
Q 40.484375 56 46.34375 49.84375 
Q 52.203125 43.703125 52.203125 31.203125 
z
" id="DejaVuSans-97"/>
    </defs>
    <g transform="translate(154.431875 20.8)scale(0.12 -0.12)">
     <use xlink:href="#DejaVuSans-71"/>
     <use x="77.490234" xlink:href="#DejaVuSans-101"/>
     <use x="139.013672" xlink:href="#DejaVuSans-111"/>
     <use x="200.195312" xlink:href="#DejaVuSans-114"/>
     <use x="241.292969" xlink:href="#DejaVuSans-103"/>
     <use x="304.769531" xlink:href="#DejaVuSans-105"/>
     <use x="332.552734" xlink:href="#DejaVuSans-97"/>
    </g>
   </g>
  </g>
  <g id="axes_2">
   <g id="matplotlib.axis_3">
    <g id="ytick_5">
     <g id="line2d_42">
      <defs>
       <path d="M 0 0 
L 3.5 0 
" id="mc233abd958" style="stroke:#000000;stroke-width:0.8;"/>
      </defs>
      <g>
       <use style="stroke:#000000;stroke-width:0.8;" x="308.325" xlink:href="#mc233abd958" y="236.576233"/>
      </g>
     </g>
     <g id="text_21">
      <!-- 20 -->
      <g transform="translate(315.325 240.375452)scale(0.1 -0.1)">
       <use xlink:href="#DejaVuSans-50"/>
       <use x="63.623047" xlink:href="#DejaVuSans-48"/>
      </g>
     </g>
    </g>
    <g id="ytick_6">
     <g id="line2d_43">
      <g>
       <use style="stroke:#000000;stroke-width:0.8;" x="308.325" xlink:href="#mc233abd958" y="190.452744"/>
      </g>
     </g>
     <g id="text_22">
      <!-- 40 -->
      <g transform="translate(315.325 194.251963)scale(0.1 -0.1)">
       <use xlink:href="#DejaVuSans-52"/>
       <use x="63.623047" xlink:href="#DejaVuSans-48"/>
      </g>
     </g>
    </g>
    <g id="ytick_7">
     <g id="line2d_44">
      <g>
       <use style="stroke:#000000;stroke-width:0.8;" x="308.325" xlink:href="#mc233abd958" y="144.329255"/>
      </g>
     </g>
     <g id="text_23">
      <!-- 60 -->
      <g transform="translate(315.325 148.128473)scale(0.1 -0.1)">
       <use xlink:href="#DejaVuSans-54"/>
       <use x="63.623047" xlink:href="#DejaVuSans-48"/>
      </g>
     </g>
    </g>
    <g id="ytick_8">
     <g id="line2d_45">
      <g>
       <use style="stroke:#000000;stroke-width:0.8;" x="308.325" xlink:href="#mc233abd958" y="98.205765"/>
      </g>
     </g>
     <g id="text_24">
      <!-- 80 -->
      <g transform="translate(315.325 102.004984)scale(0.1 -0.1)">
       <use xlink:href="#DejaVuSans-56"/>
       <use x="63.623047" xlink:href="#DejaVuSans-48"/>
      </g>
     </g>
    </g>
    <g id="ytick_9">
     <g id="line2d_46">
      <g>
       <use style="stroke:#000000;stroke-width:0.8;" x="308.325" xlink:href="#mc233abd958" y="52.082276"/>
      </g>
     </g>
     <g id="text_25">
      <!-- 100 -->
      <g transform="translate(315.325 55.881495)scale(0.1 -0.1)">
       <use xlink:href="#DejaVuSans-49"/>
       <use x="63.623047" xlink:href="#DejaVuSans-48"/>
       <use x="127.246094" xlink:href="#DejaVuSans-48"/>
      </g>
     </g>
    </g>
    <g id="text_26">
     <!-- Average AQI -->
     <defs>
      <path d="M 2.984375 54.6875 
L 12.5 54.6875 
L 29.59375 8.796875 
L 46.6875 54.6875 
L 56.203125 54.6875 
L 35.6875 0 
L 23.484375 0 
z
" id="DejaVuSans-118"/>
      <path d="M 39.40625 66.21875 
Q 28.65625 66.21875 22.328125 58.203125 
Q 16.015625 50.203125 16.015625 36.375 
Q 16.015625 22.609375 22.328125 14.59375 
Q 28.65625 6.59375 39.40625 6.59375 
Q 50.140625 6.59375 56.421875 14.59375 
Q 62.703125 22.609375 62.703125 36.375 
Q 62.703125 50.203125 56.421875 58.203125 
Q 50.140625 66.21875 39.40625 66.21875 
z
M 53.21875 1.3125 
L 66.21875 -12.890625 
L 54.296875 -12.890625 
L 43.5 -1.21875 
Q 41.890625 -1.3125 41.03125 -1.359375 
Q 40.1875 -1.421875 39.40625 -1.421875 
Q 24.03125 -1.421875 14.8125 8.859375 
Q 5.609375 19.140625 5.609375 36.375 
Q 5.609375 53.65625 14.8125 63.9375 
Q 24.03125 74.21875 39.40625 74.21875 
Q 54.734375 74.21875 63.90625 63.9375 
Q 73.09375 53.65625 73.09375 36.375 
Q 73.09375 23.6875 67.984375 14.640625 
Q 62.890625 5.609375 53.21875 1.3125 
z
" id="DejaVuSans-81"/>
      <path d="M 9.8125 72.90625 
L 19.671875 72.90625 
L 19.671875 0 
L 9.8125 0 
z
" id="DejaVuSans-73"/>
     </defs>
     <g style="fill:#5f5f5f;" transform="translate(341.814062 105.257812)rotate(-270)scale(0.1 -0.1)">
      <use xlink:href="#DejaVuSans-65"/>
      <use x="68.330078" xlink:href="#DejaVuSans-118"/>
      <use x="127.509766" xlink:href="#DejaVuSans-101"/>
      <use x="189.033203" xlink:href="#DejaVuSans-114"/>
      <use x="230.146484" xlink:href="#DejaVuSans-97"/>
      <use x="291.425781" xlink:href="#DejaVuSans-103"/>
      <use x="354.902344" xlink:href="#DejaVuSans-101"/>
      <use x="416.425781" xlink:href="#DejaVuSans-32"/>
      <use x="448.212891" xlink:href="#DejaVuSans-65"/>
      <use x="516.605469" xlink:href="#DejaVuSans-81"/>
      <use x="595.316406" xlink:href="#DejaVuSans-73"/>
     </g>
    </g>
   </g>
   <g id="line2d_47">
    <path clip-path="url(#pfcee2378ae)" d="M 59.642045 207.848801 
L 81.173037 206.672329 
L 102.704029 194.655713 
L 124.235021 182.232848 
L 145.766012 153.66969 
L 167.297004 172.937552 
L 188.827996 194.624588 
L 210.358988 189.897554 
L 231.889979 214.23712 
L 253.420971 200.318778 
L 274.951963 226.545494 
L 296.482955 226.29986 
" style="fill:none;stroke:#f3f3f3;stroke-linecap:square;stroke-opacity:0.5;stroke-width:1.5;"/>
   </g>
   <g id="line2d_48">
    <path clip-path="url(#pfcee2378ae)" d="M 59.642045 226.686432 
L 81.173037 213.413488 
L 102.704029 199.190295 
L 124.235021 179.479987 
L 145.766012 162.308874 
L 167.297004 154.061921 
L 188.827996 116.822704 
L 210.358988 138.896393 
L 231.889979 178.891791 
L 253.420971 204.744957 
L 274.951963 219.282448 
L 296.482955 219.930282 
" style="fill:none;stroke:#eeeeee;stroke-linecap:square;stroke-opacity:0.5;stroke-width:1.5;"/>
   </g>
   <g id="line2d_49">
    <path clip-path="url(#pfcee2378ae)" d="M 59.642045 215.716925 
L 81.173037 222.146847 
L 102.704029 177.031402 
L 124.235021 169.642969 
L 145.766012 147.181129 
L 167.297004 184.05001 
L 188.827996 206.547719 
L 210.358988 178.234407 
L 231.889979 186.220694 
L 253.420971 212.087989 
L 274.951963 213.606941 
L 296.482955 232.247532 
" style="fill:none;stroke:#e8e8e8;stroke-linecap:square;stroke-opacity:0.5;stroke-width:1.5;"/>
   </g>
   <g id="line2d_50">
    <path clip-path="url(#pfcee2378ae)" d="M 59.642045 233.139005 
L 81.173037 236.227273 
L 102.704029 201.000295 
L 124.235021 182.465506 
L 145.766012 168.206442 
L 167.297004 157.541713 
L 188.827996 135.748624 
L 210.358988 155.119154 
L 231.889979 184.137908 
L 253.420971 213.368885 
L 274.951963 217.820966 
L 296.482955 224.096173 
" style="fill:none;stroke:#e1e1e1;stroke-linecap:square;stroke-opacity:0.5;stroke-width:1.5;"/>
   </g>
   <g id="line2d_51">
    <path clip-path="url(#pfcee2378ae)" d="M 59.642045 220.532919 
L 81.173037 214.379304 
L 102.704029 199.352869 
L 124.235021 177.585843 
L 145.766012 156.00857 
L 167.297004 129.326337 
L 188.827996 156.188858 
L 210.358988 154.412635 
L 231.889979 179.278657 
L 253.420971 202.816402 
L 274.951963 231.727034 
L 296.482955 230.528341 
" style="fill:none;stroke:#dbdbdb;stroke-linecap:square;stroke-opacity:0.5;stroke-width:1.5;"/>
   </g>
   <g id="line2d_52">
    <path clip-path="url(#pfcee2378ae)" d="M 59.642045 225.611162 
L 81.173037 228.577195 
L 102.704029 213.746604 
L 124.235021 170.905398 
L 145.766012 161.761478 
L 167.297004 192.306817 
L 188.827996 133.465494 
L 210.358988 142.640881 
L 231.889979 129.539103 
L 253.420971 195.790725 
L 274.951963 226.078729 
L 296.482955 223.453002 
" style="fill:none;stroke:#d4d4d4;stroke-linecap:square;stroke-opacity:0.5;stroke-width:1.5;"/>
   </g>
   <g id="line2d_53">
    <path clip-path="url(#pfcee2378ae)" d="M 59.642045 235.535071 
L 81.173037 234.148681 
L 102.704029 233.290871 
L 124.235021 179.798444 
L 145.766012 116.193187 
L 167.297004 136.86878 
L 188.827996 134.247874 
L 210.358988 100.429308 
L 231.889979 157.975986 
L 253.420971 177.234072 
L 274.951963 229.07039 
L 296.482955 235.713379 
" style="fill:none;stroke:#cccccc;stroke-linecap:square;stroke-opacity:0.5;stroke-width:1.5;"/>
   </g>
   <g id="line2d_54">
    <path clip-path="url(#pfcee2378ae)" d="M 59.642045 214.012137 
L 81.173037 200.702408 
L 102.704029 187.33037 
L 124.235021 159.725245 
L 145.766012 115.031245 
L 167.297004 146.357866 
L 188.827996 113.821957 
L 210.358988 36.772727 
L 231.889979 95.909121 
L 253.420971 179.997877 
L 274.951963 188.45442 
L 296.482955 200.591601 
" style="fill:none;stroke:#c5c5c5;stroke-linecap:square;stroke-opacity:0.5;stroke-width:1.5;"/>
   </g>
   <g id="line2d_55">
    <path clip-path="url(#pfcee2378ae)" d="M 59.642045 201.088108 
L 81.173037 182.858562 
L 102.704029 177.977909 
L 124.235021 170.151912 
L 145.766012 148.149584 
L 167.297004 136.876188 
L 188.827996 94.434817 
L 210.358988 105.6146 
L 231.889979 191.479006 
L 253.420971 151.484675 
L 274.951963 183.255288 
L 296.482955 197.237648 
" style="fill:none;stroke:#bdbdbd;stroke-linecap:square;stroke-opacity:0.5;stroke-width:1.5;"/>
   </g>
   <g id="line2d_56">
    <path clip-path="url(#pfcee2378ae)" d="M 59.642045 194.015422 
L 81.173037 195.119742 
L 102.704029 190.399931 
L 124.235021 167.438064 
L 145.766012 138.044199 
L 167.297004 170.088102 
L 188.827996 147.432416 
L 210.358988 152.082528 
L 231.889979 178.55498 
L 253.420971 191.79236 
L 274.951963 189.914981 
L 296.482955 213.967299 
" style="fill:none;stroke:#b2b2b2;stroke-linecap:square;stroke-opacity:0.5;stroke-width:1.5;"/>
   </g>
   <g id="line2d_57">
    <path clip-path="url(#pfcee2378ae)" d="M 59.642045 200.476166 
L 81.173037 203.038016 
L 102.704029 196.208002 
L 124.235021 179.040618 
L 145.766012 163.157995 
L 167.297004 128.113683 
L 188.827996 139.293038 
L 210.358988 134.596222 
L 231.889979 160.295524 
L 253.420971 206.866109 
L 274.951963 205.257416 
L 296.482955 205.941126 
" style="fill:none;stroke:#a7a7a7;stroke-linecap:square;stroke-opacity:0.5;stroke-width:1.5;"/>
   </g>
   <g id="line2d_58">
    <path clip-path="url(#pfcee2378ae)" d="M 59.642045 206.039651 
L 81.173037 200.114343 
L 102.704029 194.268949 
L 124.235021 165.126919 
L 145.766012 180.560469 
L 167.297004 157.005813 
L 188.827996 177.950545 
L 210.358988 166.038818 
L 231.889979 164.982393 
L 253.420971 181.498683 
L 274.951963 199.973895 
L 296.482955 205.48251 
" style="fill:none;stroke:#9c9c9c;stroke-linecap:square;stroke-opacity:0.5;stroke-width:1.5;"/>
   </g>
   <g id="line2d_59">
    <path clip-path="url(#pfcee2378ae)" d="M 59.642045 190.129 
L 81.173037 192.625539 
L 102.704029 174.551685 
L 124.235021 159.317942 
L 145.766012 162.327565 
L 167.297004 172.280322 
L 188.827996 149.928311 
L 210.358988 148.000595 
L 231.889979 179.944506 
L 253.420971 173.435157 
L 274.951963 203.037199 
L 296.482955 195.690624 
" style="fill:none;stroke:#919191;stroke-linecap:square;stroke-opacity:0.5;stroke-width:1.5;"/>
   </g>
   <g id="line2d_60">
    <path clip-path="url(#pfcee2378ae)" d="M 59.642045 191.724726 
L 81.173037 194.509978 
L 102.704029 180.843235 
L 124.235021 157.826092 
L 145.766012 135.416061 
L 167.297004 156.155512 
L 188.827996 163.594183 
L 210.358988 156.069039 
L 231.889979 134.089505 
L 253.420971 175.283542 
L 274.951963 189.35816 
L 296.482955 195.561358 
" style="fill:none;stroke:#878787;stroke-linecap:square;stroke-opacity:0.5;stroke-width:1.5;"/>
   </g>
   <g id="line2d_61">
    <path clip-path="url(#pfcee2378ae)" d="M 59.642045 205.580195 
L 81.173037 194.587953 
L 102.704029 167.136507 
L 124.235021 150.740096 
L 145.766012 150.624559 
L 167.297004 108.158022 
L 188.827996 125.374895 
L 210.358988 139.399807 
L 231.889979 165.759272 
L 253.420971 183.577428 
L 274.951963 192.294713 
L 296.482955 193.198357 
" style="fill:none;stroke:#7d7d7d;stroke-linecap:square;stroke-opacity:0.5;stroke-width:1.5;"/>
   </g>
   <g id="line2d_62">
    <path clip-path="url(#pfcee2378ae)" d="M 59.642045 210.744084 
L 81.173037 195.101379 
L 102.704029 148.355332 
L 124.235021 160.422402 
L 145.766012 119.481731 
L 167.297004 123.545001 
L 188.827996 157.367269 
L 210.358988 99.931993 
L 231.889979 156.7899 
L 253.420971 191.01454 
L 274.951963 179.213095 
L 296.482955 190.653117 
" style="fill:none;stroke:#737373;stroke-linecap:square;stroke-opacity:0.5;stroke-width:1.5;"/>
   </g>
   <g id="line2d_63">
    <path clip-path="url(#pfcee2378ae)" d="M 59.642045 198.041857 
L 81.173037 187.494903 
L 102.704029 165.139853 
L 124.235021 166.438449 
L 145.766012 144.689983 
L 167.297004 134.939091 
L 188.827996 132.694819 
L 210.358988 153.272589 
L 231.889979 176.508006 
L 253.420971 183.315794 
L 274.951963 188.891796 
L 296.482955 207.026098 
" style="fill:none;stroke:#6a6a6a;stroke-linecap:square;stroke-opacity:0.5;stroke-width:1.5;"/>
   </g>
   <g id="line2d_64">
    <path clip-path="url(#pfcee2378ae)" d="M 59.642045 196.752945 
L 81.173037 175.834866 
L 102.704029 179.279542 
L 124.235021 172.006117 
L 145.766012 192.940985 
L 167.297004 146.80154 
L 188.827996 163.088313 
L 210.358988 178.283198 
L 231.889979 180.72357 
L 253.420971 203.336171 
L 274.951963 191.442144 
L 296.482955 204.143744 
" style="fill:none;stroke:#626262;stroke-linecap:square;stroke-opacity:0.5;stroke-width:1.5;"/>
   </g>
   <g id="line2d_65">
    <path clip-path="url(#pfcee2378ae)" d="M 59.642045 200.080764 
L 81.173037 198.775342 
L 102.704029 179.886754 
L 124.235021 141.918753 
L 145.766012 168.422431 
L 167.297004 163.278552 
L 188.827996 158.736157 
L 210.358988 166.548721 
L 231.889979 148.714585 
L 253.420971 167.308159 
L 274.951963 187.097997 
L 296.482955 192.56237 
" style="fill:none;stroke:#585858;stroke-linecap:square;stroke-opacity:0.5;stroke-width:1.5;"/>
   </g>
   <g id="line2d_66">
    <path clip-path="url(#pfcee2378ae)" d="M 59.642045 201.571799 
L 81.173037 186.556765 
L 102.704029 176.47386 
L 124.235021 167.793885 
L 145.766012 150.004977 
L 167.297004 129.846479 
L 188.827996 151.145106 
L 210.358988 133.337109 
L 231.889979 170.396268 
L 253.420971 186.094286 
L 274.951963 204.147141 
L 296.482955 199.714584 
" style="fill:none;stroke:#4e4e4e;stroke-linecap:square;stroke-opacity:0.5;stroke-width:1.5;"/>
   </g>
   <g id="line2d_67">
    <path clip-path="url(#pfcee2378ae)" d="M 59.642045 200.234218 
L 81.173037 193.751855 
L 102.704029 177.303038 
L 124.235021 167.640538 
L 145.766012 163.269044 
L 167.297004 158.144519 
L 188.827996 165.079301 
L 210.358988 177.699843 
L 231.889979 185.036771 
L 253.420971 191.096957 
L 274.951963 180.798832 
L 296.482955 202.167976 
" style="fill:none;stroke:#414141;stroke-linecap:square;stroke-opacity:0.5;stroke-width:1.5;"/>
   </g>
   <g id="line2d_68">
    <path clip-path="url(#pfcee2378ae)" d="M 59.642045 194.152949 
L 81.173037 212.253477 
L 102.704029 178.774726 
L 124.235021 183.942806 
L 145.766012 185.083886 
L 167.297004 187.306463 
L 188.827996 201.892969 
L 210.358988 189.912151 
L 231.889979 173.047654 
L 253.420971 187.202537 
L 274.951963 200.06873 
L 296.482955 203.987831 
" style="fill:none;stroke:#353535;stroke-linecap:square;stroke-opacity:0.5;stroke-width:1.5;"/>
   </g>
   <g id="line2d_69">
    <path clip-path="url(#pfcee2378ae)" d="M 59.642045 209.913019 
L 81.173037 198.416627 
L 102.704029 178.793304 
L 124.235021 174.415234 
L 145.766012 174.192485 
L 167.297004 182.997511 
L 188.827996 175.322515 
L 210.358988 168.395431 
L 231.889979 201.579413 
L 253.420971 188.669021 
L 274.951963 189.70683 
L 296.482955 197.638263 
" style="fill:none;stroke:#282828;stroke-linecap:square;stroke-opacity:0.5;stroke-width:1.5;"/>
   </g>
   <g id="line2d_70">
    <path clip-path="url(#pfcee2378ae)" d="M 59.642045 202.629743 
L 81.173037 198.034385 
L 102.704029 189.464773 
L 124.235021 190.31426 
L 145.766012 172.180953 
L 167.297004 178.006549 
L 188.827996 171.029511 
L 210.358988 186.414916 
L 231.889979 198.49024 
L 253.420971 205.250917 
L 274.951963 219.809439 
L 296.482955 214.279797 
" style="fill:none;stroke:#1d1d1d;stroke-linecap:square;stroke-opacity:0.5;stroke-width:1.5;"/>
   </g>
   <g id="line2d_71">
    <path clip-path="url(#pfcee2378ae)" d="M 59.642045 207.594046 
L 81.173037 202.722552 
L 102.704029 185.852326 
L 124.235021 169.848764 
L 145.766012 155.371147 
L 167.297004 154.458098 
L 188.827996 152.742999 
L 210.358988 148.000026 
L 231.889979 170.524249 
L 253.420971 189.732751 
L 274.951963 202.36892 
L 296.482955 208.838036 
" style="fill:none;stroke:#000000;stroke-dasharray:5.55,2.4;stroke-dashoffset:0;stroke-width:1.5;"/>
   </g>
   <g id="patch_7">
    <path d="M 47.8 246.2 
L 47.8 26.8 
" style="fill:none;stroke:#000000;stroke-linecap:square;stroke-linejoin:miter;stroke-width:0.8;"/>
   </g>
   <g id="patch_8">
    <path d="M 308.325 246.2 
L 308.325 26.8 
" style="fill:none;stroke:#000000;stroke-linecap:square;stroke-linejoin:miter;stroke-width:0.8;"/>
   </g>
   <g id="patch_9">
    <path d="M 47.8 246.2 
L 308.325 246.2 
" style="fill:none;stroke:#000000;stroke-linecap:square;stroke-linejoin:miter;stroke-width:0.8;"/>
   </g>
   <g id="patch_10">
    <path d="M 47.8 26.8 
L 308.325 26.8 
" style="fill:none;stroke:#000000;stroke-linecap:square;stroke-linejoin:miter;stroke-width:0.8;"/>
   </g>
  </g>
 </g>
 <defs>
  <clipPath id="pfcee2378ae">
   <rect height="219.4" width="260.525" x="47.8" y="26.8"/>
  </clipPath>
 </defs>
</svg>
