<?xml version="1.0" encoding="utf-8" standalone="no"?>
<!DOCTYPE svg PUBLIC "-//W3C//DTD SVG 1.1//EN"
  "http://www.w3.org/Graphics/SVG/1.1/DTD/svg11.dtd">
<!-- Created with matplotlib (https://matplotlib.org/) -->
<svg height="288pt" version="1.1" viewBox="0 0 360 288" width="360pt" xmlns="http://www.w3.org/2000/svg" xmlns:xlink="http://www.w3.org/1999/xlink">
 <defs>
  <style type="text/css">
*{stroke-linecap:butt;stroke-linejoin:round;}
  </style>
 </defs>
 <g id="figure_1">
  <g id="patch_1">
   <path d="M 0 288 
L 360 288 
L 360 0 
L 0 0 
z
" style="fill:#ffffff;"/>
  </g>
  <g id="axes_1">
   <g id="patch_2">
    <path d="M 38.175 246.2 
L 314.575 246.2 
L 314.575 26.8 
L 38.175 26.8 
z
" style="fill:#ffffff;"/>
   </g>
   <g id="matplotlib.axis_1">
    <g id="xtick_1">
     <g id="line2d_1">
      <defs>
       <path d="M 0 0 
L 0 3.5 
" id="me318acbc3e" style="stroke:#000000;stroke-width:0.8;"/>
      </defs>
      <g>
       <use style="stroke:#000000;stroke-width:0.8;" x="50.738636" xlink:href="#me318acbc3e" y="246.2"/>
      </g>
     </g>
     <g id="text_1">
      <!-- 1 -->
      <defs>
       <path d="M 12.40625 8.296875 
L 28.515625 8.296875 
L 28.515625 63.921875 
L 10.984375 60.40625 
L 10.984375 69.390625 
L 28.421875 72.90625 
L 38.28125 72.90625 
L 38.28125 8.296875 
L 54.390625 8.296875 
L 54.390625 0 
L 12.40625 0 
z
" id="DejaVuSans-49"/>
      </defs>
      <g transform="translate(47.557386 260.798437)scale(0.1 -0.1)">
       <use xlink:href="#DejaVuSans-49"/>
      </g>
     </g>
    </g>
    <g id="xtick_2">
     <g id="line2d_2">
      <g>
       <use style="stroke:#000000;stroke-width:0.8;" x="73.581612" xlink:href="#me318acbc3e" y="246.2"/>
      </g>
     </g>
     <g id="text_2">
      <!-- 2 -->
      <defs>
       <path d="M 19.1875 8.296875 
L 53.609375 8.296875 
L 53.609375 0 
L 7.328125 0 
L 7.328125 8.296875 
Q 12.9375 14.109375 22.625 23.890625 
Q 32.328125 33.6875 34.8125 36.53125 
Q 39.546875 41.84375 41.421875 45.53125 
Q 43.3125 49.21875 43.3125 52.78125 
Q 43.3125 58.59375 39.234375 62.25 
Q 35.15625 65.921875 28.609375 65.921875 
Q 23.96875 65.921875 18.8125 64.3125 
Q 13.671875 62.703125 7.8125 59.421875 
L 7.8125 69.390625 
Q 13.765625 71.78125 18.9375 73 
Q 24.125 74.21875 28.421875 74.21875 
Q 39.75 74.21875 46.484375 68.546875 
Q 53.21875 62.890625 53.21875 53.421875 
Q 53.21875 48.921875 51.53125 44.890625 
Q 49.859375 40.875 45.40625 35.40625 
Q 44.1875 33.984375 37.640625 27.21875 
Q 31.109375 20.453125 19.1875 8.296875 
z
" id="DejaVuSans-50"/>
      </defs>
      <g transform="translate(70.400362 260.798437)scale(0.1 -0.1)">
       <use xlink:href="#DejaVuSans-50"/>
      </g>
     </g>
    </g>
    <g id="xtick_3">
     <g id="line2d_3">
      <g>
       <use style="stroke:#000000;stroke-width:0.8;" x="96.424587" xlink:href="#me318acbc3e" y="246.2"/>
      </g>
     </g>
     <g id="text_3">
      <!-- 3 -->
      <defs>
       <path d="M 40.578125 39.3125 
Q 47.65625 37.796875 51.625 33 
Q 55.609375 28.21875 55.609375 21.1875 
Q 55.609375 10.40625 48.1875 4.484375 
Q 40.765625 -1.421875 27.09375 -1.421875 
Q 22.515625 -1.421875 17.65625 -0.515625 
Q 12.796875 0.390625 7.625 2.203125 
L 7.625 11.71875 
Q 11.71875 9.328125 16.59375 8.109375 
Q 21.484375 6.890625 26.8125 6.890625 
Q 36.078125 6.890625 40.9375 10.546875 
Q 45.796875 14.203125 45.796875 21.1875 
Q 45.796875 27.640625 41.28125 31.265625 
Q 36.765625 34.90625 28.71875 34.90625 
L 20.21875 34.90625 
L 20.21875 43.015625 
L 29.109375 43.015625 
Q 36.375 43.015625 40.234375 45.921875 
Q 44.09375 48.828125 44.09375 54.296875 
Q 44.09375 59.90625 40.109375 62.90625 
Q 36.140625 65.921875 28.71875 65.921875 
Q 24.65625 65.921875 20.015625 65.03125 
Q 15.375 64.15625 9.8125 62.3125 
L 9.8125 71.09375 
Q 15.4375 72.65625 20.34375 73.4375 
Q 25.25 74.21875 29.59375 74.21875 
Q 40.828125 74.21875 47.359375 69.109375 
Q 53.90625 64.015625 53.90625 55.328125 
Q 53.90625 49.265625 50.4375 45.09375 
Q 46.96875 40.921875 40.578125 39.3125 
z
" id="DejaVuSans-51"/>
      </defs>
      <g transform="translate(93.243337 260.798437)scale(0.1 -0.1)">
       <use xlink:href="#DejaVuSans-51"/>
      </g>
     </g>
    </g>
    <g id="xtick_4">
     <g id="line2d_4">
      <g>
       <use style="stroke:#000000;stroke-width:0.8;" x="119.267562" xlink:href="#me318acbc3e" y="246.2"/>
      </g>
     </g>
     <g id="text_4">
      <!-- 4 -->
      <defs>
       <path d="M 37.796875 64.3125 
L 12.890625 25.390625 
L 37.796875 25.390625 
z
M 35.203125 72.90625 
L 47.609375 72.90625 
L 47.609375 25.390625 
L 58.015625 25.390625 
L 58.015625 17.1875 
L 47.609375 17.1875 
L 47.609375 0 
L 37.796875 0 
L 37.796875 17.1875 
L 4.890625 17.1875 
L 4.890625 26.703125 
z
" id="DejaVuSans-52"/>
      </defs>
      <g transform="translate(116.086312 260.798437)scale(0.1 -0.1)">
       <use xlink:href="#DejaVuSans-52"/>
      </g>
     </g>
    </g>
    <g id="xtick_5">
     <g id="line2d_5">
      <g>
       <use style="stroke:#000000;stroke-width:0.8;" x="142.110537" xlink:href="#me318acbc3e" y="246.2"/>
      </g>
     </g>
     <g id="text_5">
      <!-- 5 -->
      <defs>
       <path d="M 10.796875 72.90625 
L 49.515625 72.90625 
L 49.515625 64.59375 
L 19.828125 64.59375 
L 19.828125 46.734375 
Q 21.96875 47.46875 24.109375 47.828125 
Q 26.265625 48.1875 28.421875 48.1875 
Q 40.625 48.1875 47.75 41.5 
Q 54.890625 34.8125 54.890625 23.390625 
Q 54.890625 11.625 47.5625 5.09375 
Q 40.234375 -1.421875 26.90625 -1.421875 
Q 22.3125 -1.421875 17.546875 -0.640625 
Q 12.796875 0.140625 7.71875 1.703125 
L 7.71875 11.625 
Q 12.109375 9.234375 16.796875 8.0625 
Q 21.484375 6.890625 26.703125 6.890625 
Q 35.15625 6.890625 40.078125 11.328125 
Q 45.015625 15.765625 45.015625 23.390625 
Q 45.015625 31 40.078125 35.4375 
Q 35.15625 39.890625 26.703125 39.890625 
Q 22.75 39.890625 18.8125 39.015625 
Q 14.890625 38.140625 10.796875 36.28125 
z
" id="DejaVuSans-53"/>
      </defs>
      <g transform="translate(138.929287 260.798437)scale(0.1 -0.1)">
       <use xlink:href="#DejaVuSans-53"/>
      </g>
     </g>
    </g>
    <g id="xtick_6">
     <g id="line2d_6">
      <g>
       <use style="stroke:#000000;stroke-width:0.8;" x="164.953512" xlink:href="#me318acbc3e" y="246.2"/>
      </g>
     </g>
     <g id="text_6">
      <!-- 6 -->
      <defs>
       <path d="M 33.015625 40.375 
Q 26.375 40.375 22.484375 35.828125 
Q 18.609375 31.296875 18.609375 23.390625 
Q 18.609375 15.53125 22.484375 10.953125 
Q 26.375 6.390625 33.015625 6.390625 
Q 39.65625 6.390625 43.53125 10.953125 
Q 47.40625 15.53125 47.40625 23.390625 
Q 47.40625 31.296875 43.53125 35.828125 
Q 39.65625 40.375 33.015625 40.375 
z
M 52.59375 71.296875 
L 52.59375 62.3125 
Q 48.875 64.0625 45.09375 64.984375 
Q 41.3125 65.921875 37.59375 65.921875 
Q 27.828125 65.921875 22.671875 59.328125 
Q 17.53125 52.734375 16.796875 39.40625 
Q 19.671875 43.65625 24.015625 45.921875 
Q 28.375 48.1875 33.59375 48.1875 
Q 44.578125 48.1875 50.953125 41.515625 
Q 57.328125 34.859375 57.328125 23.390625 
Q 57.328125 12.15625 50.6875 5.359375 
Q 44.046875 -1.421875 33.015625 -1.421875 
Q 20.359375 -1.421875 13.671875 8.265625 
Q 6.984375 17.96875 6.984375 36.375 
Q 6.984375 53.65625 15.1875 63.9375 
Q 23.390625 74.21875 37.203125 74.21875 
Q 40.921875 74.21875 44.703125 73.484375 
Q 48.484375 72.75 52.59375 71.296875 
z
" id="DejaVuSans-54"/>
      </defs>
      <g transform="translate(161.772262 260.798437)scale(0.1 -0.1)">
       <use xlink:href="#DejaVuSans-54"/>
      </g>
     </g>
    </g>
    <g id="xtick_7">
     <g id="line2d_7">
      <g>
       <use style="stroke:#000000;stroke-width:0.8;" x="187.796488" xlink:href="#me318acbc3e" y="246.2"/>
      </g>
     </g>
     <g id="text_7">
      <!-- 7 -->
      <defs>
       <path d="M 8.203125 72.90625 
L 55.078125 72.90625 
L 55.078125 68.703125 
L 28.609375 0 
L 18.3125 0 
L 43.21875 64.59375 
L 8.203125 64.59375 
z
" id="DejaVuSans-55"/>
      </defs>
      <g transform="translate(184.615238 260.798437)scale(0.1 -0.1)">
       <use xlink:href="#DejaVuSans-55"/>
      </g>
     </g>
    </g>
    <g id="xtick_8">
     <g id="line2d_8">
      <g>
       <use style="stroke:#000000;stroke-width:0.8;" x="210.639463" xlink:href="#me318acbc3e" y="246.2"/>
      </g>
     </g>
     <g id="text_8">
      <!-- 8 -->
      <defs>
       <path d="M 31.78125 34.625 
Q 24.75 34.625 20.71875 30.859375 
Q 16.703125 27.09375 16.703125 20.515625 
Q 16.703125 13.921875 20.71875 10.15625 
Q 24.75 6.390625 31.78125 6.390625 
Q 38.8125 6.390625 42.859375 10.171875 
Q 46.921875 13.96875 46.921875 20.515625 
Q 46.921875 27.09375 42.890625 30.859375 
Q 38.875 34.625 31.78125 34.625 
z
M 21.921875 38.8125 
Q 15.578125 40.375 12.03125 44.71875 
Q 8.5 49.078125 8.5 55.328125 
Q 8.5 64.0625 14.71875 69.140625 
Q 20.953125 74.21875 31.78125 74.21875 
Q 42.671875 74.21875 48.875 69.140625 
Q 55.078125 64.0625 55.078125 55.328125 
Q 55.078125 49.078125 51.53125 44.71875 
Q 48 40.375 41.703125 38.8125 
Q 48.828125 37.15625 52.796875 32.3125 
Q 56.78125 27.484375 56.78125 20.515625 
Q 56.78125 9.90625 50.3125 4.234375 
Q 43.84375 -1.421875 31.78125 -1.421875 
Q 19.734375 -1.421875 13.25 4.234375 
Q 6.78125 9.90625 6.78125 20.515625 
Q 6.78125 27.484375 10.78125 32.3125 
Q 14.796875 37.15625 21.921875 38.8125 
z
M 18.3125 54.390625 
Q 18.3125 48.734375 21.84375 45.5625 
Q 25.390625 42.390625 31.78125 42.390625 
Q 38.140625 42.390625 41.71875 45.5625 
Q 45.3125 48.734375 45.3125 54.390625 
Q 45.3125 60.0625 41.71875 63.234375 
Q 38.140625 66.40625 31.78125 66.40625 
Q 25.390625 66.40625 21.84375 63.234375 
Q 18.3125 60.0625 18.3125 54.390625 
z
" id="DejaVuSans-56"/>
      </defs>
      <g transform="translate(207.458213 260.798437)scale(0.1 -0.1)">
       <use xlink:href="#DejaVuSans-56"/>
      </g>
     </g>
    </g>
    <g id="xtick_9">
     <g id="line2d_9">
      <g>
       <use style="stroke:#000000;stroke-width:0.8;" x="233.482438" xlink:href="#me318acbc3e" y="246.2"/>
      </g>
     </g>
     <g id="text_9">
      <!-- 9 -->
      <defs>
       <path d="M 10.984375 1.515625 
L 10.984375 10.5 
Q 14.703125 8.734375 18.5 7.8125 
Q 22.3125 6.890625 25.984375 6.890625 
Q 35.75 6.890625 40.890625 13.453125 
Q 46.046875 20.015625 46.78125 33.40625 
Q 43.953125 29.203125 39.59375 26.953125 
Q 35.25 24.703125 29.984375 24.703125 
Q 19.046875 24.703125 12.671875 31.3125 
Q 6.296875 37.9375 6.296875 49.421875 
Q 6.296875 60.640625 12.9375 67.421875 
Q 19.578125 74.21875 30.609375 74.21875 
Q 43.265625 74.21875 49.921875 64.515625 
Q 56.59375 54.828125 56.59375 36.375 
Q 56.59375 19.140625 48.40625 8.859375 
Q 40.234375 -1.421875 26.421875 -1.421875 
Q 22.703125 -1.421875 18.890625 -0.6875 
Q 15.09375 0.046875 10.984375 1.515625 
z
M 30.609375 32.421875 
Q 37.25 32.421875 41.125 36.953125 
Q 45.015625 41.5 45.015625 49.421875 
Q 45.015625 57.28125 41.125 61.84375 
Q 37.25 66.40625 30.609375 66.40625 
Q 23.96875 66.40625 20.09375 61.84375 
Q 16.21875 57.28125 16.21875 49.421875 
Q 16.21875 41.5 20.09375 36.953125 
Q 23.96875 32.421875 30.609375 32.421875 
z
" id="DejaVuSans-57"/>
      </defs>
      <g transform="translate(230.301188 260.798437)scale(0.1 -0.1)">
       <use xlink:href="#DejaVuSans-57"/>
      </g>
     </g>
    </g>
    <g id="xtick_10">
     <g id="line2d_10">
      <g>
       <use style="stroke:#000000;stroke-width:0.8;" x="256.325413" xlink:href="#me318acbc3e" y="246.2"/>
      </g>
     </g>
     <g id="text_10">
      <!-- 10 -->
      <defs>
       <path d="M 31.78125 66.40625 
Q 24.171875 66.40625 20.328125 58.90625 
Q 16.5 51.421875 16.5 36.375 
Q 16.5 21.390625 20.328125 13.890625 
Q 24.171875 6.390625 31.78125 6.390625 
Q 39.453125 6.390625 43.28125 13.890625 
Q 47.125 21.390625 47.125 36.375 
Q 47.125 51.421875 43.28125 58.90625 
Q 39.453125 66.40625 31.78125 66.40625 
z
M 31.78125 74.21875 
Q 44.046875 74.21875 50.515625 64.515625 
Q 56.984375 54.828125 56.984375 36.375 
Q 56.984375 17.96875 50.515625 8.265625 
Q 44.046875 -1.421875 31.78125 -1.421875 
Q 19.53125 -1.421875 13.0625 8.265625 
Q 6.59375 17.96875 6.59375 36.375 
Q 6.59375 54.828125 13.0625 64.515625 
Q 19.53125 74.21875 31.78125 74.21875 
z
" id="DejaVuSans-48"/>
      </defs>
      <g transform="translate(249.962913 260.798437)scale(0.1 -0.1)">
       <use xlink:href="#DejaVuSans-49"/>
       <use x="63.623047" xlink:href="#DejaVuSans-48"/>
      </g>
     </g>
    </g>
    <g id="xtick_11">
     <g id="line2d_11">
      <g>
       <use style="stroke:#000000;stroke-width:0.8;" x="279.168388" xlink:href="#me318acbc3e" y="246.2"/>
      </g>
     </g>
     <g id="text_11">
      <!-- 11 -->
      <g transform="translate(272.805888 260.798437)scale(0.1 -0.1)">
       <use xlink:href="#DejaVuSans-49"/>
       <use x="63.623047" xlink:href="#DejaVuSans-49"/>
      </g>
     </g>
    </g>
    <g id="xtick_12">
     <g id="line2d_12">
      <g>
       <use style="stroke:#000000;stroke-width:0.8;" x="302.011364" xlink:href="#me318acbc3e" y="246.2"/>
      </g>
     </g>
     <g id="text_12">
      <!-- 12 -->
      <g transform="translate(295.648864 260.798437)scale(0.1 -0.1)">
       <use xlink:href="#DejaVuSans-49"/>
       <use x="63.623047" xlink:href="#DejaVuSans-50"/>
      </g>
     </g>
    </g>
    <g id="text_13">
     <!-- Month -->
     <defs>
      <path d="M 9.8125 72.90625 
L 24.515625 72.90625 
L 43.109375 23.296875 
L 61.8125 72.90625 
L 76.515625 72.90625 
L 76.515625 0 
L 66.890625 0 
L 66.890625 64.015625 
L 48.09375 14.015625 
L 38.1875 14.015625 
L 19.390625 64.015625 
L 19.390625 0 
L 9.8125 0 
z
" id="DejaVuSans-77"/>
      <path d="M 30.609375 48.390625 
Q 23.390625 48.390625 19.1875 42.75 
Q 14.984375 37.109375 14.984375 27.296875 
Q 14.984375 17.484375 19.15625 11.84375 
Q 23.34375 6.203125 30.609375 6.203125 
Q 37.796875 6.203125 41.984375 11.859375 
Q 46.1875 17.53125 46.1875 27.296875 
Q 46.1875 37.015625 41.984375 42.703125 
Q 37.796875 48.390625 30.609375 48.390625 
z
M 30.609375 56 
Q 42.328125 56 49.015625 48.375 
Q 55.71875 40.765625 55.71875 27.296875 
Q 55.71875 13.875 49.015625 6.21875 
Q 42.328125 -1.421875 30.609375 -1.421875 
Q 18.84375 -1.421875 12.171875 6.21875 
Q 5.515625 13.875 5.515625 27.296875 
Q 5.515625 40.765625 12.171875 48.375 
Q 18.84375 56 30.609375 56 
z
" id="DejaVuSans-111"/>
      <path d="M 54.890625 33.015625 
L 54.890625 0 
L 45.90625 0 
L 45.90625 32.71875 
Q 45.90625 40.484375 42.875 44.328125 
Q 39.84375 48.1875 33.796875 48.1875 
Q 26.515625 48.1875 22.3125 43.546875 
Q 18.109375 38.921875 18.109375 30.90625 
L 18.109375 0 
L 9.078125 0 
L 9.078125 54.6875 
L 18.109375 54.6875 
L 18.109375 46.1875 
Q 21.34375 51.125 25.703125 53.5625 
Q 30.078125 56 35.796875 56 
Q 45.21875 56 50.046875 50.171875 
Q 54.890625 44.34375 54.890625 33.015625 
z
" id="DejaVuSans-110"/>
      <path d="M 18.3125 70.21875 
L 18.3125 54.6875 
L 36.8125 54.6875 
L 36.8125 47.703125 
L 18.3125 47.703125 
L 18.3125 18.015625 
Q 18.3125 11.328125 20.140625 9.421875 
Q 21.96875 7.515625 27.59375 7.515625 
L 36.8125 7.515625 
L 36.8125 0 
L 27.59375 0 
Q 17.1875 0 13.234375 3.875 
Q 9.28125 7.765625 9.28125 18.015625 
L 9.28125 47.703125 
L 2.6875 47.703125 
L 2.6875 54.6875 
L 9.28125 54.6875 
L 9.28125 70.21875 
z
" id="DejaVuSans-116"/>
      <path d="M 54.890625 33.015625 
L 54.890625 0 
L 45.90625 0 
L 45.90625 32.71875 
Q 45.90625 40.484375 42.875 44.328125 
Q 39.84375 48.1875 33.796875 48.1875 
Q 26.515625 48.1875 22.3125 43.546875 
Q 18.109375 38.921875 18.109375 30.90625 
L 18.109375 0 
L 9.078125 0 
L 9.078125 75.984375 
L 18.109375 75.984375 
L 18.109375 46.1875 
Q 21.34375 51.125 25.703125 53.5625 
Q 30.078125 56 35.796875 56 
Q 45.21875 56 50.046875 50.171875 
Q 54.890625 44.34375 54.890625 33.015625 
z
" id="DejaVuSans-104"/>
     </defs>
     <g style="fill:#7f7f7f;" transform="translate(160.703906 274.476562)scale(0.1 -0.1)">
      <use xlink:href="#DejaVuSans-77"/>
      <use x="86.279297" xlink:href="#DejaVuSans-111"/>
      <use x="147.460938" xlink:href="#DejaVuSans-110"/>
      <use x="210.839844" xlink:href="#DejaVuSans-116"/>
      <use x="250.048828" xlink:href="#DejaVuSans-104"/>
     </g>
    </g>
   </g>
   <g id="matplotlib.axis_2">
    <g id="ytick_1">
     <g id="line2d_13">
      <defs>
       <path d="M 0 0 
L -3.5 0 
" id="mcea9b014f4" style="stroke:#000000;stroke-width:0.8;"/>
      </defs>
      <g>
       <use style="stroke:#000000;stroke-width:0.8;" x="38.175" xlink:href="#mcea9b014f4" y="236.227273"/>
      </g>
     </g>
     <g id="text_14">
      <!-- 0 -->
      <g style="fill:#d92523;" transform="translate(24.8125 240.026491)scale(0.1 -0.1)">
       <use xlink:href="#DejaVuSans-48"/>
      </g>
     </g>
    </g>
    <g id="ytick_2">
     <g id="line2d_14">
      <g>
       <use style="stroke:#000000;stroke-width:0.8;" x="38.175" xlink:href="#mcea9b014f4" y="179.874629"/>
      </g>
     </g>
     <g id="text_15">
      <!-- 2 -->
      <g style="fill:#d92523;" transform="translate(24.8125 183.673848)scale(0.1 -0.1)">
       <use xlink:href="#DejaVuSans-50"/>
      </g>
     </g>
    </g>
    <g id="ytick_3">
     <g id="line2d_15">
      <g>
       <use style="stroke:#000000;stroke-width:0.8;" x="38.175" xlink:href="#mcea9b014f4" y="123.521986"/>
      </g>
     </g>
     <g id="text_16">
      <!-- 4 -->
      <g style="fill:#d92523;" transform="translate(24.8125 127.321205)scale(0.1 -0.1)">
       <use xlink:href="#DejaVuSans-52"/>
      </g>
     </g>
    </g>
    <g id="ytick_4">
     <g id="line2d_16">
      <g>
       <use style="stroke:#000000;stroke-width:0.8;" x="38.175" xlink:href="#mcea9b014f4" y="67.169343"/>
      </g>
     </g>
     <g id="text_17">
      <!-- 6 -->
      <g style="fill:#d92523;" transform="translate(24.8125 70.968562)scale(0.1 -0.1)">
       <use xlink:href="#DejaVuSans-54"/>
      </g>
     </g>
    </g>
    <g id="text_18">
     <!-- Acres Burned -->
     <defs>
      <path d="M 34.1875 63.1875 
L 20.796875 26.90625 
L 47.609375 26.90625 
z
M 28.609375 72.90625 
L 39.796875 72.90625 
L 67.578125 0 
L 57.328125 0 
L 50.6875 18.703125 
L 17.828125 18.703125 
L 11.1875 0 
L 0.78125 0 
z
" id="DejaVuSans-65"/>
      <path d="M 48.78125 52.59375 
L 48.78125 44.1875 
Q 44.96875 46.296875 41.140625 47.34375 
Q 37.3125 48.390625 33.40625 48.390625 
Q 24.65625 48.390625 19.8125 42.84375 
Q 14.984375 37.3125 14.984375 27.296875 
Q 14.984375 17.28125 19.8125 11.734375 
Q 24.65625 6.203125 33.40625 6.203125 
Q 37.3125 6.203125 41.140625 7.25 
Q 44.96875 8.296875 48.78125 10.40625 
L 48.78125 2.09375 
Q 45.015625 0.34375 40.984375 -0.53125 
Q 36.96875 -1.421875 32.421875 -1.421875 
Q 20.0625 -1.421875 12.78125 6.34375 
Q 5.515625 14.109375 5.515625 27.296875 
Q 5.515625 40.671875 12.859375 48.328125 
Q 20.21875 56 33.015625 56 
Q 37.15625 56 41.109375 55.140625 
Q 45.0625 54.296875 48.78125 52.59375 
z
" id="DejaVuSans-99"/>
      <path d="M 41.109375 46.296875 
Q 39.59375 47.171875 37.8125 47.578125 
Q 36.03125 48 33.890625 48 
Q 26.265625 48 22.1875 43.046875 
Q 18.109375 38.09375 18.109375 28.8125 
L 18.109375 0 
L 9.078125 0 
L 9.078125 54.6875 
L 18.109375 54.6875 
L 18.109375 46.1875 
Q 20.953125 51.171875 25.484375 53.578125 
Q 30.03125 56 36.53125 56 
Q 37.453125 56 38.578125 55.875 
Q 39.703125 55.765625 41.0625 55.515625 
z
" id="DejaVuSans-114"/>
      <path d="M 56.203125 29.59375 
L 56.203125 25.203125 
L 14.890625 25.203125 
Q 15.484375 15.921875 20.484375 11.0625 
Q 25.484375 6.203125 34.421875 6.203125 
Q 39.59375 6.203125 44.453125 7.46875 
Q 49.3125 8.734375 54.109375 11.28125 
L 54.109375 2.78125 
Q 49.265625 0.734375 44.1875 -0.34375 
Q 39.109375 -1.421875 33.890625 -1.421875 
Q 20.796875 -1.421875 13.15625 6.1875 
Q 5.515625 13.8125 5.515625 26.8125 
Q 5.515625 40.234375 12.765625 48.109375 
Q 20.015625 56 32.328125 56 
Q 43.359375 56 49.78125 48.890625 
Q 56.203125 41.796875 56.203125 29.59375 
z
M 47.21875 32.234375 
Q 47.125 39.59375 43.09375 43.984375 
Q 39.0625 48.390625 32.421875 48.390625 
Q 24.90625 48.390625 20.390625 44.140625 
Q 15.875 39.890625 15.1875 32.171875 
z
" id="DejaVuSans-101"/>
      <path d="M 44.28125 53.078125 
L 44.28125 44.578125 
Q 40.484375 46.53125 36.375 47.5 
Q 32.28125 48.484375 27.875 48.484375 
Q 21.1875 48.484375 17.84375 46.4375 
Q 14.5 44.390625 14.5 40.28125 
Q 14.5 37.15625 16.890625 35.375 
Q 19.28125 33.59375 26.515625 31.984375 
L 29.59375 31.296875 
Q 39.15625 29.25 43.1875 25.515625 
Q 47.21875 21.78125 47.21875 15.09375 
Q 47.21875 7.46875 41.1875 3.015625 
Q 35.15625 -1.421875 24.609375 -1.421875 
Q 20.21875 -1.421875 15.453125 -0.5625 
Q 10.6875 0.296875 5.421875 2 
L 5.421875 11.28125 
Q 10.40625 8.6875 15.234375 7.390625 
Q 20.0625 6.109375 24.8125 6.109375 
Q 31.15625 6.109375 34.5625 8.28125 
Q 37.984375 10.453125 37.984375 14.40625 
Q 37.984375 18.0625 35.515625 20.015625 
Q 33.0625 21.96875 24.703125 23.78125 
L 21.578125 24.515625 
Q 13.234375 26.265625 9.515625 29.90625 
Q 5.8125 33.546875 5.8125 39.890625 
Q 5.8125 47.609375 11.28125 51.796875 
Q 16.75 56 26.8125 56 
Q 31.78125 56 36.171875 55.265625 
Q 40.578125 54.546875 44.28125 53.078125 
z
" id="DejaVuSans-115"/>
      <path id="DejaVuSans-32"/>
      <path d="M 19.671875 34.8125 
L 19.671875 8.109375 
L 35.5 8.109375 
Q 43.453125 8.109375 47.28125 11.40625 
Q 51.125 14.703125 51.125 21.484375 
Q 51.125 28.328125 47.28125 31.5625 
Q 43.453125 34.8125 35.5 34.8125 
z
M 19.671875 64.796875 
L 19.671875 42.828125 
L 34.28125 42.828125 
Q 41.5 42.828125 45.03125 45.53125 
Q 48.578125 48.25 48.578125 53.8125 
Q 48.578125 59.328125 45.03125 62.0625 
Q 41.5 64.796875 34.28125 64.796875 
z
M 9.8125 72.90625 
L 35.015625 72.90625 
Q 46.296875 72.90625 52.390625 68.21875 
Q 58.5 63.53125 58.5 54.890625 
Q 58.5 48.1875 55.375 44.234375 
Q 52.25 40.28125 46.1875 39.3125 
Q 53.46875 37.75 57.5 32.78125 
Q 61.53125 27.828125 61.53125 20.40625 
Q 61.53125 10.640625 54.890625 5.3125 
Q 48.25 0 35.984375 0 
L 9.8125 0 
z
" id="DejaVuSans-66"/>
      <path d="M 8.5 21.578125 
L 8.5 54.6875 
L 17.484375 54.6875 
L 17.484375 21.921875 
Q 17.484375 14.15625 20.5 10.265625 
Q 23.53125 6.390625 29.59375 6.390625 
Q 36.859375 6.390625 41.078125 11.03125 
Q 45.3125 15.671875 45.3125 23.6875 
L 45.3125 54.6875 
L 54.296875 54.6875 
L 54.296875 0 
L 45.3125 0 
L 45.3125 8.40625 
Q 42.046875 3.421875 37.71875 1 
Q 33.40625 -1.421875 27.6875 -1.421875 
Q 18.265625 -1.421875 13.375 4.4375 
Q 8.5 10.296875 8.5 21.578125 
z
M 31.109375 56 
z
" id="DejaVuSans-117"/>
      <path d="M 45.40625 46.390625 
L 45.40625 75.984375 
L 54.390625 75.984375 
L 54.390625 0 
L 45.40625 0 
L 45.40625 8.203125 
Q 42.578125 3.328125 38.25 0.953125 
Q 33.9375 -1.421875 27.875 -1.421875 
Q 17.96875 -1.421875 11.734375 6.484375 
Q 5.515625 14.40625 5.515625 27.296875 
Q 5.515625 40.1875 11.734375 48.09375 
Q 17.96875 56 27.875 56 
Q 33.9375 56 38.25 53.625 
Q 42.578125 51.265625 45.40625 46.390625 
z
M 14.796875 27.296875 
Q 14.796875 17.390625 18.875 11.75 
Q 22.953125 6.109375 30.078125 6.109375 
Q 37.203125 6.109375 41.296875 11.75 
Q 45.40625 17.390625 45.40625 27.296875 
Q 45.40625 37.203125 41.296875 42.84375 
Q 37.203125 48.484375 30.078125 48.484375 
Q 22.953125 48.484375 18.875 42.84375 
Q 14.796875 37.203125 14.796875 27.296875 
z
" id="DejaVuSans-100"/>
     </defs>
     <g style="fill:#d92523;" transform="translate(18.732813 170.066406)rotate(-90)scale(0.1 -0.1)">
      <use xlink:href="#DejaVuSans-65"/>
      <use x="68.392578" xlink:href="#DejaVuSans-99"/>
      <use x="123.373047" xlink:href="#DejaVuSans-114"/>
      <use x="164.455078" xlink:href="#DejaVuSans-101"/>
      <use x="225.978516" xlink:href="#DejaVuSans-115"/>
      <use x="278.078125" xlink:href="#DejaVuSans-32"/>
      <use x="309.865234" xlink:href="#DejaVuSans-66"/>
      <use x="378.46875" xlink:href="#DejaVuSans-117"/>
      <use x="441.847656" xlink:href="#DejaVuSans-114"/>
      <use x="482.945312" xlink:href="#DejaVuSans-110"/>
      <use x="546.324219" xlink:href="#DejaVuSans-101"/>
      <use x="607.847656" xlink:href="#DejaVuSans-100"/>
     </g>
    </g>
    <g id="text_19">
     <!-- 1e4 -->
     <g transform="translate(38.175 23.8)scale(0.1 -0.1)">
      <use xlink:href="#DejaVuSans-49"/>
      <use x="63.623047" xlink:href="#DejaVuSans-101"/>
      <use x="125.146484" xlink:href="#DejaVuSans-52"/>
     </g>
    </g>
   </g>
   <g id="line2d_17">
    <path clip-path="url(#pb4daa4ae4a)" d="M 50.738636 236.227273 
L 73.581612 236.227273 
L 96.424587 236.227273 
L 119.267562 236.227273 
L 142.110537 236.227273 
L 164.953512 236.227273 
L 187.796488 236.227273 
L 210.639463 236.227273 
L 233.482438 236.227273 
L 256.325413 236.227273 
L 279.168388 236.227273 
L 302.011364 236.227273 
" style="fill:none;stroke:#fee5d8;stroke-linecap:square;stroke-opacity:0.5;stroke-width:1.5;"/>
   </g>
   <g id="line2d_18">
    <path clip-path="url(#pb4daa4ae4a)" d="M 50.738636 236.227273 
L 73.581612 236.227273 
L 96.424587 236.227273 
L 119.267562 236.227273 
L 142.110537 236.227273 
L 164.953512 236.227273 
L 187.796488 236.227273 
L 210.639463 236.227273 
L 233.482438 236.227273 
L 256.325413 236.227273 
L 279.168388 236.227273 
L 302.011364 231.719061 
" style="fill:none;stroke:#fedecf;stroke-linecap:square;stroke-opacity:0.5;stroke-width:1.5;"/>
   </g>
   <g id="line2d_19">
    <path clip-path="url(#pb4daa4ae4a)" d="M 50.738636 236.227273 
L 73.581612 202.415687 
L 96.424587 134.454399 
L 119.267562 151.698308 
L 142.110537 236.227273 
L 164.953512 236.227273 
L 187.796488 236.227273 
L 210.639463 236.227273 
L 233.482438 236.227273 
L 256.325413 236.227273 
L 279.168388 236.227273 
L 302.011364 236.227273 
" style="fill:none;stroke:#fdd3c1;stroke-linecap:square;stroke-opacity:0.5;stroke-width:1.5;"/>
   </g>
   <g id="line2d_20">
    <path clip-path="url(#pb4daa4ae4a)" d="M 50.738636 236.227273 
L 73.581612 233.409641 
L 96.424587 236.227273 
L 119.267562 233.973167 
L 142.110537 236.227273 
L 164.953512 236.227273 
L 187.796488 236.227273 
L 210.639463 236.227273 
L 233.482438 236.227273 
L 256.325413 232.846114 
L 279.168388 232.846114 
L 302.011364 236.227273 
" style="fill:none;stroke:#fdc9b3;stroke-linecap:square;stroke-opacity:0.5;stroke-width:1.5;"/>
   </g>
   <g id="line2d_21">
    <path clip-path="url(#pb4daa4ae4a)" d="M 50.738636 224.956744 
L 73.581612 36.772727 
L 96.424587 236.227273 
L 119.267562 54.208235 
L 142.110537 236.227273 
L 164.953512 236.227273 
L 187.796488 236.227273 
L 210.639463 236.227273 
L 233.482438 236.227273 
L 256.325413 236.227273 
L 279.168388 236.227273 
L 302.011364 236.227273 
" style="fill:none;stroke:#fcbea5;stroke-linecap:square;stroke-opacity:0.5;stroke-width:1.5;"/>
   </g>
   <g id="line2d_22">
    <path clip-path="url(#pb4daa4ae4a)" d="M 50.738636 236.227273 
L 73.581612 219.32148 
L 96.424587 222.139112 
L 119.267562 236.227273 
L 142.110537 236.227273 
L 164.953512 236.227273 
L 187.796488 236.227273 
L 210.639463 236.227273 
L 233.482438 236.227273 
L 256.325413 236.227273 
L 279.168388 236.227273 
L 302.011364 236.227273 
" style="fill:none;stroke:#fcb398;stroke-linecap:square;stroke-opacity:0.5;stroke-width:1.5;"/>
   </g>
   <g id="line2d_23">
    <path clip-path="url(#pb4daa4ae4a)" d="M 50.738636 236.227273 
L 73.581612 236.227273 
L 96.424587 236.227273 
L 119.267562 233.832285 
L 142.110537 236.227273 
L 164.953512 236.227273 
L 187.796488 236.227273 
L 210.639463 236.227273 
L 233.482438 236.227273 
L 256.325413 236.227273 
L 279.168388 236.227273 
L 302.011364 236.227273 
" style="fill:none;stroke:#fca78b;stroke-linecap:square;stroke-opacity:0.5;stroke-width:1.5;"/>
   </g>
   <g id="line2d_24">
    <path clip-path="url(#pb4daa4ae4a)" d="M 50.738636 236.227273 
L 73.581612 236.227273 
L 96.424587 236.227273 
L 119.267562 236.227273 
L 142.110537 236.227273 
L 164.953512 236.227273 
L 187.796488 236.227273 
L 210.639463 236.227273 
L 233.482438 236.227273 
L 256.325413 236.227273 
L 279.168388 236.227273 
L 302.011364 230.592008 
" style="fill:none;stroke:#fc9d7f;stroke-linecap:square;stroke-opacity:0.5;stroke-width:1.5;"/>
   </g>
   <g id="line2d_25">
    <path clip-path="url(#pb4daa4ae4a)" d="M 50.738636 232.000824 
L 73.581612 236.227273 
L 96.424587 236.227273 
L 119.267562 236.227273 
L 142.110537 236.227273 
L 164.953512 236.227273 
L 187.796488 236.227273 
L 210.639463 236.227273 
L 233.482438 224.393218 
L 256.325413 236.227273 
L 279.168388 236.227273 
L 302.011364 236.227273 
" style="fill:none;stroke:#fc9272;stroke-linecap:square;stroke-opacity:0.5;stroke-width:1.5;"/>
   </g>
   <g id="line2d_26">
    <path clip-path="url(#pb4daa4ae4a)" d="M 50.738636 236.227273 
L 73.581612 236.227273 
L 96.424587 236.227273 
L 119.267562 236.227273 
L 142.110537 236.227273 
L 164.953512 236.227273 
L 187.796488 236.227273 
L 210.639463 236.227273 
L 233.482438 236.227273 
L 256.325413 236.227273 
L 279.168388 236.227273 
L 302.011364 236.227273 
" style="fill:none;stroke:#fc8666;stroke-linecap:square;stroke-opacity:0.5;stroke-width:1.5;"/>
   </g>
   <g id="line2d_27">
    <path clip-path="url(#pb4daa4ae4a)" d="M 50.738636 236.227273 
L 73.581612 224.956744 
L 96.424587 139.864253 
L 119.267562 170.012917 
L 142.110537 236.227273 
L 164.953512 236.227273 
L 187.796488 236.227273 
L 210.639463 236.227273 
L 233.482438 236.227273 
L 256.325413 236.227273 
L 279.168388 236.227273 
L 302.011364 236.227273 
" style="fill:none;stroke:#fb7b5b;stroke-linecap:square;stroke-opacity:0.5;stroke-width:1.5;"/>
   </g>
   <g id="line2d_28">
    <path clip-path="url(#pb4daa4ae4a)" d="M 50.738636 236.227273 
L 73.581612 236.227273 
L 96.424587 236.227273 
L 119.267562 224.956744 
L 142.110537 236.227273 
L 164.953512 236.227273 
L 187.796488 236.227273 
L 210.639463 233.409641 
L 233.482438 236.227273 
L 256.325413 236.227273 
L 279.168388 236.227273 
L 302.011364 236.227273 
" style="fill:none;stroke:#fb7050;stroke-linecap:square;stroke-opacity:0.5;stroke-width:1.5;"/>
   </g>
   <g id="line2d_29">
    <path clip-path="url(#pb4daa4ae4a)" d="M 50.738636 236.227273 
L 73.581612 236.227273 
L 96.424587 236.227273 
L 119.267562 233.409641 
L 142.110537 236.227273 
L 164.953512 236.227273 
L 187.796488 236.227273 
L 210.639463 236.227273 
L 233.482438 236.227273 
L 256.325413 236.227273 
L 279.168388 236.227273 
L 302.011364 236.227273 
" style="fill:none;stroke:#f96346;stroke-linecap:square;stroke-opacity:0.5;stroke-width:1.5;"/>
   </g>
   <g id="line2d_30">
    <path clip-path="url(#pb4daa4ae4a)" d="M 50.738636 236.227273 
L 73.581612 236.227273 
L 96.424587 235.522865 
L 119.267562 201.514044 
L 142.110537 234.536693 
L 164.953512 236.227273 
L 187.796488 232.000824 
L 210.639463 236.227273 
L 233.482438 236.227273 
L 256.325413 236.227273 
L 279.168388 236.227273 
L 302.011364 236.227273 
" style="fill:none;stroke:#f6563d;stroke-linecap:square;stroke-opacity:0.5;stroke-width:1.5;"/>
   </g>
   <g id="line2d_31">
    <path clip-path="url(#pb4daa4ae4a)" d="M 50.738636 233.832285 
L 73.581612 207.135221 
L 96.424587 119.633654 
L 119.267562 224.4383 
L 142.110537 226.36556 
L 164.953512 232.846114 
L 187.796488 217.216709 
L 210.639463 236.227273 
L 233.482438 236.227273 
L 256.325413 232.564351 
L 279.168388 233.373011 
L 302.011364 236.227273 
" style="fill:none;stroke:#f34935;stroke-linecap:square;stroke-opacity:0.5;stroke-width:1.5;"/>
   </g>
   <g id="line2d_32">
    <path clip-path="url(#pb4daa4ae4a)" d="M 50.738636 236.227273 
L 73.581612 236.227273 
L 96.424587 235.10022 
L 119.267562 227.774376 
L 142.110537 236.227273 
L 164.953512 236.227273 
L 187.796488 236.227273 
L 210.639463 236.227273 
L 233.482438 236.227273 
L 256.325413 227.774376 
L 279.168388 213.877814 
L 302.011364 236.227273 
" style="fill:none;stroke:#ef3c2c;stroke-linecap:square;stroke-opacity:0.5;stroke-width:1.5;"/>
   </g>
   <g id="line2d_33">
    <path clip-path="url(#pb4daa4ae4a)" d="M 50.738636 219.32148 
L 73.581612 236.227273 
L 96.424587 214.10886 
L 119.267562 188.609289 
L 142.110537 236.226427 
L 164.953512 235.10022 
L 187.796488 236.226991 
L 210.639463 128.028789 
L 233.482438 236.227273 
L 256.325413 236.227273 
L 279.168388 232.674239 
L 302.011364 234.395812 
" style="fill:none;stroke:#e53228;stroke-linecap:square;stroke-opacity:0.5;stroke-width:1.5;"/>
   </g>
   <g id="line2d_34">
    <path clip-path="url(#pb4daa4ae4a)" d="M 50.738636 232.846114 
L 73.581612 203.275065 
L 96.424587 224.942656 
L 119.267562 184.62234 
L 142.110537 236.227273 
L 164.953512 236.227273 
L 187.796488 236.226991 
L 210.639463 236.227273 
L 233.482438 236.227273 
L 256.325413 236.227273 
L 279.168388 236.227273 
L 302.011364 236.227273 
" style="fill:none;stroke:#dc2924;stroke-linecap:square;stroke-opacity:0.5;stroke-width:1.5;"/>
   </g>
   <g id="line2d_35">
    <path clip-path="url(#pb4daa4ae4a)" d="M 50.738636 236.227273 
L 73.581612 236.227273 
L 96.424587 230.933787 
L 119.267562 228.873253 
L 142.110537 236.227273 
L 164.953512 236.224455 
L 187.796488 234.536693 
L 210.639463 224.421366 
L 233.482438 236.227273 
L 256.325413 232.958819 
L 279.168388 223.316882 
L 302.011364 236.226991 
" style="fill:none;stroke:#d21f20;stroke-linecap:square;stroke-opacity:0.5;stroke-width:1.5;"/>
   </g>
   <g id="line2d_36">
    <path clip-path="url(#pb4daa4ae4a)" d="M 50.738636 236.227273 
L 73.581612 236.227273 
L 96.424587 118.450248 
L 119.267562 209.178004 
L 142.110537 236.227273 
L 164.953512 236.227273 
L 187.796488 236.227273 
L 210.639463 232.000824 
L 233.482438 236.227273 
L 256.325413 236.227273 
L 279.168388 236.227273 
L 302.011364 236.227273 
" style="fill:none;stroke:#c8171c;stroke-linecap:square;stroke-opacity:0.5;stroke-width:1.5;"/>
   </g>
   <g id="line2d_37">
    <path clip-path="url(#pb4daa4ae4a)" d="M 50.738636 236.227273 
L 73.581612 236.227273 
L 96.424587 194.109307 
L 119.267562 236.227273 
L 142.110537 236.227273 
L 164.953512 212.080165 
L 187.796488 216.123467 
L 210.639463 188.180361 
L 233.482438 236.227273 
L 256.325413 236.227273 
L 279.168388 236.227273 
L 302.011364 218.538178 
" style="fill:none;stroke:#bd151a;stroke-linecap:square;stroke-opacity:0.5;stroke-width:1.5;"/>
   </g>
   <g id="line2d_38">
    <path clip-path="url(#pb4daa4ae4a)" d="M 50.738636 236.01595 
L 73.581612 236.077938 
L 96.424587 236.227273 
L 119.267562 235.725734 
L 142.110537 236.227273 
L 164.953512 236.210367 
L 187.796488 236.227273 
L 210.639463 236.226709 
L 233.482438 236.227273 
L 256.325413 236.227273 
L 279.168388 217.912664 
L 302.011364 236.11175 
" style="fill:none;stroke:#b21218;stroke-linecap:square;stroke-opacity:0.5;stroke-width:1.5;"/>
   </g>
   <g id="line2d_39">
    <path clip-path="url(#pb4daa4ae4a)" d="M 50.738636 229.343516 
L 73.581612 236.135136 
L 96.424587 169.522367 
L 119.267562 218.743865 
L 142.110537 236.226991 
L 164.953512 236.227273 
L 187.796488 236.227273 
L 210.639463 236.226991 
L 233.482438 236.227273 
L 256.325413 232.282588 
L 279.168388 235.381983 
L 302.011364 236.227273 
" style="fill:none;stroke:#a81016;stroke-linecap:square;stroke-opacity:0.5;stroke-width:1.5;"/>
   </g>
   <g id="line2d_40">
    <path clip-path="url(#pb4daa4ae4a)" d="M 50.738636 215.343335 
L 73.581612 216.929056 
L 96.424587 40.099618 
L 119.267562 210.542161 
L 142.110537 235.456284 
L 164.953512 234.46228 
L 187.796488 233.903853 
L 210.639463 234.718318 
L 233.482438 231.724668 
L 256.325413 206.444999 
L 279.168388 210.110556 
L 302.011364 233.977447 
" style="fill:none;stroke:#980c13;stroke-linecap:square;stroke-opacity:0.5;stroke-width:1.5;"/>
   </g>
   <g id="line2d_41">
    <path clip-path="url(#pb4daa4ae4a)" d="M 50.738636 233.470692 
L 73.581612 221.817105 
L 96.424587 203.224223 
L 119.267562 211.904316 
L 142.110537 235.713756 
L 164.953512 234.958938 
L 187.796488 234.254132 
L 210.639463 228.868723 
L 233.482438 235.546579 
L 256.325413 234.04009 
L 279.168388 232.463734 
L 302.011364 234.892703 
" style="fill:none;stroke:#ff0000;stroke-dasharray:5.55,2.4;stroke-dashoffset:0;stroke-width:1.5;"/>
   </g>
   <g id="patch_3">
    <path d="M 38.175 246.2 
L 38.175 26.8 
" style="fill:none;stroke:#000000;stroke-linecap:square;stroke-linejoin:miter;stroke-width:0.8;"/>
   </g>
   <g id="patch_4">
    <path d="M 314.575 246.2 
L 314.575 26.8 
" style="fill:none;stroke:#000000;stroke-linecap:square;stroke-linejoin:miter;stroke-width:0.8;"/>
   </g>
   <g id="patch_5">
    <path d="M 38.175 246.2 
L 314.575 246.2 
" style="fill:none;stroke:#000000;stroke-linecap:square;stroke-linejoin:miter;stroke-width:0.8;"/>
   </g>
   <g id="patch_6">
    <path d="M 38.175 26.8 
L 314.575 26.8 
" style="fill:none;stroke:#000000;stroke-linecap:square;stroke-linejoin:miter;stroke-width:0.8;"/>
   </g>
   <g id="text_20">
    <!-- Kansas -->
    <defs>
     <path d="M 9.8125 72.90625 
L 19.671875 72.90625 
L 19.671875 42.09375 
L 52.390625 72.90625 
L 65.09375 72.90625 
L 28.90625 38.921875 
L 67.671875 0 
L 54.6875 0 
L 19.671875 35.109375 
L 19.671875 0 
L 9.8125 0 
z
" id="DejaVuSans-75"/>
     <path d="M 34.28125 27.484375 
Q 23.390625 27.484375 19.1875 25 
Q 14.984375 22.515625 14.984375 16.5 
Q 14.984375 11.71875 18.140625 8.90625 
Q 21.296875 6.109375 26.703125 6.109375 
Q 34.1875 6.109375 38.703125 11.40625 
Q 43.21875 16.703125 43.21875 25.484375 
L 43.21875 27.484375 
z
M 52.203125 31.203125 
L 52.203125 0 
L 43.21875 0 
L 43.21875 8.296875 
Q 40.140625 3.328125 35.546875 0.953125 
Q 30.953125 -1.421875 24.3125 -1.421875 
Q 15.921875 -1.421875 10.953125 3.296875 
Q 6 8.015625 6 15.921875 
Q 6 25.140625 12.171875 29.828125 
Q 18.359375 34.515625 30.609375 34.515625 
L 43.21875 34.515625 
L 43.21875 35.40625 
Q 43.21875 41.609375 39.140625 45 
Q 35.0625 48.390625 27.6875 48.390625 
Q 23 48.390625 18.546875 47.265625 
Q 14.109375 46.140625 10.015625 43.890625 
L 10.015625 52.203125 
Q 14.9375 54.109375 19.578125 55.046875 
Q 24.21875 56 28.609375 56 
Q 40.484375 56 46.34375 49.84375 
Q 52.203125 43.703125 52.203125 31.203125 
z
" id="DejaVuSans-97"/>
    </defs>
    <g transform="translate(155.03375 20.8)scale(0.12 -0.12)">
     <use xlink:href="#DejaVuSans-75"/>
     <use x="65.560547" xlink:href="#DejaVuSans-97"/>
     <use x="126.839844" xlink:href="#DejaVuSans-110"/>
     <use x="190.21875" xlink:href="#DejaVuSans-115"/>
     <use x="242.318359" xlink:href="#DejaVuSans-97"/>
     <use x="303.597656" xlink:href="#DejaVuSans-115"/>
    </g>
   </g>
  </g>
  <g id="axes_2">
   <g id="matplotlib.axis_3">
    <g id="ytick_5">
     <g id="line2d_42">
      <defs>
       <path d="M 0 0 
L 3.5 0 
" id="m14f5dd6d7b" style="stroke:#000000;stroke-width:0.8;"/>
      </defs>
      <g>
       <use style="stroke:#000000;stroke-width:0.8;" x="314.575" xlink:href="#m14f5dd6d7b" y="237.714755"/>
      </g>
     </g>
     <g id="text_21">
      <!-- 20 -->
      <g transform="translate(321.575 241.513974)scale(0.1 -0.1)">
       <use xlink:href="#DejaVuSans-50"/>
       <use x="63.623047" xlink:href="#DejaVuSans-48"/>
      </g>
     </g>
    </g>
    <g id="ytick_6">
     <g id="line2d_43">
      <g>
       <use style="stroke:#000000;stroke-width:0.8;" x="314.575" xlink:href="#m14f5dd6d7b" y="202.058932"/>
      </g>
     </g>
     <g id="text_22">
      <!-- 30 -->
      <g transform="translate(321.575 205.858151)scale(0.1 -0.1)">
       <use xlink:href="#DejaVuSans-51"/>
       <use x="63.623047" xlink:href="#DejaVuSans-48"/>
      </g>
     </g>
    </g>
    <g id="ytick_7">
     <g id="line2d_44">
      <g>
       <use style="stroke:#000000;stroke-width:0.8;" x="314.575" xlink:href="#m14f5dd6d7b" y="166.40311"/>
      </g>
     </g>
     <g id="text_23">
      <!-- 40 -->
      <g transform="translate(321.575 170.202329)scale(0.1 -0.1)">
       <use xlink:href="#DejaVuSans-52"/>
       <use x="63.623047" xlink:href="#DejaVuSans-48"/>
      </g>
     </g>
    </g>
    <g id="ytick_8">
     <g id="line2d_45">
      <g>
       <use style="stroke:#000000;stroke-width:0.8;" x="314.575" xlink:href="#m14f5dd6d7b" y="130.747288"/>
      </g>
     </g>
     <g id="text_24">
      <!-- 50 -->
      <g transform="translate(321.575 134.546506)scale(0.1 -0.1)">
       <use xlink:href="#DejaVuSans-53"/>
       <use x="63.623047" xlink:href="#DejaVuSans-48"/>
      </g>
     </g>
    </g>
    <g id="ytick_9">
     <g id="line2d_46">
      <g>
       <use style="stroke:#000000;stroke-width:0.8;" x="314.575" xlink:href="#m14f5dd6d7b" y="95.091465"/>
      </g>
     </g>
     <g id="text_25">
      <!-- 60 -->
      <g transform="translate(321.575 98.890684)scale(0.1 -0.1)">
       <use xlink:href="#DejaVuSans-54"/>
       <use x="63.623047" xlink:href="#DejaVuSans-48"/>
      </g>
     </g>
    </g>
    <g id="ytick_10">
     <g id="line2d_47">
      <g>
       <use style="stroke:#000000;stroke-width:0.8;" x="314.575" xlink:href="#m14f5dd6d7b" y="59.435643"/>
      </g>
     </g>
     <g id="text_26">
      <!-- 70 -->
      <g transform="translate(321.575 63.234861)scale(0.1 -0.1)">
       <use xlink:href="#DejaVuSans-55"/>
       <use x="63.623047" xlink:href="#DejaVuSans-48"/>
      </g>
     </g>
    </g>
    <g id="text_27">
     <!-- Average AQI -->
     <defs>
      <path d="M 2.984375 54.6875 
L 12.5 54.6875 
L 29.59375 8.796875 
L 46.6875 54.6875 
L 56.203125 54.6875 
L 35.6875 0 
L 23.484375 0 
z
" id="DejaVuSans-118"/>
      <path d="M 45.40625 27.984375 
Q 45.40625 37.75 41.375 43.109375 
Q 37.359375 48.484375 30.078125 48.484375 
Q 22.859375 48.484375 18.828125 43.109375 
Q 14.796875 37.75 14.796875 27.984375 
Q 14.796875 18.265625 18.828125 12.890625 
Q 22.859375 7.515625 30.078125 7.515625 
Q 37.359375 7.515625 41.375 12.890625 
Q 45.40625 18.265625 45.40625 27.984375 
z
M 54.390625 6.78125 
Q 54.390625 -7.171875 48.1875 -13.984375 
Q 42 -20.796875 29.203125 -20.796875 
Q 24.46875 -20.796875 20.265625 -20.09375 
Q 16.0625 -19.390625 12.109375 -17.921875 
L 12.109375 -9.1875 
Q 16.0625 -11.328125 19.921875 -12.34375 
Q 23.78125 -13.375 27.78125 -13.375 
Q 36.625 -13.375 41.015625 -8.765625 
Q 45.40625 -4.15625 45.40625 5.171875 
L 45.40625 9.625 
Q 42.625 4.78125 38.28125 2.390625 
Q 33.9375 0 27.875 0 
Q 17.828125 0 11.671875 7.65625 
Q 5.515625 15.328125 5.515625 27.984375 
Q 5.515625 40.671875 11.671875 48.328125 
Q 17.828125 56 27.875 56 
Q 33.9375 56 38.28125 53.609375 
Q 42.625 51.21875 45.40625 46.390625 
L 45.40625 54.6875 
L 54.390625 54.6875 
z
" id="DejaVuSans-103"/>
      <path d="M 39.40625 66.21875 
Q 28.65625 66.21875 22.328125 58.203125 
Q 16.015625 50.203125 16.015625 36.375 
Q 16.015625 22.609375 22.328125 14.59375 
Q 28.65625 6.59375 39.40625 6.59375 
Q 50.140625 6.59375 56.421875 14.59375 
Q 62.703125 22.609375 62.703125 36.375 
Q 62.703125 50.203125 56.421875 58.203125 
Q 50.140625 66.21875 39.40625 66.21875 
z
M 53.21875 1.3125 
L 66.21875 -12.890625 
L 54.296875 -12.890625 
L 43.5 -1.21875 
Q 41.890625 -1.3125 41.03125 -1.359375 
Q 40.1875 -1.421875 39.40625 -1.421875 
Q 24.03125 -1.421875 14.8125 8.859375 
Q 5.609375 19.140625 5.609375 36.375 
Q 5.609375 53.65625 14.8125 63.9375 
Q 24.03125 74.21875 39.40625 74.21875 
Q 54.734375 74.21875 63.90625 63.9375 
Q 73.09375 53.65625 73.09375 36.375 
Q 73.09375 23.6875 67.984375 14.640625 
Q 62.890625 5.609375 53.21875 1.3125 
z
" id="DejaVuSans-81"/>
      <path d="M 9.8125 72.90625 
L 19.671875 72.90625 
L 19.671875 0 
L 9.8125 0 
z
" id="DejaVuSans-73"/>
     </defs>
     <g style="fill:#5f5f5f;" transform="translate(341.701563 105.257812)rotate(-270)scale(0.1 -0.1)">
      <use xlink:href="#DejaVuSans-65"/>
      <use x="68.330078" xlink:href="#DejaVuSans-118"/>
      <use x="127.509766" xlink:href="#DejaVuSans-101"/>
      <use x="189.033203" xlink:href="#DejaVuSans-114"/>
      <use x="230.146484" xlink:href="#DejaVuSans-97"/>
      <use x="291.425781" xlink:href="#DejaVuSans-103"/>
      <use x="354.902344" xlink:href="#DejaVuSans-101"/>
      <use x="416.425781" xlink:href="#DejaVuSans-32"/>
      <use x="448.212891" xlink:href="#DejaVuSans-65"/>
      <use x="516.605469" xlink:href="#DejaVuSans-81"/>
      <use x="595.316406" xlink:href="#DejaVuSans-73"/>
     </g>
    </g>
   </g>
   <g id="line2d_48">
    <path clip-path="url(#pb4daa4ae4a)" d="M 50.738636 201.88798 
L 73.581612 188.079586 
L 96.424587 179.116255 
L 119.267562 166.697516 
L 142.110537 136.521638 
L 164.953512 137.378019 
L 187.796488 172.865728 
L 210.639463 162.349927 
L 233.482438 180.203234 
L 256.325413 179.60202 
L 279.168388 210.0033 
L 302.011364 195.019981 
" style="fill:none;stroke:#f3f3f3;stroke-linecap:square;stroke-opacity:0.5;stroke-width:1.5;"/>
   </g>
   <g id="line2d_49">
    <path clip-path="url(#pb4daa4ae4a)" d="M 50.738636 194.058845 
L 73.581612 183.394201 
L 96.424587 190.820981 
L 119.267562 174.361999 
L 142.110537 171.840623 
L 164.953512 172.334639 
L 187.796488 161.476124 
L 210.639463 156.946566 
L 233.482438 198.989431 
L 256.325413 209.600297 
L 279.168388 208.933118 
L 302.011364 204.167277 
" style="fill:none;stroke:#eeeeee;stroke-linecap:square;stroke-opacity:0.5;stroke-width:1.5;"/>
   </g>
   <g id="line2d_50">
    <path clip-path="url(#pb4daa4ae4a)" d="M 50.738636 214.736558 
L 73.581612 204.258264 
L 96.424587 178.898425 
L 119.267562 166.703019 
L 142.110537 148.918043 
L 164.953512 141.687142 
L 187.796488 137.786239 
L 210.639463 133.351713 
L 233.482438 168.655057 
L 256.325413 182.432993 
L 279.168388 202.804463 
L 302.011364 214.81511 
" style="fill:none;stroke:#e8e8e8;stroke-linecap:square;stroke-opacity:0.5;stroke-width:1.5;"/>
   </g>
   <g id="line2d_51">
    <path clip-path="url(#pb4daa4ae4a)" d="M 50.738636 219.282508 
L 73.581612 196.777834 
L 96.424587 193.729253 
L 119.267562 191.772385 
L 142.110537 190.028968 
L 164.953512 119.066932 
L 187.796488 102.136366 
L 210.639463 120.475015 
L 233.482438 146.240216 
L 256.325413 141.38148 
L 279.168388 162.962636 
L 302.011364 161.549124 
" style="fill:none;stroke:#e1e1e1;stroke-linecap:square;stroke-opacity:0.5;stroke-width:1.5;"/>
   </g>
   <g id="line2d_52">
    <path clip-path="url(#pb4daa4ae4a)" d="M 50.738636 173.862683 
L 73.581612 213.308093 
L 96.424587 201.66015 
L 119.267562 188.266486 
L 142.110537 192.622435 
L 164.953512 158.497839 
L 187.796488 170.364868 
L 210.639463 155.242095 
L 233.482438 156.087709 
L 256.325413 192.810704 
L 279.168388 230.822521 
L 302.011364 194.323432 
" style="fill:none;stroke:#dbdbdb;stroke-linecap:square;stroke-opacity:0.5;stroke-width:1.5;"/>
   </g>
   <g id="line2d_53">
    <path clip-path="url(#pb4daa4ae4a)" d="M 50.738636 215.761954 
L 73.581612 208.373399 
L 96.424587 183.335146 
L 119.267562 168.50171 
L 142.110537 157.166098 
L 164.953512 128.020666 
L 187.796488 146.504861 
L 210.639463 159.407347 
L 233.482438 170.311537 
L 256.325413 198.825547 
L 279.168388 222.185706 
L 302.011364 236.227273 
" style="fill:none;stroke:#d4d4d4;stroke-linecap:square;stroke-opacity:0.5;stroke-width:1.5;"/>
   </g>
   <g id="line2d_54">
    <path clip-path="url(#pb4daa4ae4a)" d="M 50.738636 215.079675 
L 73.581612 204.835972 
L 96.424587 195.621952 
L 119.267562 168.714136 
L 142.110537 96.887269 
L 164.953512 114.808603 
L 187.796488 114.639832 
L 210.639463 70.055434 
L 233.482438 94.855507 
L 256.325413 169.340949 
L 279.168388 191.310133 
L 302.011364 210.403385 
" style="fill:none;stroke:#cccccc;stroke-linecap:square;stroke-opacity:0.5;stroke-width:1.5;"/>
   </g>
   <g id="line2d_55">
    <path clip-path="url(#pb4daa4ae4a)" d="M 50.738636 196.363573 
L 73.581612 173.43017 
L 96.424587 152.753274 
L 119.267562 145.483523 
L 142.110537 128.603563 
L 164.953512 145.966236 
L 187.796488 105.511094 
L 210.639463 36.772727 
L 233.482438 150.14825 
L 256.325413 141.242589 
L 279.168388 170.626034 
L 302.011364 201.904745 
" style="fill:none;stroke:#c5c5c5;stroke-linecap:square;stroke-opacity:0.5;stroke-width:1.5;"/>
   </g>
   <g id="line2d_56">
    <path clip-path="url(#pb4daa4ae4a)" d="M 50.738636 185.876675 
L 73.581612 170.620684 
L 96.424587 162.370829 
L 119.267562 143.622025 
L 142.110537 132.488229 
L 164.953512 149.589108 
L 187.796488 88.65721 
L 210.639463 71.163198 
L 233.482438 96.815667 
L 256.325413 163.145464 
L 279.168388 199.587901 
L 302.011364 199.638262 
" style="fill:none;stroke:#bdbdbd;stroke-linecap:square;stroke-opacity:0.5;stroke-width:1.5;"/>
   </g>
   <g id="line2d_57">
    <path clip-path="url(#pb4daa4ae4a)" d="M 50.738636 191.930155 
L 73.581612 186.307881 
L 96.424587 161.865096 
L 119.267562 141.191753 
L 142.110537 156.140015 
L 164.953512 109.668892 
L 187.796488 80.21605 
L 210.639463 87.064835 
L 233.482438 149.358294 
L 256.325413 181.78468 
L 279.168388 191.178908 
L 302.011364 215.14349 
" style="fill:none;stroke:#b2b2b2;stroke-linecap:square;stroke-opacity:0.5;stroke-width:1.5;"/>
   </g>
   <g id="line2d_58">
    <path clip-path="url(#pb4daa4ae4a)" d="M 50.738636 204.045239 
L 73.581612 193.786079 
L 96.424587 171.822795 
L 119.267562 165.229256 
L 142.110537 151.256088 
L 164.953512 112.170087 
L 187.796488 106.640057 
L 210.639463 102.259771 
L 233.482438 117.752169 
L 256.325413 210.777692 
L 279.168388 215.507821 
L 302.011364 203.686698 
" style="fill:none;stroke:#a7a7a7;stroke-linecap:square;stroke-opacity:0.5;stroke-width:1.5;"/>
   </g>
   <g id="line2d_59">
    <path clip-path="url(#pb4daa4ae4a)" d="M 50.738636 201.118559 
L 73.581612 191.907337 
L 96.424587 160.816602 
L 119.267562 135.953475 
L 142.110537 150.860557 
L 164.953512 118.661622 
L 187.796488 85.599986 
L 210.639463 62.252153 
L 233.482438 153.531463 
L 256.325413 184.443138 
L 279.168388 208.463775 
L 302.011364 206.73734 
" style="fill:none;stroke:#9c9c9c;stroke-linecap:square;stroke-opacity:0.5;stroke-width:1.5;"/>
   </g>
   <g id="line2d_60">
    <path clip-path="url(#pb4daa4ae4a)" d="M 50.738636 203.591332 
L 73.581612 178.021423 
L 96.424587 180.270389 
L 119.267562 156.553835 
L 142.110537 172.372913 
L 164.953512 172.187978 
L 187.796488 157.867624 
L 210.639463 164.113844 
L 233.482438 138.684953 
L 256.325413 204.225231 
L 279.168388 223.04936 
L 302.011364 216.40184 
" style="fill:none;stroke:#919191;stroke-linecap:square;stroke-opacity:0.5;stroke-width:1.5;"/>
   </g>
   <g id="line2d_61">
    <path clip-path="url(#pb4daa4ae4a)" d="M 50.738636 207.092696 
L 73.581612 197.382577 
L 96.424587 172.988831 
L 119.267562 142.506346 
L 142.110537 145.906048 
L 164.953512 95.626302 
L 187.796488 107.905276 
L 210.639463 131.243369 
L 233.482438 127.056962 
L 256.325413 189.26827 
L 279.168388 205.226008 
L 302.011364 208.830365 
" style="fill:none;stroke:#878787;stroke-linecap:square;stroke-opacity:0.5;stroke-width:1.5;"/>
   </g>
   <g id="line2d_62">
    <path clip-path="url(#pb4daa4ae4a)" d="M 50.738636 197.786658 
L 73.581612 188.832851 
L 96.424587 166.096613 
L 119.267562 122.594344 
L 142.110537 151.635829 
L 164.953512 71.804742 
L 187.796488 89.78361 
L 210.639463 110.928339 
L 233.482438 170.549406 
L 256.325413 196.957235 
L 279.168388 196.986919 
L 302.011364 210.350741 
" style="fill:none;stroke:#7d7d7d;stroke-linecap:square;stroke-opacity:0.5;stroke-width:1.5;"/>
   </g>
   <g id="line2d_63">
    <path clip-path="url(#pb4daa4ae4a)" d="M 50.738636 207.948032 
L 73.581612 184.460669 
L 96.424587 168.460177 
L 119.267562 146.759796 
L 142.110537 153.315201 
L 164.953512 151.772301 
L 187.796488 148.002159 
L 210.639463 121.151677 
L 233.482438 150.786077 
L 256.325413 189.894005 
L 279.168388 191.3952 
L 302.011364 197.682991 
" style="fill:none;stroke:#737373;stroke-linecap:square;stroke-opacity:0.5;stroke-width:1.5;"/>
   </g>
   <g id="line2d_64">
    <path clip-path="url(#pb4daa4ae4a)" d="M 50.738636 204.756646 
L 73.581612 188.317292 
L 96.424587 179.88275 
L 119.267562 152.478468 
L 142.110537 163.738612 
L 164.953512 164.650536 
L 187.796488 156.086302 
L 210.639463 155.991217 
L 233.482438 183.73164 
L 256.325413 188.562041 
L 279.168388 202.03802 
L 302.011364 210.355955 
" style="fill:none;stroke:#6a6a6a;stroke-linecap:square;stroke-opacity:0.5;stroke-width:1.5;"/>
   </g>
   <g id="line2d_65">
    <path clip-path="url(#pb4daa4ae4a)" d="M 50.738636 205.921647 
L 73.581612 190.529505 
L 96.424587 172.584106 
L 119.267562 157.294396 
L 142.110537 169.02684 
L 164.953512 161.034928 
L 187.796488 168.519269 
L 210.639463 174.075393 
L 233.482438 180.364969 
L 256.325413 229.958392 
L 279.168388 201.765177 
L 302.011364 209.492265 
" style="fill:none;stroke:#626262;stroke-linecap:square;stroke-opacity:0.5;stroke-width:1.5;"/>
   </g>
   <g id="line2d_66">
    <path clip-path="url(#pb4daa4ae4a)" d="M 50.738636 208.214895 
L 73.581612 189.145743 
L 96.424587 185.700355 
L 119.267562 143.231819 
L 142.110537 166.557715 
L 164.953512 166.472634 
L 187.796488 172.657179 
L 210.639463 139.961605 
L 233.482438 177.612095 
L 256.325413 174.258986 
L 279.168388 211.470874 
L 302.011364 199.521699 
" style="fill:none;stroke:#585858;stroke-linecap:square;stroke-opacity:0.5;stroke-width:1.5;"/>
   </g>
   <g id="line2d_67">
    <path clip-path="url(#pb4daa4ae4a)" d="M 50.738636 196.004357 
L 73.581612 180.843163 
L 96.424587 171.644903 
L 119.267562 139.613347 
L 142.110537 158.159746 
L 164.953512 130.127186 
L 187.796488 86.317972 
L 210.639463 103.988964 
L 233.482438 167.683369 
L 256.325413 157.772402 
L 279.168388 203.657694 
L 302.011364 206.141744 
" style="fill:none;stroke:#4e4e4e;stroke-linecap:square;stroke-opacity:0.5;stroke-width:1.5;"/>
   </g>
   <g id="line2d_68">
    <path clip-path="url(#pb4daa4ae4a)" d="M 50.738636 202.2102 
L 73.581612 196.993917 
L 96.424587 168.370703 
L 119.267562 167.082269 
L 142.110537 120.436325 
L 164.953512 83.514606 
L 187.796488 62.405155 
L 210.639463 81.79571 
L 233.482438 161.372687 
L 256.325413 189.871124 
L 279.168388 190.173658 
L 302.011364 200.330165 
" style="fill:none;stroke:#414141;stroke-linecap:square;stroke-opacity:0.5;stroke-width:1.5;"/>
   </g>
   <g id="line2d_69">
    <path clip-path="url(#pb4daa4ae4a)" d="M 50.738636 202.904268 
L 73.581612 182.938797 
L 96.424587 169.849478 
L 119.267562 172.183491 
L 142.110537 175.005975 
L 164.953512 158.571124 
L 187.796488 144.747266 
L 210.639463 156.31658 
L 233.482438 152.251437 
L 256.325413 201.384363 
L 279.168388 212.386826 
L 302.011364 199.817028 
" style="fill:none;stroke:#353535;stroke-linecap:square;stroke-opacity:0.5;stroke-width:1.5;"/>
   </g>
   <g id="line2d_70">
    <path clip-path="url(#pb4daa4ae4a)" d="M 50.738636 206.274007 
L 73.581612 181.912715 
L 96.424587 169.956564 
L 119.267562 141.985801 
L 142.110537 155.682108 
L 164.953512 170.957047 
L 187.796488 163.205114 
L 210.639463 141.686591 
L 233.482438 179.623385 
L 256.325413 193.144977 
L 279.168388 203.385079 
L 302.011364 213.628883 
" style="fill:none;stroke:#282828;stroke-linecap:square;stroke-opacity:0.5;stroke-width:1.5;"/>
   </g>
   <g id="line2d_71">
    <path clip-path="url(#pb4daa4ae4a)" d="M 50.738636 204.072152 
L 73.581612 200.532755 
L 96.424587 166.113029 
L 119.267562 166.202937 
L 142.110537 175.779728 
L 164.953512 156.557099 
L 187.796488 156.801593 
L 210.639463 158.643436 
L 233.482438 165.32718 
L 256.325413 190.845791 
L 279.168388 201.308284 
L 302.011364 213.087956 
" style="fill:none;stroke:#1d1d1d;stroke-linecap:square;stroke-opacity:0.5;stroke-width:1.5;"/>
   </g>
   <g id="line2d_72">
    <path clip-path="url(#pb4daa4ae4a)" d="M 50.738636 202.532554 
L 73.581612 190.624621 
L 96.424587 175.197027 
L 119.267562 156.874339 
L 142.110537 155.039607 
L 164.953512 137.130261 
L 187.796488 128.612372 
L 210.639463 123.218229 
L 233.482438 155.749696 
L 256.325413 185.897099 
L 279.168388 202.384559 
L 302.011364 205.385739 
" style="fill:none;stroke:#000000;stroke-dasharray:5.55,2.4;stroke-dashoffset:0;stroke-width:1.5;"/>
   </g>
   <g id="patch_7">
    <path d="M 38.175 246.2 
L 38.175 26.8 
" style="fill:none;stroke:#000000;stroke-linecap:square;stroke-linejoin:miter;stroke-width:0.8;"/>
   </g>
   <g id="patch_8">
    <path d="M 314.575 246.2 
L 314.575 26.8 
" style="fill:none;stroke:#000000;stroke-linecap:square;stroke-linejoin:miter;stroke-width:0.8;"/>
   </g>
   <g id="patch_9">
    <path d="M 38.175 246.2 
L 314.575 246.2 
" style="fill:none;stroke:#000000;stroke-linecap:square;stroke-linejoin:miter;stroke-width:0.8;"/>
   </g>
   <g id="patch_10">
    <path d="M 38.175 26.8 
L 314.575 26.8 
" style="fill:none;stroke:#000000;stroke-linecap:square;stroke-linejoin:miter;stroke-width:0.8;"/>
   </g>
  </g>
 </g>
 <defs>
  <clipPath id="pb4daa4ae4a">
   <rect height="219.4" width="276.4" x="38.175" y="26.8"/>
  </clipPath>
 </defs>
</svg>
