<?xml version="1.0" encoding="utf-8" standalone="no"?>
<!DOCTYPE svg PUBLIC "-//W3C//DTD SVG 1.1//EN"
  "http://www.w3.org/Graphics/SVG/1.1/DTD/svg11.dtd">
<!-- Created with matplotlib (https://matplotlib.org/) -->
<svg height="288pt" version="1.1" viewBox="0 0 360 288" width="360pt" xmlns="http://www.w3.org/2000/svg" xmlns:xlink="http://www.w3.org/1999/xlink">
 <defs>
  <style type="text/css">
*{stroke-linecap:butt;stroke-linejoin:round;}
  </style>
 </defs>
 <g id="figure_1">
  <g id="patch_1">
   <path d="M 0 288 
L 360 288 
L 360 0 
L 0 0 
z
" style="fill:#ffffff;"/>
  </g>
  <g id="axes_1">
   <g id="patch_2">
    <path d="M 54.05 246.2 
L 314.575 246.2 
L 314.575 26.8 
L 54.05 26.8 
z
" style="fill:#ffffff;"/>
   </g>
   <g id="matplotlib.axis_1">
    <g id="xtick_1">
     <g id="line2d_1">
      <defs>
       <path d="M 0 0 
L 0 3.5 
" id="m061b111d29" style="stroke:#000000;stroke-width:0.8;"/>
      </defs>
      <g>
       <use style="stroke:#000000;stroke-width:0.8;" x="65.892045" xlink:href="#m061b111d29" y="246.2"/>
      </g>
     </g>
     <g id="text_1">
      <!-- 1 -->
      <defs>
       <path d="M 12.40625 8.296875 
L 28.515625 8.296875 
L 28.515625 63.921875 
L 10.984375 60.40625 
L 10.984375 69.390625 
L 28.421875 72.90625 
L 38.28125 72.90625 
L 38.28125 8.296875 
L 54.390625 8.296875 
L 54.390625 0 
L 12.40625 0 
z
" id="DejaVuSans-49"/>
      </defs>
      <g transform="translate(62.710795 260.798437)scale(0.1 -0.1)">
       <use xlink:href="#DejaVuSans-49"/>
      </g>
     </g>
    </g>
    <g id="xtick_2">
     <g id="line2d_2">
      <g>
       <use style="stroke:#000000;stroke-width:0.8;" x="87.423037" xlink:href="#m061b111d29" y="246.2"/>
      </g>
     </g>
     <g id="text_2">
      <!-- 2 -->
      <defs>
       <path d="M 19.1875 8.296875 
L 53.609375 8.296875 
L 53.609375 0 
L 7.328125 0 
L 7.328125 8.296875 
Q 12.9375 14.109375 22.625 23.890625 
Q 32.328125 33.6875 34.8125 36.53125 
Q 39.546875 41.84375 41.421875 45.53125 
Q 43.3125 49.21875 43.3125 52.78125 
Q 43.3125 58.59375 39.234375 62.25 
Q 35.15625 65.921875 28.609375 65.921875 
Q 23.96875 65.921875 18.8125 64.3125 
Q 13.671875 62.703125 7.8125 59.421875 
L 7.8125 69.390625 
Q 13.765625 71.78125 18.9375 73 
Q 24.125 74.21875 28.421875 74.21875 
Q 39.75 74.21875 46.484375 68.546875 
Q 53.21875 62.890625 53.21875 53.421875 
Q 53.21875 48.921875 51.53125 44.890625 
Q 49.859375 40.875 45.40625 35.40625 
Q 44.1875 33.984375 37.640625 27.21875 
Q 31.109375 20.453125 19.1875 8.296875 
z
" id="DejaVuSans-50"/>
      </defs>
      <g transform="translate(84.241787 260.798437)scale(0.1 -0.1)">
       <use xlink:href="#DejaVuSans-50"/>
      </g>
     </g>
    </g>
    <g id="xtick_3">
     <g id="line2d_3">
      <g>
       <use style="stroke:#000000;stroke-width:0.8;" x="108.954029" xlink:href="#m061b111d29" y="246.2"/>
      </g>
     </g>
     <g id="text_3">
      <!-- 3 -->
      <defs>
       <path d="M 40.578125 39.3125 
Q 47.65625 37.796875 51.625 33 
Q 55.609375 28.21875 55.609375 21.1875 
Q 55.609375 10.40625 48.1875 4.484375 
Q 40.765625 -1.421875 27.09375 -1.421875 
Q 22.515625 -1.421875 17.65625 -0.515625 
Q 12.796875 0.390625 7.625 2.203125 
L 7.625 11.71875 
Q 11.71875 9.328125 16.59375 8.109375 
Q 21.484375 6.890625 26.8125 6.890625 
Q 36.078125 6.890625 40.9375 10.546875 
Q 45.796875 14.203125 45.796875 21.1875 
Q 45.796875 27.640625 41.28125 31.265625 
Q 36.765625 34.90625 28.71875 34.90625 
L 20.21875 34.90625 
L 20.21875 43.015625 
L 29.109375 43.015625 
Q 36.375 43.015625 40.234375 45.921875 
Q 44.09375 48.828125 44.09375 54.296875 
Q 44.09375 59.90625 40.109375 62.90625 
Q 36.140625 65.921875 28.71875 65.921875 
Q 24.65625 65.921875 20.015625 65.03125 
Q 15.375 64.15625 9.8125 62.3125 
L 9.8125 71.09375 
Q 15.4375 72.65625 20.34375 73.4375 
Q 25.25 74.21875 29.59375 74.21875 
Q 40.828125 74.21875 47.359375 69.109375 
Q 53.90625 64.015625 53.90625 55.328125 
Q 53.90625 49.265625 50.4375 45.09375 
Q 46.96875 40.921875 40.578125 39.3125 
z
" id="DejaVuSans-51"/>
      </defs>
      <g transform="translate(105.772779 260.798437)scale(0.1 -0.1)">
       <use xlink:href="#DejaVuSans-51"/>
      </g>
     </g>
    </g>
    <g id="xtick_4">
     <g id="line2d_4">
      <g>
       <use style="stroke:#000000;stroke-width:0.8;" x="130.485021" xlink:href="#m061b111d29" y="246.2"/>
      </g>
     </g>
     <g id="text_4">
      <!-- 4 -->
      <defs>
       <path d="M 37.796875 64.3125 
L 12.890625 25.390625 
L 37.796875 25.390625 
z
M 35.203125 72.90625 
L 47.609375 72.90625 
L 47.609375 25.390625 
L 58.015625 25.390625 
L 58.015625 17.1875 
L 47.609375 17.1875 
L 47.609375 0 
L 37.796875 0 
L 37.796875 17.1875 
L 4.890625 17.1875 
L 4.890625 26.703125 
z
" id="DejaVuSans-52"/>
      </defs>
      <g transform="translate(127.303771 260.798437)scale(0.1 -0.1)">
       <use xlink:href="#DejaVuSans-52"/>
      </g>
     </g>
    </g>
    <g id="xtick_5">
     <g id="line2d_5">
      <g>
       <use style="stroke:#000000;stroke-width:0.8;" x="152.016012" xlink:href="#m061b111d29" y="246.2"/>
      </g>
     </g>
     <g id="text_5">
      <!-- 5 -->
      <defs>
       <path d="M 10.796875 72.90625 
L 49.515625 72.90625 
L 49.515625 64.59375 
L 19.828125 64.59375 
L 19.828125 46.734375 
Q 21.96875 47.46875 24.109375 47.828125 
Q 26.265625 48.1875 28.421875 48.1875 
Q 40.625 48.1875 47.75 41.5 
Q 54.890625 34.8125 54.890625 23.390625 
Q 54.890625 11.625 47.5625 5.09375 
Q 40.234375 -1.421875 26.90625 -1.421875 
Q 22.3125 -1.421875 17.546875 -0.640625 
Q 12.796875 0.140625 7.71875 1.703125 
L 7.71875 11.625 
Q 12.109375 9.234375 16.796875 8.0625 
Q 21.484375 6.890625 26.703125 6.890625 
Q 35.15625 6.890625 40.078125 11.328125 
Q 45.015625 15.765625 45.015625 23.390625 
Q 45.015625 31 40.078125 35.4375 
Q 35.15625 39.890625 26.703125 39.890625 
Q 22.75 39.890625 18.8125 39.015625 
Q 14.890625 38.140625 10.796875 36.28125 
z
" id="DejaVuSans-53"/>
      </defs>
      <g transform="translate(148.834762 260.798437)scale(0.1 -0.1)">
       <use xlink:href="#DejaVuSans-53"/>
      </g>
     </g>
    </g>
    <g id="xtick_6">
     <g id="line2d_6">
      <g>
       <use style="stroke:#000000;stroke-width:0.8;" x="173.547004" xlink:href="#m061b111d29" y="246.2"/>
      </g>
     </g>
     <g id="text_6">
      <!-- 6 -->
      <defs>
       <path d="M 33.015625 40.375 
Q 26.375 40.375 22.484375 35.828125 
Q 18.609375 31.296875 18.609375 23.390625 
Q 18.609375 15.53125 22.484375 10.953125 
Q 26.375 6.390625 33.015625 6.390625 
Q 39.65625 6.390625 43.53125 10.953125 
Q 47.40625 15.53125 47.40625 23.390625 
Q 47.40625 31.296875 43.53125 35.828125 
Q 39.65625 40.375 33.015625 40.375 
z
M 52.59375 71.296875 
L 52.59375 62.3125 
Q 48.875 64.0625 45.09375 64.984375 
Q 41.3125 65.921875 37.59375 65.921875 
Q 27.828125 65.921875 22.671875 59.328125 
Q 17.53125 52.734375 16.796875 39.40625 
Q 19.671875 43.65625 24.015625 45.921875 
Q 28.375 48.1875 33.59375 48.1875 
Q 44.578125 48.1875 50.953125 41.515625 
Q 57.328125 34.859375 57.328125 23.390625 
Q 57.328125 12.15625 50.6875 5.359375 
Q 44.046875 -1.421875 33.015625 -1.421875 
Q 20.359375 -1.421875 13.671875 8.265625 
Q 6.984375 17.96875 6.984375 36.375 
Q 6.984375 53.65625 15.1875 63.9375 
Q 23.390625 74.21875 37.203125 74.21875 
Q 40.921875 74.21875 44.703125 73.484375 
Q 48.484375 72.75 52.59375 71.296875 
z
" id="DejaVuSans-54"/>
      </defs>
      <g transform="translate(170.365754 260.798437)scale(0.1 -0.1)">
       <use xlink:href="#DejaVuSans-54"/>
      </g>
     </g>
    </g>
    <g id="xtick_7">
     <g id="line2d_7">
      <g>
       <use style="stroke:#000000;stroke-width:0.8;" x="195.077996" xlink:href="#m061b111d29" y="246.2"/>
      </g>
     </g>
     <g id="text_7">
      <!-- 7 -->
      <defs>
       <path d="M 8.203125 72.90625 
L 55.078125 72.90625 
L 55.078125 68.703125 
L 28.609375 0 
L 18.3125 0 
L 43.21875 64.59375 
L 8.203125 64.59375 
z
" id="DejaVuSans-55"/>
      </defs>
      <g transform="translate(191.896746 260.798437)scale(0.1 -0.1)">
       <use xlink:href="#DejaVuSans-55"/>
      </g>
     </g>
    </g>
    <g id="xtick_8">
     <g id="line2d_8">
      <g>
       <use style="stroke:#000000;stroke-width:0.8;" x="216.608988" xlink:href="#m061b111d29" y="246.2"/>
      </g>
     </g>
     <g id="text_8">
      <!-- 8 -->
      <defs>
       <path d="M 31.78125 34.625 
Q 24.75 34.625 20.71875 30.859375 
Q 16.703125 27.09375 16.703125 20.515625 
Q 16.703125 13.921875 20.71875 10.15625 
Q 24.75 6.390625 31.78125 6.390625 
Q 38.8125 6.390625 42.859375 10.171875 
Q 46.921875 13.96875 46.921875 20.515625 
Q 46.921875 27.09375 42.890625 30.859375 
Q 38.875 34.625 31.78125 34.625 
z
M 21.921875 38.8125 
Q 15.578125 40.375 12.03125 44.71875 
Q 8.5 49.078125 8.5 55.328125 
Q 8.5 64.0625 14.71875 69.140625 
Q 20.953125 74.21875 31.78125 74.21875 
Q 42.671875 74.21875 48.875 69.140625 
Q 55.078125 64.0625 55.078125 55.328125 
Q 55.078125 49.078125 51.53125 44.71875 
Q 48 40.375 41.703125 38.8125 
Q 48.828125 37.15625 52.796875 32.3125 
Q 56.78125 27.484375 56.78125 20.515625 
Q 56.78125 9.90625 50.3125 4.234375 
Q 43.84375 -1.421875 31.78125 -1.421875 
Q 19.734375 -1.421875 13.25 4.234375 
Q 6.78125 9.90625 6.78125 20.515625 
Q 6.78125 27.484375 10.78125 32.3125 
Q 14.796875 37.15625 21.921875 38.8125 
z
M 18.3125 54.390625 
Q 18.3125 48.734375 21.84375 45.5625 
Q 25.390625 42.390625 31.78125 42.390625 
Q 38.140625 42.390625 41.71875 45.5625 
Q 45.3125 48.734375 45.3125 54.390625 
Q 45.3125 60.0625 41.71875 63.234375 
Q 38.140625 66.40625 31.78125 66.40625 
Q 25.390625 66.40625 21.84375 63.234375 
Q 18.3125 60.0625 18.3125 54.390625 
z
" id="DejaVuSans-56"/>
      </defs>
      <g transform="translate(213.427738 260.798437)scale(0.1 -0.1)">
       <use xlink:href="#DejaVuSans-56"/>
      </g>
     </g>
    </g>
    <g id="xtick_9">
     <g id="line2d_9">
      <g>
       <use style="stroke:#000000;stroke-width:0.8;" x="238.139979" xlink:href="#m061b111d29" y="246.2"/>
      </g>
     </g>
     <g id="text_9">
      <!-- 9 -->
      <defs>
       <path d="M 10.984375 1.515625 
L 10.984375 10.5 
Q 14.703125 8.734375 18.5 7.8125 
Q 22.3125 6.890625 25.984375 6.890625 
Q 35.75 6.890625 40.890625 13.453125 
Q 46.046875 20.015625 46.78125 33.40625 
Q 43.953125 29.203125 39.59375 26.953125 
Q 35.25 24.703125 29.984375 24.703125 
Q 19.046875 24.703125 12.671875 31.3125 
Q 6.296875 37.9375 6.296875 49.421875 
Q 6.296875 60.640625 12.9375 67.421875 
Q 19.578125 74.21875 30.609375 74.21875 
Q 43.265625 74.21875 49.921875 64.515625 
Q 56.59375 54.828125 56.59375 36.375 
Q 56.59375 19.140625 48.40625 8.859375 
Q 40.234375 -1.421875 26.421875 -1.421875 
Q 22.703125 -1.421875 18.890625 -0.6875 
Q 15.09375 0.046875 10.984375 1.515625 
z
M 30.609375 32.421875 
Q 37.25 32.421875 41.125 36.953125 
Q 45.015625 41.5 45.015625 49.421875 
Q 45.015625 57.28125 41.125 61.84375 
Q 37.25 66.40625 30.609375 66.40625 
Q 23.96875 66.40625 20.09375 61.84375 
Q 16.21875 57.28125 16.21875 49.421875 
Q 16.21875 41.5 20.09375 36.953125 
Q 23.96875 32.421875 30.609375 32.421875 
z
" id="DejaVuSans-57"/>
      </defs>
      <g transform="translate(234.958729 260.798437)scale(0.1 -0.1)">
       <use xlink:href="#DejaVuSans-57"/>
      </g>
     </g>
    </g>
    <g id="xtick_10">
     <g id="line2d_10">
      <g>
       <use style="stroke:#000000;stroke-width:0.8;" x="259.670971" xlink:href="#m061b111d29" y="246.2"/>
      </g>
     </g>
     <g id="text_10">
      <!-- 10 -->
      <defs>
       <path d="M 31.78125 66.40625 
Q 24.171875 66.40625 20.328125 58.90625 
Q 16.5 51.421875 16.5 36.375 
Q 16.5 21.390625 20.328125 13.890625 
Q 24.171875 6.390625 31.78125 6.390625 
Q 39.453125 6.390625 43.28125 13.890625 
Q 47.125 21.390625 47.125 36.375 
Q 47.125 51.421875 43.28125 58.90625 
Q 39.453125 66.40625 31.78125 66.40625 
z
M 31.78125 74.21875 
Q 44.046875 74.21875 50.515625 64.515625 
Q 56.984375 54.828125 56.984375 36.375 
Q 56.984375 17.96875 50.515625 8.265625 
Q 44.046875 -1.421875 31.78125 -1.421875 
Q 19.53125 -1.421875 13.0625 8.265625 
Q 6.59375 17.96875 6.59375 36.375 
Q 6.59375 54.828125 13.0625 64.515625 
Q 19.53125 74.21875 31.78125 74.21875 
z
" id="DejaVuSans-48"/>
      </defs>
      <g transform="translate(253.308471 260.798437)scale(0.1 -0.1)">
       <use xlink:href="#DejaVuSans-49"/>
       <use x="63.623047" xlink:href="#DejaVuSans-48"/>
      </g>
     </g>
    </g>
    <g id="xtick_11">
     <g id="line2d_11">
      <g>
       <use style="stroke:#000000;stroke-width:0.8;" x="281.201963" xlink:href="#m061b111d29" y="246.2"/>
      </g>
     </g>
     <g id="text_11">
      <!-- 11 -->
      <g transform="translate(274.839463 260.798437)scale(0.1 -0.1)">
       <use xlink:href="#DejaVuSans-49"/>
       <use x="63.623047" xlink:href="#DejaVuSans-49"/>
      </g>
     </g>
    </g>
    <g id="xtick_12">
     <g id="line2d_12">
      <g>
       <use style="stroke:#000000;stroke-width:0.8;" x="302.732955" xlink:href="#m061b111d29" y="246.2"/>
      </g>
     </g>
     <g id="text_12">
      <!-- 12 -->
      <g transform="translate(296.370455 260.798437)scale(0.1 -0.1)">
       <use xlink:href="#DejaVuSans-49"/>
       <use x="63.623047" xlink:href="#DejaVuSans-50"/>
      </g>
     </g>
    </g>
    <g id="text_13">
     <!-- Month -->
     <defs>
      <path d="M 9.8125 72.90625 
L 24.515625 72.90625 
L 43.109375 23.296875 
L 61.8125 72.90625 
L 76.515625 72.90625 
L 76.515625 0 
L 66.890625 0 
L 66.890625 64.015625 
L 48.09375 14.015625 
L 38.1875 14.015625 
L 19.390625 64.015625 
L 19.390625 0 
L 9.8125 0 
z
" id="DejaVuSans-77"/>
      <path d="M 30.609375 48.390625 
Q 23.390625 48.390625 19.1875 42.75 
Q 14.984375 37.109375 14.984375 27.296875 
Q 14.984375 17.484375 19.15625 11.84375 
Q 23.34375 6.203125 30.609375 6.203125 
Q 37.796875 6.203125 41.984375 11.859375 
Q 46.1875 17.53125 46.1875 27.296875 
Q 46.1875 37.015625 41.984375 42.703125 
Q 37.796875 48.390625 30.609375 48.390625 
z
M 30.609375 56 
Q 42.328125 56 49.015625 48.375 
Q 55.71875 40.765625 55.71875 27.296875 
Q 55.71875 13.875 49.015625 6.21875 
Q 42.328125 -1.421875 30.609375 -1.421875 
Q 18.84375 -1.421875 12.171875 6.21875 
Q 5.515625 13.875 5.515625 27.296875 
Q 5.515625 40.765625 12.171875 48.375 
Q 18.84375 56 30.609375 56 
z
" id="DejaVuSans-111"/>
      <path d="M 54.890625 33.015625 
L 54.890625 0 
L 45.90625 0 
L 45.90625 32.71875 
Q 45.90625 40.484375 42.875 44.328125 
Q 39.84375 48.1875 33.796875 48.1875 
Q 26.515625 48.1875 22.3125 43.546875 
Q 18.109375 38.921875 18.109375 30.90625 
L 18.109375 0 
L 9.078125 0 
L 9.078125 54.6875 
L 18.109375 54.6875 
L 18.109375 46.1875 
Q 21.34375 51.125 25.703125 53.5625 
Q 30.078125 56 35.796875 56 
Q 45.21875 56 50.046875 50.171875 
Q 54.890625 44.34375 54.890625 33.015625 
z
" id="DejaVuSans-110"/>
      <path d="M 18.3125 70.21875 
L 18.3125 54.6875 
L 36.8125 54.6875 
L 36.8125 47.703125 
L 18.3125 47.703125 
L 18.3125 18.015625 
Q 18.3125 11.328125 20.140625 9.421875 
Q 21.96875 7.515625 27.59375 7.515625 
L 36.8125 7.515625 
L 36.8125 0 
L 27.59375 0 
Q 17.1875 0 13.234375 3.875 
Q 9.28125 7.765625 9.28125 18.015625 
L 9.28125 47.703125 
L 2.6875 47.703125 
L 2.6875 54.6875 
L 9.28125 54.6875 
L 9.28125 70.21875 
z
" id="DejaVuSans-116"/>
      <path d="M 54.890625 33.015625 
L 54.890625 0 
L 45.90625 0 
L 45.90625 32.71875 
Q 45.90625 40.484375 42.875 44.328125 
Q 39.84375 48.1875 33.796875 48.1875 
Q 26.515625 48.1875 22.3125 43.546875 
Q 18.109375 38.921875 18.109375 30.90625 
L 18.109375 0 
L 9.078125 0 
L 9.078125 75.984375 
L 18.109375 75.984375 
L 18.109375 46.1875 
Q 21.34375 51.125 25.703125 53.5625 
Q 30.078125 56 35.796875 56 
Q 45.21875 56 50.046875 50.171875 
Q 54.890625 44.34375 54.890625 33.015625 
z
" id="DejaVuSans-104"/>
     </defs>
     <g style="fill:#7f7f7f;" transform="translate(168.641406 274.476562)scale(0.1 -0.1)">
      <use xlink:href="#DejaVuSans-77"/>
      <use x="86.279297" xlink:href="#DejaVuSans-111"/>
      <use x="147.460938" xlink:href="#DejaVuSans-110"/>
      <use x="210.839844" xlink:href="#DejaVuSans-116"/>
      <use x="250.048828" xlink:href="#DejaVuSans-104"/>
     </g>
    </g>
   </g>
   <g id="matplotlib.axis_2">
    <g id="ytick_1">
     <g id="line2d_13">
      <defs>
       <path d="M 0 0 
L -3.5 0 
" id="ma16d6f7141" style="stroke:#000000;stroke-width:0.8;"/>
      </defs>
      <g>
       <use style="stroke:#000000;stroke-width:0.8;" x="54.05" xlink:href="#ma16d6f7141" y="236.227273"/>
      </g>
     </g>
     <g id="text_14">
      <!-- 0.00 -->
      <defs>
       <path d="M 10.6875 12.40625 
L 21 12.40625 
L 21 0 
L 10.6875 0 
z
" id="DejaVuSans-46"/>
      </defs>
      <g style="fill:#d92523;" transform="translate(24.784375 240.026491)scale(0.1 -0.1)">
       <use xlink:href="#DejaVuSans-48"/>
       <use x="63.623047" xlink:href="#DejaVuSans-46"/>
       <use x="95.410156" xlink:href="#DejaVuSans-48"/>
       <use x="159.033203" xlink:href="#DejaVuSans-48"/>
      </g>
     </g>
    </g>
    <g id="ytick_2">
     <g id="line2d_14">
      <g>
       <use style="stroke:#000000;stroke-width:0.8;" x="54.05" xlink:href="#ma16d6f7141" y="172.896266"/>
      </g>
     </g>
     <g id="text_15">
      <!-- 0.25 -->
      <g style="fill:#d92523;" transform="translate(24.784375 176.695485)scale(0.1 -0.1)">
       <use xlink:href="#DejaVuSans-48"/>
       <use x="63.623047" xlink:href="#DejaVuSans-46"/>
       <use x="95.410156" xlink:href="#DejaVuSans-50"/>
       <use x="159.033203" xlink:href="#DejaVuSans-53"/>
      </g>
     </g>
    </g>
    <g id="ytick_3">
     <g id="line2d_15">
      <g>
       <use style="stroke:#000000;stroke-width:0.8;" x="54.05" xlink:href="#ma16d6f7141" y="109.56526"/>
      </g>
     </g>
     <g id="text_16">
      <!-- 0.50 -->
      <g style="fill:#d92523;" transform="translate(24.784375 113.364478)scale(0.1 -0.1)">
       <use xlink:href="#DejaVuSans-48"/>
       <use x="63.623047" xlink:href="#DejaVuSans-46"/>
       <use x="95.410156" xlink:href="#DejaVuSans-53"/>
       <use x="159.033203" xlink:href="#DejaVuSans-48"/>
      </g>
     </g>
    </g>
    <g id="ytick_4">
     <g id="line2d_16">
      <g>
       <use style="stroke:#000000;stroke-width:0.8;" x="54.05" xlink:href="#ma16d6f7141" y="46.234253"/>
      </g>
     </g>
     <g id="text_17">
      <!-- 0.75 -->
      <g style="fill:#d92523;" transform="translate(24.784375 50.033472)scale(0.1 -0.1)">
       <use xlink:href="#DejaVuSans-48"/>
       <use x="63.623047" xlink:href="#DejaVuSans-46"/>
       <use x="95.410156" xlink:href="#DejaVuSans-55"/>
       <use x="159.033203" xlink:href="#DejaVuSans-53"/>
      </g>
     </g>
    </g>
    <g id="text_18">
     <!-- Acres Burned -->
     <defs>
      <path d="M 34.1875 63.1875 
L 20.796875 26.90625 
L 47.609375 26.90625 
z
M 28.609375 72.90625 
L 39.796875 72.90625 
L 67.578125 0 
L 57.328125 0 
L 50.6875 18.703125 
L 17.828125 18.703125 
L 11.1875 0 
L 0.78125 0 
z
" id="DejaVuSans-65"/>
      <path d="M 48.78125 52.59375 
L 48.78125 44.1875 
Q 44.96875 46.296875 41.140625 47.34375 
Q 37.3125 48.390625 33.40625 48.390625 
Q 24.65625 48.390625 19.8125 42.84375 
Q 14.984375 37.3125 14.984375 27.296875 
Q 14.984375 17.28125 19.8125 11.734375 
Q 24.65625 6.203125 33.40625 6.203125 
Q 37.3125 6.203125 41.140625 7.25 
Q 44.96875 8.296875 48.78125 10.40625 
L 48.78125 2.09375 
Q 45.015625 0.34375 40.984375 -0.53125 
Q 36.96875 -1.421875 32.421875 -1.421875 
Q 20.0625 -1.421875 12.78125 6.34375 
Q 5.515625 14.109375 5.515625 27.296875 
Q 5.515625 40.671875 12.859375 48.328125 
Q 20.21875 56 33.015625 56 
Q 37.15625 56 41.109375 55.140625 
Q 45.0625 54.296875 48.78125 52.59375 
z
" id="DejaVuSans-99"/>
      <path d="M 41.109375 46.296875 
Q 39.59375 47.171875 37.8125 47.578125 
Q 36.03125 48 33.890625 48 
Q 26.265625 48 22.1875 43.046875 
Q 18.109375 38.09375 18.109375 28.8125 
L 18.109375 0 
L 9.078125 0 
L 9.078125 54.6875 
L 18.109375 54.6875 
L 18.109375 46.1875 
Q 20.953125 51.171875 25.484375 53.578125 
Q 30.03125 56 36.53125 56 
Q 37.453125 56 38.578125 55.875 
Q 39.703125 55.765625 41.0625 55.515625 
z
" id="DejaVuSans-114"/>
      <path d="M 56.203125 29.59375 
L 56.203125 25.203125 
L 14.890625 25.203125 
Q 15.484375 15.921875 20.484375 11.0625 
Q 25.484375 6.203125 34.421875 6.203125 
Q 39.59375 6.203125 44.453125 7.46875 
Q 49.3125 8.734375 54.109375 11.28125 
L 54.109375 2.78125 
Q 49.265625 0.734375 44.1875 -0.34375 
Q 39.109375 -1.421875 33.890625 -1.421875 
Q 20.796875 -1.421875 13.15625 6.1875 
Q 5.515625 13.8125 5.515625 26.8125 
Q 5.515625 40.234375 12.765625 48.109375 
Q 20.015625 56 32.328125 56 
Q 43.359375 56 49.78125 48.890625 
Q 56.203125 41.796875 56.203125 29.59375 
z
M 47.21875 32.234375 
Q 47.125 39.59375 43.09375 43.984375 
Q 39.0625 48.390625 32.421875 48.390625 
Q 24.90625 48.390625 20.390625 44.140625 
Q 15.875 39.890625 15.1875 32.171875 
z
" id="DejaVuSans-101"/>
      <path d="M 44.28125 53.078125 
L 44.28125 44.578125 
Q 40.484375 46.53125 36.375 47.5 
Q 32.28125 48.484375 27.875 48.484375 
Q 21.1875 48.484375 17.84375 46.4375 
Q 14.5 44.390625 14.5 40.28125 
Q 14.5 37.15625 16.890625 35.375 
Q 19.28125 33.59375 26.515625 31.984375 
L 29.59375 31.296875 
Q 39.15625 29.25 43.1875 25.515625 
Q 47.21875 21.78125 47.21875 15.09375 
Q 47.21875 7.46875 41.1875 3.015625 
Q 35.15625 -1.421875 24.609375 -1.421875 
Q 20.21875 -1.421875 15.453125 -0.5625 
Q 10.6875 0.296875 5.421875 2 
L 5.421875 11.28125 
Q 10.40625 8.6875 15.234375 7.390625 
Q 20.0625 6.109375 24.8125 6.109375 
Q 31.15625 6.109375 34.5625 8.28125 
Q 37.984375 10.453125 37.984375 14.40625 
Q 37.984375 18.0625 35.515625 20.015625 
Q 33.0625 21.96875 24.703125 23.78125 
L 21.578125 24.515625 
Q 13.234375 26.265625 9.515625 29.90625 
Q 5.8125 33.546875 5.8125 39.890625 
Q 5.8125 47.609375 11.28125 51.796875 
Q 16.75 56 26.8125 56 
Q 31.78125 56 36.171875 55.265625 
Q 40.578125 54.546875 44.28125 53.078125 
z
" id="DejaVuSans-115"/>
      <path id="DejaVuSans-32"/>
      <path d="M 19.671875 34.8125 
L 19.671875 8.109375 
L 35.5 8.109375 
Q 43.453125 8.109375 47.28125 11.40625 
Q 51.125 14.703125 51.125 21.484375 
Q 51.125 28.328125 47.28125 31.5625 
Q 43.453125 34.8125 35.5 34.8125 
z
M 19.671875 64.796875 
L 19.671875 42.828125 
L 34.28125 42.828125 
Q 41.5 42.828125 45.03125 45.53125 
Q 48.578125 48.25 48.578125 53.8125 
Q 48.578125 59.328125 45.03125 62.0625 
Q 41.5 64.796875 34.28125 64.796875 
z
M 9.8125 72.90625 
L 35.015625 72.90625 
Q 46.296875 72.90625 52.390625 68.21875 
Q 58.5 63.53125 58.5 54.890625 
Q 58.5 48.1875 55.375 44.234375 
Q 52.25 40.28125 46.1875 39.3125 
Q 53.46875 37.75 57.5 32.78125 
Q 61.53125 27.828125 61.53125 20.40625 
Q 61.53125 10.640625 54.890625 5.3125 
Q 48.25 0 35.984375 0 
L 9.8125 0 
z
" id="DejaVuSans-66"/>
      <path d="M 8.5 21.578125 
L 8.5 54.6875 
L 17.484375 54.6875 
L 17.484375 21.921875 
Q 17.484375 14.15625 20.5 10.265625 
Q 23.53125 6.390625 29.59375 6.390625 
Q 36.859375 6.390625 41.078125 11.03125 
Q 45.3125 15.671875 45.3125 23.6875 
L 45.3125 54.6875 
L 54.296875 54.6875 
L 54.296875 0 
L 45.3125 0 
L 45.3125 8.40625 
Q 42.046875 3.421875 37.71875 1 
Q 33.40625 -1.421875 27.6875 -1.421875 
Q 18.265625 -1.421875 13.375 4.4375 
Q 8.5 10.296875 8.5 21.578125 
z
M 31.109375 56 
z
" id="DejaVuSans-117"/>
      <path d="M 45.40625 46.390625 
L 45.40625 75.984375 
L 54.390625 75.984375 
L 54.390625 0 
L 45.40625 0 
L 45.40625 8.203125 
Q 42.578125 3.328125 38.25 0.953125 
Q 33.9375 -1.421875 27.875 -1.421875 
Q 17.96875 -1.421875 11.734375 6.484375 
Q 5.515625 14.40625 5.515625 27.296875 
Q 5.515625 40.1875 11.734375 48.09375 
Q 17.96875 56 27.875 56 
Q 33.9375 56 38.25 53.625 
Q 42.578125 51.265625 45.40625 46.390625 
z
M 14.796875 27.296875 
Q 14.796875 17.390625 18.875 11.75 
Q 22.953125 6.109375 30.078125 6.109375 
Q 37.203125 6.109375 41.296875 11.75 
Q 45.40625 17.390625 45.40625 27.296875 
Q 45.40625 37.203125 41.296875 42.84375 
Q 37.203125 48.484375 30.078125 48.484375 
Q 22.953125 48.484375 18.875 42.84375 
Q 14.796875 37.203125 14.796875 27.296875 
z
" id="DejaVuSans-100"/>
     </defs>
     <g style="fill:#d92523;" transform="translate(18.704688 170.066406)rotate(-90)scale(0.1 -0.1)">
      <use xlink:href="#DejaVuSans-65"/>
      <use x="68.392578" xlink:href="#DejaVuSans-99"/>
      <use x="123.373047" xlink:href="#DejaVuSans-114"/>
      <use x="164.455078" xlink:href="#DejaVuSans-101"/>
      <use x="225.978516" xlink:href="#DejaVuSans-115"/>
      <use x="278.078125" xlink:href="#DejaVuSans-32"/>
      <use x="309.865234" xlink:href="#DejaVuSans-66"/>
      <use x="378.46875" xlink:href="#DejaVuSans-117"/>
      <use x="441.847656" xlink:href="#DejaVuSans-114"/>
      <use x="482.945312" xlink:href="#DejaVuSans-110"/>
      <use x="546.324219" xlink:href="#DejaVuSans-101"/>
      <use x="607.847656" xlink:href="#DejaVuSans-100"/>
     </g>
    </g>
    <g id="text_19">
     <!-- 1e5 -->
     <g transform="translate(54.05 23.8)scale(0.1 -0.1)">
      <use xlink:href="#DejaVuSans-49"/>
      <use x="63.623047" xlink:href="#DejaVuSans-101"/>
      <use x="125.146484" xlink:href="#DejaVuSans-53"/>
     </g>
    </g>
   </g>
   <g id="line2d_17">
    <path clip-path="url(#p2fea421f8c)" d="M 65.892045 235.817394 
L 87.423037 232.803345 
L 108.954029 231.938624 
L 130.485021 231.907085 
L 152.016012 234.917588 
L 173.547004 236.227273 
L 195.077996 236.227019 
L 216.608988 236.218913 
L 238.139979 236.226766 
L 259.670971 235.680853 
L 281.201963 233.014997 
L 302.732955 235.878192 
" style="fill:none;stroke:#fee5d8;stroke-linecap:square;stroke-opacity:0.5;stroke-width:1.5;"/>
   </g>
   <g id="line2d_18">
    <path clip-path="url(#p2fea421f8c)" d="M 65.892045 234.541401 
L 87.423037 229.655794 
L 108.954029 236.21182 
L 130.485021 231.572444 
L 152.016012 235.6578 
L 173.547004 236.218406 
L 195.077996 236.163182 
L 216.608988 236.203207 
L 238.139979 236.198647 
L 259.670971 232.847677 
L 281.201963 229.651741 
L 302.732955 236.138103 
" style="fill:none;stroke:#fedecf;stroke-linecap:square;stroke-opacity:0.5;stroke-width:1.5;"/>
   </g>
   <g id="line2d_19">
    <path clip-path="url(#p2fea421f8c)" d="M 65.892045 236.227273 
L 87.423037 234.30581 
L 108.954029 233.191691 
L 130.485021 224.667591 
L 152.016012 236.191807 
L 173.547004 235.645387 
L 195.077996 236.20422 
L 216.608988 236.227019 
L 238.139979 236.227019 
L 259.670971 216.371736 
L 281.201963 147.58185 
L 302.732955 233.255275 
" style="fill:none;stroke:#fdd3c1;stroke-linecap:square;stroke-opacity:0.5;stroke-width:1.5;"/>
   </g>
   <g id="line2d_20">
    <path clip-path="url(#p2fea421f8c)" d="M 65.892045 235.964829 
L 87.423037 235.6578 
L 108.954029 209.470682 
L 130.485021 161.112392 
L 152.016012 236.196621 
L 173.547004 236.226006 
L 195.077996 236.191301 
L 216.608988 236.0426 
L 238.139979 235.855646 
L 259.670971 235.967616 
L 281.201963 235.061729 
L 302.732955 236.089971 
" style="fill:none;stroke:#fdc9b3;stroke-linecap:square;stroke-opacity:0.5;stroke-width:1.5;"/>
   </g>
   <g id="line2d_21">
    <path clip-path="url(#p2fea421f8c)" d="M 65.892045 236.209287 
L 87.423037 235.979269 
L 108.954029 234.86135 
L 130.485021 227.154473 
L 152.016012 236.173315 
L 173.547004 236.227019 
L 195.077996 236.226513 
L 216.608988 236.224486 
L 238.139979 236.224739 
L 259.670971 234.395487 
L 281.201963 234.172815 
L 302.732955 236.159635 
" style="fill:none;stroke:#fcbea5;stroke-linecap:square;stroke-opacity:0.5;stroke-width:1.5;"/>
   </g>
   <g id="line2d_22">
    <path clip-path="url(#p2fea421f8c)" d="M 65.892045 236.150516 
L 87.423037 233.510119 
L 108.954029 232.302144 
L 130.485021 226.094565 
L 152.016012 235.957989 
L 173.547004 236.225753 
L 195.077996 236.163435 
L 216.608988 236.222206 
L 238.139979 236.225246 
L 259.670971 235.741904 
L 281.201963 235.525059 
L 302.732955 235.986108 
" style="fill:none;stroke:#fcb398;stroke-linecap:square;stroke-opacity:0.5;stroke-width:1.5;"/>
   </g>
   <g id="line2d_23">
    <path clip-path="url(#p2fea421f8c)" d="M 65.892045 236.193074 
L 87.423037 236.124423 
L 108.954029 215.740933 
L 130.485021 232.11633 
L 152.016012 236.21866 
L 173.547004 236.227019 
L 195.077996 236.226513 
L 216.608988 236.21182 
L 238.139979 236.075532 
L 259.670971 234.815245 
L 281.201963 215.457996 
L 302.732955 231.398157 
" style="fill:none;stroke:#fca78b;stroke-linecap:square;stroke-opacity:0.5;stroke-width:1.5;"/>
   </g>
   <g id="line2d_24">
    <path clip-path="url(#p2fea421f8c)" d="M 65.892045 234.95204 
L 87.423037 234.774459 
L 108.954029 219.544872 
L 130.485021 210.942748 
L 152.016012 231.094675 
L 173.547004 235.351025 
L 195.077996 235.30492 
L 216.608988 236.037786 
L 238.139979 235.767996 
L 259.670971 234.153309 
L 281.201963 36.772727 
L 302.732955 233.516452 
" style="fill:none;stroke:#fc9d7f;stroke-linecap:square;stroke-opacity:0.5;stroke-width:1.5;"/>
   </g>
   <g id="line2d_25">
    <path clip-path="url(#p2fea421f8c)" d="M 65.892045 234.366354 
L 87.423037 228.630085 
L 108.954029 211.762252 
L 130.485021 226.071766 
L 152.016012 226.459605 
L 173.547004 236.194087 
L 195.077996 236.219673 
L 216.608988 236.226513 
L 238.139979 236.227019 
L 259.670971 220.442399 
L 281.201963 178.698906 
L 302.732955 236.213087 
" style="fill:none;stroke:#fc9272;stroke-linecap:square;stroke-opacity:0.5;stroke-width:1.5;"/>
   </g>
   <g id="line2d_26">
    <path clip-path="url(#p2fea421f8c)" d="M 65.892045 235.310746 
L 87.423037 231.599803 
L 108.954029 232.93406 
L 130.485021 222.120418 
L 152.016012 234.612585 
L 173.547004 236.20574 
L 195.077996 236.183448 
L 216.608988 236.21866 
L 238.139979 236.153302 
L 259.670971 130.094639 
L 281.201963 131.109455 
L 302.732955 232.040587 
" style="fill:none;stroke:#fc8666;stroke-linecap:square;stroke-opacity:0.5;stroke-width:1.5;"/>
   </g>
   <g id="line2d_27">
    <path clip-path="url(#p2fea421f8c)" d="M 65.892045 235.428795 
L 87.423037 229.257569 
L 108.954029 225.932691 
L 130.485021 230.549268 
L 152.016012 236.179648 
L 173.547004 236.226006 
L 195.077996 236.131263 
L 216.608988 236.111504 
L 238.139979 234.829431 
L 259.670971 235.92911 
L 281.201963 236.143929 
L 302.732955 235.251975 
" style="fill:none;stroke:#fb7b5b;stroke-linecap:square;stroke-opacity:0.5;stroke-width:1.5;"/>
   </g>
   <g id="line2d_28">
    <path clip-path="url(#p2fea421f8c)" d="M 65.892045 236.160142 
L 87.423037 236.226513 
L 108.954029 229.199558 
L 130.485021 229.995502 
L 152.016012 236.192567 
L 173.547004 236.227273 
L 195.077996 236.225246 
L 216.608988 236.227273 
L 238.139979 236.227019 
L 259.670971 233.453881 
L 281.201963 231.312787 
L 302.732955 236.142916 
" style="fill:none;stroke:#fb7050;stroke-linecap:square;stroke-opacity:0.5;stroke-width:1.5;"/>
   </g>
   <g id="line2d_29">
    <path clip-path="url(#p2fea421f8c)" d="M 65.892045 236.194341 
L 87.423037 232.813478 
L 108.954029 231.03489 
L 130.485021 233.40119 
L 152.016012 236.193581 
L 173.547004 236.227273 
L 195.077996 236.227019 
L 216.608988 236.213847 
L 238.139979 236.226259 
L 259.670971 236.082625 
L 281.201963 232.509236 
L 302.732955 236.169768 
" style="fill:none;stroke:#f96346;stroke-linecap:square;stroke-opacity:0.5;stroke-width:1.5;"/>
   </g>
   <g id="line2d_30">
    <path clip-path="url(#p2fea421f8c)" d="M 65.892045 236.139876 
L 87.423037 236.140129 
L 108.954029 235.549884 
L 130.485021 220.538156 
L 152.016012 235.632215 
L 173.547004 236.215366 
L 195.077996 236.20726 
L 216.608988 236.203714 
L 238.139979 236.104664 
L 259.670971 236.145956 
L 281.201963 215.803276 
L 302.732955 235.050076 
" style="fill:none;stroke:#f6563d;stroke-linecap:square;stroke-opacity:0.5;stroke-width:1.5;"/>
   </g>
   <g id="line2d_31">
    <path clip-path="url(#p2fea421f8c)" d="M 65.892045 235.747477 
L 87.423037 229.464535 
L 108.954029 226.351689 
L 130.485021 229.005765 
L 152.016012 235.65514 
L 173.547004 236.197634 
L 195.077996 236.222966 
L 216.608988 236.182688 
L 238.139979 236.224739 
L 259.670971 235.951023 
L 281.201963 231.101768 
L 302.732955 225.717872 
" style="fill:none;stroke:#f34935;stroke-linecap:square;stroke-opacity:0.5;stroke-width:1.5;"/>
   </g>
   <g id="line2d_32">
    <path clip-path="url(#p2fea421f8c)" d="M 65.892045 236.224233 
L 87.423037 235.997255 
L 108.954029 230.013614 
L 130.485021 234.331142 
L 152.016012 235.598522 
L 173.547004 235.426262 
L 195.077996 236.048679 
L 216.608988 236.075278 
L 238.139979 235.144465 
L 259.670971 232.199674 
L 281.201963 234.723288 
L 302.732955 233.922784 
" style="fill:none;stroke:#ef3c2c;stroke-linecap:square;stroke-opacity:0.5;stroke-width:1.5;"/>
   </g>
   <g id="line2d_33">
    <path clip-path="url(#p2fea421f8c)" d="M 65.892045 236.112264 
L 87.423037 233.751284 
L 108.954029 228.806272 
L 130.485021 225.684053 
L 152.016012 233.489853 
L 173.547004 236.22322 
L 195.077996 236.2179 
L 216.608988 236.117583 
L 238.139979 235.758877 
L 259.670971 234.474397 
L 281.201963 226.016035 
L 302.732955 236.179141 
" style="fill:none;stroke:#e53228;stroke-linecap:square;stroke-opacity:0.5;stroke-width:1.5;"/>
   </g>
   <g id="line2d_34">
    <path clip-path="url(#p2fea421f8c)" d="M 65.892045 235.75609 
L 87.423037 234.469964 
L 108.954029 226.41122 
L 130.485021 224.164489 
L 152.016012 235.995481 
L 173.547004 236.2141 
L 195.077996 236.226766 
L 216.608988 236.22398 
L 238.139979 236.223473 
L 259.670971 236.057039 
L 281.201963 218.904976 
L 302.732955 236.198394 
" style="fill:none;stroke:#dc2924;stroke-linecap:square;stroke-opacity:0.5;stroke-width:1.5;"/>
   </g>
   <g id="line2d_35">
    <path clip-path="url(#p2fea421f8c)" d="M 65.892045 236.225499 
L 87.423037 236.227273 
L 108.954029 234.209547 
L 130.485021 206.778861 
L 152.016012 236.16189 
L 173.547004 236.227019 
L 195.077996 235.812835 
L 216.608988 236.090731 
L 238.139979 235.832847 
L 259.670971 211.618237 
L 281.201963 229.083535 
L 302.732955 236.140889 
" style="fill:none;stroke:#d21f20;stroke-linecap:square;stroke-opacity:0.5;stroke-width:1.5;"/>
   </g>
   <g id="line2d_36">
    <path clip-path="url(#p2fea421f8c)" d="M 65.892045 236.21942 
L 87.423037 233.710245 
L 108.954029 235.438928 
L 130.485021 235.170152 
L 152.016012 236.22398 
L 173.547004 236.22398 
L 195.077996 236.20954 
L 216.608988 236.153809 
L 238.139979 236.227019 
L 259.670971 236.054252 
L 281.201963 226.50419 
L 302.732955 235.899978 
" style="fill:none;stroke:#c8171c;stroke-linecap:square;stroke-opacity:0.5;stroke-width:1.5;"/>
   </g>
   <g id="line2d_37">
    <path clip-path="url(#p2fea421f8c)" d="M 65.892045 235.29352 
L 87.423037 235.281361 
L 108.954029 231.454369 
L 130.485021 227.529646 
L 152.016012 236.214353 
L 173.547004 236.160649 
L 195.077996 236.128958 
L 216.608988 236.180408 
L 238.139979 236.204474 
L 259.670971 229.849587 
L 281.201963 217.657102 
L 302.732955 234.352928 
" style="fill:none;stroke:#bd151a;stroke-linecap:square;stroke-opacity:0.5;stroke-width:1.5;"/>
   </g>
   <g id="line2d_38">
    <path clip-path="url(#p2fea421f8c)" d="M 65.892045 235.671226 
L 87.423037 235.451848 
L 108.954029 233.183838 
L 130.485021 226.091525 
L 152.016012 235.334508 
L 173.547004 236.227019 
L 195.077996 236.226994 
L 216.608988 236.227273 
L 238.139979 236.22094 
L 259.670971 236.202447 
L 281.201963 227.244656 
L 302.732955 236.037026 
" style="fill:none;stroke:#b21218;stroke-linecap:square;stroke-opacity:0.5;stroke-width:1.5;"/>
   </g>
   <g id="line2d_39">
    <path clip-path="url(#p2fea421f8c)" d="M 65.892045 236.12873 
L 87.423037 235.385477 
L 108.954029 228.753961 
L 130.485021 217.006566 
L 152.016012 233.231184 
L 173.547004 236.202194 
L 195.077996 236.22246 
L 216.608988 236.226766 
L 238.139979 236.222966 
L 259.670971 236.02056 
L 281.201963 232.972819 
L 302.732955 236.131516 
" style="fill:none;stroke:#a81016;stroke-linecap:square;stroke-opacity:0.5;stroke-width:1.5;"/>
   </g>
   <g id="line2d_40">
    <path clip-path="url(#p2fea421f8c)" d="M 65.892045 236.139623 
L 87.423037 235.645894 
L 108.954029 232.762053 
L 130.485021 233.720885 
L 152.016012 235.696812 
L 173.547004 236.217646 
L 195.077996 236.21334 
L 216.608988 236.223726 
L 238.139979 236.212833 
L 259.670971 236.099597 
L 281.201963 199.955148 
L 302.732955 236.161915 
" style="fill:none;stroke:#980c13;stroke-linecap:square;stroke-opacity:0.5;stroke-width:1.5;"/>
   </g>
   <g id="line2d_41">
    <path clip-path="url(#p2fea421f8c)" d="M 65.892045 235.798923 
L 87.423037 233.869322 
L 108.954029 228.627539 
L 130.485021 223.655292 
L 152.016012 235.053349 
L 173.547004 236.123473 
L 195.077996 236.142977 
L 216.608988 236.178825 
L 238.139979 236.03508 
L 259.670971 228.193719 
L 281.201963 209.874167 
L 302.732955 234.834698 
" style="fill:none;stroke:#ff0000;stroke-dasharray:5.55,2.4;stroke-dashoffset:0;stroke-width:1.5;"/>
   </g>
   <g id="patch_3">
    <path d="M 54.05 246.2 
L 54.05 26.8 
" style="fill:none;stroke:#000000;stroke-linecap:square;stroke-linejoin:miter;stroke-width:0.8;"/>
   </g>
   <g id="patch_4">
    <path d="M 314.575 246.2 
L 314.575 26.8 
" style="fill:none;stroke:#000000;stroke-linecap:square;stroke-linejoin:miter;stroke-width:0.8;"/>
   </g>
   <g id="patch_5">
    <path d="M 54.05 246.2 
L 314.575 246.2 
" style="fill:none;stroke:#000000;stroke-linecap:square;stroke-linejoin:miter;stroke-width:0.8;"/>
   </g>
   <g id="patch_6">
    <path d="M 54.05 26.8 
L 314.575 26.8 
" style="fill:none;stroke:#000000;stroke-linecap:square;stroke-linejoin:miter;stroke-width:0.8;"/>
   </g>
   <g id="text_20">
    <!-- West Virginia -->
    <defs>
     <path d="M 3.328125 72.90625 
L 13.28125 72.90625 
L 28.609375 11.28125 
L 43.890625 72.90625 
L 54.984375 72.90625 
L 70.3125 11.28125 
L 85.59375 72.90625 
L 95.609375 72.90625 
L 77.296875 0 
L 64.890625 0 
L 49.515625 63.28125 
L 33.984375 0 
L 21.578125 0 
z
" id="DejaVuSans-87"/>
     <path d="M 28.609375 0 
L 0.78125 72.90625 
L 11.078125 72.90625 
L 34.1875 11.53125 
L 57.328125 72.90625 
L 67.578125 72.90625 
L 39.796875 0 
z
" id="DejaVuSans-86"/>
     <path d="M 9.421875 54.6875 
L 18.40625 54.6875 
L 18.40625 0 
L 9.421875 0 
z
M 9.421875 75.984375 
L 18.40625 75.984375 
L 18.40625 64.59375 
L 9.421875 64.59375 
z
" id="DejaVuSans-105"/>
     <path d="M 45.40625 27.984375 
Q 45.40625 37.75 41.375 43.109375 
Q 37.359375 48.484375 30.078125 48.484375 
Q 22.859375 48.484375 18.828125 43.109375 
Q 14.796875 37.75 14.796875 27.984375 
Q 14.796875 18.265625 18.828125 12.890625 
Q 22.859375 7.515625 30.078125 7.515625 
Q 37.359375 7.515625 41.375 12.890625 
Q 45.40625 18.265625 45.40625 27.984375 
z
M 54.390625 6.78125 
Q 54.390625 -7.171875 48.1875 -13.984375 
Q 42 -20.796875 29.203125 -20.796875 
Q 24.46875 -20.796875 20.265625 -20.09375 
Q 16.0625 -19.390625 12.109375 -17.921875 
L 12.109375 -9.1875 
Q 16.0625 -11.328125 19.921875 -12.34375 
Q 23.78125 -13.375 27.78125 -13.375 
Q 36.625 -13.375 41.015625 -8.765625 
Q 45.40625 -4.15625 45.40625 5.171875 
L 45.40625 9.625 
Q 42.625 4.78125 38.28125 2.390625 
Q 33.9375 0 27.875 0 
Q 17.828125 0 11.671875 7.65625 
Q 5.515625 15.328125 5.515625 27.984375 
Q 5.515625 40.671875 11.671875 48.328125 
Q 17.828125 56 27.875 56 
Q 33.9375 56 38.28125 53.609375 
Q 42.625 51.21875 45.40625 46.390625 
L 45.40625 54.6875 
L 54.390625 54.6875 
z
" id="DejaVuSans-103"/>
     <path d="M 34.28125 27.484375 
Q 23.390625 27.484375 19.1875 25 
Q 14.984375 22.515625 14.984375 16.5 
Q 14.984375 11.71875 18.140625 8.90625 
Q 21.296875 6.109375 26.703125 6.109375 
Q 34.1875 6.109375 38.703125 11.40625 
Q 43.21875 16.703125 43.21875 25.484375 
L 43.21875 27.484375 
z
M 52.203125 31.203125 
L 52.203125 0 
L 43.21875 0 
L 43.21875 8.296875 
Q 40.140625 3.328125 35.546875 0.953125 
Q 30.953125 -1.421875 24.3125 -1.421875 
Q 15.921875 -1.421875 10.953125 3.296875 
Q 6 8.015625 6 15.921875 
Q 6 25.140625 12.171875 29.828125 
Q 18.359375 34.515625 30.609375 34.515625 
L 43.21875 34.515625 
L 43.21875 35.40625 
Q 43.21875 41.609375 39.140625 45 
Q 35.0625 48.390625 27.6875 48.390625 
Q 23 48.390625 18.546875 47.265625 
Q 14.109375 46.140625 10.015625 43.890625 
L 10.015625 52.203125 
Q 14.9375 54.109375 19.578125 55.046875 
Q 24.21875 56 28.609375 56 
Q 40.484375 56 46.34375 49.84375 
Q 52.203125 43.703125 52.203125 31.203125 
z
" id="DejaVuSans-97"/>
    </defs>
    <g transform="translate(144.450938 20.8)scale(0.12 -0.12)">
     <use xlink:href="#DejaVuSans-87"/>
     <use x="98.798828" xlink:href="#DejaVuSans-101"/>
     <use x="160.322266" xlink:href="#DejaVuSans-115"/>
     <use x="212.421875" xlink:href="#DejaVuSans-116"/>
     <use x="251.630859" xlink:href="#DejaVuSans-32"/>
     <use x="283.417969" xlink:href="#DejaVuSans-86"/>
     <use x="351.794922" xlink:href="#DejaVuSans-105"/>
     <use x="379.578125" xlink:href="#DejaVuSans-114"/>
     <use x="420.675781" xlink:href="#DejaVuSans-103"/>
     <use x="484.152344" xlink:href="#DejaVuSans-105"/>
     <use x="511.935547" xlink:href="#DejaVuSans-110"/>
     <use x="575.314453" xlink:href="#DejaVuSans-105"/>
     <use x="603.097656" xlink:href="#DejaVuSans-97"/>
    </g>
   </g>
  </g>
  <g id="axes_2">
   <g id="matplotlib.axis_3">
    <g id="ytick_5">
     <g id="line2d_42">
      <defs>
       <path d="M 0 0 
L 3.5 0 
" id="m4c6911deb7" style="stroke:#000000;stroke-width:0.8;"/>
      </defs>
      <g>
       <use style="stroke:#000000;stroke-width:0.8;" x="314.575" xlink:href="#m4c6911deb7" y="240.818509"/>
      </g>
     </g>
     <g id="text_21">
      <!-- 20 -->
      <g transform="translate(321.575 244.617728)scale(0.1 -0.1)">
       <use xlink:href="#DejaVuSans-50"/>
       <use x="63.623047" xlink:href="#DejaVuSans-48"/>
      </g>
     </g>
    </g>
    <g id="ytick_6">
     <g id="line2d_43">
      <g>
       <use style="stroke:#000000;stroke-width:0.8;" x="314.575" xlink:href="#m4c6911deb7" y="211.31035"/>
      </g>
     </g>
     <g id="text_22">
      <!-- 30 -->
      <g transform="translate(321.575 215.109569)scale(0.1 -0.1)">
       <use xlink:href="#DejaVuSans-51"/>
       <use x="63.623047" xlink:href="#DejaVuSans-48"/>
      </g>
     </g>
    </g>
    <g id="ytick_7">
     <g id="line2d_44">
      <g>
       <use style="stroke:#000000;stroke-width:0.8;" x="314.575" xlink:href="#m4c6911deb7" y="181.802191"/>
      </g>
     </g>
     <g id="text_23">
      <!-- 40 -->
      <g transform="translate(321.575 185.60141)scale(0.1 -0.1)">
       <use xlink:href="#DejaVuSans-52"/>
       <use x="63.623047" xlink:href="#DejaVuSans-48"/>
      </g>
     </g>
    </g>
    <g id="ytick_8">
     <g id="line2d_45">
      <g>
       <use style="stroke:#000000;stroke-width:0.8;" x="314.575" xlink:href="#m4c6911deb7" y="152.294032"/>
      </g>
     </g>
     <g id="text_24">
      <!-- 50 -->
      <g transform="translate(321.575 156.09325)scale(0.1 -0.1)">
       <use xlink:href="#DejaVuSans-53"/>
       <use x="63.623047" xlink:href="#DejaVuSans-48"/>
      </g>
     </g>
    </g>
    <g id="ytick_9">
     <g id="line2d_46">
      <g>
       <use style="stroke:#000000;stroke-width:0.8;" x="314.575" xlink:href="#m4c6911deb7" y="122.785872"/>
      </g>
     </g>
     <g id="text_25">
      <!-- 60 -->
      <g transform="translate(321.575 126.585091)scale(0.1 -0.1)">
       <use xlink:href="#DejaVuSans-54"/>
       <use x="63.623047" xlink:href="#DejaVuSans-48"/>
      </g>
     </g>
    </g>
    <g id="ytick_10">
     <g id="line2d_47">
      <g>
       <use style="stroke:#000000;stroke-width:0.8;" x="314.575" xlink:href="#m4c6911deb7" y="93.277713"/>
      </g>
     </g>
     <g id="text_26">
      <!-- 70 -->
      <g transform="translate(321.575 97.076932)scale(0.1 -0.1)">
       <use xlink:href="#DejaVuSans-55"/>
       <use x="63.623047" xlink:href="#DejaVuSans-48"/>
      </g>
     </g>
    </g>
    <g id="ytick_11">
     <g id="line2d_48">
      <g>
       <use style="stroke:#000000;stroke-width:0.8;" x="314.575" xlink:href="#m4c6911deb7" y="63.769554"/>
      </g>
     </g>
     <g id="text_27">
      <!-- 80 -->
      <g transform="translate(321.575 67.568773)scale(0.1 -0.1)">
       <use xlink:href="#DejaVuSans-56"/>
       <use x="63.623047" xlink:href="#DejaVuSans-48"/>
      </g>
     </g>
    </g>
    <g id="ytick_12">
     <g id="line2d_49">
      <g>
       <use style="stroke:#000000;stroke-width:0.8;" x="314.575" xlink:href="#m4c6911deb7" y="34.261395"/>
      </g>
     </g>
     <g id="text_28">
      <!-- 90 -->
      <g transform="translate(321.575 38.060613)scale(0.1 -0.1)">
       <use xlink:href="#DejaVuSans-57"/>
       <use x="63.623047" xlink:href="#DejaVuSans-48"/>
      </g>
     </g>
    </g>
    <g id="text_29">
     <!-- Average AQI -->
     <defs>
      <path d="M 2.984375 54.6875 
L 12.5 54.6875 
L 29.59375 8.796875 
L 46.6875 54.6875 
L 56.203125 54.6875 
L 35.6875 0 
L 23.484375 0 
z
" id="DejaVuSans-118"/>
      <path d="M 39.40625 66.21875 
Q 28.65625 66.21875 22.328125 58.203125 
Q 16.015625 50.203125 16.015625 36.375 
Q 16.015625 22.609375 22.328125 14.59375 
Q 28.65625 6.59375 39.40625 6.59375 
Q 50.140625 6.59375 56.421875 14.59375 
Q 62.703125 22.609375 62.703125 36.375 
Q 62.703125 50.203125 56.421875 58.203125 
Q 50.140625 66.21875 39.40625 66.21875 
z
M 53.21875 1.3125 
L 66.21875 -12.890625 
L 54.296875 -12.890625 
L 43.5 -1.21875 
Q 41.890625 -1.3125 41.03125 -1.359375 
Q 40.1875 -1.421875 39.40625 -1.421875 
Q 24.03125 -1.421875 14.8125 8.859375 
Q 5.609375 19.140625 5.609375 36.375 
Q 5.609375 53.65625 14.8125 63.9375 
Q 24.03125 74.21875 39.40625 74.21875 
Q 54.734375 74.21875 63.90625 63.9375 
Q 73.09375 53.65625 73.09375 36.375 
Q 73.09375 23.6875 67.984375 14.640625 
Q 62.890625 5.609375 53.21875 1.3125 
z
" id="DejaVuSans-81"/>
      <path d="M 9.8125 72.90625 
L 19.671875 72.90625 
L 19.671875 0 
L 9.8125 0 
z
" id="DejaVuSans-73"/>
     </defs>
     <g style="fill:#5f5f5f;" transform="translate(341.701563 105.257812)rotate(-270)scale(0.1 -0.1)">
      <use xlink:href="#DejaVuSans-65"/>
      <use x="68.330078" xlink:href="#DejaVuSans-118"/>
      <use x="127.509766" xlink:href="#DejaVuSans-101"/>
      <use x="189.033203" xlink:href="#DejaVuSans-114"/>
      <use x="230.146484" xlink:href="#DejaVuSans-97"/>
      <use x="291.425781" xlink:href="#DejaVuSans-103"/>
      <use x="354.902344" xlink:href="#DejaVuSans-101"/>
      <use x="416.425781" xlink:href="#DejaVuSans-32"/>
      <use x="448.212891" xlink:href="#DejaVuSans-65"/>
      <use x="516.605469" xlink:href="#DejaVuSans-81"/>
      <use x="595.316406" xlink:href="#DejaVuSans-73"/>
     </g>
    </g>
   </g>
   <g id="line2d_50">
    <path clip-path="url(#p2fea421f8c)" d="M 65.892045 112.845366 
L 87.423037 104.356065 
L 108.954029 109.410978 
L 130.485021 91.363898 
L 152.016012 111.73635 
L 173.547004 112.371711 
L 195.077996 112.862564 
L 216.608988 123.071435 
L 238.139979 126.843244 
L 259.670971 109.196169 
L 281.201963 153.228043 
L 302.732955 145.694357 
" style="fill:none;stroke:#f3f3f3;stroke-linecap:square;stroke-opacity:0.5;stroke-width:1.5;"/>
   </g>
   <g id="line2d_51">
    <path clip-path="url(#p2fea421f8c)" d="M 65.892045 136.084536 
L 87.423037 104.561281 
L 108.954029 131.598228 
L 130.485021 93.586614 
L 152.016012 76.24888 
L 173.547004 91.222538 
L 195.077996 73.320879 
L 216.608988 36.772727 
L 238.139979 98.319025 
L 259.670971 108.939736 
L 281.201963 120.042973 
L 302.732955 135.830352 
" style="fill:none;stroke:#eeeeee;stroke-linecap:square;stroke-opacity:0.5;stroke-width:1.5;"/>
   </g>
   <g id="line2d_52">
    <path clip-path="url(#p2fea421f8c)" d="M 65.892045 133.532478 
L 87.423037 113.604595 
L 108.954029 126.093642 
L 130.485021 75.235074 
L 152.016012 93.812113 
L 173.547004 54.691361 
L 195.077996 76.584747 
L 216.608988 87.916807 
L 238.139979 123.073757 
L 259.670971 120.252105 
L 281.201963 134.694522 
L 302.732955 141.012416 
" style="fill:none;stroke:#e8e8e8;stroke-linecap:square;stroke-opacity:0.5;stroke-width:1.5;"/>
   </g>
   <g id="line2d_53">
    <path clip-path="url(#p2fea421f8c)" d="M 65.892045 169.80325 
L 87.423037 157.366014 
L 108.954029 140.327696 
L 130.485021 121.442344 
L 152.016012 129.353568 
L 173.547004 114.054691 
L 195.077996 82.076972 
L 216.608988 75.63494 
L 238.139979 134.677101 
L 259.670971 143.095917 
L 281.201963 169.903178 
L 302.732955 178.632796 
" style="fill:none;stroke:#e1e1e1;stroke-linecap:square;stroke-opacity:0.5;stroke-width:1.5;"/>
   </g>
   <g id="line2d_54">
    <path clip-path="url(#p2fea421f8c)" d="M 65.892045 157.916646 
L 87.423037 158.789425 
L 108.954029 161.054004 
L 130.485021 118.735048 
L 152.016012 136.68245 
L 173.547004 80.302098 
L 195.077996 114.815547 
L 216.608988 85.80846 
L 238.139979 158.684793 
L 259.670971 166.782694 
L 281.201963 186.572003 
L 302.732955 170.632348 
" style="fill:none;stroke:#dbdbdb;stroke-linecap:square;stroke-opacity:0.5;stroke-width:1.5;"/>
   </g>
   <g id="line2d_55">
    <path clip-path="url(#p2fea421f8c)" d="M 65.892045 153.466593 
L 87.423037 163.005664 
L 108.954029 166.380295 
L 130.485021 108.909062 
L 152.016012 127.646953 
L 173.547004 124.713099 
L 195.077996 73.540725 
L 216.608988 118.216367 
L 238.139979 131.030564 
L 259.670971 125.883457 
L 281.201963 179.460783 
L 302.732955 171.354289 
" style="fill:none;stroke:#d4d4d4;stroke-linecap:square;stroke-opacity:0.5;stroke-width:1.5;"/>
   </g>
   <g id="line2d_56">
    <path clip-path="url(#p2fea421f8c)" d="M 65.892045 171.997117 
L 87.423037 171.656591 
L 108.954029 181.050933 
L 130.485021 107.274151 
L 152.016012 79.773577 
L 173.547004 106.893163 
L 195.077996 66.48863 
L 216.608988 42.348524 
L 238.139979 67.838485 
L 259.670971 144.652175 
L 281.201963 146.401104 
L 302.732955 150.235323 
" style="fill:none;stroke:#cccccc;stroke-linecap:square;stroke-opacity:0.5;stroke-width:1.5;"/>
   </g>
   <g id="line2d_57">
    <path clip-path="url(#p2fea421f8c)" d="M 65.892045 149.491931 
L 87.423037 140.963931 
L 108.954029 137.221805 
L 130.485021 118.518652 
L 152.016012 78.653181 
L 173.547004 72.711647 
L 195.077996 43.121022 
L 216.608988 74.858561 
L 238.139979 106.456042 
L 259.670971 123.803146 
L 281.201963 141.877972 
L 302.732955 148.896606 
" style="fill:none;stroke:#c5c5c5;stroke-linecap:square;stroke-opacity:0.5;stroke-width:1.5;"/>
   </g>
   <g id="line2d_58">
    <path clip-path="url(#p2fea421f8c)" d="M 65.892045 146.729217 
L 87.423037 147.653636 
L 108.954029 140.63721 
L 130.485021 135.859822 
L 152.016012 94.394611 
L 173.547004 88.844396 
L 195.077996 104.026608 
L 216.608988 116.383288 
L 238.139979 147.936014 
L 259.670971 100.973386 
L 281.201963 159.472312 
L 302.732955 155.131063 
" style="fill:none;stroke:#bdbdbd;stroke-linecap:square;stroke-opacity:0.5;stroke-width:1.5;"/>
   </g>
   <g id="line2d_59">
    <path clip-path="url(#p2fea421f8c)" d="M 65.892045 145.751566 
L 87.423037 151.861127 
L 108.954029 165.889916 
L 130.485021 113.967736 
L 152.016012 101.303674 
L 173.547004 87.355731 
L 195.077996 110.331983 
L 216.608988 87.75389 
L 238.139979 137.607322 
L 259.670971 138.174119 
L 281.201963 135.667025 
L 302.732955 175.345894 
" style="fill:none;stroke:#b2b2b2;stroke-linecap:square;stroke-opacity:0.5;stroke-width:1.5;"/>
   </g>
   <g id="line2d_60">
    <path clip-path="url(#p2fea421f8c)" d="M 65.892045 159.719385 
L 87.423037 153.924317 
L 108.954029 160.876176 
L 130.485021 147.84086 
L 152.016012 122.212834 
L 173.547004 73.067663 
L 195.077996 70.413819 
L 216.608988 81.349859 
L 238.139979 109.668154 
L 259.670971 180.489244 
L 281.201963 171.899712 
L 302.732955 167.559391 
" style="fill:none;stroke:#a7a7a7;stroke-linecap:square;stroke-opacity:0.5;stroke-width:1.5;"/>
   </g>
   <g id="line2d_61">
    <path clip-path="url(#p2fea421f8c)" d="M 65.892045 169.783918 
L 87.423037 159.001179 
L 108.954029 140.307715 
L 130.485021 122.974079 
L 152.016012 145.807494 
L 173.547004 104.648821 
L 195.077996 118.155463 
L 216.608988 104.418018 
L 238.139979 157.263827 
L 259.670971 154.248127 
L 281.201963 154.754342 
L 302.732955 186.017642 
" style="fill:none;stroke:#9c9c9c;stroke-linecap:square;stroke-opacity:0.5;stroke-width:1.5;"/>
   </g>
   <g id="line2d_62">
    <path clip-path="url(#p2fea421f8c)" d="M 65.892045 177.600406 
L 87.423037 152.158819 
L 108.954029 162.097631 
L 130.485021 141.75341 
L 152.016012 127.589218 
L 173.547004 142.306655 
L 195.077996 129.539082 
L 216.608988 123.712899 
L 238.139979 143.300106 
L 259.670971 164.339918 
L 281.201963 180.727751 
L 302.732955 168.829444 
" style="fill:none;stroke:#919191;stroke-linecap:square;stroke-opacity:0.5;stroke-width:1.5;"/>
   </g>
   <g id="line2d_63">
    <path clip-path="url(#p2fea421f8c)" d="M 65.892045 161.514373 
L 87.423037 158.587365 
L 108.954029 152.795114 
L 130.485021 130.52838 
L 152.016012 135.564018 
L 173.547004 112.985668 
L 195.077996 113.717989 
L 216.608988 111.145817 
L 238.139979 117.809724 
L 259.670971 171.532261 
L 281.201963 161.977456 
L 302.732955 171.843187 
" style="fill:none;stroke:#878787;stroke-linecap:square;stroke-opacity:0.5;stroke-width:1.5;"/>
   </g>
   <g id="line2d_64">
    <path clip-path="url(#p2fea421f8c)" d="M 65.892045 181.471567 
L 87.423037 172.842115 
L 108.954029 165.493738 
L 130.485021 131.715603 
L 152.016012 140.367532 
L 173.547004 123.818658 
L 195.077996 110.323094 
L 216.608988 107.388227 
L 238.139979 166.188924 
L 259.670971 175.45554 
L 281.201963 156.27085 
L 302.732955 168.317457 
" style="fill:none;stroke:#7d7d7d;stroke-linecap:square;stroke-opacity:0.5;stroke-width:1.5;"/>
   </g>
   <g id="line2d_65">
    <path clip-path="url(#p2fea421f8c)" d="M 65.892045 181.366555 
L 87.423037 159.295346 
L 108.954029 156.352414 
L 130.485021 147.333547 
L 152.016012 97.401993 
L 173.547004 104.975086 
L 195.077996 121.767875 
L 216.608988 86.244822 
L 238.139979 112.836789 
L 259.670971 161.537634 
L 281.201963 167.862129 
L 302.732955 177.332316 
" style="fill:none;stroke:#737373;stroke-linecap:square;stroke-opacity:0.5;stroke-width:1.5;"/>
   </g>
   <g id="line2d_66">
    <path clip-path="url(#p2fea421f8c)" d="M 65.892045 173.689573 
L 87.423037 182.989714 
L 108.954029 172.354621 
L 130.485021 148.765729 
L 152.016012 130.778525 
L 173.547004 145.585702 
L 195.077996 126.635658 
L 216.608988 139.001824 
L 238.139979 155.4009 
L 259.670971 181.566126 
L 281.201963 191.432504 
L 302.732955 203.131187 
" style="fill:none;stroke:#6a6a6a;stroke-linecap:square;stroke-opacity:0.5;stroke-width:1.5;"/>
   </g>
   <g id="line2d_67">
    <path clip-path="url(#p2fea421f8c)" d="M 65.892045 172.144975 
L 87.423037 163.430393 
L 108.954029 176.712033 
L 130.485021 154.305952 
L 152.016012 169.225757 
L 173.547004 154.558783 
L 195.077996 165.774673 
L 216.608988 151.938017 
L 238.139979 180.174642 
L 259.670971 200.812516 
L 281.201963 173.131465 
L 302.732955 195.913355 
" style="fill:none;stroke:#626262;stroke-linecap:square;stroke-opacity:0.5;stroke-width:1.5;"/>
   </g>
   <g id="line2d_68">
    <path clip-path="url(#p2fea421f8c)" d="M 65.892045 195.316928 
L 87.423037 185.463722 
L 108.954029 196.465603 
L 130.485021 143.00993 
L 152.016012 168.583958 
L 173.547004 159.023331 
L 195.077996 136.786699 
L 216.608988 137.102537 
L 238.139979 172.864827 
L 259.670971 191.360575 
L 281.201963 194.729978 
L 302.732955 208.805399 
" style="fill:none;stroke:#585858;stroke-linecap:square;stroke-opacity:0.5;stroke-width:1.5;"/>
   </g>
   <g id="line2d_69">
    <path clip-path="url(#p2fea421f8c)" d="M 65.892045 200.965633 
L 87.423037 203.918702 
L 108.954029 218.930497 
L 130.485021 180.549005 
L 152.016012 176.563126 
L 173.547004 152.852681 
L 195.077996 138.727389 
L 216.608988 158.081069 
L 238.139979 191.188527 
L 259.670971 200.070559 
L 281.201963 193.291106 
L 302.732955 199.868799 
" style="fill:none;stroke:#4e4e4e;stroke-linecap:square;stroke-opacity:0.5;stroke-width:1.5;"/>
   </g>
   <g id="line2d_70">
    <path clip-path="url(#p2fea421f8c)" d="M 65.892045 219.199807 
L 87.423037 212.023946 
L 108.954029 205.26651 
L 130.485021 170.327645 
L 152.016012 149.224887 
L 173.547004 138.343315 
L 195.077996 132.681148 
L 216.608988 139.831777 
L 238.139979 189.220952 
L 259.670971 200.189185 
L 281.201963 204.27523 
L 302.732955 217.40933 
" style="fill:none;stroke:#414141;stroke-linecap:square;stroke-opacity:0.5;stroke-width:1.5;"/>
   </g>
   <g id="line2d_71">
    <path clip-path="url(#p2fea421f8c)" d="M 65.892045 206.532839 
L 87.423037 215.279775 
L 108.954029 220.153489 
L 130.485021 165.734076 
L 152.016012 173.886274 
L 173.547004 165.940587 
L 195.077996 183.185155 
L 216.608988 181.579207 
L 238.139979 187.764508 
L 259.670971 207.39795 
L 281.201963 234.241045 
L 302.732955 223.067936 
" style="fill:none;stroke:#353535;stroke-linecap:square;stroke-opacity:0.5;stroke-width:1.5;"/>
   </g>
   <g id="line2d_72">
    <path clip-path="url(#p2fea421f8c)" d="M 65.892045 221.348817 
L 87.423037 200.344197 
L 108.954029 215.792602 
L 130.485021 169.150276 
L 152.016012 172.160836 
L 173.547004 171.363877 
L 195.077996 170.793378 
L 216.608988 172.572401 
L 238.139979 198.453224 
L 259.670971 213.909514 
L 281.201963 229.385315 
L 302.732955 221.460783 
" style="fill:none;stroke:#282828;stroke-linecap:square;stroke-opacity:0.5;stroke-width:1.5;"/>
   </g>
   <g id="line2d_73">
    <path clip-path="url(#p2fea421f8c)" d="M 65.892045 220.537505 
L 87.423037 216.096302 
L 108.954029 218.964029 
L 130.485021 180.734874 
L 152.016012 157.47317 
L 173.547004 179.886886 
L 195.077996 169.724433 
L 216.608988 172.495771 
L 238.139979 181.371531 
L 259.670971 211.871688 
L 281.201963 236.227273 
L 302.732955 232.862878 
" style="fill:none;stroke:#1d1d1d;stroke-linecap:square;stroke-opacity:0.5;stroke-width:1.5;"/>
   </g>
   <g id="line2d_74">
    <path clip-path="url(#p2fea421f8c)" d="M 65.892045 171.617124 
L 87.423037 164.548926 
L 108.954029 167.592787 
L 130.485021 134.150657 
L 152.016012 129.018541 
L 173.547004 119.271589 
L 195.077996 114.39148 
L 216.608988 113.151135 
L 238.139979 145.665541 
L 259.670971 162.355572 
L 281.201963 174.063586 
L 302.732955 179.799356 
" style="fill:none;stroke:#000000;stroke-dasharray:5.55,2.4;stroke-dashoffset:0;stroke-width:1.5;"/>
   </g>
   <g id="patch_7">
    <path d="M 54.05 246.2 
L 54.05 26.8 
" style="fill:none;stroke:#000000;stroke-linecap:square;stroke-linejoin:miter;stroke-width:0.8;"/>
   </g>
   <g id="patch_8">
    <path d="M 314.575 246.2 
L 314.575 26.8 
" style="fill:none;stroke:#000000;stroke-linecap:square;stroke-linejoin:miter;stroke-width:0.8;"/>
   </g>
   <g id="patch_9">
    <path d="M 54.05 246.2 
L 314.575 246.2 
" style="fill:none;stroke:#000000;stroke-linecap:square;stroke-linejoin:miter;stroke-width:0.8;"/>
   </g>
   <g id="patch_10">
    <path d="M 54.05 26.8 
L 314.575 26.8 
" style="fill:none;stroke:#000000;stroke-linecap:square;stroke-linejoin:miter;stroke-width:0.8;"/>
   </g>
  </g>
 </g>
 <defs>
  <clipPath id="p2fea421f8c">
   <rect height="219.4" width="260.525" x="54.05" y="26.8"/>
  </clipPath>
 </defs>
</svg>
