<?xml version="1.0" encoding="utf-8" standalone="no"?>
<!DOCTYPE svg PUBLIC "-//W3C//DTD SVG 1.1//EN"
  "http://www.w3.org/Graphics/SVG/1.1/DTD/svg11.dtd">
<!-- Created with matplotlib (https://matplotlib.org/) -->
<svg height="288pt" version="1.1" viewBox="0 0 360 288" width="360pt" xmlns="http://www.w3.org/2000/svg" xmlns:xlink="http://www.w3.org/1999/xlink">
 <defs>
  <style type="text/css">
*{stroke-linecap:butt;stroke-linejoin:round;}
  </style>
 </defs>
 <g id="figure_1">
  <g id="patch_1">
   <path d="M 0 288 
L 360 288 
L 360 0 
L 0 0 
z
" style="fill:#ffffff;"/>
  </g>
  <g id="axes_1">
   <g id="patch_2">
    <path d="M 47.8 246.2 
L 314.575 246.2 
L 314.575 26.8 
L 47.8 26.8 
z
" style="fill:#ffffff;"/>
   </g>
   <g id="matplotlib.axis_1">
    <g id="xtick_1">
     <g id="line2d_1">
      <defs>
       <path d="M 0 0 
L 0 3.5 
" id="me33467b02a" style="stroke:#000000;stroke-width:0.8;"/>
      </defs>
      <g>
       <use style="stroke:#000000;stroke-width:0.8;" x="59.926136" xlink:href="#me33467b02a" y="246.2"/>
      </g>
     </g>
     <g id="text_1">
      <!-- 1 -->
      <defs>
       <path d="M 12.40625 8.296875 
L 28.515625 8.296875 
L 28.515625 63.921875 
L 10.984375 60.40625 
L 10.984375 69.390625 
L 28.421875 72.90625 
L 38.28125 72.90625 
L 38.28125 8.296875 
L 54.390625 8.296875 
L 54.390625 0 
L 12.40625 0 
z
" id="DejaVuSans-49"/>
      </defs>
      <g transform="translate(56.744886 260.798437)scale(0.1 -0.1)">
       <use xlink:href="#DejaVuSans-49"/>
      </g>
     </g>
    </g>
    <g id="xtick_2">
     <g id="line2d_2">
      <g>
       <use style="stroke:#000000;stroke-width:0.8;" x="81.973657" xlink:href="#me33467b02a" y="246.2"/>
      </g>
     </g>
     <g id="text_2">
      <!-- 2 -->
      <defs>
       <path d="M 19.1875 8.296875 
L 53.609375 8.296875 
L 53.609375 0 
L 7.328125 0 
L 7.328125 8.296875 
Q 12.9375 14.109375 22.625 23.890625 
Q 32.328125 33.6875 34.8125 36.53125 
Q 39.546875 41.84375 41.421875 45.53125 
Q 43.3125 49.21875 43.3125 52.78125 
Q 43.3125 58.59375 39.234375 62.25 
Q 35.15625 65.921875 28.609375 65.921875 
Q 23.96875 65.921875 18.8125 64.3125 
Q 13.671875 62.703125 7.8125 59.421875 
L 7.8125 69.390625 
Q 13.765625 71.78125 18.9375 73 
Q 24.125 74.21875 28.421875 74.21875 
Q 39.75 74.21875 46.484375 68.546875 
Q 53.21875 62.890625 53.21875 53.421875 
Q 53.21875 48.921875 51.53125 44.890625 
Q 49.859375 40.875 45.40625 35.40625 
Q 44.1875 33.984375 37.640625 27.21875 
Q 31.109375 20.453125 19.1875 8.296875 
z
" id="DejaVuSans-50"/>
      </defs>
      <g transform="translate(78.792407 260.798437)scale(0.1 -0.1)">
       <use xlink:href="#DejaVuSans-50"/>
      </g>
     </g>
    </g>
    <g id="xtick_3">
     <g id="line2d_3">
      <g>
       <use style="stroke:#000000;stroke-width:0.8;" x="104.021178" xlink:href="#me33467b02a" y="246.2"/>
      </g>
     </g>
     <g id="text_3">
      <!-- 3 -->
      <defs>
       <path d="M 40.578125 39.3125 
Q 47.65625 37.796875 51.625 33 
Q 55.609375 28.21875 55.609375 21.1875 
Q 55.609375 10.40625 48.1875 4.484375 
Q 40.765625 -1.421875 27.09375 -1.421875 
Q 22.515625 -1.421875 17.65625 -0.515625 
Q 12.796875 0.390625 7.625 2.203125 
L 7.625 11.71875 
Q 11.71875 9.328125 16.59375 8.109375 
Q 21.484375 6.890625 26.8125 6.890625 
Q 36.078125 6.890625 40.9375 10.546875 
Q 45.796875 14.203125 45.796875 21.1875 
Q 45.796875 27.640625 41.28125 31.265625 
Q 36.765625 34.90625 28.71875 34.90625 
L 20.21875 34.90625 
L 20.21875 43.015625 
L 29.109375 43.015625 
Q 36.375 43.015625 40.234375 45.921875 
Q 44.09375 48.828125 44.09375 54.296875 
Q 44.09375 59.90625 40.109375 62.90625 
Q 36.140625 65.921875 28.71875 65.921875 
Q 24.65625 65.921875 20.015625 65.03125 
Q 15.375 64.15625 9.8125 62.3125 
L 9.8125 71.09375 
Q 15.4375 72.65625 20.34375 73.4375 
Q 25.25 74.21875 29.59375 74.21875 
Q 40.828125 74.21875 47.359375 69.109375 
Q 53.90625 64.015625 53.90625 55.328125 
Q 53.90625 49.265625 50.4375 45.09375 
Q 46.96875 40.921875 40.578125 39.3125 
z
" id="DejaVuSans-51"/>
      </defs>
      <g transform="translate(100.839928 260.798437)scale(0.1 -0.1)">
       <use xlink:href="#DejaVuSans-51"/>
      </g>
     </g>
    </g>
    <g id="xtick_4">
     <g id="line2d_4">
      <g>
       <use style="stroke:#000000;stroke-width:0.8;" x="126.068698" xlink:href="#me33467b02a" y="246.2"/>
      </g>
     </g>
     <g id="text_4">
      <!-- 4 -->
      <defs>
       <path d="M 37.796875 64.3125 
L 12.890625 25.390625 
L 37.796875 25.390625 
z
M 35.203125 72.90625 
L 47.609375 72.90625 
L 47.609375 25.390625 
L 58.015625 25.390625 
L 58.015625 17.1875 
L 47.609375 17.1875 
L 47.609375 0 
L 37.796875 0 
L 37.796875 17.1875 
L 4.890625 17.1875 
L 4.890625 26.703125 
z
" id="DejaVuSans-52"/>
      </defs>
      <g transform="translate(122.887448 260.798437)scale(0.1 -0.1)">
       <use xlink:href="#DejaVuSans-52"/>
      </g>
     </g>
    </g>
    <g id="xtick_5">
     <g id="line2d_5">
      <g>
       <use style="stroke:#000000;stroke-width:0.8;" x="148.116219" xlink:href="#me33467b02a" y="246.2"/>
      </g>
     </g>
     <g id="text_5">
      <!-- 5 -->
      <defs>
       <path d="M 10.796875 72.90625 
L 49.515625 72.90625 
L 49.515625 64.59375 
L 19.828125 64.59375 
L 19.828125 46.734375 
Q 21.96875 47.46875 24.109375 47.828125 
Q 26.265625 48.1875 28.421875 48.1875 
Q 40.625 48.1875 47.75 41.5 
Q 54.890625 34.8125 54.890625 23.390625 
Q 54.890625 11.625 47.5625 5.09375 
Q 40.234375 -1.421875 26.90625 -1.421875 
Q 22.3125 -1.421875 17.546875 -0.640625 
Q 12.796875 0.140625 7.71875 1.703125 
L 7.71875 11.625 
Q 12.109375 9.234375 16.796875 8.0625 
Q 21.484375 6.890625 26.703125 6.890625 
Q 35.15625 6.890625 40.078125 11.328125 
Q 45.015625 15.765625 45.015625 23.390625 
Q 45.015625 31 40.078125 35.4375 
Q 35.15625 39.890625 26.703125 39.890625 
Q 22.75 39.890625 18.8125 39.015625 
Q 14.890625 38.140625 10.796875 36.28125 
z
" id="DejaVuSans-53"/>
      </defs>
      <g transform="translate(144.934969 260.798437)scale(0.1 -0.1)">
       <use xlink:href="#DejaVuSans-53"/>
      </g>
     </g>
    </g>
    <g id="xtick_6">
     <g id="line2d_6">
      <g>
       <use style="stroke:#000000;stroke-width:0.8;" x="170.16374" xlink:href="#me33467b02a" y="246.2"/>
      </g>
     </g>
     <g id="text_6">
      <!-- 6 -->
      <defs>
       <path d="M 33.015625 40.375 
Q 26.375 40.375 22.484375 35.828125 
Q 18.609375 31.296875 18.609375 23.390625 
Q 18.609375 15.53125 22.484375 10.953125 
Q 26.375 6.390625 33.015625 6.390625 
Q 39.65625 6.390625 43.53125 10.953125 
Q 47.40625 15.53125 47.40625 23.390625 
Q 47.40625 31.296875 43.53125 35.828125 
Q 39.65625 40.375 33.015625 40.375 
z
M 52.59375 71.296875 
L 52.59375 62.3125 
Q 48.875 64.0625 45.09375 64.984375 
Q 41.3125 65.921875 37.59375 65.921875 
Q 27.828125 65.921875 22.671875 59.328125 
Q 17.53125 52.734375 16.796875 39.40625 
Q 19.671875 43.65625 24.015625 45.921875 
Q 28.375 48.1875 33.59375 48.1875 
Q 44.578125 48.1875 50.953125 41.515625 
Q 57.328125 34.859375 57.328125 23.390625 
Q 57.328125 12.15625 50.6875 5.359375 
Q 44.046875 -1.421875 33.015625 -1.421875 
Q 20.359375 -1.421875 13.671875 8.265625 
Q 6.984375 17.96875 6.984375 36.375 
Q 6.984375 53.65625 15.1875 63.9375 
Q 23.390625 74.21875 37.203125 74.21875 
Q 40.921875 74.21875 44.703125 73.484375 
Q 48.484375 72.75 52.59375 71.296875 
z
" id="DejaVuSans-54"/>
      </defs>
      <g transform="translate(166.98249 260.798437)scale(0.1 -0.1)">
       <use xlink:href="#DejaVuSans-54"/>
      </g>
     </g>
    </g>
    <g id="xtick_7">
     <g id="line2d_7">
      <g>
       <use style="stroke:#000000;stroke-width:0.8;" x="192.21126" xlink:href="#me33467b02a" y="246.2"/>
      </g>
     </g>
     <g id="text_7">
      <!-- 7 -->
      <defs>
       <path d="M 8.203125 72.90625 
L 55.078125 72.90625 
L 55.078125 68.703125 
L 28.609375 0 
L 18.3125 0 
L 43.21875 64.59375 
L 8.203125 64.59375 
z
" id="DejaVuSans-55"/>
      </defs>
      <g transform="translate(189.03001 260.798437)scale(0.1 -0.1)">
       <use xlink:href="#DejaVuSans-55"/>
      </g>
     </g>
    </g>
    <g id="xtick_8">
     <g id="line2d_8">
      <g>
       <use style="stroke:#000000;stroke-width:0.8;" x="214.258781" xlink:href="#me33467b02a" y="246.2"/>
      </g>
     </g>
     <g id="text_8">
      <!-- 8 -->
      <defs>
       <path d="M 31.78125 34.625 
Q 24.75 34.625 20.71875 30.859375 
Q 16.703125 27.09375 16.703125 20.515625 
Q 16.703125 13.921875 20.71875 10.15625 
Q 24.75 6.390625 31.78125 6.390625 
Q 38.8125 6.390625 42.859375 10.171875 
Q 46.921875 13.96875 46.921875 20.515625 
Q 46.921875 27.09375 42.890625 30.859375 
Q 38.875 34.625 31.78125 34.625 
z
M 21.921875 38.8125 
Q 15.578125 40.375 12.03125 44.71875 
Q 8.5 49.078125 8.5 55.328125 
Q 8.5 64.0625 14.71875 69.140625 
Q 20.953125 74.21875 31.78125 74.21875 
Q 42.671875 74.21875 48.875 69.140625 
Q 55.078125 64.0625 55.078125 55.328125 
Q 55.078125 49.078125 51.53125 44.71875 
Q 48 40.375 41.703125 38.8125 
Q 48.828125 37.15625 52.796875 32.3125 
Q 56.78125 27.484375 56.78125 20.515625 
Q 56.78125 9.90625 50.3125 4.234375 
Q 43.84375 -1.421875 31.78125 -1.421875 
Q 19.734375 -1.421875 13.25 4.234375 
Q 6.78125 9.90625 6.78125 20.515625 
Q 6.78125 27.484375 10.78125 32.3125 
Q 14.796875 37.15625 21.921875 38.8125 
z
M 18.3125 54.390625 
Q 18.3125 48.734375 21.84375 45.5625 
Q 25.390625 42.390625 31.78125 42.390625 
Q 38.140625 42.390625 41.71875 45.5625 
Q 45.3125 48.734375 45.3125 54.390625 
Q 45.3125 60.0625 41.71875 63.234375 
Q 38.140625 66.40625 31.78125 66.40625 
Q 25.390625 66.40625 21.84375 63.234375 
Q 18.3125 60.0625 18.3125 54.390625 
z
" id="DejaVuSans-56"/>
      </defs>
      <g transform="translate(211.077531 260.798437)scale(0.1 -0.1)">
       <use xlink:href="#DejaVuSans-56"/>
      </g>
     </g>
    </g>
    <g id="xtick_9">
     <g id="line2d_9">
      <g>
       <use style="stroke:#000000;stroke-width:0.8;" x="236.306302" xlink:href="#me33467b02a" y="246.2"/>
      </g>
     </g>
     <g id="text_9">
      <!-- 9 -->
      <defs>
       <path d="M 10.984375 1.515625 
L 10.984375 10.5 
Q 14.703125 8.734375 18.5 7.8125 
Q 22.3125 6.890625 25.984375 6.890625 
Q 35.75 6.890625 40.890625 13.453125 
Q 46.046875 20.015625 46.78125 33.40625 
Q 43.953125 29.203125 39.59375 26.953125 
Q 35.25 24.703125 29.984375 24.703125 
Q 19.046875 24.703125 12.671875 31.3125 
Q 6.296875 37.9375 6.296875 49.421875 
Q 6.296875 60.640625 12.9375 67.421875 
Q 19.578125 74.21875 30.609375 74.21875 
Q 43.265625 74.21875 49.921875 64.515625 
Q 56.59375 54.828125 56.59375 36.375 
Q 56.59375 19.140625 48.40625 8.859375 
Q 40.234375 -1.421875 26.421875 -1.421875 
Q 22.703125 -1.421875 18.890625 -0.6875 
Q 15.09375 0.046875 10.984375 1.515625 
z
M 30.609375 32.421875 
Q 37.25 32.421875 41.125 36.953125 
Q 45.015625 41.5 45.015625 49.421875 
Q 45.015625 57.28125 41.125 61.84375 
Q 37.25 66.40625 30.609375 66.40625 
Q 23.96875 66.40625 20.09375 61.84375 
Q 16.21875 57.28125 16.21875 49.421875 
Q 16.21875 41.5 20.09375 36.953125 
Q 23.96875 32.421875 30.609375 32.421875 
z
" id="DejaVuSans-57"/>
      </defs>
      <g transform="translate(233.125052 260.798437)scale(0.1 -0.1)">
       <use xlink:href="#DejaVuSans-57"/>
      </g>
     </g>
    </g>
    <g id="xtick_10">
     <g id="line2d_10">
      <g>
       <use style="stroke:#000000;stroke-width:0.8;" x="258.353822" xlink:href="#me33467b02a" y="246.2"/>
      </g>
     </g>
     <g id="text_10">
      <!-- 10 -->
      <defs>
       <path d="M 31.78125 66.40625 
Q 24.171875 66.40625 20.328125 58.90625 
Q 16.5 51.421875 16.5 36.375 
Q 16.5 21.390625 20.328125 13.890625 
Q 24.171875 6.390625 31.78125 6.390625 
Q 39.453125 6.390625 43.28125 13.890625 
Q 47.125 21.390625 47.125 36.375 
Q 47.125 51.421875 43.28125 58.90625 
Q 39.453125 66.40625 31.78125 66.40625 
z
M 31.78125 74.21875 
Q 44.046875 74.21875 50.515625 64.515625 
Q 56.984375 54.828125 56.984375 36.375 
Q 56.984375 17.96875 50.515625 8.265625 
Q 44.046875 -1.421875 31.78125 -1.421875 
Q 19.53125 -1.421875 13.0625 8.265625 
Q 6.59375 17.96875 6.59375 36.375 
Q 6.59375 54.828125 13.0625 64.515625 
Q 19.53125 74.21875 31.78125 74.21875 
z
" id="DejaVuSans-48"/>
      </defs>
      <g transform="translate(251.991322 260.798437)scale(0.1 -0.1)">
       <use xlink:href="#DejaVuSans-49"/>
       <use x="63.623047" xlink:href="#DejaVuSans-48"/>
      </g>
     </g>
    </g>
    <g id="xtick_11">
     <g id="line2d_11">
      <g>
       <use style="stroke:#000000;stroke-width:0.8;" x="280.401343" xlink:href="#me33467b02a" y="246.2"/>
      </g>
     </g>
     <g id="text_11">
      <!-- 11 -->
      <g transform="translate(274.038843 260.798437)scale(0.1 -0.1)">
       <use xlink:href="#DejaVuSans-49"/>
       <use x="63.623047" xlink:href="#DejaVuSans-49"/>
      </g>
     </g>
    </g>
    <g id="xtick_12">
     <g id="line2d_12">
      <g>
       <use style="stroke:#000000;stroke-width:0.8;" x="302.448864" xlink:href="#me33467b02a" y="246.2"/>
      </g>
     </g>
     <g id="text_12">
      <!-- 12 -->
      <g transform="translate(296.086364 260.798437)scale(0.1 -0.1)">
       <use xlink:href="#DejaVuSans-49"/>
       <use x="63.623047" xlink:href="#DejaVuSans-50"/>
      </g>
     </g>
    </g>
    <g id="text_13">
     <!-- Month -->
     <defs>
      <path d="M 9.8125 72.90625 
L 24.515625 72.90625 
L 43.109375 23.296875 
L 61.8125 72.90625 
L 76.515625 72.90625 
L 76.515625 0 
L 66.890625 0 
L 66.890625 64.015625 
L 48.09375 14.015625 
L 38.1875 14.015625 
L 19.390625 64.015625 
L 19.390625 0 
L 9.8125 0 
z
" id="DejaVuSans-77"/>
      <path d="M 30.609375 48.390625 
Q 23.390625 48.390625 19.1875 42.75 
Q 14.984375 37.109375 14.984375 27.296875 
Q 14.984375 17.484375 19.15625 11.84375 
Q 23.34375 6.203125 30.609375 6.203125 
Q 37.796875 6.203125 41.984375 11.859375 
Q 46.1875 17.53125 46.1875 27.296875 
Q 46.1875 37.015625 41.984375 42.703125 
Q 37.796875 48.390625 30.609375 48.390625 
z
M 30.609375 56 
Q 42.328125 56 49.015625 48.375 
Q 55.71875 40.765625 55.71875 27.296875 
Q 55.71875 13.875 49.015625 6.21875 
Q 42.328125 -1.421875 30.609375 -1.421875 
Q 18.84375 -1.421875 12.171875 6.21875 
Q 5.515625 13.875 5.515625 27.296875 
Q 5.515625 40.765625 12.171875 48.375 
Q 18.84375 56 30.609375 56 
z
" id="DejaVuSans-111"/>
      <path d="M 54.890625 33.015625 
L 54.890625 0 
L 45.90625 0 
L 45.90625 32.71875 
Q 45.90625 40.484375 42.875 44.328125 
Q 39.84375 48.1875 33.796875 48.1875 
Q 26.515625 48.1875 22.3125 43.546875 
Q 18.109375 38.921875 18.109375 30.90625 
L 18.109375 0 
L 9.078125 0 
L 9.078125 54.6875 
L 18.109375 54.6875 
L 18.109375 46.1875 
Q 21.34375 51.125 25.703125 53.5625 
Q 30.078125 56 35.796875 56 
Q 45.21875 56 50.046875 50.171875 
Q 54.890625 44.34375 54.890625 33.015625 
z
" id="DejaVuSans-110"/>
      <path d="M 18.3125 70.21875 
L 18.3125 54.6875 
L 36.8125 54.6875 
L 36.8125 47.703125 
L 18.3125 47.703125 
L 18.3125 18.015625 
Q 18.3125 11.328125 20.140625 9.421875 
Q 21.96875 7.515625 27.59375 7.515625 
L 36.8125 7.515625 
L 36.8125 0 
L 27.59375 0 
Q 17.1875 0 13.234375 3.875 
Q 9.28125 7.765625 9.28125 18.015625 
L 9.28125 47.703125 
L 2.6875 47.703125 
L 2.6875 54.6875 
L 9.28125 54.6875 
L 9.28125 70.21875 
z
" id="DejaVuSans-116"/>
      <path d="M 54.890625 33.015625 
L 54.890625 0 
L 45.90625 0 
L 45.90625 32.71875 
Q 45.90625 40.484375 42.875 44.328125 
Q 39.84375 48.1875 33.796875 48.1875 
Q 26.515625 48.1875 22.3125 43.546875 
Q 18.109375 38.921875 18.109375 30.90625 
L 18.109375 0 
L 9.078125 0 
L 9.078125 75.984375 
L 18.109375 75.984375 
L 18.109375 46.1875 
Q 21.34375 51.125 25.703125 53.5625 
Q 30.078125 56 35.796875 56 
Q 45.21875 56 50.046875 50.171875 
Q 54.890625 44.34375 54.890625 33.015625 
z
" id="DejaVuSans-104"/>
     </defs>
     <g style="fill:#7f7f7f;" transform="translate(165.516406 274.476562)scale(0.1 -0.1)">
      <use xlink:href="#DejaVuSans-77"/>
      <use x="86.279297" xlink:href="#DejaVuSans-111"/>
      <use x="147.460938" xlink:href="#DejaVuSans-110"/>
      <use x="210.839844" xlink:href="#DejaVuSans-116"/>
      <use x="250.048828" xlink:href="#DejaVuSans-104"/>
     </g>
    </g>
   </g>
   <g id="matplotlib.axis_2">
    <g id="ytick_1">
     <g id="line2d_13">
      <defs>
       <path d="M 0 0 
L -3.5 0 
" id="mc58548316c" style="stroke:#000000;stroke-width:0.8;"/>
      </defs>
      <g>
       <use style="stroke:#000000;stroke-width:0.8;" x="47.8" xlink:href="#mc58548316c" y="236.227273"/>
      </g>
     </g>
     <g id="text_14">
      <!-- 0.0 -->
      <defs>
       <path d="M 10.6875 12.40625 
L 21 12.40625 
L 21 0 
L 10.6875 0 
z
" id="DejaVuSans-46"/>
      </defs>
      <g style="fill:#d92523;" transform="translate(24.896875 240.026491)scale(0.1 -0.1)">
       <use xlink:href="#DejaVuSans-48"/>
       <use x="63.623047" xlink:href="#DejaVuSans-46"/>
       <use x="95.410156" xlink:href="#DejaVuSans-48"/>
      </g>
     </g>
    </g>
    <g id="ytick_2">
     <g id="line2d_14">
      <g>
       <use style="stroke:#000000;stroke-width:0.8;" x="47.8" xlink:href="#mc58548316c" y="173.165029"/>
      </g>
     </g>
     <g id="text_15">
      <!-- 1.5 -->
      <g style="fill:#d92523;" transform="translate(24.896875 176.964248)scale(0.1 -0.1)">
       <use xlink:href="#DejaVuSans-49"/>
       <use x="63.623047" xlink:href="#DejaVuSans-46"/>
       <use x="95.410156" xlink:href="#DejaVuSans-53"/>
      </g>
     </g>
    </g>
    <g id="ytick_3">
     <g id="line2d_15">
      <g>
       <use style="stroke:#000000;stroke-width:0.8;" x="47.8" xlink:href="#mc58548316c" y="110.102786"/>
      </g>
     </g>
     <g id="text_16">
      <!-- 3.0 -->
      <g style="fill:#d92523;" transform="translate(24.896875 113.902005)scale(0.1 -0.1)">
       <use xlink:href="#DejaVuSans-51"/>
       <use x="63.623047" xlink:href="#DejaVuSans-46"/>
       <use x="95.410156" xlink:href="#DejaVuSans-48"/>
      </g>
     </g>
    </g>
    <g id="ytick_4">
     <g id="line2d_16">
      <g>
       <use style="stroke:#000000;stroke-width:0.8;" x="47.8" xlink:href="#mc58548316c" y="47.040543"/>
      </g>
     </g>
     <g id="text_17">
      <!-- 4.5 -->
      <g style="fill:#d92523;" transform="translate(24.896875 50.839762)scale(0.1 -0.1)">
       <use xlink:href="#DejaVuSans-52"/>
       <use x="63.623047" xlink:href="#DejaVuSans-46"/>
       <use x="95.410156" xlink:href="#DejaVuSans-53"/>
      </g>
     </g>
    </g>
    <g id="text_18">
     <!-- Acres Burned -->
     <defs>
      <path d="M 34.1875 63.1875 
L 20.796875 26.90625 
L 47.609375 26.90625 
z
M 28.609375 72.90625 
L 39.796875 72.90625 
L 67.578125 0 
L 57.328125 0 
L 50.6875 18.703125 
L 17.828125 18.703125 
L 11.1875 0 
L 0.78125 0 
z
" id="DejaVuSans-65"/>
      <path d="M 48.78125 52.59375 
L 48.78125 44.1875 
Q 44.96875 46.296875 41.140625 47.34375 
Q 37.3125 48.390625 33.40625 48.390625 
Q 24.65625 48.390625 19.8125 42.84375 
Q 14.984375 37.3125 14.984375 27.296875 
Q 14.984375 17.28125 19.8125 11.734375 
Q 24.65625 6.203125 33.40625 6.203125 
Q 37.3125 6.203125 41.140625 7.25 
Q 44.96875 8.296875 48.78125 10.40625 
L 48.78125 2.09375 
Q 45.015625 0.34375 40.984375 -0.53125 
Q 36.96875 -1.421875 32.421875 -1.421875 
Q 20.0625 -1.421875 12.78125 6.34375 
Q 5.515625 14.109375 5.515625 27.296875 
Q 5.515625 40.671875 12.859375 48.328125 
Q 20.21875 56 33.015625 56 
Q 37.15625 56 41.109375 55.140625 
Q 45.0625 54.296875 48.78125 52.59375 
z
" id="DejaVuSans-99"/>
      <path d="M 41.109375 46.296875 
Q 39.59375 47.171875 37.8125 47.578125 
Q 36.03125 48 33.890625 48 
Q 26.265625 48 22.1875 43.046875 
Q 18.109375 38.09375 18.109375 28.8125 
L 18.109375 0 
L 9.078125 0 
L 9.078125 54.6875 
L 18.109375 54.6875 
L 18.109375 46.1875 
Q 20.953125 51.171875 25.484375 53.578125 
Q 30.03125 56 36.53125 56 
Q 37.453125 56 38.578125 55.875 
Q 39.703125 55.765625 41.0625 55.515625 
z
" id="DejaVuSans-114"/>
      <path d="M 56.203125 29.59375 
L 56.203125 25.203125 
L 14.890625 25.203125 
Q 15.484375 15.921875 20.484375 11.0625 
Q 25.484375 6.203125 34.421875 6.203125 
Q 39.59375 6.203125 44.453125 7.46875 
Q 49.3125 8.734375 54.109375 11.28125 
L 54.109375 2.78125 
Q 49.265625 0.734375 44.1875 -0.34375 
Q 39.109375 -1.421875 33.890625 -1.421875 
Q 20.796875 -1.421875 13.15625 6.1875 
Q 5.515625 13.8125 5.515625 26.8125 
Q 5.515625 40.234375 12.765625 48.109375 
Q 20.015625 56 32.328125 56 
Q 43.359375 56 49.78125 48.890625 
Q 56.203125 41.796875 56.203125 29.59375 
z
M 47.21875 32.234375 
Q 47.125 39.59375 43.09375 43.984375 
Q 39.0625 48.390625 32.421875 48.390625 
Q 24.90625 48.390625 20.390625 44.140625 
Q 15.875 39.890625 15.1875 32.171875 
z
" id="DejaVuSans-101"/>
      <path d="M 44.28125 53.078125 
L 44.28125 44.578125 
Q 40.484375 46.53125 36.375 47.5 
Q 32.28125 48.484375 27.875 48.484375 
Q 21.1875 48.484375 17.84375 46.4375 
Q 14.5 44.390625 14.5 40.28125 
Q 14.5 37.15625 16.890625 35.375 
Q 19.28125 33.59375 26.515625 31.984375 
L 29.59375 31.296875 
Q 39.15625 29.25 43.1875 25.515625 
Q 47.21875 21.78125 47.21875 15.09375 
Q 47.21875 7.46875 41.1875 3.015625 
Q 35.15625 -1.421875 24.609375 -1.421875 
Q 20.21875 -1.421875 15.453125 -0.5625 
Q 10.6875 0.296875 5.421875 2 
L 5.421875 11.28125 
Q 10.40625 8.6875 15.234375 7.390625 
Q 20.0625 6.109375 24.8125 6.109375 
Q 31.15625 6.109375 34.5625 8.28125 
Q 37.984375 10.453125 37.984375 14.40625 
Q 37.984375 18.0625 35.515625 20.015625 
Q 33.0625 21.96875 24.703125 23.78125 
L 21.578125 24.515625 
Q 13.234375 26.265625 9.515625 29.90625 
Q 5.8125 33.546875 5.8125 39.890625 
Q 5.8125 47.609375 11.28125 51.796875 
Q 16.75 56 26.8125 56 
Q 31.78125 56 36.171875 55.265625 
Q 40.578125 54.546875 44.28125 53.078125 
z
" id="DejaVuSans-115"/>
      <path id="DejaVuSans-32"/>
      <path d="M 19.671875 34.8125 
L 19.671875 8.109375 
L 35.5 8.109375 
Q 43.453125 8.109375 47.28125 11.40625 
Q 51.125 14.703125 51.125 21.484375 
Q 51.125 28.328125 47.28125 31.5625 
Q 43.453125 34.8125 35.5 34.8125 
z
M 19.671875 64.796875 
L 19.671875 42.828125 
L 34.28125 42.828125 
Q 41.5 42.828125 45.03125 45.53125 
Q 48.578125 48.25 48.578125 53.8125 
Q 48.578125 59.328125 45.03125 62.0625 
Q 41.5 64.796875 34.28125 64.796875 
z
M 9.8125 72.90625 
L 35.015625 72.90625 
Q 46.296875 72.90625 52.390625 68.21875 
Q 58.5 63.53125 58.5 54.890625 
Q 58.5 48.1875 55.375 44.234375 
Q 52.25 40.28125 46.1875 39.3125 
Q 53.46875 37.75 57.5 32.78125 
Q 61.53125 27.828125 61.53125 20.40625 
Q 61.53125 10.640625 54.890625 5.3125 
Q 48.25 0 35.984375 0 
L 9.8125 0 
z
" id="DejaVuSans-66"/>
      <path d="M 8.5 21.578125 
L 8.5 54.6875 
L 17.484375 54.6875 
L 17.484375 21.921875 
Q 17.484375 14.15625 20.5 10.265625 
Q 23.53125 6.390625 29.59375 6.390625 
Q 36.859375 6.390625 41.078125 11.03125 
Q 45.3125 15.671875 45.3125 23.6875 
L 45.3125 54.6875 
L 54.296875 54.6875 
L 54.296875 0 
L 45.3125 0 
L 45.3125 8.40625 
Q 42.046875 3.421875 37.71875 1 
Q 33.40625 -1.421875 27.6875 -1.421875 
Q 18.265625 -1.421875 13.375 4.4375 
Q 8.5 10.296875 8.5 21.578125 
z
M 31.109375 56 
z
" id="DejaVuSans-117"/>
      <path d="M 45.40625 46.390625 
L 45.40625 75.984375 
L 54.390625 75.984375 
L 54.390625 0 
L 45.40625 0 
L 45.40625 8.203125 
Q 42.578125 3.328125 38.25 0.953125 
Q 33.9375 -1.421875 27.875 -1.421875 
Q 17.96875 -1.421875 11.734375 6.484375 
Q 5.515625 14.40625 5.515625 27.296875 
Q 5.515625 40.1875 11.734375 48.09375 
Q 17.96875 56 27.875 56 
Q 33.9375 56 38.25 53.625 
Q 42.578125 51.265625 45.40625 46.390625 
z
M 14.796875 27.296875 
Q 14.796875 17.390625 18.875 11.75 
Q 22.953125 6.109375 30.078125 6.109375 
Q 37.203125 6.109375 41.296875 11.75 
Q 45.40625 17.390625 45.40625 27.296875 
Q 45.40625 37.203125 41.296875 42.84375 
Q 37.203125 48.484375 30.078125 48.484375 
Q 22.953125 48.484375 18.875 42.84375 
Q 14.796875 37.203125 14.796875 27.296875 
z
" id="DejaVuSans-100"/>
     </defs>
     <g style="fill:#d92523;" transform="translate(18.817187 170.066406)rotate(-90)scale(0.1 -0.1)">
      <use xlink:href="#DejaVuSans-65"/>
      <use x="68.392578" xlink:href="#DejaVuSans-99"/>
      <use x="123.373047" xlink:href="#DejaVuSans-114"/>
      <use x="164.455078" xlink:href="#DejaVuSans-101"/>
      <use x="225.978516" xlink:href="#DejaVuSans-115"/>
      <use x="278.078125" xlink:href="#DejaVuSans-32"/>
      <use x="309.865234" xlink:href="#DejaVuSans-66"/>
      <use x="378.46875" xlink:href="#DejaVuSans-117"/>
      <use x="441.847656" xlink:href="#DejaVuSans-114"/>
      <use x="482.945312" xlink:href="#DejaVuSans-110"/>
      <use x="546.324219" xlink:href="#DejaVuSans-101"/>
      <use x="607.847656" xlink:href="#DejaVuSans-100"/>
     </g>
    </g>
    <g id="text_19">
     <!-- 1e5 -->
     <g transform="translate(47.8 23.8)scale(0.1 -0.1)">
      <use xlink:href="#DejaVuSans-49"/>
      <use x="63.623047" xlink:href="#DejaVuSans-101"/>
      <use x="125.146484" xlink:href="#DejaVuSans-53"/>
     </g>
    </g>
   </g>
   <g id="line2d_17">
    <path clip-path="url(#p686de8e1d7)" d="M 59.926136 236.22084 
L 81.973657 236.223993 
L 104.021178 236.204907 
L 126.068698 236.169508 
L 148.116219 235.690151 
L 170.16374 232.417493 
L 192.21126 233.32625 
L 214.258781 236.09522 
L 236.306302 236.121475 
L 258.353822 236.191046 
L 280.401343 236.182982 
L 302.448864 236.226789 
" style="fill:none;stroke:#fee5d8;stroke-linecap:square;stroke-opacity:0.5;stroke-width:1.5;"/>
   </g>
   <g id="line2d_18">
    <path clip-path="url(#p686de8e1d7)" d="M 59.926136 236.225087 
L 81.973657 236.226936 
L 104.021178 236.218192 
L 126.068698 235.246297 
L 148.116219 228.896291 
L 170.16374 220.090998 
L 192.21126 231.136006 
L 214.258781 233.848855 
L 236.306302 236.084252 
L 258.353822 236.111596 
L 280.401343 235.785892 
L 302.448864 236.200164 
" style="fill:none;stroke:#fedecf;stroke-linecap:square;stroke-opacity:0.5;stroke-width:1.5;"/>
   </g>
   <g id="line2d_19">
    <path clip-path="url(#p686de8e1d7)" d="M 59.926136 236.203751 
L 81.973657 235.747344 
L 104.021178 235.42172 
L 126.068698 235.301435 
L 148.116219 234.585842 
L 170.16374 225.305996 
L 192.21126 235.471346 
L 214.258781 234.231836 
L 236.306302 235.494258 
L 258.353822 235.284072 
L 280.401343 236.176403 
L 302.448864 236.211717 
" style="fill:none;stroke:#fdd3c1;stroke-linecap:square;stroke-opacity:0.5;stroke-width:1.5;"/>
   </g>
   <g id="line2d_20">
    <path clip-path="url(#p686de8e1d7)" d="M 59.926136 236.226978 
L 81.973657 236.226138 
L 104.021178 236.218129 
L 126.068698 235.217171 
L 148.116219 235.096188 
L 170.16374 233.346947 
L 192.21126 223.303339 
L 214.258781 233.620553 
L 236.306302 236.104049 
L 258.353822 236.114307 
L 280.401343 236.223909 
L 302.448864 235.941622 
" style="fill:none;stroke:#fdc9b3;stroke-linecap:square;stroke-opacity:0.5;stroke-width:1.5;"/>
   </g>
   <g id="line2d_21">
    <path clip-path="url(#p686de8e1d7)" d="M 59.926136 236.061461 
L 81.973657 236.206504 
L 104.021178 236.049898 
L 126.068698 235.921106 
L 148.116219 235.987783 
L 170.16374 235.015469 
L 192.21126 236.160616 
L 214.258781 235.845658 
L 236.306302 236.221576 
L 258.353822 236.22206 
L 280.401343 236.217288 
L 302.448864 236.215964 
" style="fill:none;stroke:#fcbea5;stroke-linecap:square;stroke-opacity:0.5;stroke-width:1.5;"/>
   </g>
   <g id="line2d_22">
    <path clip-path="url(#p686de8e1d7)" d="M 59.926136 236.227273 
L 81.973657 236.227273 
L 104.021178 236.227147 
L 126.068698 236.227147 
L 148.116219 236.222354 
L 170.16374 236.227063 
L 192.21126 236.180901 
L 214.258781 236.225885 
L 236.306302 236.173123 
L 258.353822 236.223321 
L 280.401343 236.164379 
L 302.448864 236.227273 
" style="fill:none;stroke:#fcb398;stroke-linecap:square;stroke-opacity:0.5;stroke-width:1.5;"/>
   </g>
   <g id="line2d_23">
    <path clip-path="url(#p686de8e1d7)" d="M 59.926136 236.227105 
L 81.973657 236.227147 
L 104.021178 236.226474 
L 126.068698 236.223825 
L 148.116219 236.200072 
L 170.16374 235.697045 
L 192.21126 235.661688 
L 214.258781 236.171358 
L 236.306302 236.017023 
L 258.353822 236.169171 
L 280.401343 236.038296 
L 302.448864 236.22639 
" style="fill:none;stroke:#fca78b;stroke-linecap:square;stroke-opacity:0.5;stroke-width:1.5;"/>
   </g>
   <g id="line2d_24">
    <path clip-path="url(#p686de8e1d7)" d="M 59.926136 236.216678 
L 81.973657 236.202048 
L 104.021178 235.590134 
L 126.068698 236.007774 
L 148.116219 221.334998 
L 170.16374 232.392584 
L 192.21126 236.137598 
L 214.258781 235.481499 
L 236.306302 236.117544 
L 258.353822 236.12137 
L 280.401343 236.127256 
L 302.448864 236.197003 
" style="fill:none;stroke:#fc9d7f;stroke-linecap:square;stroke-opacity:0.5;stroke-width:1.5;"/>
   </g>
   <g id="line2d_25">
    <path clip-path="url(#p686de8e1d7)" d="M 59.926136 236.223615 
L 81.973657 236.058939 
L 104.021178 236.151682 
L 126.068698 235.210625 
L 148.116219 235.974645 
L 170.16374 235.637935 
L 192.21126 233.445471 
L 214.258781 235.50294 
L 236.306302 235.489444 
L 258.353822 236.19776 
L 280.401343 236.142265 
L 302.448864 236.223615 
" style="fill:none;stroke:#fc9272;stroke-linecap:square;stroke-opacity:0.5;stroke-width:1.5;"/>
   </g>
   <g id="line2d_26">
    <path clip-path="url(#p686de8e1d7)" d="M 59.926136 236.226516 
L 81.973657 236.184853 
L 104.021178 236.21445 
L 126.068698 236.221639 
L 148.116219 235.155215 
L 170.16374 235.345873 
L 192.21126 235.927517 
L 214.258781 235.922136 
L 236.306302 236.096692 
L 258.353822 236.158619 
L 280.401343 236.213777 
L 302.448864 236.122547 
" style="fill:none;stroke:#fc8666;stroke-linecap:square;stroke-opacity:0.5;stroke-width:1.5;"/>
   </g>
   <g id="line2d_27">
    <path clip-path="url(#p686de8e1d7)" d="M 59.926136 236.225843 
L 81.973657 233.294584 
L 104.021178 236.103124 
L 126.068698 218.369096 
L 148.116219 222.5344 
L 170.16374 225.747589 
L 192.21126 234.449002 
L 214.258781 234.103294 
L 236.306302 235.781717 
L 258.353822 236.225129 
L 280.401343 235.964219 
L 302.448864 236.22702 
" style="fill:none;stroke:#fb7b5b;stroke-linecap:square;stroke-opacity:0.5;stroke-width:1.5;"/>
   </g>
   <g id="line2d_28">
    <path clip-path="url(#p686de8e1d7)" d="M 59.926136 236.2163 
L 81.973657 236.226768 
L 104.021178 235.672956 
L 126.068698 235.542795 
L 148.116219 234.676404 
L 170.16374 193.360671 
L 192.21126 227.704221 
L 214.258781 236.099761 
L 236.306302 236.220714 
L 258.353822 236.196751 
L 280.401343 236.225801 
L 302.448864 236.226936 
" style="fill:none;stroke:#fb7050;stroke-linecap:square;stroke-opacity:0.5;stroke-width:1.5;"/>
   </g>
   <g id="line2d_29">
    <path clip-path="url(#p686de8e1d7)" d="M 59.926136 236.225927 
L 81.973657 236.218906 
L 104.021178 232.055684 
L 126.068698 236.191727 
L 148.116219 227.778967 
L 170.16374 161.288357 
L 192.21126 234.773772 
L 214.258781 232.957487 
L 236.306302 235.785038 
L 258.353822 236.17821 
L 280.401343 236.227063 
L 302.448864 236.197507 
" style="fill:none;stroke:#f96346;stroke-linecap:square;stroke-opacity:0.5;stroke-width:1.5;"/>
   </g>
   <g id="line2d_30">
    <path clip-path="url(#p686de8e1d7)" d="M 59.926136 236.227105 
L 81.973657 236.226894 
L 104.021178 236.182814 
L 126.068698 235.742723 
L 148.116219 222.35215 
L 170.16374 36.772727 
L 192.21126 141.56963 
L 214.258781 231.391239 
L 236.306302 236.107097 
L 258.353822 235.715153 
L 280.401343 236.003309 
L 302.448864 236.166376 
" style="fill:none;stroke:#f6563d;stroke-linecap:square;stroke-opacity:0.5;stroke-width:1.5;"/>
   </g>
   <g id="line2d_31">
    <path clip-path="url(#p686de8e1d7)" d="M 59.926136 236.187901 
L 81.973657 232.12726 
L 104.021178 235.788822 
L 126.068698 235.399408 
L 148.116219 233.608546 
L 170.16374 191.375757 
L 192.21126 225.030946 
L 214.258781 235.445427 
L 236.306302 235.528303 
L 258.353822 236.132574 
L 280.401343 236.169718 
L 302.448864 235.556648 
" style="fill:none;stroke:#f34935;stroke-linecap:square;stroke-opacity:0.5;stroke-width:1.5;"/>
   </g>
   <g id="line2d_32">
    <path clip-path="url(#p686de8e1d7)" d="M 59.926136 236.226915 
L 81.973657 235.392623 
L 104.021178 235.752078 
L 126.068698 235.916166 
L 148.116219 233.281501 
L 170.16374 228.432031 
L 192.21126 213.929271 
L 214.258781 236.14253 
L 236.306302 231.309784 
L 258.353822 235.908064 
L 280.401343 235.887804 
L 302.448864 236.227147 
" style="fill:none;stroke:#ef3c2c;stroke-linecap:square;stroke-opacity:0.5;stroke-width:1.5;"/>
   </g>
   <g id="line2d_33">
    <path clip-path="url(#p686de8e1d7)" d="M 59.926136 236.227226 
L 81.973657 234.396799 
L 104.021178 235.82272 
L 126.068698 231.199539 
L 148.116219 234.316693 
L 170.16374 214.143396 
L 192.21126 234.157776 
L 214.258781 230.60191 
L 236.306302 235.361487 
L 258.353822 235.97539 
L 280.401343 236.111314 
L 302.448864 236.222013 
" style="fill:none;stroke:#e53228;stroke-linecap:square;stroke-opacity:0.5;stroke-width:1.5;"/>
   </g>
   <g id="line2d_34">
    <path clip-path="url(#p686de8e1d7)" d="M 59.926136 236.226247 
L 81.973657 236.225162 
L 104.021178 226.49182 
L 126.068698 234.784909 
L 148.116219 225.523008 
L 170.16374 223.345296 
L 192.21126 211.093887 
L 214.258781 229.792153 
L 236.306302 230.831007 
L 258.353822 235.367957 
L 280.401343 235.874183 
L 302.448864 236.225663 
" style="fill:none;stroke:#dc2924;stroke-linecap:square;stroke-opacity:0.5;stroke-width:1.5;"/>
   </g>
   <g id="line2d_35">
    <path clip-path="url(#p686de8e1d7)" d="M 59.926136 235.669908 
L 81.973657 236.203015 
L 104.021178 236.121034 
L 126.068698 236.045906 
L 148.116219 233.540346 
L 170.16374 221.949573 
L 192.21126 233.146258 
L 214.258781 231.80663 
L 236.306302 234.526568 
L 258.353822 235.956311 
L 280.401343 232.423442 
L 302.448864 236.193576 
" style="fill:none;stroke:#d21f20;stroke-linecap:square;stroke-opacity:0.5;stroke-width:1.5;"/>
   </g>
   <g id="line2d_36">
    <path clip-path="url(#p686de8e1d7)" d="M 59.926136 235.903637 
L 81.973657 236.159031 
L 104.021178 236.029329 
L 126.068698 235.282306 
L 148.116219 235.962453 
L 170.16374 235.631818 
L 192.21126 228.588985 
L 214.258781 233.559382 
L 236.306302 235.732865 
L 258.353822 236.209027 
L 280.401343 236.223825 
L 302.448864 236.226873 
" style="fill:none;stroke:#c8171c;stroke-linecap:square;stroke-opacity:0.5;stroke-width:1.5;"/>
   </g>
   <g id="line2d_37">
    <path clip-path="url(#p686de8e1d7)" d="M 59.926136 236.215148 
L 81.973657 235.496692 
L 104.021178 235.405904 
L 126.068698 235.122817 
L 148.116219 212.859928 
L 170.16374 213.192674 
L 192.21126 212.754303 
L 214.258781 228.775409 
L 236.306302 236.189591 
L 258.353822 236.024044 
L 280.401343 236.075902 
L 302.448864 236.226474 
" style="fill:none;stroke:#bd151a;stroke-linecap:square;stroke-opacity:0.5;stroke-width:1.5;"/>
   </g>
   <g id="line2d_38">
    <path clip-path="url(#p686de8e1d7)" d="M 59.926136 236.206395 
L 81.973657 236.186059 
L 104.021178 235.927618 
L 126.068698 235.22526 
L 148.116219 230.806337 
L 170.16374 226.444826 
L 192.21126 232.533103 
L 214.258781 233.939618 
L 236.306302 236.140251 
L 258.353822 236.123241 
L 280.401343 236.199946 
L 302.448864 236.216334 
" style="fill:none;stroke:#b21218;stroke-linecap:square;stroke-opacity:0.5;stroke-width:1.5;"/>
   </g>
   <g id="line2d_39">
    <path clip-path="url(#p686de8e1d7)" d="M 59.926136 236.206815 
L 81.973657 236.148479 
L 104.021178 236.172509 
L 126.068698 235.332142 
L 148.116219 225.729391 
L 170.16374 229.707369 
L 192.21126 216.136264 
L 214.258781 235.041072 
L 236.306302 236.218679 
L 258.353822 236.218238 
L 280.401343 235.44879 
L 302.448864 235.756294 
" style="fill:none;stroke:#a81016;stroke-linecap:square;stroke-opacity:0.5;stroke-width:1.5;"/>
   </g>
   <g id="line2d_40">
    <path clip-path="url(#p686de8e1d7)" d="M 59.926136 236.224876 
L 81.973657 236.222753 
L 104.021178 236.142959 
L 126.068698 236.133247 
L 148.116219 235.252877 
L 170.16374 214.349488 
L 192.21126 226.111652 
L 214.258781 230.773372 
L 236.306302 235.943072 
L 258.353822 236.126747 
L 280.401343 236.074452 
L 302.448864 236.14319 
" style="fill:none;stroke:#980c13;stroke-linecap:square;stroke-opacity:0.5;stroke-width:1.5;"/>
   </g>
   <g id="line2d_41">
    <path clip-path="url(#p686de8e1d7)" d="M 59.926136 236.177064 
L 81.973657 235.752342 
L 104.021178 235.424671 
L 126.068698 234.75144 
L 148.116219 230.973606 
L 170.16374 214.050791 
L 192.21126 225.363742 
L 214.258781 233.890634 
L 236.306302 235.483151 
L 258.353822 236.047923 
L 280.401343 235.924259 
L 302.448864 236.150214 
" style="fill:none;stroke:#ff0000;stroke-dasharray:5.55,2.4;stroke-dashoffset:0;stroke-width:1.5;"/>
   </g>
   <g id="patch_3">
    <path d="M 47.8 246.2 
L 47.8 26.8 
" style="fill:none;stroke:#000000;stroke-linecap:square;stroke-linejoin:miter;stroke-width:0.8;"/>
   </g>
   <g id="patch_4">
    <path d="M 314.575 246.2 
L 314.575 26.8 
" style="fill:none;stroke:#000000;stroke-linecap:square;stroke-linejoin:miter;stroke-width:0.8;"/>
   </g>
   <g id="patch_5">
    <path d="M 47.8 246.2 
L 314.575 246.2 
" style="fill:none;stroke:#000000;stroke-linecap:square;stroke-linejoin:miter;stroke-width:0.8;"/>
   </g>
   <g id="patch_6">
    <path d="M 47.8 26.8 
L 314.575 26.8 
" style="fill:none;stroke:#000000;stroke-linecap:square;stroke-linejoin:miter;stroke-width:0.8;"/>
   </g>
   <g id="text_20">
    <!-- Arizona -->
    <defs>
     <path d="M 9.421875 54.6875 
L 18.40625 54.6875 
L 18.40625 0 
L 9.421875 0 
z
M 9.421875 75.984375 
L 18.40625 75.984375 
L 18.40625 64.59375 
L 9.421875 64.59375 
z
" id="DejaVuSans-105"/>
     <path d="M 5.515625 54.6875 
L 48.1875 54.6875 
L 48.1875 46.484375 
L 14.40625 7.171875 
L 48.1875 7.171875 
L 48.1875 0 
L 4.296875 0 
L 4.296875 8.203125 
L 38.09375 47.515625 
L 5.515625 47.515625 
z
" id="DejaVuSans-122"/>
     <path d="M 34.28125 27.484375 
Q 23.390625 27.484375 19.1875 25 
Q 14.984375 22.515625 14.984375 16.5 
Q 14.984375 11.71875 18.140625 8.90625 
Q 21.296875 6.109375 26.703125 6.109375 
Q 34.1875 6.109375 38.703125 11.40625 
Q 43.21875 16.703125 43.21875 25.484375 
L 43.21875 27.484375 
z
M 52.203125 31.203125 
L 52.203125 0 
L 43.21875 0 
L 43.21875 8.296875 
Q 40.140625 3.328125 35.546875 0.953125 
Q 30.953125 -1.421875 24.3125 -1.421875 
Q 15.921875 -1.421875 10.953125 3.296875 
Q 6 8.015625 6 15.921875 
Q 6 25.140625 12.171875 29.828125 
Q 18.359375 34.515625 30.609375 34.515625 
L 43.21875 34.515625 
L 43.21875 35.40625 
Q 43.21875 41.609375 39.140625 45 
Q 35.0625 48.390625 27.6875 48.390625 
Q 23 48.390625 18.546875 47.265625 
Q 14.109375 46.140625 10.015625 43.890625 
L 10.015625 52.203125 
Q 14.9375 54.109375 19.578125 55.046875 
Q 24.21875 56 28.609375 56 
Q 40.484375 56 46.34375 49.84375 
Q 52.203125 43.703125 52.203125 31.203125 
z
" id="DejaVuSans-97"/>
    </defs>
    <g transform="translate(158.65 20.8)scale(0.12 -0.12)">
     <use xlink:href="#DejaVuSans-65"/>
     <use x="68.408203" xlink:href="#DejaVuSans-114"/>
     <use x="109.521484" xlink:href="#DejaVuSans-105"/>
     <use x="137.304688" xlink:href="#DejaVuSans-122"/>
     <use x="189.794922" xlink:href="#DejaVuSans-111"/>
     <use x="250.976562" xlink:href="#DejaVuSans-110"/>
     <use x="314.355469" xlink:href="#DejaVuSans-97"/>
    </g>
   </g>
  </g>
  <g id="axes_2">
   <g id="matplotlib.axis_3">
    <g id="ytick_5">
     <g id="line2d_42">
      <defs>
       <path d="M 0 0 
L 3.5 0 
" id="m41102ca47b" style="stroke:#000000;stroke-width:0.8;"/>
      </defs>
      <g>
       <use style="stroke:#000000;stroke-width:0.8;" x="314.575" xlink:href="#m41102ca47b" y="244.977419"/>
      </g>
     </g>
     <g id="text_21">
      <!-- 30 -->
      <g transform="translate(321.575 248.776638)scale(0.1 -0.1)">
       <use xlink:href="#DejaVuSans-51"/>
       <use x="63.623047" xlink:href="#DejaVuSans-48"/>
      </g>
     </g>
    </g>
    <g id="ytick_6">
     <g id="line2d_43">
      <g>
       <use style="stroke:#000000;stroke-width:0.8;" x="314.575" xlink:href="#m41102ca47b" y="206.704909"/>
      </g>
     </g>
     <g id="text_22">
      <!-- 40 -->
      <g transform="translate(321.575 210.504128)scale(0.1 -0.1)">
       <use xlink:href="#DejaVuSans-52"/>
       <use x="63.623047" xlink:href="#DejaVuSans-48"/>
      </g>
     </g>
    </g>
    <g id="ytick_7">
     <g id="line2d_44">
      <g>
       <use style="stroke:#000000;stroke-width:0.8;" x="314.575" xlink:href="#m41102ca47b" y="168.432399"/>
      </g>
     </g>
     <g id="text_23">
      <!-- 50 -->
      <g transform="translate(321.575 172.231618)scale(0.1 -0.1)">
       <use xlink:href="#DejaVuSans-53"/>
       <use x="63.623047" xlink:href="#DejaVuSans-48"/>
      </g>
     </g>
    </g>
    <g id="ytick_8">
     <g id="line2d_45">
      <g>
       <use style="stroke:#000000;stroke-width:0.8;" x="314.575" xlink:href="#m41102ca47b" y="130.15989"/>
      </g>
     </g>
     <g id="text_24">
      <!-- 60 -->
      <g transform="translate(321.575 133.959108)scale(0.1 -0.1)">
       <use xlink:href="#DejaVuSans-54"/>
       <use x="63.623047" xlink:href="#DejaVuSans-48"/>
      </g>
     </g>
    </g>
    <g id="ytick_9">
     <g id="line2d_46">
      <g>
       <use style="stroke:#000000;stroke-width:0.8;" x="314.575" xlink:href="#m41102ca47b" y="91.88738"/>
      </g>
     </g>
     <g id="text_25">
      <!-- 70 -->
      <g transform="translate(321.575 95.686598)scale(0.1 -0.1)">
       <use xlink:href="#DejaVuSans-55"/>
       <use x="63.623047" xlink:href="#DejaVuSans-48"/>
      </g>
     </g>
    </g>
    <g id="ytick_10">
     <g id="line2d_47">
      <g>
       <use style="stroke:#000000;stroke-width:0.8;" x="314.575" xlink:href="#m41102ca47b" y="53.61487"/>
      </g>
     </g>
     <g id="text_26">
      <!-- 80 -->
      <g transform="translate(321.575 57.414089)scale(0.1 -0.1)">
       <use xlink:href="#DejaVuSans-56"/>
       <use x="63.623047" xlink:href="#DejaVuSans-48"/>
      </g>
     </g>
    </g>
    <g id="text_27">
     <!-- Average AQI -->
     <defs>
      <path d="M 2.984375 54.6875 
L 12.5 54.6875 
L 29.59375 8.796875 
L 46.6875 54.6875 
L 56.203125 54.6875 
L 35.6875 0 
L 23.484375 0 
z
" id="DejaVuSans-118"/>
      <path d="M 45.40625 27.984375 
Q 45.40625 37.75 41.375 43.109375 
Q 37.359375 48.484375 30.078125 48.484375 
Q 22.859375 48.484375 18.828125 43.109375 
Q 14.796875 37.75 14.796875 27.984375 
Q 14.796875 18.265625 18.828125 12.890625 
Q 22.859375 7.515625 30.078125 7.515625 
Q 37.359375 7.515625 41.375 12.890625 
Q 45.40625 18.265625 45.40625 27.984375 
z
M 54.390625 6.78125 
Q 54.390625 -7.171875 48.1875 -13.984375 
Q 42 -20.796875 29.203125 -20.796875 
Q 24.46875 -20.796875 20.265625 -20.09375 
Q 16.0625 -19.390625 12.109375 -17.921875 
L 12.109375 -9.1875 
Q 16.0625 -11.328125 19.921875 -12.34375 
Q 23.78125 -13.375 27.78125 -13.375 
Q 36.625 -13.375 41.015625 -8.765625 
Q 45.40625 -4.15625 45.40625 5.171875 
L 45.40625 9.625 
Q 42.625 4.78125 38.28125 2.390625 
Q 33.9375 0 27.875 0 
Q 17.828125 0 11.671875 7.65625 
Q 5.515625 15.328125 5.515625 27.984375 
Q 5.515625 40.671875 11.671875 48.328125 
Q 17.828125 56 27.875 56 
Q 33.9375 56 38.28125 53.609375 
Q 42.625 51.21875 45.40625 46.390625 
L 45.40625 54.6875 
L 54.390625 54.6875 
z
" id="DejaVuSans-103"/>
      <path d="M 39.40625 66.21875 
Q 28.65625 66.21875 22.328125 58.203125 
Q 16.015625 50.203125 16.015625 36.375 
Q 16.015625 22.609375 22.328125 14.59375 
Q 28.65625 6.59375 39.40625 6.59375 
Q 50.140625 6.59375 56.421875 14.59375 
Q 62.703125 22.609375 62.703125 36.375 
Q 62.703125 50.203125 56.421875 58.203125 
Q 50.140625 66.21875 39.40625 66.21875 
z
M 53.21875 1.3125 
L 66.21875 -12.890625 
L 54.296875 -12.890625 
L 43.5 -1.21875 
Q 41.890625 -1.3125 41.03125 -1.359375 
Q 40.1875 -1.421875 39.40625 -1.421875 
Q 24.03125 -1.421875 14.8125 8.859375 
Q 5.609375 19.140625 5.609375 36.375 
Q 5.609375 53.65625 14.8125 63.9375 
Q 24.03125 74.21875 39.40625 74.21875 
Q 54.734375 74.21875 63.90625 63.9375 
Q 73.09375 53.65625 73.09375 36.375 
Q 73.09375 23.6875 67.984375 14.640625 
Q 62.890625 5.609375 53.21875 1.3125 
z
" id="DejaVuSans-81"/>
      <path d="M 9.8125 72.90625 
L 19.671875 72.90625 
L 19.671875 0 
L 9.8125 0 
z
" id="DejaVuSans-73"/>
     </defs>
     <g style="fill:#5f5f5f;" transform="translate(341.701563 105.257812)rotate(-270)scale(0.1 -0.1)">
      <use xlink:href="#DejaVuSans-65"/>
      <use x="68.330078" xlink:href="#DejaVuSans-118"/>
      <use x="127.509766" xlink:href="#DejaVuSans-101"/>
      <use x="189.033203" xlink:href="#DejaVuSans-114"/>
      <use x="230.146484" xlink:href="#DejaVuSans-97"/>
      <use x="291.425781" xlink:href="#DejaVuSans-103"/>
      <use x="354.902344" xlink:href="#DejaVuSans-101"/>
      <use x="416.425781" xlink:href="#DejaVuSans-32"/>
      <use x="448.212891" xlink:href="#DejaVuSans-65"/>
      <use x="516.605469" xlink:href="#DejaVuSans-81"/>
      <use x="595.316406" xlink:href="#DejaVuSans-73"/>
     </g>
    </g>
   </g>
   <g id="line2d_48">
    <path clip-path="url(#p686de8e1d7)" d="M 59.926136 214.59977 
L 81.973657 220.771043 
L 104.021178 216.495154 
L 126.068698 161.690998 
L 148.116219 177.034241 
L 170.16374 149.335398 
L 192.21126 188.05724 
L 214.258781 114.829263 
L 236.306302 149.764372 
L 258.353822 178.149254 
L 280.401343 169.870262 
L 302.448864 163.943137 
" style="fill:none;stroke:#f3f3f3;stroke-linecap:square;stroke-opacity:0.5;stroke-width:1.5;"/>
   </g>
   <g id="line2d_49">
    <path clip-path="url(#p686de8e1d7)" d="M 59.926136 219.13381 
L 81.973657 194.293997 
L 104.021178 181.261501 
L 126.068698 139.206119 
L 148.116219 128.550481 
L 170.16374 86.146503 
L 192.21126 166.010636 
L 214.258781 176.21268 
L 236.306302 187.701282 
L 258.353822 184.518814 
L 280.401343 183.928606 
L 302.448864 178.355633 
" style="fill:none;stroke:#eeeeee;stroke-linecap:square;stroke-opacity:0.5;stroke-width:1.5;"/>
   </g>
   <g id="line2d_50">
    <path clip-path="url(#p686de8e1d7)" d="M 59.926136 180.095324 
L 81.973657 207.07057 
L 104.021178 187.14859 
L 126.068698 148.918144 
L 148.116219 110.714602 
L 170.16374 130.424668 
L 192.21126 112.080238 
L 214.258781 138.529119 
L 236.306302 170.714487 
L 258.353822 184.887287 
L 280.401343 207.18908 
L 302.448864 204.927971 
" style="fill:none;stroke:#e8e8e8;stroke-linecap:square;stroke-opacity:0.5;stroke-width:1.5;"/>
   </g>
   <g id="line2d_51">
    <path clip-path="url(#p686de8e1d7)" d="M 59.926136 209.51156 
L 81.973657 200.858888 
L 104.021178 207.307167 
L 126.068698 176.755152 
L 148.116219 183.323885 
L 170.16374 120.068223 
L 192.21126 146.269137 
L 214.258781 135.954419 
L 236.306302 178.924018 
L 258.353822 161.684352 
L 280.401343 178.48202 
L 302.448864 172.342253 
" style="fill:none;stroke:#e1e1e1;stroke-linecap:square;stroke-opacity:0.5;stroke-width:1.5;"/>
   </g>
   <g id="line2d_52">
    <path clip-path="url(#p686de8e1d7)" d="M 59.926136 182.722085 
L 81.973657 198.099125 
L 104.021178 198.586498 
L 126.068698 159.335466 
L 148.116219 79.732031 
L 170.16374 98.553698 
L 192.21126 130.914806 
L 214.258781 154.883247 
L 236.306302 200.320196 
L 258.353822 191.373392 
L 280.401343 199.851926 
L 302.448864 200.279887 
" style="fill:none;stroke:#dbdbdb;stroke-linecap:square;stroke-opacity:0.5;stroke-width:1.5;"/>
   </g>
   <g id="line2d_53">
    <path clip-path="url(#p686de8e1d7)" d="M 59.926136 212.275265 
L 81.973657 199.050407 
L 104.021178 170.864495 
L 126.068698 133.743883 
L 148.116219 113.158671 
L 170.16374 117.153459 
L 192.21126 161.441493 
L 214.258781 151.810743 
L 236.306302 159.908827 
L 258.353822 182.276284 
L 280.401343 185.437021 
L 302.448864 199.168776 
" style="fill:none;stroke:#d4d4d4;stroke-linecap:square;stroke-opacity:0.5;stroke-width:1.5;"/>
   </g>
   <g id="line2d_54">
    <path clip-path="url(#p686de8e1d7)" d="M 59.926136 196.367386 
L 81.973657 211.410177 
L 104.021178 165.409741 
L 126.068698 134.156822 
L 148.116219 102.770632 
L 170.16374 91.16374 
L 192.21126 109.884948 
L 214.258781 97.245531 
L 236.306302 157.134354 
L 258.353822 156.772258 
L 280.401343 177.054002 
L 302.448864 197.355754 
" style="fill:none;stroke:#cccccc;stroke-linecap:square;stroke-opacity:0.5;stroke-width:1.5;"/>
   </g>
   <g id="line2d_55">
    <path clip-path="url(#p686de8e1d7)" d="M 59.926136 141.176166 
L 81.973657 125.602699 
L 104.021178 129.832774 
L 126.068698 100.552854 
L 148.116219 68.141662 
L 170.16374 110.773391 
L 192.21126 164.811231 
L 214.258781 145.526663 
L 236.306302 166.190942 
L 258.353822 126.064888 
L 280.401343 133.656605 
L 302.448864 147.128498 
" style="fill:none;stroke:#c5c5c5;stroke-linecap:square;stroke-opacity:0.5;stroke-width:1.5;"/>
   </g>
   <g id="line2d_56">
    <path clip-path="url(#p686de8e1d7)" d="M 59.926136 144.541075 
L 81.973657 143.490556 
L 104.021178 168.810197 
L 126.068698 118.00755 
L 148.116219 96.916209 
L 170.16374 135.216779 
L 192.21126 133.233512 
L 214.258781 97.604435 
L 236.306302 162.707081 
L 258.353822 199.570157 
L 280.401343 190.456178 
L 302.448864 165.339844 
" style="fill:none;stroke:#bdbdbd;stroke-linecap:square;stroke-opacity:0.5;stroke-width:1.5;"/>
   </g>
   <g id="line2d_57">
    <path clip-path="url(#p686de8e1d7)" d="M 59.926136 184.607297 
L 81.973657 187.09518 
L 104.021178 165.305672 
L 126.068698 139.253844 
L 148.116219 107.325877 
L 170.16374 103.143169 
L 192.21126 141.35562 
L 214.258781 105.837856 
L 236.306302 161.843359 
L 258.353822 167.785346 
L 280.401343 189.980347 
L 302.448864 186.195239 
" style="fill:none;stroke:#b2b2b2;stroke-linecap:square;stroke-opacity:0.5;stroke-width:1.5;"/>
   </g>
   <g id="line2d_58">
    <path clip-path="url(#p686de8e1d7)" d="M 59.926136 179.505912 
L 81.973657 183.474386 
L 104.021178 171.310878 
L 126.068698 121.152785 
L 148.116219 71.666235 
L 170.16374 44.299784 
L 192.21126 83.006195 
L 214.258781 107.519164 
L 236.306302 143.710847 
L 258.353822 158.906797 
L 280.401343 185.410904 
L 302.448864 198.616851 
" style="fill:none;stroke:#a7a7a7;stroke-linecap:square;stroke-opacity:0.5;stroke-width:1.5;"/>
   </g>
   <g id="line2d_59">
    <path clip-path="url(#p686de8e1d7)" d="M 59.926136 188.890295 
L 81.973657 209.442982 
L 104.021178 194.44681 
L 126.068698 137.534659 
L 148.116219 71.459864 
L 170.16374 114.121885 
L 192.21126 69.64953 
L 214.258781 108.153196 
L 236.306302 140.407045 
L 258.353822 155.45094 
L 280.401343 201.277171 
L 302.448864 197.649855 
" style="fill:none;stroke:#9c9c9c;stroke-linecap:square;stroke-opacity:0.5;stroke-width:1.5;"/>
   </g>
   <g id="line2d_60">
    <path clip-path="url(#p686de8e1d7)" d="M 59.926136 216.084369 
L 81.973657 201.873551 
L 104.021178 165.238531 
L 126.068698 110.349653 
L 148.116219 101.600919 
L 170.16374 126.0207 
L 192.21126 106.385311 
L 214.258781 128.501414 
L 236.306302 150.904121 
L 258.353822 177.971086 
L 280.401343 211.332897 
L 302.448864 206.882921 
" style="fill:none;stroke:#919191;stroke-linecap:square;stroke-opacity:0.5;stroke-width:1.5;"/>
   </g>
   <g id="line2d_61">
    <path clip-path="url(#p686de8e1d7)" d="M 59.926136 217.668389 
L 81.973657 236.227273 
L 104.021178 203.449261 
L 126.068698 112.584151 
L 148.116219 85.393601 
L 170.16374 98.298566 
L 192.21126 111.596641 
L 214.258781 163.538157 
L 236.306302 152.923713 
L 258.353822 183.113222 
L 280.401343 160.563952 
L 302.448864 154.768542 
" style="fill:none;stroke:#878787;stroke-linecap:square;stroke-opacity:0.5;stroke-width:1.5;"/>
   </g>
   <g id="line2d_62">
    <path clip-path="url(#p686de8e1d7)" d="M 59.926136 125.282478 
L 81.973657 117.787203 
L 104.021178 160.318627 
L 126.068698 88.081691 
L 148.116219 59.278761 
L 170.16374 36.772727 
L 192.21126 109.577543 
L 214.258781 161.538936 
L 236.306302 119.683601 
L 258.353822 134.301561 
L 280.401343 84.375952 
L 302.448864 141.595669 
" style="fill:none;stroke:#7d7d7d;stroke-linecap:square;stroke-opacity:0.5;stroke-width:1.5;"/>
   </g>
   <g id="line2d_63">
    <path clip-path="url(#p686de8e1d7)" d="M 59.926136 194.854265 
L 81.973657 173.314511 
L 104.021178 91.33237 
L 126.068698 91.741899 
L 148.116219 68.126967 
L 170.16374 77.668761 
L 192.21126 91.352847 
L 214.258781 130.002605 
L 236.306302 146.999794 
L 258.353822 113.658791 
L 280.401343 122.286687 
L 302.448864 204.980284 
" style="fill:none;stroke:#737373;stroke-linecap:square;stroke-opacity:0.5;stroke-width:1.5;"/>
   </g>
   <g id="line2d_64">
    <path clip-path="url(#p686de8e1d7)" d="M 59.926136 198.436603 
L 81.973657 187.528226 
L 104.021178 133.217093 
L 126.068698 54.45322 
L 148.116219 65.560845 
L 170.16374 57.420799 
L 192.21126 139.390318 
L 214.258781 144.033674 
L 236.306302 145.446577 
L 258.353822 128.123881 
L 280.401343 141.152256 
L 302.448864 215.112711 
" style="fill:none;stroke:#6a6a6a;stroke-linecap:square;stroke-opacity:0.5;stroke-width:1.5;"/>
   </g>
   <g id="line2d_65">
    <path clip-path="url(#p686de8e1d7)" d="M 59.926136 203.601733 
L 81.973657 200.701629 
L 104.021178 152.938392 
L 126.068698 116.903778 
L 148.116219 137.137806 
L 170.16374 170.734973 
L 192.21126 115.628782 
L 214.258781 140.80919 
L 236.306302 165.308535 
L 258.353822 166.68628 
L 280.401343 171.13829 
L 302.448864 191.58549 
" style="fill:none;stroke:#626262;stroke-linecap:square;stroke-opacity:0.5;stroke-width:1.5;"/>
   </g>
   <g id="line2d_66">
    <path clip-path="url(#p686de8e1d7)" d="M 59.926136 182.201168 
L 81.973657 212.947288 
L 104.021178 190.257419 
L 126.068698 135.584602 
L 148.116219 94.131688 
L 170.16374 114.022767 
L 192.21126 157.581394 
L 214.258781 160.79952 
L 236.306302 155.704565 
L 258.353822 175.70096 
L 280.401343 185.928404 
L 302.448864 185.625588 
" style="fill:none;stroke:#585858;stroke-linecap:square;stroke-opacity:0.5;stroke-width:1.5;"/>
   </g>
   <g id="line2d_67">
    <path clip-path="url(#p686de8e1d7)" d="M 59.926136 204.169062 
L 81.973657 185.866187 
L 104.021178 174.79564 
L 126.068698 129.648894 
L 148.116219 99.280017 
L 170.16374 75.639813 
L 192.21126 80.497481 
L 214.258781 111.818364 
L 236.306302 141.423565 
L 258.353822 160.151804 
L 280.401343 178.984505 
L 302.448864 209.471022 
" style="fill:none;stroke:#4e4e4e;stroke-linecap:square;stroke-opacity:0.5;stroke-width:1.5;"/>
   </g>
   <g id="line2d_68">
    <path clip-path="url(#p686de8e1d7)" d="M 59.926136 195.187499 
L 81.973657 189.349652 
L 104.021178 156.458428 
L 126.068698 106.565404 
L 148.116219 42.051469 
L 170.16374 103.73117 
L 192.21126 146.828194 
L 214.258781 136.824257 
L 236.306302 164.853027 
L 258.353822 175.201493 
L 280.401343 180.077014 
L 302.448864 202.175618 
" style="fill:none;stroke:#414141;stroke-linecap:square;stroke-opacity:0.5;stroke-width:1.5;"/>
   </g>
   <g id="line2d_69">
    <path clip-path="url(#p686de8e1d7)" d="M 59.926136 216.485662 
L 81.973657 209.870214 
L 104.021178 166.09035 
L 126.068698 118.313167 
L 148.116219 92.248262 
L 170.16374 120.234816 
L 192.21126 145.088121 
L 214.258781 171.28311 
L 236.306302 178.503593 
L 258.353822 165.915721 
L 280.401343 205.258299 
L 302.448864 205.211082 
" style="fill:none;stroke:#353535;stroke-linecap:square;stroke-opacity:0.5;stroke-width:1.5;"/>
   </g>
   <g id="line2d_70">
    <path clip-path="url(#p686de8e1d7)" d="M 59.926136 176.98861 
L 81.973657 182.52112 
L 104.021178 162.838725 
L 126.068698 125.989167 
L 148.116219 104.290332 
L 170.16374 117.363132 
L 192.21126 152.214907 
L 214.258781 184.463168 
L 236.306302 202.691202 
L 258.353822 146.466068 
L 280.401343 185.86408 
L 302.448864 187.928396 
" style="fill:none;stroke:#282828;stroke-linecap:square;stroke-opacity:0.5;stroke-width:1.5;"/>
   </g>
   <g id="line2d_71">
    <path clip-path="url(#p686de8e1d7)" d="M 59.926136 227.87031 
L 81.973657 210.453825 
L 104.021178 121.841477 
L 126.068698 139.306038 
L 148.116219 145.345127 
L 170.16374 133.074946 
L 192.21126 193.348584 
L 214.258781 175.867929 
L 236.306302 205.124942 
L 258.353822 206.723998 
L 280.401343 190.561761 
L 302.448864 187.045025 
" style="fill:none;stroke:#1d1d1d;stroke-linecap:square;stroke-opacity:0.5;stroke-width:1.5;"/>
   </g>
   <g id="line2d_72">
    <path clip-path="url(#p686de8e1d7)" d="M 59.926136 192.177337 
L 81.973657 191.212529 
L 104.021178 168.148158 
L 126.068698 124.992914 
L 148.116219 100.218341 
L 170.16374 105.474328 
L 192.21126 131.50853 
L 214.258781 139.31611 
L 236.306302 162.870585 
L 258.353822 165.893943 
L 280.401343 175.838259 
L 302.448864 187.653585 
" style="fill:none;stroke:#000000;stroke-dasharray:5.55,2.4;stroke-dashoffset:0;stroke-width:1.5;"/>
   </g>
   <g id="patch_7">
    <path d="M 47.8 246.2 
L 47.8 26.8 
" style="fill:none;stroke:#000000;stroke-linecap:square;stroke-linejoin:miter;stroke-width:0.8;"/>
   </g>
   <g id="patch_8">
    <path d="M 314.575 246.2 
L 314.575 26.8 
" style="fill:none;stroke:#000000;stroke-linecap:square;stroke-linejoin:miter;stroke-width:0.8;"/>
   </g>
   <g id="patch_9">
    <path d="M 47.8 246.2 
L 314.575 246.2 
" style="fill:none;stroke:#000000;stroke-linecap:square;stroke-linejoin:miter;stroke-width:0.8;"/>
   </g>
   <g id="patch_10">
    <path d="M 47.8 26.8 
L 314.575 26.8 
" style="fill:none;stroke:#000000;stroke-linecap:square;stroke-linejoin:miter;stroke-width:0.8;"/>
   </g>
  </g>
 </g>
 <defs>
  <clipPath id="p686de8e1d7">
   <rect height="219.4" width="266.775" x="47.8" y="26.8"/>
  </clipPath>
 </defs>
</svg>
